<svg width="23" height="23" viewBox="0 0 23 23" fill="none" xmlns="http://www.w3.org/2000/svg">
<path d="M11.3905 22.781C14.4114 22.781 17.3086 21.5809 19.4448 19.4448C21.5809 17.3086 22.781 14.4114 22.781 11.3905C22.781 8.36953 21.5809 5.47232 19.4448 3.33619C17.3086 1.20007 14.4114 0 11.3905 0C8.36953 0 5.47232 1.20007 3.33619 3.33619C1.20007 5.47232 0 8.36953 0 11.3905C0 14.4114 1.20007 17.3086 3.33619 19.4448C5.47232 21.5809 8.36953 22.781 11.3905 22.781ZM8.30704 5.72638C8.73863 5.6107 9.19247 5.82872 9.36155 6.24252L10.2514 8.37823C10.4027 8.74308 10.2959 9.16132 9.99336 9.41049L8.89881 10.3093C9.63741 11.8755 10.9055 13.1435 12.4717 13.8821L13.3705 12.7831C13.6196 12.4806 14.0379 12.3738 14.4027 12.5251L16.5384 13.415C16.9522 13.5885 17.1703 14.0379 17.0546 14.4695L16.5206 16.4272C16.4139 16.8188 16.0624 17.0857 15.6619 17.0857C10.158 17.0857 5.69524 12.623 5.69524 7.11905C5.69524 6.7186 5.9622 6.3671 6.3493 6.26031L8.30704 5.72638Z" fill="white"/>
</svg>
