<svg width="23" height="23" viewBox="0 0 23 23" fill="none" xmlns="http://www.w3.org/2000/svg">
<path d="M11.5067 0C5.21437 0 0.116211 5.09816 0.116211 11.3905C0.116211 17.6828 5.21437 22.781 11.5067 22.781C17.799 22.781 22.8972 17.6828 22.8972 11.3905C22.8972 5.09816 17.799 0 11.5067 0ZM17.1009 7.80339L15.2316 16.6126C15.0938 17.2373 14.7217 17.3888 14.2027 17.0949L11.3551 14.9959L9.98183 16.3187C9.83027 16.4703 9.70166 16.5989 9.40772 16.5989L9.60981 13.7007L14.8871 8.93326C15.1167 8.73117 14.8366 8.61634 14.5334 8.81843L8.01146 12.9245L5.20059 12.0473C4.58973 11.8544 4.57595 11.4364 5.32919 11.1425L16.3109 6.90777C16.8207 6.72406 17.2662 7.03178 17.1009 7.80339Z" fill="white"/>
</svg>
