<svg width="30" height="23" viewBox="0 0 30 23" fill="none" xmlns="http://www.w3.org/2000/svg">
<path d="M26.9238 22.5556C27.4805 23.0287 28.2598 23.1365 28.9219 22.8191C29.584 22.5017 30 21.825 30 21.0824V1.91924C30 1.17666 29.5781 0.499964 28.9219 0.182574C28.2656 -0.134816 27.4863 -0.0330119 26.9238 0.446067L16.875 9.00362V11.5008V13.998L26.9238 22.5556ZM15 17.2498V11.5008V3.83555V1.91924C15 1.17666 14.5781 0.499964 13.9219 0.182574C13.2656 -0.134816 12.4863 -0.0330119 11.9238 0.446067L0.673828 10.0276C0.246094 10.3929 0 10.9319 0 11.5008C0 12.0697 0.246094 12.6087 0.673828 12.974L11.9238 22.5556C12.4805 23.0287 13.2598 23.1365 13.9219 22.8191C14.584 22.5017 15 21.825 15 21.0824V17.2498Z" fill="#F1CE93"/>
</svg>
