<svg width="24" height="23" viewBox="0 0 24 23" fill="none" xmlns="http://www.w3.org/2000/svg">
<path d="M11.9019 0C5.66638 0 0.610953 5.0159 0.610953 11.2039C0.610953 13.3206 1.203 15.3002 2.23117 16.9891L0.193359 23L6.44464 21.0141C8.06223 21.9015 9.92262 22.4078 11.9019 22.4078C18.1382 22.4078 23.1934 17.3911 23.1934 11.2039C23.1934 5.0159 18.1382 0 11.9019 0ZM17.5165 15.4588C17.2508 16.1173 16.0495 16.7183 15.5194 16.746C14.9899 16.774 14.9748 17.1564 12.0879 15.9022C9.20135 14.6478 7.4647 11.5978 7.32778 11.4013C7.19075 11.2056 6.2096 9.8074 6.26254 8.40029C6.31583 6.99292 7.08638 6.32895 7.3614 6.0528C7.63612 5.77623 7.95109 5.72669 8.1434 5.72356C8.37073 5.71986 8.51797 5.71678 8.68621 5.723C8.8543 5.72936 9.10678 5.68783 9.32539 6.26919C9.54389 6.85051 10.0669 8.27928 10.1338 8.42488C10.2006 8.57063 10.242 8.73938 10.139 8.92652C10.0357 9.11406 9.98284 9.23121 9.83298 9.39283C9.6823 9.55445 9.51601 9.75436 9.3816 9.87794C9.23169 10.0148 9.07511 10.164 9.23272 10.4565C9.39023 10.7488 9.93365 11.7069 10.7616 12.4965C11.8256 13.5115 12.7431 13.8482 13.0255 14.0016C13.3086 14.1558 13.4776 14.1387 13.6532 13.9539C13.8279 13.7691 14.4047 13.1455 14.6079 12.8671C14.8109 12.5879 15.0012 12.6426 15.2621 12.7475C15.5228 12.8529 16.913 13.5975 17.1962 13.7513C17.479 13.9047 17.6681 13.9838 17.7357 14.1055C17.8034 14.2277 17.782 14.8002 17.5165 15.4588Z" fill="white"/>
</svg>
