<svg width="535" height="532" viewBox="0 0 535 532" fill="none" xmlns="http://www.w3.org/2000/svg">
<path opacity="0.1" d="M533.253 349.85V347.351C532.889 345.58 532.476 343.808 532.015 342.061V344.561C532.476 346.308 532.889 348.079 533.253 349.85ZM530.437 339.271V336.772C529.878 335.025 529.247 333.302 528.567 331.579V334.078C529.247 335.801 529.854 337.524 530.437 339.271ZM526.406 328.958V326.459C525.629 324.76 524.803 323.086 523.953 321.412V323.911C524.828 325.585 525.653 327.26 526.406 328.958ZM521.161 318.888V316.389C520.19 314.739 519.17 313.113 518.126 311.488V313.987C519.194 315.613 520.19 317.238 521.161 318.888ZM514.799 309.158V306.659C513.634 305.058 512.444 303.456 511.181 301.879V304.378C512.444 305.955 513.634 307.557 514.799 309.158ZM507.32 299.719V297.22C505.985 295.691 504.601 294.163 503.193 292.634V295.133C504.601 296.638 505.985 298.166 507.32 299.719ZM498.773 290.62V288.121C497.268 286.641 495.714 285.185 494.135 283.729V286.228C495.714 287.684 497.268 289.14 498.773 290.62ZM489.255 281.933V279.434C487.579 278.027 485.88 276.619 484.131 275.236V277.735C485.88 279.118 487.579 280.526 489.255 281.933ZM478.717 273.635V271.135C476.895 269.801 475.026 268.466 473.107 267.156V269.655C475.001 270.966 476.871 272.3 478.717 273.635ZM467.304 265.773V263.274C465.313 261.988 463.298 260.726 461.234 259.488V261.988C463.298 263.225 465.313 264.487 467.304 265.773ZM454.969 258.348V255.849C452.856 254.66 450.695 253.471 448.51 252.33V254.829C450.695 255.994 452.856 257.159 454.969 258.348ZM441.808 251.408V248.909C439.55 247.793 437.268 246.701 434.937 245.633V248.132C437.268 249.2 439.55 250.292 441.808 251.408ZM533.253 344.536V342.013C532.889 340.241 532.476 338.47 532.015 336.723V339.247C532.476 340.994 532.889 342.765 533.253 344.536ZM530.437 333.957V331.433C529.878 329.686 529.247 327.963 528.567 326.241V328.764C529.247 330.487 529.854 332.21 530.437 333.957ZM521.161 313.599V311.075C520.19 309.425 519.17 307.799 518.126 306.174V308.697C519.194 310.323 520.19 311.949 521.161 313.599ZM514.799 303.869V301.345C513.634 299.744 512.444 298.142 511.181 296.565V299.088C512.444 300.666 513.634 302.267 514.799 303.869ZM507.32 294.43V291.906C505.985 290.377 504.601 288.849 503.193 287.32V289.844C504.601 291.348 505.985 292.877 507.32 294.43ZM498.773 285.33V282.807C497.268 281.327 495.714 279.871 494.135 278.415V280.938C495.714 282.394 497.268 283.85 498.773 285.33ZM489.255 276.643V274.12C487.579 272.713 485.88 271.305 484.131 269.922V272.446C485.88 273.829 487.579 275.236 489.255 276.643ZM454.969 253.058V250.535C452.856 249.346 450.695 248.157 448.51 247.016V249.54C450.695 250.704 452.856 251.869 454.969 253.058ZM441.808 246.118V243.595C439.55 242.479 437.268 241.387 434.937 240.319V242.843C437.268 243.91 439.55 245.002 441.808 246.118ZM533.253 339.198V336.699C532.889 334.927 532.476 333.156 532.015 331.409V333.908C532.476 335.655 532.889 337.427 533.253 339.198ZM530.437 328.619V326.119C529.878 324.372 529.247 322.649 528.567 320.927V323.426C529.247 325.149 529.854 326.872 530.437 328.619ZM514.799 298.53V296.031C513.634 294.43 512.444 292.828 511.181 291.251V293.75C512.444 295.327 513.634 296.929 514.799 298.53ZM507.32 289.091V286.592C505.985 285.063 504.601 283.535 503.193 282.006V284.505C504.601 286.01 505.985 287.538 507.32 289.091ZM498.773 279.992V277.493C497.268 276.013 495.714 274.557 494.135 273.101V275.6C495.714 277.056 497.268 278.512 498.773 279.992ZM489.255 271.305V268.806C487.579 267.399 485.88 265.991 484.131 264.608V267.107C485.88 268.491 487.579 269.898 489.255 271.305ZM454.969 247.72V245.221C452.856 244.032 450.695 242.843 448.51 241.702V244.201C450.695 245.366 452.856 246.531 454.969 247.72ZM441.808 240.78V238.281C439.55 237.165 437.268 236.073 434.937 235.005V237.504C437.268 238.572 439.55 239.664 441.808 240.78ZM533.253 333.908V331.385C532.889 329.613 532.476 327.842 532.015 326.095V328.619C532.476 330.366 532.889 332.137 533.253 333.908ZM530.437 323.329V320.805C529.878 319.058 529.247 317.335 528.567 315.613V318.136C529.247 319.859 529.854 321.582 530.437 323.329ZM507.32 283.777V281.254C505.985 279.725 504.601 278.196 503.193 276.668V279.191C504.601 280.696 505.985 282.224 507.32 283.777ZM498.773 274.678V272.154C497.268 270.674 495.714 269.218 494.135 267.763V270.286C495.714 271.742 497.268 273.198 498.773 274.678ZM489.255 265.991V263.468C487.579 262.06 485.88 260.653 484.131 259.27V261.793C485.88 263.177 487.579 264.584 489.255 265.991ZM382.876 222.363V207.562C360.27 201.374 335.915 196.934 310.323 194.58V209.382C335.915 211.735 360.294 216.176 382.876 222.363ZM300.804 208.605V193.804C291.407 193.124 281.864 192.736 272.176 192.639C265.061 192.566 257.995 192.639 251.002 192.906V207.707C257.995 207.465 265.061 207.368 272.176 207.44C281.864 207.537 291.407 207.926 300.804 208.605ZM533.229 328.546V326.047C532.865 324.275 532.452 322.504 531.991 320.757V323.256C532.452 325.003 532.865 326.774 533.229 328.546ZM530.412 317.966V315.467C529.854 313.72 529.223 311.997 528.543 310.274V312.774C529.223 314.497 529.83 316.219 530.412 317.966ZM507.296 278.415V275.916C505.961 274.387 504.577 272.858 503.168 271.329V273.829C504.577 275.333 505.961 276.862 507.296 278.415ZM498.749 269.316V266.816C497.243 265.336 495.689 263.88 494.111 262.424V264.924C495.689 266.38 497.243 267.835 498.749 269.316ZM533.205 323.232V320.733C532.841 318.961 532.428 317.19 531.966 315.443V317.942C532.428 319.689 532.841 321.46 533.205 323.232ZM507.296 273.125V270.626C505.961 269.097 504.577 267.568 503.168 266.04V268.539C504.577 270.043 505.961 271.572 507.296 273.125ZM498.749 264.026V261.527C497.243 260.046 495.689 258.59 494.111 257.135V259.634C495.689 261.09 497.243 262.546 498.749 264.026ZM521.137 308.188V280.768C520.165 279.118 519.146 277.493 518.102 275.867V303.286C519.17 304.912 520.165 306.538 521.137 308.188ZM406.624 206.931V192.178C377.704 182.059 345.143 174.998 310.298 171.795V186.548C345.143 189.751 377.704 196.812 406.624 206.931ZM300.78 185.772V171.019C291.383 170.34 281.84 169.951 272.152 169.854C245.515 169.587 219.703 171.553 195.3 175.484V190.237C219.703 186.33 245.515 184.34 272.152 184.607C281.84 184.704 291.383 185.093 300.78 185.772ZM467.256 236.679V217.34C465.264 216.054 463.249 214.793 461.185 213.555V256.601C463.249 257.838 465.264 259.1 467.256 260.386V236.679ZM514.775 293.144V259.173C513.609 257.571 512.42 255.97 511.157 254.393V288.363C512.42 289.941 513.609 291.542 514.775 293.144ZM526.382 323.547V278.342C525.605 276.643 524.779 274.969 523.929 273.295V318.5C524.803 320.174 525.629 321.849 526.382 323.547ZM454.945 241.775V202.248C452.832 201.059 450.671 199.87 448.486 198.729V238.257C450.671 239.421 452.832 240.586 454.945 241.775ZM507.296 267.544V238.985C505.961 237.456 504.577 235.927 503.168 234.399V262.958C504.577 264.463 505.961 265.991 507.296 267.544ZM478.692 268.224V212.9C476.871 211.565 475.001 210.231 473.083 208.921V264.244C474.977 265.554 476.847 266.889 478.692 268.224ZM530.412 310.129V277.105C529.854 275.357 529.223 273.635 528.543 271.912V307.411C529.223 309.134 529.83 310.857 530.412 312.604V310.105V310.129ZM489.231 260.58V217.34C487.555 215.933 485.855 214.526 484.107 213.143V256.382C485.855 257.765 487.555 259.173 489.231 260.58ZM415.608 187.373V172.62C413.301 171.747 410.97 170.873 408.591 170.024V184.777C410.946 185.626 413.277 186.476 415.608 187.373ZM402.132 182.545V167.792C399.728 166.991 397.3 166.215 394.847 165.438V180.191C397.3 180.943 399.728 181.744 402.132 182.545ZM388.073 178.153V163.4C385.596 162.672 383.095 161.992 380.57 161.313V176.066C383.095 176.745 385.596 177.449 388.073 178.153ZM373.576 174.27V159.517C371.027 158.887 368.429 158.28 365.831 157.673V172.426C368.429 173.009 371.003 173.64 373.576 174.27ZM357.065 170.558V155.805C342.059 152.748 326.421 150.442 310.298 148.962V163.715C326.421 165.195 342.059 167.501 357.065 170.558ZM300.804 162.939V148.186C291.407 147.506 281.864 147.118 272.176 147.021C255.154 146.851 238.473 147.603 222.277 149.181V163.934C238.473 162.356 255.154 161.604 272.176 161.774C281.864 161.871 291.407 162.259 300.804 162.939ZM533.229 317.263V278.002C532.865 276.231 532.452 274.46 531.991 272.713V311.973C532.452 313.72 532.865 315.491 533.229 317.263ZM441.784 234.835V179.584C439.526 178.468 437.243 177.376 434.912 176.309V231.56C437.243 232.627 439.526 233.719 441.784 234.835ZM498.773 258.445V217.559C497.268 216.079 495.714 214.623 494.135 213.167V254.053C495.714 255.509 497.268 256.965 498.773 258.445ZM178.278 138.723C207.611 132.778 239.274 129.672 272.2 130.012C416.798 131.467 532.573 198.39 535.002 280.623V375.304C532.573 293.071 416.774 226.124 272.2 224.693C239.25 224.353 207.611 227.459 178.278 233.404V138.723Z" fill="#F1CE93"/>
<path d="M532.014 272.834C532.475 274.581 532.888 276.352 533.252 278.124V317.384C532.888 315.613 532.475 313.841 532.014 312.094V272.834Z" fill="#F1CE93"/>
<path d="M532.014 315.539C532.475 317.286 532.888 319.057 533.252 320.829V323.328C532.888 321.557 532.475 319.785 532.014 318.038V315.539Z" fill="#F1CE93"/>
<path d="M532.014 320.83C532.475 322.577 532.888 324.348 533.252 326.12V328.619C532.888 326.848 532.475 325.076 532.014 323.329V320.83Z" fill="#F1CE93"/>
<path d="M532.014 326.119C532.475 327.866 532.888 329.638 533.252 331.409V333.932C532.888 332.161 532.475 330.39 532.014 328.643V326.119Z" fill="#F1CE93"/>
<path d="M532.014 331.434C532.475 333.181 532.888 334.952 533.252 336.723V339.223C532.888 337.451 532.475 335.68 532.014 333.933V331.434Z" fill="#F1CE93"/>
<path d="M532.014 336.723C532.475 338.47 532.888 340.241 533.252 342.012V344.536C532.888 342.765 532.475 340.993 532.014 339.246V336.723Z" fill="#F1CE93"/>
<path d="M532.014 342.061C532.475 343.808 532.888 345.579 533.252 347.35V349.85C532.888 348.078 532.475 346.307 532.014 344.56V342.061Z" fill="#F1CE93"/>
<path d="M530.46 310.275V312.774C529.901 311.027 529.27 309.304 528.59 307.581V306.975C529.27 308.697 529.877 310.42 530.46 312.167V310.299V310.275Z" fill="#F1CE93"/>
<path d="M528.59 310.371C529.27 312.094 529.877 313.817 530.46 315.564V318.063C529.901 316.316 529.27 314.593 528.59 312.87V310.371Z" fill="#F1CE93"/>
<path d="M528.59 315.662C529.27 317.385 529.877 319.108 530.46 320.855V323.378C529.901 321.631 529.27 319.908 528.59 318.186V315.662Z" fill="#F1CE93"/>
<path d="M528.59 320.975C529.27 322.697 529.877 324.42 530.46 326.167V328.667C529.901 326.92 529.27 325.197 528.59 323.474V320.975Z" fill="#F1CE93"/>
<path d="M528.59 326.264C529.27 327.986 529.877 329.709 530.46 331.456V333.98C529.901 332.233 529.27 330.51 528.59 328.787V326.264Z" fill="#F1CE93"/>
<path d="M528.59 331.58C529.27 333.303 529.877 335.026 530.46 336.773V339.272C529.901 337.525 529.27 335.802 528.59 334.079V331.58Z" fill="#F1CE93"/>
<path d="M518.148 306.174C519.217 307.8 520.212 309.425 521.184 311.075V313.599C520.212 311.949 519.193 310.323 518.148 308.697V306.174Z" fill="#F1CE93"/>
<path d="M518.148 311.512C519.217 313.137 520.212 314.763 521.184 316.413V318.912C520.212 317.262 519.193 315.637 518.148 314.011V311.512Z" fill="#F1CE93"/>
<path d="M523.951 321.412C524.825 323.086 525.651 324.761 526.404 326.459V328.958C525.627 327.26 524.801 325.586 523.951 323.911V321.412Z" fill="#F1CE93"/>
<path d="M511.203 291.275C512.466 292.853 513.656 294.454 514.821 296.056V298.555C513.656 296.953 512.466 295.352 511.203 293.775V291.275Z" fill="#F1CE93"/>
<path d="M511.203 296.564C512.466 298.142 513.656 299.743 514.821 301.345V303.868C513.656 302.267 512.466 300.665 511.203 299.088V296.564Z" fill="#F1CE93"/>
<path d="M511.203 301.904C512.466 303.482 513.656 305.083 514.821 306.684V309.184C513.656 307.582 512.466 305.981 511.203 304.404V301.904Z" fill="#F1CE93"/>
<path d="M503.218 266.162C504.626 267.667 506.01 269.195 507.346 270.748V273.247C506.01 271.719 504.626 270.19 503.218 268.661V266.162Z" fill="#F1CE93"/>
<path d="M503.218 271.428C504.626 272.932 506.01 274.461 507.346 276.014V278.513C506.01 276.984 504.626 275.456 503.218 273.927V271.428Z" fill="#F1CE93"/>
<path d="M503.218 276.715C504.626 278.219 506.01 279.748 507.346 281.301V283.824C506.01 282.296 504.626 280.767 503.218 279.238V276.715Z" fill="#F1CE93"/>
<path d="M503.218 282.055C504.626 283.559 506.01 285.088 507.346 286.641V289.14C506.01 287.611 504.626 286.083 503.218 284.554V282.055Z" fill="#F1CE93"/>
<path d="M503.218 287.32C504.626 288.825 506.01 290.353 507.346 291.906V294.43C506.01 292.901 504.626 291.373 503.218 289.844V287.32Z" fill="#F1CE93"/>
<path d="M503.218 292.658C504.626 294.163 506.01 295.691 507.346 297.244V299.744C506.01 298.215 504.626 296.686 503.218 295.157V292.658Z" fill="#F1CE93"/>
<path d="M494.159 257.256C495.737 258.712 497.292 260.168 498.797 261.648V264.147C497.292 262.667 495.737 261.211 494.159 259.755V257.256Z" fill="#F1CE93"/>
<path d="M494.159 262.521C495.737 263.977 497.292 265.433 498.797 266.913V269.413C497.292 267.933 495.737 266.477 494.159 265.021V262.521Z" fill="#F1CE93"/>
<path d="M494.159 267.811C495.737 269.266 497.292 270.722 498.797 272.202V274.726C497.292 273.246 495.737 271.79 494.159 270.334V267.811Z" fill="#F1CE93"/>
<path d="M494.159 273.148C495.737 274.604 497.292 276.06 498.797 277.54V280.04C497.292 278.559 495.737 277.104 494.159 275.648V273.148Z" fill="#F1CE93"/>
<path d="M494.159 278.414C495.737 279.87 497.292 281.326 498.797 282.806V285.33C497.292 283.849 495.737 282.393 494.159 280.938V278.414Z" fill="#F1CE93"/>
<path d="M494.159 283.754C495.737 285.21 497.292 286.666 498.797 288.146V290.645C497.292 289.165 495.737 287.709 494.159 286.253V283.754Z" fill="#F1CE93"/>
<path d="M484.131 259.318C485.879 260.701 487.579 262.109 489.254 263.516V266.04C487.579 264.632 485.879 263.225 484.131 261.842V259.318Z" fill="#F1CE93"/>
<path d="M484.131 264.656C485.879 266.039 487.579 267.447 489.254 268.854V271.353C487.579 269.946 485.879 268.539 484.131 267.156V264.656Z" fill="#F1CE93"/>
<path d="M484.131 269.945C485.879 271.328 487.579 272.736 489.254 274.143V276.667C487.579 275.259 485.879 273.852 484.131 272.469V269.945Z" fill="#F1CE93"/>
<path d="M484.131 275.262C485.879 276.645 487.579 278.052 489.254 279.46V281.959C487.579 280.551 485.879 279.144 484.131 277.761V275.262Z" fill="#F1CE93"/>
<path d="M473.131 267.156C475.025 268.467 476.895 269.801 478.74 271.136V273.635C476.919 272.3 475.049 270.966 473.131 269.656V267.156Z" fill="#F1CE93"/>
<path d="M467.327 257.96V260.483C465.336 259.197 463.321 257.935 461.257 256.698V254.732C463.321 255.97 465.336 257.232 467.327 258.518V257.96Z" fill="#F1CE93"/>
<path d="M461.234 259.514C463.298 260.751 465.314 262.013 467.305 263.299V265.798C465.314 264.512 463.298 263.25 461.234 262.013V259.514Z" fill="#F1CE93"/>
<path d="M448.533 241.752C450.719 242.917 452.88 244.081 454.992 245.27V247.77C452.88 246.581 450.719 245.392 448.533 244.251V241.752Z" fill="#F1CE93"/>
<path d="M448.533 247.016C450.719 248.18 452.88 249.345 454.992 250.534V253.058C452.88 251.869 450.719 250.68 448.533 249.539V247.016Z" fill="#F1CE93"/>
<path d="M448.533 252.354C450.719 253.518 452.88 254.683 454.992 255.872V258.371C452.88 257.182 450.719 255.993 448.533 254.853V252.354Z" fill="#F1CE93"/>
<path d="M434.96 235.053C437.291 236.12 439.573 237.212 441.832 238.328V240.828C439.573 239.712 437.291 238.62 434.96 237.552V235.053Z" fill="#F1CE93"/>
<path d="M434.96 240.344C437.291 241.411 439.573 242.503 441.832 243.62V246.143C439.573 245.027 437.291 243.935 434.96 242.867V240.344Z" fill="#F1CE93"/>
<path d="M434.96 245.658C437.291 246.726 439.573 247.818 441.832 248.934V251.433C439.573 250.317 437.291 249.225 434.96 248.157V245.658Z" fill="#F1CE93"/>
<path d="M528.59 272.082C529.27 273.805 529.877 275.528 530.46 277.275V312.167C529.901 310.42 529.27 308.698 528.59 306.975V272.082Z" fill="#F1CE93"/>
<path d="M523.951 273.416C524.825 275.09 525.651 276.765 526.404 278.463V323.668C525.627 321.97 524.801 320.296 523.951 318.621V273.416Z" fill="#F1CE93"/>
<path d="M518.148 275.963C519.217 277.589 520.212 279.214 521.184 280.864V308.284C520.212 306.634 519.193 305.008 518.148 303.382V275.963Z" fill="#F1CE93"/>
<path d="M511.203 254.514C512.466 256.091 513.656 257.692 514.821 259.294V293.265C513.656 291.663 512.466 290.062 511.203 288.484V254.514Z" fill="#F1CE93"/>
<path d="M503.218 234.543C504.626 236.047 506.01 237.576 507.346 239.129V267.689C506.01 266.16 504.626 264.631 503.218 263.103V234.543Z" fill="#F1CE93"/>
<path d="M494.159 213.312C495.737 214.768 497.292 216.224 498.797 217.704V258.591C497.292 257.11 495.737 255.655 494.159 254.199V213.312Z" fill="#F1CE93"/>
<path d="M484.131 213.312C485.879 214.696 487.579 216.103 489.254 217.51V260.75C487.579 259.343 485.879 257.935 484.131 256.552V213.312Z" fill="#F1CE93"/>
<path d="M473.131 209.043C475.025 210.353 476.895 211.688 478.74 213.022V268.346C476.919 267.011 475.049 265.677 473.131 264.367V209.043Z" fill="#F1CE93"/>
<path d="M461.234 213.676C463.298 214.913 465.314 216.175 467.305 217.461V258.541C465.314 257.255 463.298 255.994 461.234 254.756V213.676Z" fill="#F1CE93"/>
<path d="M448.533 198.85C450.719 200.014 452.88 201.179 454.992 202.368V241.895C452.88 240.706 450.719 239.517 448.533 238.377V198.85Z" fill="#F1CE93"/>
<path d="M434.96 176.455C437.291 177.523 439.573 178.615 441.832 179.731V234.982C439.573 233.865 437.291 232.774 434.96 231.706V176.455Z" fill="#F1CE93"/>
<path opacity="0.46" d="M300.827 157.576V153.475C291.43 152.796 281.887 152.407 272.199 152.31C268.532 152.262 264.866 152.286 261.224 152.31V156.411C264.866 156.362 268.508 156.362 272.199 156.411C281.887 156.508 291.43 156.896 300.827 157.576ZM222.324 149.326C238.52 147.748 255.202 146.996 272.223 147.166C281.912 147.263 291.454 147.651 300.851 148.331V163.084C291.454 162.404 281.912 162.016 272.223 161.919C255.202 161.749 238.52 162.501 222.324 164.079V149.326Z" fill="#F1CE93"/>
<path opacity="0.46" d="M300.829 180.555V176.454C291.432 175.775 281.889 175.387 272.2 175.29C263.702 175.193 255.3 175.338 246.996 175.702V179.803C255.3 179.439 263.702 179.293 272.2 179.39C281.889 179.488 291.432 179.876 300.829 180.555ZM195.349 175.581C219.752 171.674 245.563 169.685 272.2 169.951C281.889 170.049 291.432 170.437 300.829 171.116V185.869C291.432 185.19 281.889 184.802 272.2 184.704C245.563 184.438 219.752 186.403 195.349 190.334V175.581Z" fill="#F1CE93"/>
<path opacity="0.46" d="M300.828 203.51V199.409C293.034 198.851 285.142 198.487 277.154 198.317V202.418C285.142 202.588 293.034 202.952 300.828 203.51ZM251.026 192.955C258.02 192.712 265.085 192.615 272.2 192.688C281.888 192.785 291.431 193.173 300.828 193.852V208.654C291.431 207.975 281.888 207.586 272.2 207.489C265.085 207.416 258.02 207.489 251.026 207.756V192.955Z" fill="#F1CE93"/>
<path d="M310.346 194.652C335.939 197.006 360.318 201.446 382.9 207.634V222.435C360.293 216.248 335.939 211.808 310.346 209.454V194.652Z" fill="#F1CE93"/>
<path d="M310.346 171.893C345.19 175.096 377.752 182.157 406.671 192.275V207.028C377.752 196.91 345.19 189.849 310.346 186.646V171.893Z" fill="#F1CE93"/>
<path d="M310.346 149.084C326.469 150.564 342.106 152.869 357.112 155.927V170.68C342.106 167.622 326.469 165.317 310.346 163.837V149.084Z" fill="#F1CE93"/>
<path d="M365.854 157.818C368.453 158.401 371.027 159.032 373.6 159.662V174.415C371.051 173.785 368.453 173.178 365.854 172.571V157.818Z" fill="#F1CE93"/>
<path d="M380.618 161.457C383.143 162.136 385.644 162.84 388.121 163.544V178.297C385.644 177.569 383.143 176.889 380.618 176.21V161.457Z" fill="#F1CE93"/>
<path d="M394.872 165.584C397.325 166.336 399.753 167.137 402.157 167.938V182.691C399.753 181.89 397.325 181.113 394.872 180.337V165.584Z" fill="#F1CE93"/>
<path d="M408.64 170.17C410.995 171.019 413.326 171.868 415.657 172.766V187.519C413.35 186.646 411.019 185.772 408.64 184.923V170.17Z" fill="#F1CE93"/>
<path d="M261.249 152.335C264.891 152.287 268.534 152.287 272.224 152.335C281.913 152.432 291.456 152.821 300.853 153.5V157.601C291.456 156.921 281.913 156.533 272.224 156.436C268.558 156.387 264.891 156.412 261.249 156.436V152.335Z" fill="#F1CE93"/>
<path d="M247.019 175.702C255.323 175.338 263.724 175.192 272.223 175.289C281.911 175.386 291.454 175.774 300.851 176.454V180.555C291.454 179.875 281.911 179.487 272.223 179.39C263.724 179.317 255.323 179.438 247.019 179.802V175.702Z" fill="#F1CE93"/>
<path d="M277.152 198.342C285.141 198.512 293.033 198.876 300.827 199.434V203.534C293.033 202.976 285.141 202.612 277.152 202.443V198.342Z" fill="#F1CE93"/>
<path opacity="0.1" d="M72.2879 225.833C78.504 221.659 79.8152 212.172 75.4931 211.201C70.5153 210.085 64.5177 220.494 67.383 225.299C68.33 226.9 70.224 227.094 72.2879 225.833ZM9.22818 281.569C11.9235 275.43 12.2634 265.554 10.3209 266.282C8.08693 267.107 5.90158 282.127 7.8684 283C8.08693 283.098 8.54829 283.025 9.22818 281.545V281.569ZM0.0253906 366.035C0.0253906 365.137 0.0253906 364.215 0.0739541 363.317C1.43373 318.791 35.7681 279.021 89.5279 251.529L90.1107 252.233L91.4705 250.534L92.806 248.86C76.78 229.569 72.9678 224.983 63.1822 242.867C58.6658 251.699 54.5379 255.266 50.9442 253.47C37.395 244.686 28.8155 245.6 25.2056 256.212C19.1999 276.595 15.3391 287.117 13.6232 287.781C10.4908 288.727 8.76682 289.261 6.63003 299.986C4.07235 315.855 2.42119 327.486 1.67655 334.879C1.6037 335.679 0.899534 342.595 0.413899 342.983L0.0253906 342.182V366.01L0.0253906 366.035ZM0.0253906 378.046V283.364C0.0253906 282.467 0.0253906 281.545 0.0739541 280.647C1.6037 230.419 45.0923 186.281 111.042 158.959V253.64C37.6378 286.543 0.29249 328.4 0.0253906 378.046Z" fill="#F1CE93"/>
<path opacity="0.37" d="M38.9005 278.78V274.679C37.9535 275.577 37.0065 276.475 36.0838 277.397V281.497C37.0065 280.575 37.9535 279.677 38.9005 278.78ZM38.9005 270.699V266.55C33.1457 271.961 27.9494 277.615 23.3844 283.463V287.612C27.9494 281.764 33.1457 276.135 38.9005 270.724V270.699ZM0.0253906 366.036V346.891L0.268208 347.522C0.850971 346.017 1.50658 340.752 1.94365 336.578C3.52196 322.068 4.68749 315.589 7.23707 301.394C8.88823 293.508 9.83522 293.193 12.9433 292.174C14.7725 291.268 19.3051 279.613 26.5411 257.208C29.2444 249.363 36.7799 249.46 49.1474 257.499C52.4011 259.101 57.7917 258.106 65.1734 244.178C72.4579 230.978 74.0605 232.919 89.528 251.53C35.7681 278.998 1.43373 318.768 0.0739541 363.294C0.0496724 364.216 0.0253906 365.114 0.0253906 366.012V366.036Z" fill="#F1CE93"/>
<path d="M0.0253906 346.865L0.268208 347.496C0.85097 345.992 1.50658 340.726 1.94365 336.553C3.52196 322.042 4.68749 315.564 7.23707 301.369C8.86395 293.628 9.71381 293.313 12.9433 292.148C14.7725 291.242 19.3051 279.587 26.5411 257.183C29.2444 249.337 36.7799 249.434 49.1474 257.474C52.4011 259.075 57.7917 258.08 65.1733 244.152C72.4579 230.952 74.0605 232.894 89.528 251.505L90.1107 252.208L91.4705 250.51L92.806 248.835C89.2123 244.492 84.4045 238.717 80.8108 234.349C79.9124 233.427 71.8266 225.954 61.7739 245.584C57.7269 253.041 49.285 252.491 36.448 243.934C29.1149 240.294 24.8171 256.018 18.8438 277.808C16.2699 286.81 14.6673 287.368 11.4621 288.436C9.13105 289.746 6.70287 291.129 1.77368 333.859C1.11807 340.338 0.729562 342.061 0.583871 342.716C0.413899 342.546 0.195363 342.352 0.0253906 342.182L0.0253906 346.865Z" fill="#F1CE93"/>
<path d="M9.22809 267.69C10.4179 265.36 11.0249 266.379 11.2678 267.204C12.6275 271.669 9.47091 283.729 7.86831 283.025C6.36285 282.346 7.30983 271.742 9.22809 267.69Z" fill="#F1CE93"/>
<path d="M72.288 211.954C76.9258 209.406 79.0868 213.41 77.5814 218.457C75.736 224.765 69.5198 228.915 67.3588 225.299C65.3191 221.902 68.0386 214.55 72.2637 211.954H72.288Z" fill="#F1CE93"/>
<path d="M23.3848 283.438C27.9497 277.59 33.146 271.961 38.9008 266.525V270.675C33.146 276.086 27.9497 281.739 23.3848 287.563V283.414V283.438Z" fill="#F1CE93"/>
<path d="M36.083 277.395C37.0057 276.473 37.9527 275.576 38.8997 274.678V278.778C37.9527 279.676 37.0057 280.574 36.083 281.496V277.395Z" fill="#F1CE93"/>
<path opacity="0.1" d="M30.9098 437.566V372.075C43.1964 385.397 58.8096 397.553 77.118 408.181V473.672C58.8096 463.044 43.1964 450.887 30.9098 437.566ZM15.9037 354.823V418.154C5.60824 401.872 0.0234375 384.305 0.0234375 366.033V342.205C0.120565 341.914 0.241973 341.55 0.314819 341.259C1.26181 337.255 2.25736 333.106 3.59286 331.723C4.17562 332.063 5.36542 332.766 7.5265 342.424C8.20639 345.457 8.76487 346.84 9.27479 347.98C9.95468 349.363 10.5132 349.994 11.1445 350.164L15.5152 350.528L16.3165 354.872H15.9037V354.823ZM108.66 501.358V406.677C42.6622 378.724 0.0234375 333.81 0.0234375 283.363V378.044C3.73855 430.675 37.2474 468.722 108.66 501.382V501.358Z" fill="#F1CE93"/>
<path opacity="0.37" d="M1.9417 374.841V370.741C3.76283 379.427 6.84661 387.871 11.0716 396.049V400.149C6.82233 391.972 3.73855 383.504 1.9417 374.841ZM1.9417 366.761V362.66C3.27719 369.066 5.31686 375.375 7.98785 381.514V385.615C5.29258 379.452 3.27719 373.167 1.9417 366.761ZM15.928 418.154V354.823L11.8487 354.507C11.0716 354.216 8.98341 353.44 6.96802 344.122C5.58396 337.74 4.75838 336.77 4.24846 336.188C3.59286 336.527 2.42733 338.468 0.509073 345.699L0.0234375 346.864V366.009C0.0234375 384.28 5.63252 401.848 15.9037 418.13L15.928 418.154Z" fill="#F1CE93"/>
<path d="M15.9046 354.823L11.8252 354.507C9.51845 353.973 7.91585 348.562 6.94458 344.122C4.46784 332.645 3.56942 334.076 0.485635 345.699C0.453259 345.828 0.291381 346.217 0 346.864V342.181L0.218536 341.525C0.218536 341.525 0.267099 341.428 0.267099 341.404C0.752735 338.226 0.922707 337.789 3.13235 332.159C4.51641 329.975 6.62892 338.541 7.23596 341.21C7.89157 344.025 8.76572 347.907 10.1741 349.484C10.514 349.873 12.2866 350.196 15.4918 350.455L16.2931 354.798H15.8803L15.9046 354.823Z" fill="#F1CE93"/>
<path opacity="0.1" d="M193.89 513.417V508.273C196.828 508.759 199.79 509.22 202.777 509.632V514.776C199.79 514.34 196.828 513.903 193.89 513.417ZM211.786 515.965V510.821C214.821 511.185 217.88 511.525 220.964 511.84V516.984C217.88 516.669 214.821 516.329 211.786 515.965ZM230.215 517.809V512.665C233.324 512.908 236.432 513.126 239.564 513.32V518.464C236.432 518.27 233.324 518.052 230.215 517.809ZM249.058 518.926V513.781C252.215 513.903 255.396 514 258.601 514.048V519.192C255.396 519.144 252.239 519.047 249.058 518.926ZM268.192 519.29V514.145C271.373 514.145 274.554 514.097 277.735 514.048V519.192C274.578 519.265 271.397 519.29 268.192 519.29ZM287.253 518.877V513.733C290.386 513.612 293.518 513.442 296.626 513.248V518.392C293.518 518.586 290.386 518.756 287.253 518.877ZM305.902 517.712V512.568C308.986 512.326 312.069 512.034 315.129 511.719V516.863C312.069 517.178 308.986 517.47 305.902 517.712ZM324.21 515.82V510.676C327.221 510.312 330.208 509.899 333.17 509.487V514.631C330.208 515.067 327.221 515.456 324.21 515.82ZM342.057 513.248V508.103C344.995 507.618 347.885 507.109 350.774 506.551V511.695C347.885 512.228 344.971 512.738 342.057 513.223V513.248ZM359.37 509.996V504.852C362.211 504.245 365.028 503.639 367.82 502.984V508.128C365.028 508.783 362.211 509.389 359.37 509.996ZM376.197 506.089V500.945C378.941 500.242 381.661 499.514 384.38 498.762V503.906C381.685 504.658 378.966 505.386 376.197 506.089ZM392.393 501.576V496.432C395.064 495.631 397.687 494.782 400.309 493.933V499.077C397.711 499.926 395.064 500.775 392.393 501.576ZM408.007 496.456V491.312C410.556 490.414 413.057 489.492 415.534 488.546V493.69C413.057 494.637 410.532 495.559 408.007 496.456ZM422.94 490.754V485.61C425.368 484.615 427.748 483.596 430.127 482.577V487.721C427.772 488.764 425.368 489.784 422.94 490.754ZM437.12 484.542V479.398C439.427 478.306 441.685 477.214 443.919 476.098V481.242C441.685 482.359 439.427 483.475 437.12 484.542ZM450.572 477.773V472.628C452.733 471.464 454.87 470.275 456.983 469.061V474.206C454.895 475.419 452.758 476.608 450.572 477.773ZM463.175 470.542V465.397C465.214 464.136 467.23 462.874 469.197 461.588V466.732C467.23 468.018 465.214 469.304 463.175 470.542ZM474.951 462.825V457.681C476.845 456.371 478.666 455.012 480.488 453.653V458.797C478.691 460.156 476.845 461.491 474.951 462.825ZM485.781 454.672V449.528C487.529 448.121 489.229 446.714 490.88 445.282V450.426C489.229 451.858 487.529 453.289 485.781 454.672ZM495.688 446.083V440.939C497.242 439.483 498.772 438.003 500.253 436.522V441.667C498.772 443.147 497.242 444.627 495.688 446.083ZM504.599 437.105V431.961C505.983 430.432 507.343 428.903 508.654 427.35V432.494C507.343 434.047 505.983 435.576 504.599 437.105ZM512.442 427.787V422.643C513.656 421.041 514.846 419.44 515.987 417.814V422.958C514.846 424.584 513.681 426.186 512.442 427.787ZM519.217 418.105V412.961C520.261 411.336 521.232 409.686 522.179 408.011V413.155C521.232 414.83 520.261 416.48 519.217 418.105ZM524.85 408.133V402.988C525.7 401.29 526.501 399.591 527.23 397.869V403.013C526.477 404.736 525.7 406.434 524.85 408.133ZM529.318 397.844V392.7C529.949 390.977 530.557 389.23 531.091 387.459V392.603C530.557 394.35 529.974 396.097 529.318 397.844ZM532.548 387.289V382.145C532.985 380.374 533.349 378.578 533.689 376.783V381.927C533.373 383.722 532.985 385.518 532.548 387.289ZM193.963 504.148V499.004C196.901 499.489 199.863 499.951 202.85 500.363V505.507C199.863 505.07 196.901 504.634 193.963 504.148ZM211.858 506.696V501.552C214.894 501.916 217.953 502.256 221.037 502.571V507.715C217.953 507.4 214.894 507.06 211.858 506.696ZM230.288 508.54V503.396C233.396 503.639 236.504 503.857 239.637 504.051V509.195C236.504 509.001 233.396 508.783 230.288 508.54ZM249.131 509.656V504.512C252.288 504.634 255.468 504.731 258.674 504.779V509.923C255.468 509.875 252.312 509.778 249.131 509.656ZM268.265 510.02V504.876C271.446 504.876 274.627 504.828 277.808 504.779V509.923C274.651 509.996 271.47 510.02 268.265 510.02ZM287.326 509.608V504.464C290.459 504.342 293.591 504.173 296.699 503.978V509.123C293.591 509.317 290.459 509.487 287.326 509.608ZM305.975 508.443V503.299C309.058 503.056 312.142 502.765 315.202 502.45V507.594C312.142 507.909 309.058 508.201 305.975 508.443ZM324.283 506.551V501.406C327.294 501.042 330.281 500.63 333.243 500.217V505.362C330.281 505.798 327.294 506.187 324.283 506.551ZM342.13 503.978V498.834C345.068 498.349 347.958 497.839 350.847 497.306V502.45C347.958 502.984 345.044 503.493 342.13 504.003V503.978ZM359.443 500.727V495.583C362.284 494.976 365.101 494.37 367.893 493.714V498.859C365.101 499.514 362.284 500.12 359.443 500.727ZM376.27 496.82V491.676C379.014 490.973 381.734 490.245 384.453 489.492V494.637C381.758 495.389 379.038 496.117 376.27 496.82ZM392.466 492.307V487.163C395.137 486.362 397.76 485.513 400.382 484.664V489.808C397.784 490.657 395.137 491.506 392.466 492.307ZM408.079 487.187V482.043C410.629 481.145 413.13 480.223 415.607 479.277V484.421C413.13 485.367 410.605 486.289 408.079 487.187ZM423.013 481.485V476.341C425.441 475.346 427.82 474.327 430.2 473.308V478.452C427.845 479.495 425.441 480.514 423.013 481.485ZM437.193 475.273V470.129C439.5 469.037 441.758 467.945 443.992 466.829V471.973C441.758 473.089 439.5 474.206 437.193 475.273ZM450.645 468.503V463.359C452.806 462.195 454.943 461.006 457.056 459.792V464.936C454.967 466.15 452.831 467.339 450.645 468.503ZM463.247 461.272V456.128C465.287 454.867 467.303 453.605 469.269 452.319V457.463C467.303 458.749 465.287 460.035 463.247 461.272ZM475.024 453.556V448.412C476.918 447.102 478.739 445.743 480.56 444.384V449.528C478.764 450.887 476.918 452.222 475.024 453.556ZM485.854 445.403V440.259C487.602 438.852 489.302 437.444 490.953 436.013V441.157C489.302 442.589 487.602 444.02 485.854 445.403ZM495.761 436.814V431.669C497.315 430.214 498.845 428.733 500.326 427.253V432.397C498.845 433.878 497.315 435.358 495.761 436.814ZM504.672 427.836V422.691C506.056 421.163 507.416 419.634 508.727 418.081V423.225C507.416 424.778 506.056 426.307 504.672 427.836ZM512.515 418.518V413.374C513.729 411.772 514.919 410.171 516.06 408.545V413.689C514.919 415.315 513.754 416.916 512.515 418.518ZM519.29 408.836V403.692C520.334 402.066 521.305 400.416 522.252 398.742V403.886C521.305 405.561 520.334 407.211 519.29 408.836ZM524.923 398.863V393.719C525.773 392.021 526.574 390.322 527.303 388.6V393.744C526.55 395.466 525.773 397.165 524.923 398.863ZM529.391 388.575V383.431C530.022 381.708 530.629 379.961 531.164 378.19V383.334C530.629 385.081 530.047 386.828 529.391 388.575ZM532.62 378.02V372.876C533.058 371.105 533.422 369.309 533.762 367.513V372.658C533.446 374.453 533.058 376.249 532.62 378.02ZM194.036 494.879V489.735C196.974 490.22 199.936 490.681 202.923 491.094V496.238C199.936 495.801 196.974 495.364 194.036 494.879ZM211.931 497.427V492.283C214.967 492.647 218.026 492.987 221.11 493.302V498.446C218.026 498.131 214.967 497.791 211.931 497.427ZM230.361 499.271V494.127C233.469 494.37 236.577 494.588 239.71 494.782V499.926C236.577 499.732 233.469 499.514 230.361 499.271ZM249.204 500.387V495.243C252.36 495.364 255.541 495.462 258.747 495.51V500.654C255.541 500.606 252.385 500.509 249.204 500.387ZM268.338 500.751V495.607C271.519 495.607 274.7 495.559 277.881 495.51V500.654C274.724 500.727 271.543 500.751 268.338 500.751ZM287.399 500.339V495.195C290.531 495.073 293.664 494.903 296.772 494.709V499.853C293.664 500.048 290.531 500.217 287.399 500.339ZM306.047 499.174V494.03C309.131 493.787 312.215 493.496 315.274 493.181V498.325C312.215 498.64 309.131 498.931 306.047 499.174ZM324.356 497.281V492.137C327.367 491.773 330.353 491.361 333.316 490.948V496.092C330.353 496.529 327.367 496.917 324.356 497.281ZM342.203 494.709V489.565C345.141 489.08 348.031 488.57 350.92 488.012V493.156C348.031 493.69 345.117 494.2 342.203 494.685V494.709ZM359.516 491.458V486.314C362.357 485.707 365.173 485.1 367.966 484.445V489.589C365.173 490.245 362.357 490.851 359.516 491.458ZM376.343 487.551V482.407C379.087 481.703 381.807 480.975 384.526 480.223V485.367C381.831 486.12 379.111 486.848 376.343 487.551ZM392.539 483.038V477.894C395.21 477.093 397.832 476.244 400.455 475.395V480.539C397.857 481.388 395.21 482.237 392.539 483.038ZM408.152 477.918V472.774C410.702 471.876 413.203 470.954 415.68 470.008V475.152C413.203 476.098 410.678 477.02 408.152 477.918ZM423.085 472.216V467.072C425.514 466.077 427.893 465.058 430.273 464.039V469.183C427.918 470.226 425.514 471.245 423.085 472.216ZM437.266 466.004V460.86C439.573 459.768 441.831 458.676 444.065 457.56V462.704C441.831 463.82 439.573 464.936 437.266 466.004ZM450.718 459.234V454.09C452.879 452.925 455.016 451.736 457.129 450.523V455.667C455.04 456.881 452.903 458.07 450.718 459.234ZM463.32 452.003V446.859C465.36 445.597 467.375 444.336 469.342 443.05V448.194C467.375 449.48 465.36 450.766 463.32 452.003ZM475.097 444.287V439.143C476.991 437.833 478.812 436.474 480.633 435.115V440.259C478.836 441.618 476.991 442.953 475.097 444.287ZM485.927 436.134V430.99C487.675 429.583 489.375 428.175 491.026 426.744V431.888C489.375 433.319 487.675 434.751 485.927 436.134ZM495.834 427.544V422.4C497.388 420.944 498.917 419.464 500.399 417.984V423.128C498.917 424.608 497.388 426.089 495.834 427.544ZM504.745 418.566V413.422C506.129 411.894 507.489 410.365 508.8 408.812V413.956C507.489 415.509 506.129 417.038 504.745 418.566ZM512.588 409.249V404.105C513.802 402.503 514.992 400.902 516.133 399.276V404.42C514.992 406.046 513.826 407.647 512.588 409.249ZM519.363 399.567V394.423C520.407 392.797 521.378 391.147 522.325 389.473V394.617C521.378 396.291 520.407 397.941 519.363 399.567ZM524.996 389.594V384.45C525.846 382.752 526.647 381.053 527.376 379.33V384.474C526.623 386.197 525.846 387.896 524.996 389.594ZM529.464 379.306V374.162C530.095 372.439 530.702 370.692 531.236 368.921V374.065C530.702 375.812 530.119 377.559 529.464 379.306ZM532.693 368.751V363.607C533.13 361.835 533.495 360.04 533.835 358.244V363.388C533.519 365.184 533.13 366.98 532.693 368.751ZM342.252 485.149V473.089C345.19 472.604 348.079 472.095 350.969 471.561V483.62C348.079 484.154 345.165 484.664 342.252 485.149ZM512.904 399.3V387.241C514.118 385.663 515.283 384.062 516.4 382.436V394.496C515.283 396.097 514.118 397.699 512.904 399.3ZM437.29 456.444V443.122C439.597 442.031 441.855 440.939 444.089 439.822V453.144C441.855 454.26 439.597 455.376 437.29 456.444ZM451.228 449.407V436.086C453.389 434.921 455.526 433.732 457.614 432.519V445.84C455.526 447.053 453.389 448.242 451.228 449.407ZM324.404 487.721V472.264C327.415 471.9 330.402 471.488 333.364 471.075V486.532C330.402 486.969 327.415 487.357 324.404 487.721ZM519.63 389.619V374.162C520.65 372.512 521.645 370.862 522.568 369.212V384.669C521.645 386.343 520.65 387.993 519.63 389.619ZM359.564 481.873V465.373C362.405 464.767 365.222 464.16 368.014 463.505V480.005C365.222 480.66 362.405 481.267 359.564 481.873ZM505.085 408.642V392.142C506.469 390.613 507.829 389.085 509.116 387.508V404.008C507.805 405.561 506.469 407.114 505.085 408.642ZM423.134 462.631V444.651C425.562 443.656 427.942 442.637 430.321 441.618V459.598C427.966 460.642 425.562 461.661 423.134 462.631ZM463.83 442.103V424.123C465.846 422.886 467.837 421.6 469.779 420.314V438.294C467.837 439.58 465.846 440.842 463.83 442.103ZM306.096 489.565V469.207C309.18 468.964 312.264 468.673 315.323 468.358V488.716C312.264 489.031 309.18 489.323 306.096 489.565ZM525.215 379.573V359.215C526.04 357.516 526.841 355.818 527.57 354.119V374.477C526.841 376.2 526.064 377.899 525.215 379.573ZM194.109 485.246V462.364C197.047 462.85 200.009 463.311 202.996 463.723V486.605C200.009 486.168 197.047 485.731 194.109 485.246ZM376.392 477.967V453.993C379.135 453.289 381.855 452.561 384.575 451.809V475.783C381.879 476.535 379.16 477.263 376.392 477.967ZM496.222 417.62V393.647C497.8 392.166 499.306 390.686 500.811 389.182V413.155C499.33 414.66 497.8 416.14 496.222 417.62ZM408.201 468.309V443.025C410.75 442.128 413.251 441.205 415.728 440.259V465.543C413.251 466.489 410.726 467.411 408.201 468.309ZM475.534 434.363V409.079C477.428 407.744 479.273 406.386 481.07 405.027V430.311C479.249 431.669 477.404 433.028 475.534 434.363ZM287.472 490.706V464.451C290.604 464.33 293.737 464.16 296.845 463.966V490.22C293.737 490.414 290.604 490.584 287.472 490.706ZM529.61 369.285V343.03C530.241 341.283 530.824 339.536 531.358 337.765V364.019C530.824 365.791 530.241 367.538 529.61 369.285ZM212.004 487.77V456.42C215.039 456.783 218.099 457.123 221.183 457.439V488.789C218.099 488.473 215.039 488.134 212.004 487.77ZM268.411 491.094V459.744C271.592 459.744 274.772 459.695 277.953 459.647V490.997C274.797 491.07 271.616 491.094 268.411 491.094ZM392.588 473.405V442.055C395.259 441.254 397.881 440.405 400.503 439.556V470.906C397.905 471.755 395.259 472.604 392.588 473.405ZM486.364 426.161V394.811C488.088 393.404 489.763 391.997 491.414 390.565V421.915C489.763 423.347 488.088 424.754 486.364 426.161ZM532.79 358.681V327.331C533.203 325.56 533.592 323.764 533.907 321.968V353.319C533.592 355.114 533.228 356.91 532.79 358.681ZM249.277 490.73V453.605C252.433 453.726 255.614 453.823 258.819 453.872V490.997C255.614 490.948 252.458 490.851 249.277 490.73ZM230.434 489.614V448.873C233.542 449.116 236.65 449.334 239.782 449.528V490.269C236.65 490.075 233.542 489.856 230.434 489.614ZM535.17 287.318C531.236 371.299 409.949 437.954 263.069 436.498C232.425 436.183 203.093 432.955 175.849 427.229V521.91C203.093 527.612 232.449 530.864 263.069 531.179C409.949 532.659 531.236 466.004 535.17 381.999V287.318Z" fill="#F1CE93"/>
<path d="M7.98854 381.514C5.29327 375.351 3.27788 369.066 1.94238 362.66V366.761C3.27788 373.167 5.31755 379.476 7.98854 385.615V381.514Z" fill="#F1CE93"/>
<path d="M11.0723 396.048C6.82302 387.871 3.73923 379.403 1.94238 370.74V374.841C3.76351 383.528 6.8473 391.972 11.0723 400.149V396.048Z" fill="#F1CE93"/>
<path opacity="0.37" d="M36.3731 433.806V427.133C37.7329 428.468 39.0927 429.778 40.5253 431.064V437.737C39.1169 436.451 37.7329 435.116 36.3731 433.806ZM44.8717 441.595V434.922C46.3529 436.184 47.8584 437.446 49.4124 438.708V445.38C47.8584 444.143 46.3529 442.881 44.8717 441.595ZM54.1474 449.069V442.396C55.7499 443.609 57.4011 444.822 59.0523 446.011V452.684C57.3768 451.495 55.7499 450.282 54.1474 449.069ZM64.1514 456.202V449.53C65.8754 450.694 67.648 451.835 69.4206 452.951V459.624C67.6237 458.483 65.8754 457.343 64.1514 456.202ZM36.3974 420.46V413.788C37.7572 415.122 39.1169 416.432 40.5496 417.719V424.391C39.1412 423.105 37.7572 421.771 36.3974 420.46ZM44.896 428.249V421.577C46.3772 422.838 47.8827 424.1 49.4367 425.362V432.035C47.8827 430.797 46.3772 429.535 44.896 428.249ZM54.1716 435.723V429.05C55.7742 430.263 57.4254 431.477 59.0765 432.666V439.338C57.4011 438.149 55.7742 436.936 54.1716 435.723ZM64.1757 442.857V436.184C65.8997 437.349 67.6723 438.489 69.4449 439.605V446.278C67.648 445.138 65.8997 443.997 64.1757 442.857ZM36.4217 407.115V400.442C37.7814 401.777 39.1412 403.087 40.5738 404.373V411.046C39.1655 409.76 37.7814 408.425 36.4217 407.115ZM44.9203 414.904V408.231C46.4015 409.493 47.9069 410.755 49.461 412.016V418.689C47.9069 417.452 46.4015 416.19 44.9203 414.904ZM54.1959 422.377V415.705C55.7985 416.918 57.4497 418.131 59.1008 419.32V425.993C57.4254 424.804 55.7985 423.591 54.1959 422.377ZM64.2 429.511V422.838C65.924 424.003 67.6966 425.144 69.4691 426.26V432.932C67.6723 431.792 65.924 430.652 64.2 429.511ZM36.4459 393.769V387.096C37.8057 388.431 39.1655 389.741 40.5981 391.027V397.7C39.1898 396.414 37.8057 395.079 36.4459 393.769ZM44.9446 401.558V394.885C46.4258 396.147 47.9312 397.409 49.4853 398.671V405.343C47.9312 404.106 46.4258 402.844 44.9446 401.558ZM54.2202 409.032V402.359C55.8228 403.572 57.474 404.785 59.1251 405.974V412.647C57.4497 411.458 55.8228 410.245 54.2202 409.032ZM64.2243 416.166V409.493C65.9483 410.657 67.7209 411.798 69.4934 412.914V419.587C67.6966 418.446 65.9483 417.306 64.2243 416.166ZM77.215 408.231C58.9066 397.603 43.2934 385.446 31.0068 372.125V437.616C43.2934 450.937 58.9066 463.094 77.215 473.722V408.231Z" fill="#F1CE93"/>
<path opacity="0.56" d="M40.5272 390.954C39.1188 389.668 37.7348 388.334 36.375 387.023V393.696C37.7348 395.031 39.0946 396.341 40.5272 397.627V390.954Z" fill="#F1CE93"/>
<path d="M49.3893 398.598C47.8353 397.36 46.3298 396.099 44.8486 394.812V401.485C46.3298 402.747 47.8353 404.009 49.3893 405.271V398.598Z" fill="#F1CE93"/>
<path opacity="0.56" d="M59.0533 405.901C57.3779 404.712 55.751 403.498 54.1484 402.285V408.958C55.751 410.171 57.4022 411.384 59.0533 412.573V405.901Z" fill="#F1CE93"/>
<path opacity="0.56" d="M69.4215 412.841C67.6246 411.701 65.8763 410.56 64.1523 409.42V416.093C65.8763 417.257 67.6489 418.398 69.4215 419.514V412.841Z" fill="#F1CE93"/>
<path opacity="0.56" d="M40.5272 404.323C39.1188 403.037 37.7348 401.703 36.375 400.393V407.065C37.7348 408.4 39.0946 409.71 40.5272 410.996V404.323Z" fill="#F1CE93"/>
<path d="M49.3893 411.967C47.8353 410.729 46.3298 409.468 44.8486 408.182V414.854C46.3298 416.116 47.8353 417.378 49.3893 418.64V411.967Z" fill="#F1CE93"/>
<path opacity="0.56" d="M59.0533 419.27C57.3779 418.081 55.751 416.868 54.1484 415.654V422.327C55.751 423.54 57.4022 424.754 59.0533 425.943V419.27Z" fill="#F1CE93"/>
<path opacity="0.56" d="M69.4215 426.21C67.6246 425.07 65.8763 423.93 64.1523 422.789V429.462C65.8763 430.627 67.6489 431.767 69.4215 432.883V426.21Z" fill="#F1CE93"/>
<path d="M40.5272 417.695C39.1188 416.409 37.7348 415.074 36.375 413.764V420.436C37.7348 421.771 39.0946 423.081 40.5272 424.367V417.695Z" fill="#F1CE93"/>
<path opacity="0.56" d="M49.3893 425.313C47.8353 424.075 46.3298 422.813 44.8486 421.527V428.2C46.3298 429.462 47.8353 430.724 49.3893 431.985V425.313Z" fill="#F1CE93"/>
<path opacity="0.56" d="M59.0533 432.615C57.3779 431.426 55.751 430.213 54.1484 429V435.673C55.751 436.886 57.4022 438.099 59.0533 439.288V432.615Z" fill="#F1CE93"/>
<path d="M69.4215 439.581C67.6246 438.441 65.8763 437.301 64.1523 436.16V442.833C65.8763 443.998 67.6489 445.138 69.4215 446.254V439.581Z" fill="#F1CE93"/>
<path opacity="0.56" d="M40.5272 431.064C39.1188 429.778 37.7348 428.443 36.375 427.133V433.806C37.7348 435.14 39.0946 436.451 40.5272 437.737V431.064Z" fill="#F1CE93"/>
<path d="M49.3893 438.684C47.8353 437.446 46.3298 436.184 44.8486 434.898V441.571C46.3298 442.833 47.8353 444.095 49.3893 445.357V438.684Z" fill="#F1CE93"/>
<path opacity="0.56" d="M59.0533 445.985C57.3779 444.796 55.751 443.582 54.1484 442.369V449.042C55.751 450.255 57.4022 451.468 59.0533 452.657V445.985Z" fill="#F1CE93"/>
<path opacity="0.56" d="M69.4215 452.925C67.6246 451.785 65.8763 450.644 64.1523 449.504V456.177C65.8763 457.341 67.6489 458.482 69.4215 459.598V452.925Z" fill="#F1CE93"/>
<path d="M202.803 463.822C199.816 463.385 196.854 462.948 193.916 462.463V485.345C196.854 485.83 199.816 486.291 202.803 486.703V463.822Z" fill="#F1CE93"/>
<path d="M220.99 457.56C217.906 457.245 214.847 456.905 211.812 456.541V487.891C214.847 488.255 217.906 488.595 220.99 488.91V457.56Z" fill="#F1CE93"/>
<path d="M239.563 449.649C236.431 449.455 233.323 449.237 230.215 448.994V489.735C233.323 489.977 236.431 490.196 239.563 490.39V449.649Z" fill="#F1CE93"/>
<path d="M258.601 454.042C255.396 453.97 252.24 453.897 249.059 453.775V490.9C252.215 491.022 255.396 491.119 258.601 491.167V454.042Z" fill="#F1CE93"/>
<path d="M277.735 459.77C274.578 459.842 271.398 459.867 268.192 459.867V491.217C271.373 491.217 274.554 491.168 277.735 491.12V459.77Z" fill="#F1CE93"/>
<path opacity="0.91" d="M296.626 464.088C293.518 464.282 290.385 464.452 287.253 464.573V490.828C290.385 490.706 293.518 490.536 296.626 490.342V464.088Z" fill="#F1CE93"/>
<path opacity="0.91" d="M315.13 468.479C312.071 468.794 308.987 469.085 305.903 469.328V489.686C308.987 489.443 312.071 489.152 315.13 488.837V468.479Z" fill="#F1CE93"/>
<path opacity="0.73" d="M333.145 471.125C330.182 471.562 327.196 471.95 324.185 472.314V487.771C327.196 487.407 330.182 486.994 333.145 486.582V471.125Z" fill="#F1CE93"/>
<path opacity="0.73" d="M350.775 471.609C347.885 472.143 344.971 472.653 342.058 473.138V485.198C344.996 484.712 347.885 484.203 350.775 483.669V471.609Z" fill="#F1CE93"/>
<path opacity="0.55" d="M367.82 463.602C365.028 464.257 362.211 464.863 359.37 465.47V481.97C362.211 481.363 365.028 480.757 367.82 480.102V463.602Z" fill="#F1CE93"/>
<path opacity="0.55" d="M384.356 451.906C381.661 452.658 378.941 453.386 376.173 454.09V478.064C378.917 477.36 381.636 476.632 384.356 475.88V451.906Z" fill="#F1CE93"/>
<path opacity="0.37" d="M400.284 439.701C397.686 440.55 395.039 441.4 392.368 442.2V473.551C395.039 472.75 397.662 471.901 400.284 471.051V439.701Z" fill="#F1CE93"/>
<path opacity="0.37" d="M415.508 440.381C413.031 441.327 410.506 442.249 407.98 443.147V468.431C410.53 467.533 413.031 466.611 415.508 465.665V440.381Z" fill="#F1CE93"/>
<path opacity="0.19" d="M430.102 441.691C427.747 442.735 425.343 443.754 422.915 444.725V462.705C425.343 461.71 427.723 460.691 430.102 459.672V441.691Z" fill="#F1CE93"/>
<path opacity="0.19" d="M443.895 439.895C441.661 441.011 439.402 442.127 437.096 443.195V456.516C439.402 455.424 441.661 454.332 443.895 453.216V439.895Z" fill="#F1CE93"/>
<path d="M533.689 322.115C533.374 323.911 533.009 325.706 532.572 327.478V358.828C532.985 357.057 533.374 355.261 533.689 353.465V322.115Z" fill="#F1CE93"/>
<path opacity="0.91" d="M531.164 337.887C530.63 339.658 530.047 341.405 529.416 343.152V369.407C530.047 367.66 530.63 365.913 531.164 364.141V337.887Z" fill="#F1CE93"/>
<path opacity="0.91" d="M527.351 354.217C526.623 355.94 525.846 357.638 524.996 359.312V379.671C525.822 377.972 526.623 376.273 527.351 374.575V354.217Z" fill="#F1CE93"/>
<path opacity="0.73" d="M522.349 369.285C521.427 370.959 520.431 372.609 519.411 374.235V389.692C520.431 388.042 521.427 386.392 522.349 384.742V369.285Z" fill="#F1CE93"/>
<path opacity="0.73" d="M516.208 382.533C515.091 384.135 513.925 385.736 512.711 387.338V399.397C513.925 397.82 515.091 396.219 516.208 394.593V382.533Z" fill="#F1CE93"/>
<path opacity="0.55" d="M508.921 387.605C507.61 389.158 506.275 390.711 504.891 392.24V408.74C506.275 407.211 507.634 405.683 508.921 404.106V387.605Z" fill="#F1CE93"/>
<path opacity="0.55" d="M500.569 389.279C499.088 390.784 497.558 392.264 495.979 393.744V417.718C497.558 416.237 499.063 414.757 500.569 413.253V389.279Z" fill="#F1CE93"/>
<path opacity="0.37" d="M491.196 390.711C489.545 392.143 487.87 393.55 486.146 394.957V426.307C487.87 424.9 489.545 423.493 491.196 422.061V390.711Z" fill="#F1CE93"/>
<path opacity="0.37" d="M480.876 405.148C479.055 406.507 477.21 407.866 475.34 409.201V434.485C477.234 433.15 479.079 431.791 480.876 430.432V405.148Z" fill="#F1CE93"/>
<path opacity="0.19" d="M469.586 420.41C467.643 421.696 465.652 422.958 463.637 424.22V442.2C465.652 440.962 467.643 439.676 469.586 438.39V420.41Z" fill="#F1CE93"/>
<path opacity="0.19" d="M457.42 432.592C455.332 433.805 453.195 434.994 451.034 436.159V449.48C453.195 448.315 455.332 447.126 457.42 445.913V432.592Z" fill="#F1CE93"/>
<path opacity="0.19" d="M202.803 491.119C199.816 490.682 196.854 490.245 193.916 489.76V494.904C196.854 495.389 199.816 495.85 202.803 496.263V491.119Z" fill="#F1CE93"/>
<path opacity="0.19" d="M239.563 494.807C236.431 494.613 233.323 494.395 230.215 494.152V499.296C233.323 499.539 236.431 499.758 239.563 499.952V494.807Z" fill="#F1CE93"/>
<path opacity="0.19" d="M258.601 495.558C255.396 495.485 252.24 495.412 249.059 495.291V500.435C252.215 500.556 255.396 500.654 258.601 500.702V495.558Z" fill="#F1CE93"/>
<path opacity="0.19" d="M277.735 495.535C274.578 495.608 271.398 495.632 268.192 495.632V500.776C271.373 500.776 274.554 500.728 277.735 500.679V495.535Z" fill="#F1CE93"/>
<path opacity="0.19" d="M296.626 494.758C293.518 494.952 290.385 495.122 287.253 495.243V500.387C290.385 500.266 293.518 500.096 296.626 499.902V494.758Z" fill="#F1CE93"/>
<path opacity="0.19" d="M333.145 490.996C330.182 491.433 327.196 491.821 324.185 492.185V497.329C327.196 496.965 330.182 496.553 333.145 496.14V490.996Z" fill="#F1CE93"/>
<path opacity="0.19" d="M350.775 488.086C347.885 488.62 344.971 489.129 342.058 489.639V494.783C344.996 494.298 347.885 493.788 350.775 493.23V488.086Z" fill="#F1CE93"/>
<path opacity="0.19" d="M367.82 484.518C365.028 485.173 362.211 485.779 359.37 486.386V491.53C362.211 490.923 365.028 490.317 367.82 489.662V484.518Z" fill="#F1CE93"/>
<path opacity="0.19" d="M384.356 480.297C381.661 481.049 378.941 481.777 376.173 482.481V487.625C378.917 486.921 381.636 486.193 384.356 485.441V480.297Z" fill="#F1CE93"/>
<path opacity="0.19" d="M400.284 475.467C397.686 476.316 395.039 477.165 392.368 477.966V483.11C395.039 482.309 397.662 481.46 400.284 480.611V475.467Z" fill="#F1CE93"/>
<path opacity="0.19" d="M430.102 464.088C427.747 465.131 425.343 466.15 422.915 467.121V472.265C425.343 471.27 427.723 470.251 430.102 469.232V464.088Z" fill="#F1CE93"/>
<path opacity="0.19" d="M443.895 457.609C441.661 458.726 439.402 459.842 437.096 460.909V466.054C439.402 464.962 441.661 463.87 443.895 462.753V457.609Z" fill="#F1CE93"/>
<path opacity="0.19" d="M456.935 450.596C454.847 451.809 452.71 452.998 450.524 454.163V459.307C452.685 458.142 454.822 456.953 456.935 455.74V450.596Z" fill="#F1CE93"/>
<path opacity="0.19" d="M469.149 443.098C467.182 444.384 465.167 445.67 463.127 446.907V452.051C465.167 450.79 467.182 449.528 469.149 448.242V443.098Z" fill="#F1CE93"/>
<path opacity="0.19" d="M480.44 435.188C478.643 436.546 476.797 437.881 474.903 439.215V444.36C476.797 443.049 478.618 441.69 480.44 440.332V435.188Z" fill="#F1CE93"/>
<path opacity="0.19" d="M490.832 426.793C489.18 428.225 487.481 429.656 485.732 431.039V436.183C487.481 434.776 489.18 433.369 490.832 431.937V426.793Z" fill="#F1CE93"/>
<path opacity="0.19" d="M500.206 418.033C498.724 419.513 497.195 420.994 495.641 422.449V427.594C497.195 426.138 498.724 424.658 500.206 423.177V418.033Z" fill="#F1CE93"/>
<path opacity="0.19" d="M515.938 399.35C514.796 400.975 513.631 402.577 512.393 404.178V409.322C513.607 407.721 514.796 406.12 515.938 404.494V399.35Z" fill="#F1CE93"/>
<path opacity="0.19" d="M522.129 389.521C521.182 391.196 520.211 392.846 519.167 394.472V399.616C520.211 397.99 521.182 396.34 522.129 394.666V389.521Z" fill="#F1CE93"/>
<path opacity="0.19" d="M527.181 379.379C526.429 381.102 525.652 382.8 524.802 384.499V389.643C525.652 387.944 526.453 386.246 527.181 384.523V379.379Z" fill="#F1CE93"/>
<path opacity="0.19" d="M531.018 368.969C530.483 370.716 529.901 372.463 529.245 374.21V379.354C529.876 377.631 530.483 375.884 531.018 374.113V368.969Z" fill="#F1CE93"/>
<path opacity="0.19" d="M202.803 500.386C199.816 499.949 196.854 499.513 193.916 499.027V504.171C196.854 504.657 199.816 505.118 202.803 505.53V500.386Z" fill="#F1CE93"/>
<path opacity="0.19" d="M220.99 502.572C217.906 502.256 214.847 501.917 211.812 501.553V506.697C214.847 507.061 217.906 507.401 220.99 507.716V502.572Z" fill="#F1CE93"/>
<path opacity="0.19" d="M239.563 504.075C236.431 503.881 233.323 503.663 230.215 503.42V508.564C233.323 508.807 236.431 509.025 239.563 509.219V504.075Z" fill="#F1CE93"/>
<path opacity="0.19" d="M258.601 504.804C255.396 504.755 252.24 504.658 249.059 504.537V509.681C252.215 509.803 255.396 509.9 258.601 509.948V504.804Z" fill="#F1CE93"/>
<path opacity="0.19" d="M277.735 504.803C274.578 504.876 271.398 504.9 268.192 504.9V510.044C271.373 510.044 274.554 509.995 277.735 509.947V504.803Z" fill="#F1CE93"/>
<path opacity="0.19" d="M296.626 504.004C293.518 504.198 290.385 504.368 287.253 504.489V509.633C290.385 509.512 293.518 509.342 296.626 509.148V504.004Z" fill="#F1CE93"/>
<path opacity="0.19" d="M333.145 500.268C330.182 500.704 327.196 501.093 324.185 501.457V506.601C327.196 506.237 330.182 505.824 333.145 505.412V500.268Z" fill="#F1CE93"/>
<path opacity="0.19" d="M367.82 493.764C365.028 494.419 362.211 495.025 359.37 495.632V500.776C362.211 500.17 365.028 499.563 367.82 498.908V493.764Z" fill="#F1CE93"/>
<path opacity="0.19" d="M384.356 489.541C381.661 490.293 378.941 491.021 376.173 491.725V496.869C378.917 496.165 381.636 495.437 384.356 494.685V489.541Z" fill="#F1CE93"/>
<path opacity="0.19" d="M400.284 484.713C397.686 485.562 395.039 486.411 392.368 487.212V492.356C395.039 491.556 397.662 490.706 400.284 489.857V484.713Z" fill="#F1CE93"/>
<path opacity="0.19" d="M430.102 473.355C427.747 474.399 425.343 475.418 422.915 476.389V481.533C425.343 480.538 427.723 479.519 430.102 478.5V473.355Z" fill="#F1CE93"/>
<path opacity="0.19" d="M443.895 466.877C441.661 467.993 439.402 469.109 437.096 470.177V475.321C439.402 474.229 441.661 473.137 443.895 472.021V466.877Z" fill="#F1CE93"/>
<path opacity="0.19" d="M480.44 444.434C478.643 445.792 476.797 447.127 474.903 448.462V453.606C476.797 452.295 478.618 450.937 480.44 449.578V444.434Z" fill="#F1CE93"/>
<path opacity="0.19" d="M490.832 436.062C489.18 437.494 487.481 438.926 485.732 440.309V445.453C487.481 444.046 489.18 442.638 490.832 441.207V436.062Z" fill="#F1CE93"/>
<path opacity="0.19" d="M500.206 427.301C498.724 428.781 497.195 430.261 495.641 431.717V436.861C497.195 435.405 498.724 433.925 500.206 432.445V427.301Z" fill="#F1CE93"/>
<path opacity="0.19" d="M515.938 408.619C514.796 410.245 513.631 411.846 512.393 413.448V418.592C513.607 416.99 514.796 415.389 515.938 413.763V408.619Z" fill="#F1CE93"/>
<path opacity="0.19" d="M527.181 388.623C526.429 390.346 525.652 392.044 524.802 393.743V398.887C525.652 397.188 526.453 395.49 527.181 393.767V388.623Z" fill="#F1CE93"/>
<path opacity="0.19" d="M531.018 378.24C530.483 379.987 529.901 381.734 529.245 383.481V388.626C529.876 386.903 530.483 385.156 531.018 383.384V378.24Z" fill="#F1CE93"/>
<path opacity="0.19" d="M533.616 367.537C533.3 369.333 532.912 371.128 532.475 372.9V378.044C532.912 376.272 533.276 374.477 533.616 372.681V367.537Z" fill="#F1CE93"/>
<path opacity="0.19" d="M202.803 509.632C199.816 509.195 196.854 508.759 193.916 508.273V513.418C196.854 513.903 199.816 514.364 202.803 514.776V509.632Z" fill="#F1CE93"/>
<path opacity="0.19" d="M220.99 511.841C217.906 511.526 214.847 511.186 211.812 510.822V515.966C214.847 516.33 217.906 516.67 220.99 516.986V511.841Z" fill="#F1CE93"/>
<path opacity="0.19" d="M296.626 513.271C293.518 513.466 290.385 513.635 287.253 513.757V518.901C290.385 518.78 293.518 518.61 296.626 518.416V513.271Z" fill="#F1CE93"/>
<path opacity="0.19" d="M315.13 511.744C312.071 512.06 308.987 512.351 305.903 512.593V517.738C308.987 517.495 312.071 517.204 315.13 516.888V511.744Z" fill="#F1CE93"/>
<path opacity="0.19" d="M333.145 509.512C330.182 509.948 327.196 510.337 324.185 510.701V515.845C327.196 515.481 330.182 515.068 333.145 514.656V509.512Z" fill="#F1CE93"/>
<path opacity="0.19" d="M350.775 506.6C347.885 507.133 344.971 507.643 342.058 508.153V513.297C344.996 512.811 347.885 512.302 350.775 511.744V506.6Z" fill="#F1CE93"/>
<path opacity="0.19" d="M367.82 503.031C365.028 503.686 362.211 504.293 359.37 504.9V510.044C362.211 509.437 365.028 508.831 367.82 508.175V503.031Z" fill="#F1CE93"/>
<path opacity="0.19" d="M400.284 493.98C397.686 494.83 395.039 495.679 392.368 496.48V501.624C395.039 500.823 397.662 499.974 400.284 499.125V493.98Z" fill="#F1CE93"/>
<path opacity="0.19" d="M415.508 488.57C413.031 489.517 410.506 490.439 407.98 491.336V496.481C410.53 495.583 413.031 494.661 415.508 493.714V488.57Z" fill="#F1CE93"/>
<path opacity="0.19" d="M443.895 476.123C441.661 477.239 439.402 478.355 437.096 479.423V484.567C439.402 483.475 441.661 482.383 443.895 481.267V476.123Z" fill="#F1CE93"/>
<path opacity="0.19" d="M456.935 469.109C454.847 470.323 452.71 471.512 450.524 472.676V477.82C452.685 476.656 454.822 475.467 456.935 474.254V469.109Z" fill="#F1CE93"/>
<path opacity="0.19" d="M469.149 461.613C467.182 462.899 465.167 464.185 463.127 465.423V470.567C465.167 469.305 467.182 468.043 469.149 466.757V461.613Z" fill="#F1CE93"/>
<path opacity="0.19" d="M480.44 453.703C478.643 455.062 476.797 456.396 474.903 457.731V462.875C476.797 461.565 478.618 460.206 480.44 458.847V453.703Z" fill="#F1CE93"/>
<path opacity="0.19" d="M490.832 445.307C489.18 446.738 487.481 448.17 485.732 449.553V454.697C487.481 453.29 489.18 451.882 490.832 450.451V445.307Z" fill="#F1CE93"/>
<path opacity="0.19" d="M508.606 427.398C507.295 428.951 505.935 430.48 504.551 432.009V437.153C505.935 435.624 507.295 434.096 508.606 432.543V427.398Z" fill="#F1CE93"/>
<path opacity="0.19" d="M515.938 417.863C514.796 419.489 513.631 421.091 512.393 422.692V427.836C513.607 426.235 514.796 424.633 515.938 423.007V417.863Z" fill="#F1CE93"/>
<path opacity="0.19" d="M522.129 408.035C521.182 409.709 520.211 411.359 519.167 412.985V418.129C520.211 416.504 521.182 414.854 522.129 413.179V408.035Z" fill="#F1CE93"/>
<path opacity="0.19" d="M527.181 397.895C526.429 399.617 525.652 401.316 524.802 403.014V408.159C525.652 406.46 526.453 404.761 527.181 403.039V397.895Z" fill="#F1CE93"/>
<path opacity="0.19" d="M531.018 387.484C530.483 389.231 529.901 390.979 529.245 392.726V397.87C529.876 396.147 530.483 394.4 531.018 392.629V387.484Z" fill="#F1CE93"/>
<path opacity="0.19" d="M533.616 376.807C533.3 378.602 532.912 380.398 532.475 382.169V387.313C532.912 385.542 533.276 383.746 533.616 381.951V376.807Z" fill="#F1CE93"/>
<path d="M220.99 493.326C217.906 493.01 214.847 492.671 211.812 492.307V497.451C214.847 497.815 217.906 498.154 220.99 498.47V493.326Z" fill="#F1CE93"/>
<path d="M315.13 493.23C312.071 493.546 308.987 493.837 305.903 494.08V499.224C308.987 498.981 312.071 498.69 315.13 498.375V493.23Z" fill="#F1CE93"/>
<path d="M415.508 470.057C413.031 471.003 410.506 471.925 407.98 472.823V477.967C410.53 477.069 413.031 476.147 415.508 475.201V470.057Z" fill="#F1CE93"/>
<path d="M508.606 408.885C507.295 410.438 505.935 411.966 504.551 413.495V418.639C505.935 417.11 507.295 415.582 508.606 414.029V408.885Z" fill="#F1CE93"/>
<path d="M533.616 358.293C533.3 360.089 532.912 361.884 532.475 363.655V368.8C532.912 367.028 533.276 365.233 533.616 363.437V358.293Z" fill="#F1CE93"/>
<path d="M315.13 502.475C312.071 502.79 308.987 503.081 305.903 503.324V508.468C308.987 508.201 312.071 507.934 315.13 507.619V502.475Z" fill="#F1CE93"/>
<path d="M350.775 497.331C347.885 497.865 344.971 498.374 342.058 498.86V504.004C344.996 503.518 347.885 503.009 350.775 502.451V497.307V497.331Z" fill="#F1CE93"/>
<path d="M415.508 479.324C413.031 480.271 410.506 481.193 407.98 482.09V487.235C410.53 486.337 413.031 485.415 415.508 484.468V479.324Z" fill="#F1CE93"/>
<path d="M456.935 459.865C454.847 461.078 452.71 462.267 450.524 463.432V468.576C452.685 467.412 454.822 466.223 456.935 465.009V459.865Z" fill="#F1CE93"/>
<path d="M469.149 452.367C467.182 453.653 465.167 454.939 463.127 456.177V461.321C465.167 460.059 467.182 458.797 469.149 457.511V452.367Z" fill="#F1CE93"/>
<path d="M508.606 418.131C507.295 419.684 505.935 421.212 504.551 422.741V427.885C505.935 426.357 507.295 424.828 508.606 423.275V418.131Z" fill="#F1CE93"/>
<path d="M522.129 398.791C521.182 400.465 520.211 402.115 519.167 403.741V408.885C520.211 407.259 521.182 405.609 522.129 403.935V398.791Z" fill="#F1CE93"/>
<path d="M239.563 513.321C236.431 513.127 233.323 512.909 230.215 512.666V517.81C233.323 518.053 236.431 518.271 239.563 518.465V513.321Z" fill="#F1CE93"/>
<path d="M258.601 514.074C255.396 514.025 252.24 513.928 249.059 513.807V518.951C252.215 519.072 255.396 519.169 258.601 519.218V514.074Z" fill="#F1CE93"/>
<path d="M277.735 514.049C274.578 514.122 271.398 514.146 268.192 514.146V519.29C271.373 519.29 274.554 519.241 277.735 519.193V514.049Z" fill="#F1CE93"/>
<path d="M384.356 498.811C381.661 499.563 378.941 500.291 376.173 500.994V506.139C378.917 505.435 381.636 504.707 384.356 503.955V498.811Z" fill="#F1CE93"/>
<path d="M430.102 482.602C427.747 483.645 425.343 484.664 422.915 485.635V490.779C425.343 489.784 427.723 488.765 430.102 487.746V482.602Z" fill="#F1CE93"/>
<path d="M500.206 436.548C498.724 438.028 497.195 439.508 495.641 440.964V446.108C497.195 444.652 498.724 443.172 500.206 441.668V436.523V436.548Z" fill="#F1CE93"/>
<path style="mix-blend-mode:lighten" opacity="0.5" d="M262.876 508.033C348.099 508.033 417.187 468.174 417.187 419.006C417.187 369.837 348.099 329.979 262.876 329.979C177.653 329.979 108.565 369.837 108.565 419.006C108.565 468.174 177.653 508.033 262.876 508.033Z" fill="url(#paint0_radial_846_2474)"/>
<path style="mix-blend-mode:lighten" opacity="0.5" d="M395.979 226.026C463.941 158.111 496.473 80.5098 468.642 52.6978C440.81 24.8858 363.155 57.3951 295.193 125.309C227.231 193.224 194.699 270.825 222.53 298.637C250.362 326.449 328.017 293.94 395.979 226.026Z" fill="url(#paint1_radial_846_2474)"/>
<path opacity="0.4" d="M351.577 202.733C353.422 200.986 353.519 198.098 351.771 196.23C350.023 194.362 347.133 194.289 345.263 196.036C343.418 197.783 343.321 200.671 345.069 202.539C346.817 204.383 349.707 204.48 351.577 202.733Z" fill="#F1CE93"/>
<path d="M404.801 198.754C406.647 197.007 406.744 194.119 404.995 192.251C403.247 190.407 400.358 190.309 398.488 192.057C396.643 193.804 396.545 196.691 398.294 198.559C400.042 200.404 402.932 200.501 404.801 198.754Z" fill="#F1CE93"/>
<path opacity="0.4" d="M391.664 127.511C393.655 125.643 393.752 122.513 391.883 120.523C390.013 118.534 386.881 118.436 384.89 120.305C382.898 122.173 382.801 125.303 384.671 127.293C386.541 129.283 389.673 129.38 391.664 127.511Z" fill="#F1CE93"/>
<path opacity="0.4" d="M386.105 141.584C387.295 140.468 387.343 138.6 386.226 137.411C385.109 136.222 383.24 136.173 382.05 137.289C380.86 138.405 380.812 140.274 381.929 141.463C383.046 142.652 384.915 142.7 386.105 141.584Z" fill="#F1CE93"/>
<path opacity="0.8" d="M379.984 134.282C380.761 133.554 380.786 132.365 380.081 131.589C379.353 130.812 378.163 130.788 377.386 131.492C376.609 132.196 376.585 133.409 377.289 134.185C378.018 134.962 379.207 134.986 379.984 134.258V134.282Z" fill="#F1CE93"/>
<path opacity="0.8" d="M392.685 176.382C393.462 175.654 393.486 174.465 392.782 173.688C392.053 172.912 390.863 172.888 390.086 173.591C389.309 174.319 389.285 175.508 389.989 176.285C390.718 177.061 391.908 177.086 392.685 176.358V176.382Z" fill="#F1CE93"/>
<path opacity="0.4" d="M365.852 122.004C366.095 121.786 366.095 121.422 365.876 121.179C365.658 120.937 365.293 120.937 365.05 121.155C364.808 121.373 364.808 121.737 365.026 121.98C365.245 122.223 365.609 122.223 365.852 122.004Z" fill="#F1CE93"/>
<path opacity="0.8" d="M369.326 145.856C369.569 145.637 369.569 145.273 369.351 145.031C369.132 144.788 368.768 144.788 368.525 145.007C368.282 145.225 368.282 145.589 368.501 145.832C368.719 146.074 369.084 146.074 369.326 145.856Z" fill="#F1CE93"/>
<path opacity="0.8" d="M376.755 191.305C376.998 191.087 376.998 190.723 376.779 190.48C376.561 190.237 376.197 190.237 375.954 190.456C375.711 190.674 375.711 191.038 375.93 191.281C376.148 191.523 376.512 191.523 376.755 191.305Z" fill="#F1CE93"/>
<path opacity="0.8" d="M371.487 184.047C371.729 183.829 371.729 183.465 371.511 183.222C371.292 182.98 370.928 182.98 370.685 183.198C370.442 183.416 370.442 183.78 370.661 184.023C370.88 184.266 371.244 184.266 371.487 184.047Z" fill="#F1CE93"/>
<path opacity="0.4" d="M351.842 149.109C354.659 146.464 354.805 142.023 352.158 139.184C349.511 136.345 345.068 136.224 342.227 138.869C339.386 141.514 339.264 145.954 341.911 148.793C344.558 151.608 349.001 151.753 351.842 149.109Z" fill="#F1CE93"/>
<path d="M314.036 162.743C315.445 161.433 315.518 159.225 314.182 157.817C312.871 156.41 310.661 156.337 309.253 157.672C307.844 158.982 307.772 161.19 309.107 162.598C310.418 164.005 312.628 164.078 314.036 162.743Z" fill="#F1CE93"/>
<path opacity="0.4" d="M377.193 162.671C378.601 161.361 378.674 159.153 377.338 157.745C376.027 156.338 373.817 156.265 372.409 157.6C371.001 158.91 370.928 161.118 372.263 162.525C373.575 163.933 375.784 164.006 377.193 162.671Z" fill="#F1CE93"/>
<path opacity="0.4" d="M351.842 105.091C353.25 103.781 353.323 101.573 351.988 100.165C350.676 98.7578 348.467 98.685 347.058 100.02C345.65 101.33 345.577 103.538 346.913 104.945C348.248 106.353 350.434 106.425 351.842 105.091Z" fill="#F1CE93"/>
<path opacity="0.4" d="M307.698 130.157C309.107 128.847 309.18 126.639 307.844 125.232C306.533 123.824 304.323 123.751 302.915 125.086C301.507 126.396 301.434 128.604 302.769 130.012C304.08 131.419 306.29 131.492 307.698 130.157Z" fill="#F1CE93"/>
<path opacity="0.4" d="M427.577 141.028C428.986 139.718 429.059 137.51 427.723 136.103C426.412 134.695 424.202 134.622 422.794 135.957C421.386 137.267 421.313 139.475 422.648 140.883C423.959 142.29 426.169 142.363 427.577 141.028Z" fill="#F1CE93"/>
<path opacity="0.4" d="M402.324 79.9288C403.733 78.6185 403.806 76.4104 402.47 75.003C401.135 73.5957 398.949 73.5229 397.541 74.8574C396.133 76.1677 396.06 78.3758 397.395 79.7832C398.731 81.1905 400.916 81.2633 402.324 79.9288Z" fill="#F1CE93"/>
<path d="M448.314 86.4806C448.994 85.8497 449.018 84.7821 448.387 84.1026C447.756 83.4232 446.687 83.399 446.007 84.0299C445.327 84.6607 445.303 85.7284 445.934 86.4078C446.566 87.0872 447.634 87.1115 448.314 86.4806Z" fill="#F1CE93"/>
<path opacity="0.4" d="M362.016 190.964C362.842 190.187 362.891 188.901 362.114 188.076C361.337 187.251 360.05 187.203 359.224 187.979C358.398 188.756 358.35 190.042 359.127 190.867C359.904 191.692 361.191 191.74 362.016 190.964Z" fill="#F1CE93"/>
<path d="M358.058 133.02C358.884 132.244 358.933 130.958 358.156 130.133C357.379 129.308 356.092 129.259 355.266 130.036C354.44 130.812 354.392 132.098 355.169 132.923C355.946 133.748 357.233 133.797 358.058 133.02Z" fill="#F1CE93"/>
<path d="M331.834 132.244C332.392 131.71 332.417 130.837 331.907 130.303C331.373 129.745 330.498 129.72 329.964 130.23C329.406 130.764 329.382 131.637 329.891 132.171C330.401 132.705 331.3 132.754 331.834 132.244Z" fill="#F1CE93"/>
<path d="M327.9 132.145C328.701 131.393 328.75 130.107 327.997 129.306C327.244 128.505 325.982 128.457 325.156 129.209C324.355 129.961 324.306 131.247 325.059 132.048C325.812 132.849 327.099 132.897 327.9 132.145Z" fill="#F1CE93"/>
<path d="M327.222 136.903C327.659 136.49 327.683 135.787 327.271 135.326C326.858 134.889 326.154 134.865 325.692 135.277C325.255 135.69 325.231 136.393 325.644 136.854C326.056 137.291 326.761 137.315 327.222 136.903Z" fill="#F1CE93"/>
<path opacity="0.4" d="M346.476 169.902C347.058 169.368 347.083 168.446 346.549 167.864C346.014 167.282 345.092 167.257 344.509 167.791C343.926 168.325 343.902 169.247 344.436 169.829C344.97 170.412 345.893 170.436 346.476 169.902Z" fill="#F1CE93"/>
<path opacity="0.4" d="M388.51 175.773C389.093 175.239 389.117 174.317 388.583 173.735C388.048 173.153 387.126 173.128 386.543 173.662C385.96 174.196 385.936 175.118 386.47 175.7C387.004 176.283 387.927 176.307 388.51 175.773Z" fill="#F1CE93"/>
<path d="M355.412 172.135C356.845 170.801 356.918 168.544 355.582 167.113C354.247 165.681 351.988 165.608 350.556 166.943C349.123 168.277 349.05 170.534 350.386 171.965C351.721 173.397 353.979 173.47 355.412 172.135Z" fill="#F1CE93"/>
<path d="M159.993 322.99C156.74 333.788 139.281 354.752 128.476 351.501C117.67 348.249 117.622 322.019 120.876 311.221C124.129 300.424 135.517 294.309 146.323 297.56C157.128 300.812 163.247 312.192 159.993 322.99Z" fill="url(#paint2_radial_846_2474)"/>
<g style="mix-blend-mode:lighten">
<path d="M159.993 322.99C156.74 333.788 139.281 354.752 128.476 351.501C117.67 348.249 117.622 322.019 120.876 311.221C124.129 300.424 135.517 294.309 146.323 297.56C157.128 300.812 163.247 312.192 159.993 322.99Z" fill="url(#paint3_linear_846_2474)" style="mix-blend-mode:plus-lighter"/>
</g>
<path d="M139.182 297.707C144.863 297.198 152.099 300.57 155.377 305.229C158.656 309.888 156.713 314.062 151.031 314.571C145.349 315.081 138.113 311.708 134.835 307.049C131.557 302.39 133.5 298.217 139.182 297.707Z" fill="#293440"/>
<path style="mix-blend-mode:lighten" opacity="0.5" d="M139.182 297.707C144.863 297.198 152.099 300.57 155.377 305.229C158.656 309.888 156.713 314.062 151.031 314.571C145.349 315.081 138.113 311.708 134.835 307.049C131.557 302.39 133.5 298.217 139.182 297.707Z" fill="url(#paint4_radial_846_2474)"/>
<path d="M133.28 302.973C134.276 302.123 135.733 301.565 137.602 301.395C143.284 300.886 150.52 304.259 153.798 308.917C154.794 310.349 155.304 311.732 155.377 312.994C157.441 311.271 157.611 308.359 155.377 305.229C152.099 300.57 144.838 297.198 139.181 297.707C135.247 298.047 133.11 300.182 133.256 302.997L133.28 302.973Z" fill="#F1CE93"/>
<path opacity="0.6" d="M158.22 292.174C157.322 292.174 156.594 292.853 156.569 293.751C156.569 294.649 157.249 295.377 158.148 295.401C159.046 295.425 159.775 294.722 159.799 293.824C159.823 292.926 159.119 292.198 158.22 292.174Z" fill="#F1CE93"/>
<path d="M143.045 280.962C140.811 280.913 138.941 282.685 138.893 284.917C138.844 287.149 140.617 289.018 142.851 289.066C145.084 289.115 146.954 287.344 147.003 285.111C147.051 282.879 145.279 281.01 143.045 280.962Z" fill="#F1CE93"/>
<path opacity="0.6" d="M166.306 271.838C165.043 271.814 163.999 272.809 163.975 274.046C163.951 275.308 164.946 276.352 166.185 276.376C167.447 276.4 168.491 275.405 168.516 274.168C168.54 272.906 167.544 271.863 166.306 271.838Z" fill="#F1CE93"/>
<path d="M157.201 273.635C156.351 273.635 155.623 274.29 155.598 275.163C155.574 276.037 156.254 276.741 157.128 276.765C157.978 276.765 158.706 276.11 158.731 275.236C158.731 274.387 158.075 273.659 157.201 273.635Z" fill="#F1CE93"/>
<path d="M158.927 270.141C158.344 270.141 157.858 270.602 157.834 271.184C157.834 271.766 158.295 272.252 158.878 272.276C159.461 272.276 159.947 271.815 159.971 271.233C159.971 270.65 159.509 270.165 158.927 270.141Z" fill="#F1CE93"/>
<path opacity="0.6" d="M145.812 300.082C144.574 300.058 143.53 301.029 143.505 302.291C143.481 303.528 144.452 304.571 145.715 304.596C146.953 304.62 147.997 303.649 148.022 302.388C148.046 301.15 147.075 300.107 145.812 300.082Z" fill="#F1CE93"/>
<path d="M152.66 299.329C150.79 299.281 149.261 300.761 149.212 302.629C149.164 304.498 150.645 306.026 152.514 306.075C154.384 306.123 155.914 304.643 155.962 302.775C156.011 300.906 154.53 299.378 152.66 299.329Z" fill="#F1CE93"/>
<path d="M219.075 261.039C215.772 277.685 199.601 288.507 182.919 285.207C166.262 281.907 155.432 265.746 158.734 249.076C162.037 232.431 178.208 221.609 194.866 224.909C211.523 228.209 222.353 244.369 219.05 261.039H219.075Z" fill="url(#paint5_radial_846_2474)"/>
<g style="mix-blend-mode:lighten">
<g filter="url(#filter0_d_846_2474)">
<path d="M192.557 285.607C209.428 283.594 221.472 268.294 219.457 251.435C217.442 234.575 202.132 222.54 185.261 224.554C168.39 226.567 156.346 241.866 158.361 258.726C160.376 275.585 175.686 287.62 192.557 285.607Z" fill="url(#paint6_linear_846_2474)"/>
</g>
</g>
<path d="M342.278 310.879C342.278 370.546 306.73 418.906 262.877 418.906C219.024 418.906 183.476 370.546 183.476 310.879C183.476 251.212 219.024 233.354 262.877 233.354C306.73 233.354 342.278 251.237 342.278 310.879Z" fill="url(#paint7_radial_846_2474)"/>
<g style="mix-blend-mode:lighten">
<path d="M342.279 310.879C342.279 370.546 306.731 418.906 262.878 418.906C219.025 418.906 183.477 370.546 183.477 310.879C183.477 251.212 219.025 233.354 262.878 233.354C306.731 233.354 342.279 251.237 342.279 310.879Z" fill="url(#paint8_linear_846_2474)"/>
</g>
<path d="M262.877 296.709C292.809 296.709 317.073 282.706 317.073 265.432C317.073 248.158 292.809 234.154 262.877 234.154C232.944 234.154 208.68 248.158 208.68 265.432C208.68 282.706 232.944 296.709 262.877 296.709Z" fill="#293440"/>
<path style="mix-blend-mode:lighten" opacity="0.5" d="M262.877 296.709C292.809 296.709 317.073 282.706 317.073 265.432C317.073 248.158 292.809 234.154 262.877 234.154C232.944 234.154 208.68 248.158 208.68 265.432C208.68 282.706 232.944 296.709 262.877 296.709Z" fill="url(#paint9_radial_846_2474)"/>
<path d="M224.562 251.649C245.735 239.443 280.045 239.443 301.195 251.649C309.936 256.696 315.06 263.029 316.589 269.604C318.75 260.287 313.627 250.508 301.195 243.326C280.021 231.121 245.711 231.121 224.562 243.326C212.129 250.484 207.03 260.263 209.191 269.604C210.721 263.053 215.82 256.696 224.562 251.649Z" fill="#F1CE93"/>
<path d="M239.227 149.906C239.227 164.465 229.004 182.178 216.377 189.458C203.751 196.737 193.528 190.841 193.528 176.282C193.528 161.723 203.751 144.01 216.377 136.73C229.004 129.451 239.227 135.347 239.227 149.906Z" fill="#BCBEFF"/>
<path d="M266.034 271.715C310.758 271.715 347.014 235.485 347.014 190.792C347.014 146.1 310.758 109.869 266.034 109.869C221.311 109.869 185.055 146.1 185.055 190.792C185.055 235.485 221.311 271.715 266.034 271.715Z" fill="url(#paint10_radial_846_2474)"/>
<g style="mix-blend-mode:lighten">
<path d="M266.035 271.715C310.759 271.715 347.015 235.485 347.015 190.792C347.015 146.1 310.759 109.869 266.035 109.869C221.312 109.869 185.056 146.1 185.056 190.792C185.056 235.485 221.312 271.715 266.035 271.715Z" fill="url(#paint11_linear_846_2474)"/>
</g>
<path d="M231.368 244.359C241.855 239.997 244.227 221.748 236.667 203.598C229.106 185.448 214.477 174.271 203.99 178.633C193.504 182.995 191.132 201.244 198.692 219.394C206.252 237.544 220.882 248.721 231.368 244.359Z" fill="#293440"/>
<path style="mix-blend-mode:lighten" opacity="0.5" d="M231.368 244.359C241.855 239.997 244.227 221.748 236.667 203.598C229.106 185.448 214.477 174.271 203.99 178.633C193.504 182.995 191.132 201.244 198.692 219.394C206.252 237.544 220.882 248.721 231.368 244.359Z" fill="url(#paint12_radial_846_2474)"/>
<path d="M230.218 215.348C229.465 221.123 225.094 222.943 220.456 219.401C215.819 215.858 212.662 208.287 213.415 202.512C214.167 196.737 218.538 194.917 223.176 198.46C227.814 202.003 230.97 209.573 230.218 215.348Z" fill="#F1CE93"/>
<path d="M220.043 237.989C207.295 228.234 198.627 207.439 200.69 191.522C201.54 185.043 204.041 180.36 207.562 177.764C200.885 178.395 195.834 184.048 194.571 193.851C192.508 209.769 201.176 230.564 213.924 240.318C221.476 246.093 228.784 246.7 233.908 242.915C229.756 243.303 224.948 241.75 220.043 237.989Z" fill="#F1CE93"/>
<path d="M215.017 239.785C202.269 230.03 193.6 209.235 195.664 193.318C196.611 185.941 199.719 180.918 204.017 178.613C199.136 180.627 195.591 185.844 194.547 193.827C192.483 209.745 201.152 230.54 213.9 240.294C220.747 245.535 227.376 246.506 232.378 243.813C227.522 245.802 221.354 244.638 214.992 239.76L215.017 239.785Z" fill="#F1CE93"/>
<path d="M350.145 362.174C367.136 362.174 380.91 348.41 380.91 331.431C380.91 314.452 367.136 300.688 350.145 300.688C333.154 300.688 319.38 314.452 319.38 331.431C319.38 348.41 333.154 362.174 350.145 362.174Z" fill="url(#paint13_radial_846_2474)"/>
<g style="mix-blend-mode:lighten">
<path d="M350.145 362.174C367.136 362.174 380.91 348.41 380.91 331.431C380.91 314.452 367.136 300.688 350.145 300.688C333.154 300.688 319.38 314.452 319.38 331.431C319.38 348.41 333.154 362.174 350.145 362.174Z" fill="url(#paint14_linear_846_2474)"/>
</g>
<path d="M379.72 332.013C379.72 340.676 373.625 351.207 366.122 355.55C358.619 359.894 352.524 356.375 352.524 347.713C352.524 339.05 358.619 328.519 366.122 324.176C373.625 319.833 379.72 323.351 379.72 332.013Z" fill="#293440"/>
<path style="mix-blend-mode:lighten" opacity="0.5" d="M379.72 332.013C379.72 340.676 373.625 351.207 366.122 355.55C358.619 359.894 352.524 356.375 352.524 347.713C352.524 339.05 358.619 328.519 366.122 324.176C373.625 319.833 379.72 323.351 379.72 332.013Z" fill="url(#paint15_radial_846_2474)"/>
<path d="M372.509 322.332C373.651 323.958 374.331 326.239 374.331 329.102C374.331 337.764 368.236 348.295 360.733 352.639C358.426 353.973 356.265 354.556 354.347 354.483C356.702 357.831 361.097 358.487 366.123 355.575C373.626 351.231 379.721 340.7 379.721 332.038C379.721 326.045 376.807 322.502 372.509 322.356V322.332Z" fill="#F1CE93"/>
<path d="M334.387 220.396L305.055 237.333V203.484L334.387 186.547V220.396Z" fill="#293440"/>
<path opacity="0.8" d="M330.016 189.07V218.043L305.055 232.456V237.333L334.387 220.396V186.547L330.016 189.07Z" fill="url(#paint16_radial_846_2474)"/>
<path d="M310.639 212.728L308.017 214.233V211.2L310.639 209.695V212.728Z" fill="#F1CE93"/>
<path d="M316.223 205.619L313.601 207.148V204.115L316.223 202.586V205.619Z" fill="#F1CE93"/>
<path d="M321.808 206.299L319.161 207.803V204.77L321.808 203.266V206.299Z" fill="#F1CE93"/>
<path d="M321.808 214.232L319.161 215.761V212.728L321.808 211.199V214.232Z" fill="#F1CE93"/>
<path d="M318.433 220.348L315.811 221.876V218.843L318.433 217.314V220.348Z" fill="#F1CE93"/>
<path d="M327.563 210.933L324.916 212.438V209.405L327.563 207.9V210.933Z" fill="#F1CE93"/>
<path d="M358.013 211.465L361.242 205.909L358.013 204.064L328.681 221.001V254.851L331.91 256.695L335.115 251.138L358.013 237.914V211.465Z" fill="url(#paint17_linear_846_2474)"/>
<path d="M361.244 239.758L331.911 256.694V222.845L361.244 205.908V239.758Z" fill="url(#paint18_linear_846_2474)"/>
<path d="M361.242 239.758L331.909 256.694V222.845L361.242 205.908V239.758Z" fill="url(#paint19_linear_846_2474)" style="mix-blend-mode:darken"/>
<path d="M326.785 210.423L326.227 209.914L358.667 175.264H450.938L484.981 141.245V2.5957H485.758V141.56L485.661 141.681L451.278 176.04H358.983L326.785 210.423Z" fill="#F1CE93"/>
<path d="M485.101 106.766L469.1 90.7515V33.7051H469.877V90.4361L485.66 106.208L485.101 106.766Z" fill="#F1CE93"/>
<path d="M386.665 175.919L386.106 175.385L404.269 157.235H443.727L462.667 138.309L463.225 138.867L444.043 158.012H404.585L386.665 175.919Z" fill="#F1CE93"/>
<path d="M462.932 141.222C461.475 141.222 460.31 140.033 460.31 138.601C460.31 137.169 461.499 135.98 462.932 135.98C464.365 135.98 465.554 137.145 465.554 138.601C465.554 140.057 464.365 141.222 462.932 141.222Z" fill="#F1CE93"/>
<path d="M436.369 123.532C434.912 123.532 433.746 122.368 433.746 120.912C433.746 119.456 434.936 118.291 436.369 118.291C437.801 118.291 438.991 119.48 438.991 120.912C438.991 122.343 437.801 123.532 436.369 123.532Z" fill="#F1CE93"/>
<path d="M457.422 97.6162C458.871 97.6162 460.045 96.4429 460.045 94.9956C460.045 93.5483 458.871 92.375 457.422 92.375C455.974 92.375 454.8 93.5483 454.8 94.9956C454.8 96.4429 455.974 97.6162 457.422 97.6162Z" fill="#F1CE93"/>
<path d="M447.029 31.8115C448.477 31.8115 449.651 30.6382 449.651 29.1909C449.651 27.7436 448.477 26.5703 447.029 26.5703C445.58 26.5703 444.406 27.7436 444.406 29.1909C444.406 30.6382 445.58 31.8115 447.029 31.8115Z" fill="#F1CE93"/>
<path d="M469.489 36.3252C468.032 36.3252 466.866 35.1605 466.866 33.7046C466.866 32.2487 468.056 31.084 469.489 31.084C470.921 31.084 472.111 32.2487 472.111 33.7046C472.111 35.1605 470.921 36.3252 469.489 36.3252Z" fill="#F1CE93"/>
<path d="M485.369 5.24119C483.912 5.24119 482.746 4.05222 482.746 2.62059C482.746 1.18897 483.936 0 485.369 0C486.801 0 487.991 1.18897 487.991 2.62059C487.991 4.05222 486.825 5.24119 485.369 5.24119Z" fill="#F1CE93"/>
<path d="M359.785 115.185C358.328 115.185 357.162 113.996 357.162 112.564C357.162 111.132 358.352 109.943 359.785 109.943C361.217 109.943 362.407 111.132 362.407 112.564C362.407 113.996 361.217 115.185 359.785 115.185Z" fill="#F1CE93"/>
<path d="M309.715 211.976H308.938V196.616L309.059 196.519L345.797 159.224V106.327L345.894 106.206L376.247 75.8749H436.053L446.639 65.2954V29.1895H447.416V65.6109L447.319 65.7322L436.392 76.6513H376.586L346.574 106.643V159.54L346.453 159.661L309.715 196.932V211.976Z" fill="#F1CE93"/>
<path d="M346.453 147.166L345.895 146.608L359.395 133.141V112.564H360.172V133.456L360.051 133.578L346.453 147.166Z" fill="#F1CE93"/>
<path d="M315.178 205.376L314.619 204.818L398.998 120.498H435.761V121.275H399.314L315.178 205.376Z" fill="#F1CE93"/>
<path d="M383.798 136.636H383.021V109.775L383.142 109.654L398.221 94.6094H457.42V95.3858H398.537L383.798 110.09V136.636Z" fill="#F1CE93"/>
<path d="M371.267 417.718C368.013 428.516 350.555 449.481 339.749 446.229C328.944 442.978 328.895 416.748 332.149 405.95C335.403 395.152 346.791 389.037 357.596 392.289C368.402 395.54 374.521 406.92 371.267 417.718Z" fill="url(#paint20_radial_846_2474)"/>
<g style="mix-blend-mode:lighten">
<path d="M371.267 417.718C368.013 428.516 350.555 449.481 339.749 446.229C328.944 442.978 328.895 416.748 332.149 405.95C335.403 395.152 346.791 389.037 357.596 392.289C368.402 395.54 374.521 406.92 371.267 417.718Z" fill="url(#paint21_linear_846_2474)"/>
</g>
<path d="M350.483 392.41C356.165 391.901 363.401 395.274 366.679 399.932C369.957 404.591 368.015 408.765 362.333 409.274C356.651 409.784 349.415 406.411 346.137 401.752C342.859 397.093 344.801 392.92 350.483 392.41Z" fill="#293440"/>
<path style="mix-blend-mode:lighten" opacity="0.5" d="M350.483 392.41C356.165 391.901 363.401 395.274 366.679 399.932C369.957 404.591 368.015 408.765 362.333 409.274C356.651 409.784 349.415 406.411 346.137 401.752C342.859 397.093 344.801 392.92 350.483 392.41Z" fill="url(#paint22_radial_846_2474)"/>
<path d="M344.558 397.699C345.553 396.85 347.01 396.292 348.88 396.122C354.562 395.612 361.798 398.985 365.076 403.644C366.071 405.076 366.581 406.459 366.654 407.721C368.718 405.998 368.888 403.086 366.654 399.956C363.376 395.297 356.116 391.924 350.458 392.434C346.524 392.773 344.388 394.909 344.533 397.723L344.558 397.699Z" fill="#F1CE93"/>
<path opacity="0.6" d="M366.509 379.451C367.165 378.845 367.189 377.826 366.582 377.17C365.975 376.515 364.955 376.491 364.3 377.098C363.644 377.704 363.62 378.723 364.227 379.379C364.834 380.034 365.854 380.058 366.509 379.451Z" fill="#F1CE93"/>
<path d="M385.206 376.809C386.832 375.28 386.929 372.708 385.375 371.058C383.846 369.433 381.272 369.336 379.621 370.888C377.97 372.441 377.897 374.989 379.451 376.639C380.98 378.265 383.554 378.362 385.206 376.809Z" fill="#F1CE93"/>
<path opacity="0.6" d="M375.032 399.641C375.954 398.792 376.003 397.336 375.129 396.438C374.279 395.516 372.822 395.467 371.924 396.341C371.001 397.19 370.952 398.646 371.827 399.544C372.676 400.466 374.133 400.514 375.032 399.641Z" fill="#F1CE93"/>
<path d="M380.253 391.974C380.885 391.391 380.909 390.396 380.326 389.766C379.743 389.135 378.748 389.11 378.116 389.693C377.485 390.275 377.461 391.27 378.044 391.901C378.626 392.532 379.622 392.556 380.253 391.974Z" fill="#F1CE93"/>
<path d="M381.468 395.662C381.905 395.25 381.93 394.595 381.517 394.158C381.104 393.721 380.449 393.697 380.012 394.109C379.574 394.522 379.55 395.177 379.963 395.614C380.376 396.05 381.031 396.075 381.468 395.662Z" fill="#F1CE93"/>
<path opacity="0.6" d="M369.813 365.135C370.711 364.286 370.76 362.855 369.91 361.957C369.06 361.059 367.627 361.01 366.729 361.86C365.83 362.709 365.782 364.141 366.632 365.038C367.481 365.936 368.914 365.985 369.813 365.135Z" fill="#F1CE93"/>
<path d="M365.466 370.449C366.826 369.187 366.898 367.052 365.611 365.693C364.349 364.334 362.212 364.262 360.852 365.548C359.492 366.809 359.42 368.945 360.707 370.304C361.969 371.662 364.106 371.735 365.466 370.449Z" fill="#F1CE93"/>
<defs>
<filter id="filter0_d_846_2474" x="154.141" y="224.334" width="69.5361" height="69.4922" filterUnits="userSpaceOnUse" color-interpolation-filters="sRGB">
<feFlood flood-opacity="0" result="BackgroundImageFix"/>
<feColorMatrix in="SourceAlpha" type="matrix" values="0 0 0 0 0 0 0 0 0 0 0 0 0 0 0 0 0 0 127 0" result="hardAlpha"/>
<feOffset dy="4"/>
<feGaussianBlur stdDeviation="2"/>
<feComposite in2="hardAlpha" operator="out"/>
<feColorMatrix type="matrix" values="0 0 0 0 0 0 0 0 0 0 0 0 0 0 0 0 0 0 0.25 0"/>
<feBlend mode="normal" in2="BackgroundImageFix" result="effect1_dropShadow_846_2474"/>
<feBlend mode="normal" in="SourceGraphic" in2="effect1_dropShadow_846_2474" result="shape"/>
</filter>
<radialGradient id="paint0_radial_846_2474" cx="0" cy="0" r="1" gradientUnits="userSpaceOnUse" gradientTransform="translate(872.674 777.319) rotate(29.9826) scale(125.976 109.561)">
<stop stop-color="#42E8E0"/>
<stop offset="0.11" stop-color="#36B5BF"/>
<stop offset="0.22" stop-color="#2C87A0"/>
<stop offset="0.34" stop-color="#235F86"/>
<stop offset="0.46" stop-color="#1B3E71"/>
<stop offset="0.58" stop-color="#162560"/>
<stop offset="0.71" stop-color="#293440"/>
<stop offset="0.85" stop-color="#0F084E"/>
<stop offset="1" stop-color="#0F054C"/>
</radialGradient>
<radialGradient id="paint1_radial_846_2474" cx="0" cy="0" r="1" gradientUnits="userSpaceOnUse" gradientTransform="translate(343.225 173.308) rotate(44.9799) scale(84.7814 206.784)">
<stop stop-color="#E5E842"/>
<stop offset="0.11" stop-color="#F1CE93"/>
<stop offset="0.22" stop-color="#AD8D58"/>
<stop offset="0.34" stop-color="#766446"/>
<stop offset="0.46" stop-color="#5A4E3A"/>
<stop offset="0.58" stop-color="#25211A"/>
<stop offset="0.71" stop-color="#211D16"/>
<stop offset="0.85" stop-color="#0F084E"/>
<stop offset="1" stop-color="#545F71"/>
</radialGradient>
<radialGradient id="paint2_radial_846_2474" cx="0" cy="0" r="1" gradientUnits="userSpaceOnUse" gradientTransform="translate(153.186 306.799) rotate(16.7489) scale(58.0057 57.9719)">
<stop stop-color="#C0BFF6"/>
<stop offset="1" stop-color="#393091"/>
</radialGradient>
<linearGradient id="paint3_linear_846_2474" x1="127.821" y1="358.741" x2="205.161" y2="154.703" gradientUnits="userSpaceOnUse">
<stop stop-color="white"/>
<stop offset="0.09" stop-color="#FFDB9F"/>
<stop offset="0.23" stop-color="#F4F4F4"/>
<stop offset="0.37" stop-color="#FFBD59"/>
<stop offset="0.52" stop-color="#C2C8D2"/>
<stop offset="0.67" stop-color="#383E95"/>
<stop offset="0.83" stop-color="#6D6262"/>
<stop offset="0.996054" stop-color="#4D4D4D"/>
</linearGradient>
<radialGradient id="paint4_radial_846_2474" cx="0" cy="0" r="1" gradientUnits="userSpaceOnUse" gradientTransform="translate(142.15 309.448) rotate(-95.1136) scale(37.6106 37.6365)">
<stop stop-color="#42E8E0"/>
<stop offset="0.11" stop-color="#36B5BF"/>
<stop offset="0.22" stop-color="#2C87A0"/>
<stop offset="0.34" stop-color="#235F86"/>
<stop offset="0.46" stop-color="#1B3E71"/>
<stop offset="0.58" stop-color="#162560"/>
<stop offset="0.71" stop-color="#121355"/>
<stop offset="0.85" stop-color="#0F084E"/>
<stop offset="1" stop-color="#0F054C"/>
</radialGradient>
<radialGradient id="paint5_radial_846_2474" cx="0" cy="0" r="1" gradientUnits="userSpaceOnUse" gradientTransform="translate(336.078 156.885) rotate(11.1924) scale(177.519 177.404)">
<stop stop-color="#C0BFF6"/>
<stop offset="1" stop-color="#393091"/>
</radialGradient>
<linearGradient id="paint6_linear_846_2474" x1="172.525" y1="281.099" x2="315.582" y2="63.7387" gradientUnits="userSpaceOnUse">
<stop stop-color="#FFD99A"/>
<stop offset="0.02" stop-color="#F1CE93"/>
<stop offset="0.25" stop-color="#9B8662"/>
<stop offset="0.49" stop-color="#F1CE93"/>
<stop offset="0.73" stop-color="#3C3393"/>
<stop offset="1"/>
</linearGradient>
<radialGradient id="paint7_radial_846_2474" cx="0" cy="0" r="1" gradientUnits="userSpaceOnUse" gradientTransform="translate(-1071.16 295.145) scale(0.946989 1.28603)">
<stop stop-color="#C0BFF6"/>
<stop offset="1" stop-color="#393091"/>
</radialGradient>
<linearGradient id="paint8_linear_846_2474" x1="266.137" y1="419.453" x2="479.554" y2="-17.4552" gradientUnits="userSpaceOnUse">
<stop stop-color="#FFDCA8"/>
<stop offset="0.09" stop-color="#DDBF91"/>
<stop offset="0.23" stop-color="#8C8C8C"/>
<stop offset="0.37" stop-color="#8C8C8C"/>
<stop offset="0.52" stop-color="#676767"/>
<stop offset="0.67" stop-color="#494949"/>
<stop offset="0.83" stop-color="#444444"/>
<stop offset="1" stop-color="#4D4D4D"/>
</linearGradient>
<radialGradient id="paint9_radial_846_2474" cx="0" cy="0" r="1" gradientUnits="userSpaceOnUse" gradientTransform="translate(260.764 295.471) scale(105.626 105.552)">
<stop stop-color="#42E8E0"/>
<stop offset="0.11" stop-color="#36B5BF"/>
<stop offset="0.22" stop-color="#2C87A0"/>
<stop offset="0.34" stop-color="#235F86"/>
<stop offset="0.46" stop-color="#1B3E71"/>
<stop offset="0.58" stop-color="#162560"/>
<stop offset="0.71" stop-color="#121355"/>
<stop offset="0.85" stop-color="#0F084E"/>
<stop offset="1" stop-color="#0F054C"/>
</radialGradient>
<radialGradient id="paint10_radial_846_2474" cx="0" cy="0" r="1" gradientUnits="userSpaceOnUse" gradientTransform="translate(316.565 178.805) scale(136.876 136.78)">
<stop stop-color="#E5D092"/>
<stop offset="1" stop-color="#6B6B6B"/>
</radialGradient>
<linearGradient id="paint11_linear_846_2474" x1="254.744" y1="270.963" x2="277.271" y2="110.641" gradientUnits="userSpaceOnUse">
<stop stop-color="#F1CE93"/>
<stop offset="0.09" stop-color="#E5D092"/>
<stop offset="0.23" stop-color="#545F71"/>
<stop offset="0.37" stop-color="#293440"/>
<stop offset="0.52" stop-color="#293440"/>
<stop offset="0.67" stop-color="#3E4147"/>
<stop offset="0.83" stop-color="#38383D"/>
<stop offset="1" stop-color="#7C7C81"/>
</linearGradient>
<radialGradient id="paint12_radial_846_2474" cx="0" cy="0" r="1" gradientUnits="userSpaceOnUse" gradientTransform="translate(240.817 198.275) scale(67.2362 67.1891)">
<stop stop-color="#42E8E0"/>
<stop offset="0.06" stop-color="#3BCBCD"/>
<stop offset="0.18" stop-color="#2F97AB"/>
<stop offset="0.3" stop-color="#256A8E"/>
<stop offset="0.42" stop-color="#1D4676"/>
<stop offset="0.54" stop-color="#172A64"/>
<stop offset="0.66" stop-color="#121657"/>
<stop offset="0.78" stop-color="#0F0A4F"/>
<stop offset="0.9" stop-color="#0F064D"/>
<stop offset="1" stop-color="#0F054C"/>
</radialGradient>
<radialGradient id="paint13_radial_846_2474" cx="0" cy="0" r="1" gradientUnits="userSpaceOnUse" gradientTransform="translate(368.416 311.352) rotate(11.1924) scale(64.1507 64.1092)">
<stop stop-color="#C0BFF6"/>
<stop offset="1" stop-color="#393091"/>
</radialGradient>
<linearGradient id="paint14_linear_846_2474" x1="339.006" y1="357.657" x2="504.572" y2="167.069" gradientUnits="userSpaceOnUse">
<stop stop-color="#F1CE93"/>
<stop offset="0.09" stop-color="#F1CE93"/>
<stop offset="0.23" stop-color="#F1CE93"/>
<stop offset="0.37" stop-color="#66686C"/>
<stop offset="0.52" stop-color="#757575"/>
<stop offset="0.67" stop-color="#3A3D41"/>
<stop offset="0.83" stop-color="#383392"/>
<stop offset="1" stop-color="#9A97BD"/>
</linearGradient>
<radialGradient id="paint15_radial_846_2474" cx="0" cy="0" r="1" gradientUnits="userSpaceOnUse" gradientTransform="translate(360.367 335.022) scale(57.3049 57.2648)">
<stop stop-color="#42E8E0"/>
<stop offset="0.11" stop-color="#36B5BF"/>
<stop offset="0.22" stop-color="#2C87A0"/>
<stop offset="0.34" stop-color="#235F86"/>
<stop offset="0.46" stop-color="#1B3E71"/>
<stop offset="0.58" stop-color="#162560"/>
<stop offset="0.71" stop-color="#121355"/>
<stop offset="0.85" stop-color="#0F084E"/>
<stop offset="1" stop-color="#0F054C"/>
</radialGradient>
<radialGradient id="paint16_radial_846_2474" cx="0" cy="0" r="1" gradientUnits="userSpaceOnUse" gradientTransform="translate(314.233 173.886) scale(54.0026 69.075)">
<stop stop-color="#F1CE93"/>
<stop offset="0.46" stop-color="#545F71"/>
<stop offset="1" stop-color="#E5D092"/>
</radialGradient>
<linearGradient id="paint17_linear_846_2474" x1="356.726" y1="226.801" x2="279.932" y2="250.173" gradientUnits="userSpaceOnUse">
<stop stop-color="#BCBEFF"/>
<stop offset="0.15" stop-color="#A2A6F5"/>
<stop offset="0.39" stop-color="#8188E8"/>
<stop offset="0.61" stop-color="#6A72DE"/>
<stop offset="0.82" stop-color="#5B65D8"/>
<stop offset="1" stop-color="#5761D7"/>
</linearGradient>
<linearGradient id="paint18_linear_846_2474" x1="343.421" y1="231.677" x2="238.186" y2="244.215" gradientUnits="userSpaceOnUse">
<stop stop-color="#BCBEFF"/>
<stop offset="0.15" stop-color="#A2A6F5"/>
<stop offset="0.39" stop-color="#8188E8"/>
<stop offset="0.61" stop-color="#6A72DE"/>
<stop offset="0.82" stop-color="#5B65D8"/>
<stop offset="1" stop-color="#5761D7"/>
</linearGradient>
<linearGradient id="paint19_linear_846_2474" x1="309.223" y1="311.121" x2="413.625" y2="136.276" gradientUnits="userSpaceOnUse">
<stop offset="0.12" stop-color="#F1CE93"/>
<stop offset="0.27" stop-color="#CEBD8B"/>
<stop offset="0.44" stop-color="#C9BBA6"/>
<stop offset="0.6" stop-color="#695140"/>
<stop offset="0.755" stop-color="#666356"/>
<stop offset="0.865" stop-color="#7A5168"/>
<stop offset="0.9998" stop-color="#754F6A"/>
<stop offset="1" stop-color="#F1CE93"/>
</linearGradient>
<radialGradient id="paint20_radial_846_2474" cx="0" cy="0" r="1" gradientUnits="userSpaceOnUse" gradientTransform="translate(364.48 401.531) rotate(16.7489) scale(58.0057 57.9719)">
<stop stop-color="#C0BFF6"/>
<stop offset="1" stop-color="#393091"/>
</radialGradient>
<linearGradient id="paint21_linear_846_2474" x1="327.426" y1="429.735" x2="235.099" y2="517.352" gradientUnits="userSpaceOnUse">
<stop stop-color="#FFE4B7"/>
<stop offset="0.09" stop-color="#F1CE93"/>
<stop offset="0.23" stop-color="#F1CE93"/>
<stop offset="0.37" stop-color="#356BA4"/>
<stop offset="0.52" stop-color="#36519C"/>
<stop offset="0.67" stop-color="#383E95"/>
<stop offset="0.83" stop-color="#383392"/>
<stop offset="1" stop-color="#393091"/>
</linearGradient>
<radialGradient id="paint22_radial_846_2474" cx="0" cy="0" r="1" gradientUnits="userSpaceOnUse" gradientTransform="translate(353.458 404.161) rotate(-95.1136) scale(37.6106 37.6365)">
<stop stop-color="#42E8E0"/>
<stop offset="0.11" stop-color="#36B5BF"/>
<stop offset="0.22" stop-color="#2C87A0"/>
<stop offset="0.34" stop-color="#235F86"/>
<stop offset="0.46" stop-color="#1B3E71"/>
<stop offset="0.58" stop-color="#162560"/>
<stop offset="0.71" stop-color="#121355"/>
<stop offset="0.85" stop-color="#0F084E"/>
<stop offset="1" stop-color="#0F054C"/>
</radialGradient>
</defs>
</svg>
