<svg width="606" height="481" viewBox="0 0 606 481" fill="none" xmlns="http://www.w3.org/2000/svg">
<g clip-path="url(#clip0_846_2982)">
<g opacity="0.4">
<path d="M560.167 174.015L514.35 147.561L560.167 121.107L605.985 147.561L560.167 174.015ZM517.587 147.561L560.167 172.14L602.748 147.561L560.167 122.982L517.587 147.561Z" fill="white"/>
<path d="M471.769 174.015L425.937 147.561L471.754 121.107L472.164 121.342L517.586 147.561L471.769 174.015ZM429.188 147.561L471.769 172.14L514.349 147.561L471.769 122.982L429.188 147.561Z" fill="white"/>
<path d="M515.975 199.53L470.157 173.077L515.975 146.623L561.793 173.077L515.975 199.53ZM473.394 173.077L515.975 197.655L558.555 173.077L515.975 148.498L473.394 173.077Z" fill="white"/>
<path d="M560.167 225.061L559.757 224.827L514.335 198.608L560.153 172.154L560.563 172.389L605.985 198.608L560.167 225.061ZM517.587 198.608L560.167 223.186L602.748 198.608L560.167 174.029L517.587 198.608Z" fill="white"/>
<path d="M383.356 174.015L382.946 173.78L337.523 147.561L383.341 121.107L383.751 121.342L429.173 147.561L383.356 174.015ZM340.775 147.561L383.356 172.14L425.936 147.561L383.356 122.982L340.775 147.561Z" fill="white"/>
<path d="M427.563 199.53L427.153 199.296L381.73 173.077L427.548 146.623L473.38 173.077L427.563 199.53ZM384.982 173.077L427.563 197.655L470.143 173.077L427.563 148.498L384.982 173.077Z" fill="white"/>
<path d="M471.769 225.048L471.359 224.813L425.937 198.594L471.754 172.141L517.572 198.594L471.754 225.048H471.769ZM429.188 198.594L471.769 223.173L514.349 198.594L471.769 174.016L429.188 198.594Z" fill="white"/>
<path d="M515.975 250.577L470.157 224.123L515.975 197.67L516.385 197.904L561.807 224.123L515.989 250.577H515.975ZM473.394 224.123L515.975 248.702L558.555 224.123L515.975 199.545L473.394 224.123Z" fill="white"/>
<path d="M560.167 276.095L559.757 275.86L514.335 249.641L560.153 223.188L560.563 223.422L605.985 249.641L560.167 276.095ZM517.587 249.641L560.167 274.22L602.748 249.641L560.167 225.062L517.587 249.641Z" fill="white"/>
<path d="M294.957 174.015L249.125 147.561L294.943 121.107L295.353 121.342L340.775 147.561L294.957 174.015ZM252.377 147.561L294.957 172.14L337.538 147.561L294.957 122.982L252.377 147.561Z" fill="white"/>
<path d="M339.163 199.53L338.753 199.296L293.331 173.077L339.149 146.623L339.559 146.857L384.981 173.077L339.163 199.53ZM296.583 173.077L339.163 197.655L381.744 173.077L339.163 148.498L296.583 173.077Z" fill="white"/>
<path d="M383.356 225.048L382.946 224.813L337.523 198.594L383.341 172.141L383.751 172.375L429.173 198.594L383.356 225.048ZM340.775 198.594L383.356 223.173L425.936 198.594L383.356 174.016L340.775 198.594Z" fill="white"/>
<path d="M427.563 250.577L427.153 250.343L381.73 224.123L427.548 197.67L427.958 197.904L473.38 224.123L427.563 250.577ZM384.982 224.123L427.563 248.702L470.143 224.123L427.563 199.545L384.982 224.123Z" fill="white"/>
<path d="M471.768 276.095L425.95 249.641L471.768 223.188L517.585 249.641L471.768 276.095ZM429.187 249.641L471.768 274.22L514.348 249.641L471.768 225.062L429.187 249.641Z" fill="white"/>
<path d="M515.975 301.61L470.143 275.157L515.96 248.703L516.37 248.937L561.793 275.157L515.975 301.61ZM473.394 275.157L515.975 299.735L558.555 275.157L515.975 250.578L473.394 275.157Z" fill="white"/>
<path d="M560.167 327.141L559.757 326.907L514.335 300.688L560.153 274.234L560.563 274.469L605.985 300.688L560.167 327.141ZM517.587 300.688L560.167 325.267L602.748 300.688L560.167 276.109L517.587 300.688Z" fill="white"/>
<path d="M206.544 174.015L206.134 173.78L160.712 147.561L206.53 121.107L206.94 121.342L252.362 147.561L206.544 174.015ZM163.964 147.561L206.544 172.14L249.125 147.561L206.544 122.982L163.964 147.561Z" fill="white"/>
<path d="M250.752 199.53L250.342 199.296L204.92 173.077L250.738 146.623L296.57 173.077L250.752 199.53ZM208.172 173.077L250.752 197.655L293.333 173.077L250.752 148.498L208.172 173.077Z" fill="white"/>
<path d="M294.957 225.048L294.547 224.813L249.125 198.594L294.943 172.141L295.353 172.375L340.775 198.594L294.957 225.048ZM252.377 198.594L294.957 223.173L337.538 198.594L294.957 174.016L252.377 198.594Z" fill="white"/>
<path d="M339.163 250.577L293.331 224.123L339.149 197.67L339.559 197.904L384.981 224.123L339.163 250.577ZM296.583 224.123L339.163 248.702L381.744 224.123L339.163 199.545L296.583 224.123Z" fill="white"/>
<path d="M383.37 276.095L382.96 275.86L337.538 249.641L383.356 223.188L383.766 223.422L429.188 249.641L383.37 276.095ZM340.79 249.641L383.37 274.22L425.951 249.641L383.37 225.062L340.79 249.641Z" fill="white"/>
<path d="M427.562 301.61L381.744 275.157L427.562 248.703L473.379 275.157L427.562 301.61ZM384.981 275.157L427.562 299.735L470.142 275.157L427.562 250.578L384.981 275.157Z" fill="white"/>
<path d="M471.769 327.141L471.359 326.907L425.937 300.688L471.754 274.234L517.586 300.688L471.769 327.141ZM429.188 300.688L471.769 325.267L514.349 300.688L471.769 276.109L429.188 300.688Z" fill="white"/>
<path d="M515.975 352.657L515.565 352.423L470.143 326.204L515.96 299.75L516.37 299.984L561.793 326.204L515.975 352.657ZM473.394 326.204L515.975 350.782L558.555 326.204L515.975 301.625L473.394 326.204Z" fill="white"/>
<path d="M560.182 378.173L514.35 351.719L560.167 325.266L560.577 325.5L606 351.719L560.182 378.173ZM517.601 351.719L560.182 376.298L602.762 351.719L560.182 327.141L517.601 351.719Z" fill="white"/>
<path d="M118.147 174.015L117.737 173.78L72.3145 147.561L118.132 121.107L118.542 121.342L163.964 147.561L118.147 174.015ZM75.5662 147.561L118.147 172.14L160.727 147.561L118.147 122.982L75.5662 147.561Z" fill="white"/>
<path d="M162.353 199.53L116.521 173.077L162.338 146.623L162.748 146.857L208.17 173.077L162.353 199.53ZM119.772 173.077L162.353 197.655L204.933 173.077L162.353 148.498L119.772 173.077Z" fill="white"/>
<path d="M206.56 225.048L206.15 224.813L160.728 198.594L206.545 172.141L206.955 172.375L252.377 198.594L206.56 225.048ZM163.979 198.594L206.56 223.173L249.14 198.594L206.56 174.016L163.979 198.594Z" fill="white"/>
<path d="M250.752 250.577L250.342 250.343L204.92 224.123L250.738 197.67L251.148 197.904L296.57 224.123L250.752 250.577ZM208.172 224.123L250.752 248.702L293.333 224.123L250.752 199.545L208.172 224.123Z" fill="white"/>
<path d="M294.957 276.095L294.547 275.86L249.125 249.641L294.943 223.188L340.775 249.641L294.957 276.095ZM252.377 249.641L294.957 274.22L337.538 249.641L294.957 225.062L252.377 249.641Z" fill="white"/>
<path d="M339.163 301.61L338.753 301.376L293.331 275.157L339.149 248.703L339.559 248.937L384.981 275.157L339.163 301.61ZM296.583 275.157L339.163 299.735L381.744 275.157L339.163 250.578L296.583 275.157Z" fill="white"/>
<path d="M383.37 327.141L337.538 300.688L383.356 274.234L429.173 300.688L383.356 327.141H383.37ZM340.79 300.688L383.37 325.267L425.951 300.688L383.37 276.109L340.79 300.688Z" fill="white"/>
<path d="M427.562 352.657L381.744 326.204L427.562 299.75L427.972 299.984L473.394 326.204L427.576 352.657H427.562ZM384.981 326.204L427.562 350.782L470.142 326.204L427.562 301.625L384.981 326.204Z" fill="white"/>
<path d="M471.769 378.173L471.359 377.938L425.937 351.719L471.754 325.266L472.164 325.5L517.586 351.719L471.769 378.173ZM429.188 351.719L471.769 376.298L514.349 351.719L471.769 327.141L429.188 351.719Z" fill="white"/>
<path d="M515.975 403.688L515.565 403.454L470.143 377.235L515.96 350.781L561.793 377.235L515.975 403.688ZM473.394 377.235L515.975 401.813L558.555 377.235L515.975 352.656L473.394 377.235Z" fill="white"/>
<path d="M560.182 429.22L514.35 402.766L560.167 376.312L560.577 376.547L606 402.766L560.182 429.22ZM517.601 402.766L560.182 427.345L602.762 402.766L560.182 378.187L517.601 402.766Z" fill="white"/>
<path d="M118.147 225.048L117.737 224.813L72.3145 198.594L118.132 172.141L163.964 198.594L118.147 225.048ZM75.5662 198.594L118.147 223.173L160.727 198.594L118.147 174.016L75.5662 198.594Z" fill="white"/>
<path d="M162.353 250.577L116.521 224.123L162.338 197.67L162.748 197.904L208.17 224.123L162.353 250.577ZM119.772 224.123L162.353 248.702L204.933 224.123L162.353 199.545L119.772 224.123Z" fill="white"/>
<path d="M206.56 276.095L206.15 275.86L160.728 249.641L206.545 223.188L206.955 223.422L252.377 249.641L206.56 276.095ZM163.979 249.641L206.56 274.22L249.14 249.641L206.56 225.062L163.979 249.641Z" fill="white"/>
<path d="M250.752 301.61L250.342 301.376L204.92 275.157L250.738 248.703L251.148 248.937L296.57 275.157L250.752 301.61ZM208.172 275.157L250.752 299.735L293.333 275.157L250.752 250.578L208.172 275.157Z" fill="white"/>
<path d="M294.957 327.126L294.547 326.891L249.125 300.672L294.943 274.219L295.353 274.453L340.775 300.672L294.957 327.126ZM252.377 300.672L294.957 325.251L337.538 300.672L294.957 276.094L252.377 300.672Z" fill="white"/>
<path d="M339.163 352.657L338.753 352.423L293.331 326.204L339.149 299.75L384.981 326.204L339.163 352.657ZM296.583 326.204L339.163 350.782L381.744 326.204L339.163 301.625L296.583 326.204Z" fill="white"/>
<path d="M383.37 378.173L337.553 351.719L383.37 325.266L429.188 351.719L383.37 378.173ZM340.79 351.719L383.37 376.298L425.951 351.719L383.37 327.141L340.79 351.719Z" fill="white"/>
<path d="M427.563 403.688L427.153 403.454L381.73 377.235L427.548 350.781L427.958 351.016L473.38 377.235L427.563 403.688ZM384.982 377.235L427.563 401.813L470.143 377.235L427.563 352.656L384.982 377.235Z" fill="white"/>
<path d="M471.769 429.22L471.359 428.985L425.937 402.766L471.754 376.312L472.164 376.547L517.586 402.766L471.769 429.22ZM429.188 402.766L471.769 427.345L514.349 402.766L471.769 378.187L429.188 402.766Z" fill="white"/>
<path d="M515.975 454.735L515.565 454.501L470.143 428.282L515.96 401.828L561.793 428.282L515.975 454.735ZM473.394 428.282L515.975 452.86L558.555 428.282L515.975 403.703L473.394 428.282Z" fill="white"/>
<path d="M560.182 480.251L559.772 480.016L514.35 453.797L560.167 427.344L560.577 427.578L606 453.797L560.182 480.251ZM517.601 453.797L560.182 478.376L602.762 453.797L560.182 429.219L517.601 453.797Z" fill="white"/>
<path d="M118.147 276.095L117.737 275.86L72.3145 249.641L118.132 223.188L163.964 249.641L118.147 276.095ZM75.5662 249.641L118.147 274.22L160.727 249.641L118.147 225.062L75.5662 249.641Z" fill="white"/>
<path d="M162.353 301.61L161.943 301.376L116.521 275.157L162.338 248.703L162.748 248.937L208.17 275.157L162.353 301.61ZM119.772 275.157L162.353 299.735L204.933 275.157L162.353 250.578L119.772 275.157Z" fill="white"/>
<path d="M206.56 327.126L160.728 300.672L206.545 274.219L206.955 274.453L252.377 300.672L206.56 327.126ZM163.979 300.672L206.56 325.251L249.14 300.672L206.56 276.094L163.979 300.672Z" fill="white"/>
<path d="M250.766 352.657L250.356 352.423L204.934 326.204L250.751 299.75L251.161 299.984L296.584 326.204L250.766 352.657ZM208.185 326.204L250.766 350.782L293.346 326.204L250.766 301.625L208.185 326.204Z" fill="white"/>
<path d="M294.957 378.173L294.547 377.938L249.125 351.719L294.943 325.266L295.353 325.5L340.775 351.719L294.957 378.173ZM252.377 351.719L294.957 376.298L337.538 351.719L294.957 327.141L252.377 351.719Z" fill="white"/>
<path d="M339.164 403.688L293.347 377.235L339.164 350.781L384.982 377.235L339.164 403.688ZM296.584 377.235L339.164 401.813L381.745 377.235L339.164 352.656L296.584 377.235Z" fill="white"/>
<path d="M383.37 429.22L382.96 428.985L337.538 402.766L383.356 376.312L383.766 376.547L429.188 402.766L383.37 429.22ZM340.79 402.766L383.37 427.345L425.951 402.766L383.37 378.187L340.79 402.766Z" fill="white"/>
<path d="M427.576 454.735L381.744 428.282L427.562 401.828L427.972 402.062L473.394 428.282L427.576 454.735ZM384.996 428.282L427.576 452.86L470.157 428.282L427.576 403.703L384.996 428.282Z" fill="white"/>
<path d="M471.769 480.251L471.359 480.016L425.937 453.797L471.754 427.344L472.164 427.578L517.586 453.797L471.769 480.251ZM429.188 453.797L471.769 478.376L514.349 453.797L471.769 429.219L429.188 453.797Z" fill="white"/>
<path d="M118.147 327.126L117.737 326.891L72.3145 300.672L118.132 274.219L118.542 274.453L163.964 300.672L118.147 327.126ZM75.5662 300.672L118.147 325.251L160.727 300.672L118.147 276.094L75.5662 300.672Z" fill="white"/>
<path d="M162.353 352.657L161.943 352.423L116.521 326.204L162.338 299.75L208.17 326.204L162.353 352.657ZM119.772 326.204L162.353 350.782L204.933 326.204L162.353 301.625L119.772 326.204Z" fill="white"/>
<path d="M206.56 378.173L160.728 351.719L206.545 325.266L206.955 325.5L252.377 351.719L206.56 378.173ZM163.979 351.719L206.56 376.298L249.14 351.719L206.56 327.141L163.979 351.719Z" fill="white"/>
<path d="M250.766 403.688L250.356 403.454L204.934 377.235L250.751 350.781L251.161 351.016L296.584 377.235L250.766 403.688ZM208.185 377.235L250.766 401.813L293.346 377.235L250.766 352.656L208.185 377.235Z" fill="white"/>
<path d="M294.957 429.22L294.547 428.985L249.125 402.766L294.943 376.312L340.76 402.766L294.943 429.22H294.957ZM252.377 402.766L294.957 427.345L337.538 402.766L294.957 378.187L252.377 402.766Z" fill="white"/>
<path d="M339.164 454.735L293.347 428.282L339.164 401.828L339.574 402.062L384.997 428.282L339.179 454.735H339.164ZM296.584 428.282L339.164 452.86L381.745 428.282L339.164 403.703L296.584 428.282Z" fill="white"/>
<path d="M383.37 480.251L382.96 480.016L337.538 453.797L383.356 427.344L429.188 453.797L383.37 480.251ZM340.79 453.797L383.37 478.376L425.951 453.797L383.37 429.219L340.79 453.797Z" fill="white"/>
<path d="M118.147 378.173L117.737 377.938L72.3145 351.719L118.132 325.266L118.542 325.5L163.964 351.719L118.147 378.173ZM75.5662 351.719L118.147 376.298L160.727 351.719L118.147 327.141L75.5662 351.719Z" fill="white"/>
<path d="M162.353 403.688L161.943 403.454L116.521 377.235L162.338 350.781L208.17 377.235L162.353 403.688ZM119.772 377.235L162.353 401.813L204.933 377.235L162.353 352.656L119.772 377.235Z" fill="white"/>
<path d="M206.56 429.206L206.15 428.972L160.728 402.752L206.545 376.299L206.955 376.533L252.377 402.752L206.56 429.206ZM163.979 402.752L206.56 427.331L249.14 402.752L206.56 378.174L163.979 402.752Z" fill="white"/>
<path d="M250.766 454.735L204.934 428.282L250.751 401.828L251.161 402.062L296.584 428.282L250.766 454.735ZM208.185 428.282L250.766 452.86L293.346 428.282L250.766 403.703L208.185 428.282Z" fill="white"/>
<path d="M294.957 480.251L249.14 453.797L294.957 427.344L340.775 453.797L294.957 480.251ZM252.377 453.797L294.957 478.376L337.538 453.797L294.957 429.219L252.377 453.797Z" fill="white"/>
<path d="M118.16 429.206L117.75 428.972L72.3281 402.752L118.146 376.299L118.556 376.533L163.978 402.752L118.16 429.206ZM75.5799 402.752L118.16 427.331L160.741 402.752L118.16 378.174L75.5799 402.752Z" fill="white"/>
<path d="M162.353 454.735L161.943 454.501L116.521 428.282L162.338 401.828L162.748 402.062L208.17 428.282L162.353 454.735ZM119.772 428.282L162.353 452.86L204.933 428.282L162.353 403.703L119.772 428.282Z" fill="white"/>
<path d="M206.56 480.251L206.15 480.016L160.728 453.797L206.545 427.344L252.377 453.797L206.56 480.251ZM163.979 453.797L206.56 478.376L249.14 453.797L206.56 429.219L163.979 453.797Z" fill="white"/>
<path d="M118.16 480.251L117.75 480.016L72.3281 453.797L118.146 427.344L118.556 427.578L163.978 453.797L118.16 480.251ZM75.5799 453.797L118.16 478.376L160.741 453.797L118.16 429.219L75.5799 453.797Z" fill="white"/>
</g>
<path d="M176.167 175.009L143.078 155.893L176.167 136.793L209.256 155.893L176.167 175.009Z" fill="#3E4142"/>
<path d="M176.167 163.175C175.727 163.175 175.303 163.058 174.907 162.838L141.818 143.738C141.042 143.284 140.559 142.463 140.559 141.555C140.559 140.647 141.042 139.827 141.818 139.373L174.907 120.272C175.684 119.818 176.65 119.818 177.427 120.272L210.515 139.373C211.292 139.827 211.775 140.647 211.775 141.555C211.775 142.463 211.292 143.284 210.515 143.738L177.427 162.838C177.031 163.058 176.606 163.175 176.167 163.175ZM148.102 141.555L176.167 157.755L204.232 141.555L176.167 125.355L148.102 141.555Z" fill="#505050"/>
<path d="M209.255 126.63L176.166 145.73V107.529L209.255 88.4141V126.63Z" fill="url(#paint0_radial_846_2982)"/>
<path d="M176.167 107.528L143.078 88.413L176.167 69.3125L209.256 88.4276L176.167 107.528Z" fill="url(#paint1_linear_846_2982)"/>
<path d="M176.167 145.73L143.078 126.63V88.4141L176.167 107.529V145.73Z" fill="url(#paint2_radial_846_2982)"/>
<path d="M164.244 125.091L154.986 119.744V109.066L164.244 114.398V125.091Z" fill="white"/>
<path d="M102.108 462.424L69.0195 443.323L102.108 424.223L135.197 443.323L102.108 462.424Z" fill="#3E4142"/>
<path d="M102.108 450.589C101.669 450.589 101.244 450.472 100.849 450.252L67.7597 431.152C66.9834 430.698 66.5 429.877 66.5 428.969C66.5 428.061 66.9834 427.241 67.7597 426.787L100.849 407.686C101.625 407.232 102.592 407.232 103.368 407.686L136.457 426.787C137.233 427.241 137.717 428.061 137.717 428.969C137.717 429.877 137.233 430.698 136.457 431.152L103.368 450.252C102.972 450.472 102.548 450.589 102.108 450.589ZM74.0435 428.969L102.108 445.169L130.173 428.969L102.108 412.769L74.0435 428.969Z" fill="#505050"/>
<path d="M135.197 414.045L102.108 433.16V394.944L135.197 375.844V414.045Z" fill="url(#paint3_linear_846_2982)"/>
<path d="M102.108 394.943L69.0195 375.843L102.108 356.742L135.197 375.843L102.108 394.943Z" fill="url(#paint4_linear_846_2982)"/>
<path d="M102.108 433.16L69.0195 414.045V375.844L102.108 394.944V433.16Z" fill="url(#paint5_linear_846_2982)"/>
<path d="M90.185 412.505L80.9277 407.173V396.48L90.185 401.827V412.505Z" fill="white"/>
<path d="M520.941 399.383L475.299 373.032C472.501 371.421 472.853 368.594 476.09 366.719L520.165 341.276C523.402 339.401 528.294 339.211 531.092 340.822L576.733 367.173C579.531 368.784 579.18 371.611 575.943 373.486L531.868 398.929C528.631 400.804 523.739 400.994 520.941 399.383Z" fill="#3E4142"/>
<path d="M525.716 388.661C523.489 388.661 521.336 388.177 519.651 387.211L473.995 360.86C471.974 359.688 470.802 357.871 470.802 355.865C470.802 353.624 472.252 351.514 474.771 350.05L518.846 324.607C522.933 322.249 528.733 322.058 532.366 324.153L578.007 350.504C580.029 351.676 581.201 353.492 581.201 355.499C581.201 357.74 579.75 359.849 577.231 361.314L533.157 386.756C530.974 388.016 528.279 388.661 525.701 388.661H525.716ZM526.375 327.888C524.676 327.888 522.83 328.298 521.468 329.089L477.393 354.532C476.28 355.176 476.016 355.748 476.016 355.865C476.031 355.894 476.177 356.114 476.617 356.363L522.273 382.714C524.28 383.871 528.176 383.666 530.608 382.26L574.682 356.817C575.796 356.172 576.059 355.601 576.059 355.484C576.045 355.455 575.898 355.235 575.459 354.986L529.817 328.635C528.938 328.122 527.708 327.888 526.389 327.888H526.375Z" fill="#505050"/>
<path d="M578.608 339.342V323.596H543.293L531.091 316.521C528.294 314.91 523.402 315.1 520.164 316.975L508.769 323.552H473.424V339.738C473.351 340.836 473.951 341.891 475.299 342.667L520.941 369.018C523.738 370.629 528.631 370.439 531.868 368.564L575.942 343.121C577.803 342.037 578.711 340.646 578.608 339.342Z" fill="#F1CE93"/>
<path d="M526.01 315.438C523.959 315.481 521.835 316.009 520.151 316.975L508.755 323.552H473.41V339.738C473.337 340.836 473.938 341.891 475.285 342.667L520.927 369.018C522.275 369.795 524.106 370.146 525.995 370.102V315.438H526.01Z" fill="url(#paint6_linear_846_2982)"/>
<path d="M477.409 323.537H473.41V339.737C473.337 340.836 473.938 341.891 475.285 342.667L477.409 343.897V323.552V323.537Z" fill="#C79A50"/>
<path d="M521.644 369.355C524.06 370.395 527.561 370.337 530.388 369.253V350.855H521.644V369.341V369.355Z" fill="#C79A50"/>
<path d="M520.941 352.877L475.299 326.526C472.501 324.915 472.853 322.088 476.09 320.213L520.165 294.77C523.402 292.895 528.294 292.705 531.092 294.316L576.733 320.667C579.531 322.278 579.18 325.105 575.943 326.98L531.868 352.423C528.631 354.298 523.739 354.488 520.941 352.877Z" fill="url(#paint7_linear_846_2982)"/>
<path d="M575.942 323.876L531.867 349.319C528.63 351.194 523.738 351.384 520.94 349.773L475.298 323.422C474.668 323.056 474.214 322.645 473.907 322.177C472.94 323.729 473.379 325.399 475.298 326.512L520.94 352.863C523.738 354.475 528.63 354.284 531.867 352.409L575.942 326.967C578.461 325.516 579.223 323.495 578.124 321.898C577.685 322.602 576.952 323.29 575.942 323.876Z" fill="#505050"/>
<path d="M561.822 343.503C561.822 344.675 561.002 346.11 559.976 346.696C558.951 347.282 558.131 346.813 558.131 345.627C558.131 344.44 558.951 343.019 559.976 342.434C561.002 341.848 561.822 342.316 561.822 343.503Z" fill="#505050"/>
<path d="M567.754 340.075C567.754 341.247 566.933 342.682 565.908 343.268C564.883 343.854 564.062 343.385 564.062 342.199C564.062 341.012 564.883 339.592 565.908 339.006C566.933 338.42 567.754 338.889 567.754 340.075Z" fill="#505050"/>
<path d="M573.686 336.647C573.686 337.819 572.866 339.255 571.841 339.84C570.815 340.426 569.995 339.958 569.995 338.771C569.995 337.585 570.815 336.164 571.841 335.578C572.866 334.992 573.686 335.461 573.686 336.647Z" fill="#505050"/>
<path d="M523.635 336.531L502.279 324.197C500.976 323.436 501.137 322.117 502.645 321.239L523.269 309.33C524.778 308.451 527.078 308.363 528.381 309.125L549.737 321.458C551.056 322.22 550.88 323.538 549.371 324.417L528.747 336.326C527.239 337.204 524.939 337.292 523.635 336.531Z" fill="url(#paint8_linear_846_2982)"/>
<path d="M525.686 326.205L522.727 324.506C522.551 324.403 522.566 324.213 522.771 324.096L525.627 322.455C525.832 322.338 526.155 322.323 526.33 322.426L529.289 324.125C529.465 324.228 529.45 324.418 529.245 324.535L526.389 326.176C526.184 326.293 525.862 326.308 525.686 326.205Z" fill="#D4ECFF"/>
<path d="M502.279 324.197L502.338 324.227C502.44 324.153 502.528 324.08 502.646 324.022L523.269 312.113C524.778 311.234 527.078 311.146 528.381 311.908L549.679 324.212C550.88 323.348 550.953 322.176 549.737 321.473L528.381 309.14C527.063 308.378 524.778 308.48 523.269 309.345L502.646 321.253C501.137 322.132 500.961 323.45 502.279 324.212V324.197Z" fill="#505050"/>
<path d="M581.816 238.346L439.163 155.734C431.415 151.252 417.866 151.793 408.901 156.949L109.519 329.249C100.555 334.405 99.5735 342.227 107.322 346.709L249.975 429.321C257.723 433.803 271.272 433.262 280.237 428.106L579.619 255.806C588.583 250.65 589.565 242.828 581.816 238.346Z" fill="#3E4142"/>
<path d="M263.203 414.703C257.828 414.703 252.672 413.59 248.732 411.305L106.079 328.692C101.904 326.276 99.6045 322.804 99.6045 318.937C99.6045 314.455 102.768 310.075 108.276 306.912L407.658 134.612C417.457 128.973 431.841 128.445 440.41 133.396L583.063 216.009C587.237 218.425 589.537 221.897 589.537 225.764C589.537 230.246 586.373 234.626 580.866 237.79L281.484 410.089C276.181 413.136 269.531 414.703 263.203 414.703ZM426.026 135.037C420.504 135.037 414.63 136.355 410.163 138.933L110.781 311.233C106.928 313.459 104.614 316.33 104.614 318.937C104.614 321.515 106.782 323.317 108.598 324.371L251.251 406.984C258.179 410.997 270.893 410.441 279.008 405.768L578.39 233.468C582.257 231.242 584.557 228.371 584.557 225.764C584.557 223.186 582.389 221.384 580.573 220.33L437.92 137.717C434.815 135.916 430.523 135.037 426.026 135.037Z" fill="white"/>
<path d="M245.829 378.553L97.3756 292.587C92.4979 289.76 90.2275 285.951 90.3887 281.997H90.3594L90.418 260.465L98.6792 270.132C99.2212 269.78 99.7485 269.429 100.334 269.092L404.037 94.317C416.092 87.374 434.314 86.6416 444.743 92.6911L591.116 177.457C594.075 174.22 600.286 167.364 600.286 167.364L600.213 188.442C600.432 193.188 597.049 198.256 590.238 202.167L286.535 376.942C274.48 383.885 256.258 384.618 245.829 378.568V378.553Z" fill="#C4C6C8"/>
<path d="M165.561 325.806L174.116 330.742C175.258 331.401 176.166 330.698 176.166 329.19C176.166 327.681 175.243 325.923 174.116 325.264L165.561 320.328C164.419 319.669 163.511 320.372 163.511 321.88C163.511 323.389 164.434 325.147 165.561 325.806Z" fill="#173D7A"/>
<path d="M404.023 94.3033C416.078 87.3603 434.3 86.628 444.729 92.6774L591.102 177.443C594.061 174.206 600.272 167.351 600.272 167.351L600.198 188.429C600.418 193.175 597.034 198.243 590.223 202.153L286.52 376.928C280.236 380.546 272.268 382.465 264.607 382.626L264.9 174.382L404.023 94.3179V94.3033Z" fill="#C4C6C8"/>
<path d="M593.256 156.979L444.803 71.0122C434.373 64.9774 416.152 65.7098 404.097 72.6381L100.394 247.413C88.3388 254.356 87.0205 264.873 97.4349 270.908L245.888 356.875C256.317 362.909 274.539 362.177 286.594 355.249L590.297 180.474C602.352 173.531 603.67 163.014 593.256 156.979Z" fill="#D4ECFF"/>
<path d="M245.786 359.19L97.3325 273.223C91.9568 270.104 89.7304 265.797 90.4628 261.417C90.7264 264.991 93.0114 268.36 97.4497 270.924L245.903 356.89C256.332 362.925 274.554 362.193 286.609 355.265L590.312 180.49C596.156 177.135 599.452 172.931 600.14 168.801C600.492 173.62 597.137 178.79 590.209 182.789L286.506 357.564C274.451 364.507 256.23 365.24 245.8 359.19H245.786Z" fill="white"/>
<path d="M581.816 160.362L439.163 77.7493C431.415 73.2672 417.866 73.8091 408.901 78.9651L109.519 251.265C100.555 256.421 99.5735 264.242 107.322 268.725L249.975 351.337C257.723 355.819 271.272 355.277 280.237 350.121L579.619 177.822C588.583 172.666 589.565 164.844 581.816 160.362Z" fill="url(#paint9_linear_846_2982)"/>
<path d="M285.92 308.435L185.247 250.328L191.677 246.607L292.336 304.729L285.92 308.435Z" fill="#293440"/>
<path d="M215.876 291.503L164.902 262.076L171.333 258.355L222.306 287.782L215.876 291.503Z" fill="#293440"/>
<path d="M240.616 305.769L224.079 296.233L230.509 292.527L247.032 302.063L240.616 305.769Z" fill="#27216D"/>
<path d="M265.576 320.182L249.039 310.646L255.469 306.926L271.992 316.476L265.576 320.182Z" fill="#8C8C8C"/>
<path d="M216.447 280.077L175.082 256.201L181.512 252.48L222.877 276.371L216.447 280.077Z" fill="#8C8C8C"/>
<path d="M266.937 309.226L225.572 285.35L232.003 281.645L273.367 305.52L266.937 309.226Z" fill="#293440"/>
<path d="M236.325 258.179C234.259 259.38 230.905 259.38 228.825 258.179C226.745 256.978 226.76 255.044 228.825 253.858C230.89 252.657 234.245 252.657 236.325 253.858C238.405 255.059 238.39 256.992 236.325 258.179Z" fill="#27216D"/>
<path d="M247.515 264.638C245.45 265.839 242.096 265.839 240.016 264.638C237.95 263.437 237.95 261.503 240.016 260.317C242.081 259.116 245.435 259.116 247.515 260.317C249.581 261.518 249.581 263.451 247.515 264.638Z" fill="#8C8C8C"/>
<path d="M258.72 271.112C256.655 272.314 253.301 272.314 251.221 271.112C249.156 269.911 249.156 267.978 251.221 266.791C253.286 265.59 256.64 265.59 258.72 266.791C260.8 267.993 260.786 269.926 258.72 271.112Z" fill="#293440"/>
<path d="M269.927 277.572C267.862 278.773 264.507 278.773 262.428 277.572C260.348 276.371 260.362 274.437 262.428 273.251C264.493 272.064 267.847 272.05 269.927 273.251C272.007 274.452 271.992 276.385 269.927 277.572Z" fill="#27216D"/>
<path d="M281.118 284.046C279.053 285.248 275.698 285.248 273.618 284.046C271.553 282.845 271.553 280.912 273.618 279.725C275.684 278.539 279.038 278.524 281.118 279.725C283.183 280.927 283.183 282.86 281.118 284.046Z" fill="#8C8C8C"/>
<path d="M506.25 161.007L489.303 151.222L495.894 147.414L512.841 157.199L506.25 161.007Z" fill="#27216D"/>
<path d="M529.861 174.628L512.899 164.844L519.491 161.035L536.438 170.834L529.861 174.628Z" fill="white"/>
<path d="M430.551 116.888L413.604 107.103L420.195 103.295L437.142 113.08L430.551 116.888Z" fill="white"/>
<path d="M502.47 170.864L478.873 157.242L485.464 153.434L509.062 167.07L502.47 170.864Z" fill="white"/>
<path d="M519.417 180.648L509.062 174.672L515.653 170.863L526.009 176.854L519.417 180.648Z" fill="#293440"/>
<path d="M402.486 260.537L263.817 180.576L304.23 157.242L442.884 237.203L402.486 260.537Z" fill="#24126A"/>
<path d="M403.117 262.677C402.751 262.677 402.384 262.589 402.048 262.399L263.394 182.437C262.734 182.057 262.324 181.353 262.324 180.592C262.324 179.83 262.734 179.127 263.394 178.746L303.806 155.413C304.465 155.032 305.286 155.032 305.945 155.413L444.599 235.374C445.258 235.755 445.668 236.458 445.668 237.219C445.668 237.981 445.258 238.684 444.599 239.065L404.186 262.399C403.849 262.589 403.483 262.692 403.117 262.692V262.677ZM268.725 180.577L403.117 258.078L439.252 237.219L304.861 159.719L268.725 180.577Z" fill="white"/>
<path d="M329.146 196.982C328.194 196.982 327.433 196.22 327.433 195.268V141.145C327.433 140.193 328.194 139.432 329.146 139.432C330.098 139.432 330.86 140.193 330.86 141.145V195.268C330.86 196.22 330.098 196.982 329.146 196.982Z" fill="#C4C6C8"/>
<path d="M320.666 135.008V171.568C320.666 172.813 321.486 174.073 323.141 175.025C326.452 176.929 331.813 176.929 335.123 175.025C336.778 174.073 337.599 172.813 337.599 171.568V135.008H320.651H320.666Z" fill="url(#paint10_radial_846_2982)"/>
<path d="M320.665 141.027V153.404C325.631 155.675 332.632 155.675 337.612 153.404V141.027C332.647 138.757 325.645 138.757 320.665 141.027Z" fill="#C4C6C8"/>
<path d="M342.871 84.0488H315.407V141.394C315.407 143.416 316.74 145.452 319.435 147.004C324.796 150.095 333.482 150.095 338.858 147.004C341.539 145.452 342.886 143.43 342.886 141.394V84.0488H342.871Z" fill="url(#paint11_radial_846_2982)"/>
<path d="M326.759 166.016C326.759 167.7 325.573 168.374 324.123 167.539C322.673 166.704 321.486 164.654 321.486 162.969C321.486 161.285 322.673 160.611 324.123 161.446C325.573 162.281 326.759 164.331 326.759 166.016Z" fill="#D4ECFF"/>
<path d="M382.391 227.755C381.439 227.755 380.678 226.994 380.678 226.042V171.919C380.678 170.967 381.439 170.205 382.391 170.205C383.344 170.205 384.105 170.967 384.105 171.919V226.042C384.105 226.994 383.344 227.755 382.391 227.755Z" fill="#C4C6C8"/>
<path d="M373.911 165.781V202.342C373.911 203.587 374.731 204.846 376.387 205.798C379.697 207.703 385.058 207.703 388.368 205.798C390.024 204.846 390.844 203.587 390.844 202.342V165.781H373.896H373.911Z" fill="url(#paint12_radial_846_2982)"/>
<path d="M373.91 171.8V184.178C378.876 186.448 385.877 186.448 390.857 184.178V171.8C385.892 169.53 378.89 169.53 373.91 171.8Z" fill="#C4C6C8"/>
<path d="M396.117 114.822H368.652V172.168C368.652 174.189 370 176.225 372.68 177.778C378.041 180.868 386.742 180.868 392.103 177.778C394.784 176.225 396.131 174.204 396.131 172.168V114.822H396.117Z" fill="url(#paint13_radial_846_2982)"/>
<path d="M380.004 196.791C380.004 198.476 378.817 199.149 377.367 198.315C375.917 197.48 374.73 195.429 374.73 193.745C374.73 192.06 375.917 191.386 377.367 192.221C378.817 193.056 380.004 195.107 380.004 196.791Z" fill="#D4ECFF"/>
<path d="M276.517 42.5378L312.96 21.5625C312.96 21.5625 311.583 42.4939 311.583 42.5378C311.583 42.5818 290.637 49.0267 290.637 49.0267L276.502 42.5378H276.517Z" fill="#AAC4DE"/>
<path d="M471.77 163.232C471.77 148.511 461.444 130.612 448.686 123.259C445.918 121.662 443.266 120.725 440.806 120.329C437.129 101.009 423.697 80.5023 407.673 71.2597C402.854 68.4767 398.269 66.9972 394.109 66.675C391.927 43.2682 375.638 16.6681 355.879 5.25766C345.552 -0.703907 336.192 -1.40699 329.279 2.24026L328.942 2.41603C328.766 2.51856 328.59 2.6211 328.415 2.72363L306.927 15.4231L314.075 21.0624C307.659 23.8601 303.616 31.0521 303.616 41.6862C303.616 61.2847 317.37 85.1163 334.347 94.9155L439.121 169.735L442.358 191.546L465.003 178.216C465.003 178.216 465.047 178.187 465.062 178.187L465.194 178.114C469.266 175.653 471.785 170.526 471.785 163.276L471.77 163.232Z" fill="url(#paint14_radial_846_2982)"/>
<path d="M304.655 33.0304L353.988 4.21863C344.409 -0.776196 335.752 -1.18633 329.278 2.24121L328.941 2.41698C328.765 2.51951 328.589 2.62204 328.414 2.72458L306.926 15.424L314.074 21.0634C309.591 23.0261 306.267 27.1275 304.67 33.0597L304.655 33.0304Z" fill="#AAC4DE"/>
<path d="M395.763 117.825L431.753 96.7035C425.586 86.0254 417.076 76.6949 407.672 71.2606C406.427 70.5429 405.196 69.9131 403.981 69.3711L358.207 96.1469L395.763 117.825Z" fill="#B3C5D7"/>
<path d="M317.063 17.7686L333.102 27.0258L362.47 9.72703C360.331 8.0572 358.12 6.5485 355.864 5.25952C352.305 3.20885 348.862 1.78804 345.596 0.953125L317.048 17.7832L317.063 17.7686Z" fill="#D4ECFF"/>
<path d="M427.782 90.4941L399.059 107.427L409.048 118.574L435.121 103.179C433.056 98.7554 430.58 94.4929 427.782 90.5088V90.4941Z" fill="#D4ECFF"/>
<path d="M426.128 136.545C423.359 134.948 420.708 134.011 418.247 133.615C414.571 114.295 401.139 93.7884 385.114 84.5457C380.295 81.7627 375.711 80.2833 371.551 79.961C369.368 56.5542 353.08 29.9542 333.32 18.5437C312.067 6.26904 294.827 16.2147 294.827 40.7641C294.827 41.599 294.856 42.4339 294.885 43.2835C279.344 36.0769 267.201 44.1916 267.201 62.6037C267.201 82.2021 280.955 106.034 297.932 115.833L426.128 189.847C438.871 197.2 449.212 191.239 449.212 176.518C449.212 161.797 438.886 143.898 426.128 136.545Z" fill="url(#paint15_linear_846_2982)"/>
<path d="M294.886 43.2688C294.842 42.4193 294.827 41.5843 294.827 40.7494C294.827 40.7201 294.827 40.6762 294.827 40.6469C286.243 37.3072 278.861 38.7574 274.232 44.1184C279.257 39.9731 286.58 39.4165 294.886 43.2688Z" fill="white"/>
<path d="M428.003 134.729C425.234 133.132 422.583 132.195 420.122 131.8C416.446 112.479 403.014 91.9728 386.989 82.7301C382.17 79.9471 377.586 78.4677 373.426 78.1454C371.243 54.7386 354.955 28.1386 335.195 16.7281C321.954 9.08205 310.28 10.0634 303.352 17.8267C310.412 11.7919 321.207 11.5721 333.321 18.559C353.08 29.9695 369.368 56.5695 371.551 79.9764C375.711 80.2986 380.295 81.778 385.114 84.5611C401.139 93.8184 414.571 114.325 418.247 133.631C420.708 134.011 423.359 134.949 426.128 136.56C438.871 143.913 449.212 161.812 449.212 176.533C449.212 181.85 447.85 185.996 445.536 188.808C448.993 186.142 451.087 181.323 451.087 174.702C451.087 159.982 440.761 142.082 428.003 134.729Z" fill="white"/>
<path d="M292.175 49.1277L301.813 53.5952L301.329 42.9904C301.3 42.2434 301.271 41.511 301.271 40.764C301.271 31.287 304.127 24.4319 309.327 21.4291C314.512 18.441 321.895 19.3931 330.097 24.1243C347.733 34.3044 363.128 59.1027 365.134 80.5615L365.647 85.9664L371.067 86.3765C374.392 86.6256 378.039 87.8853 381.906 90.1263C395.924 98.2118 408.55 117.019 411.933 134.831L412.783 139.284L417.265 139.987C419.052 140.265 420.956 140.983 422.934 142.125C433.7 148.336 442.796 164.097 442.796 176.518C442.796 181.176 441.507 184.589 439.251 185.878C437.01 187.167 433.407 186.581 429.379 184.266L301.183 110.252C286.272 101.639 273.675 79.8144 273.675 62.6035C273.675 55.851 275.667 50.695 279.138 48.4832C280.574 47.5751 282.302 47.121 284.25 47.121C286.623 47.121 289.318 47.7948 292.204 49.1277H292.175Z" fill="url(#paint16_radial_846_2982)"/>
<path d="M356.157 129.472L359.541 127.773L356.201 125.254L356.157 129.472Z" fill="#5793CE"/>
<path d="M345.991 83.786L349.287 82.1309L349.345 83.8446L345.991 83.786Z" fill="#5793CE"/>
<path d="M365.796 118.794L369.223 117.066L362.632 110.797L365.796 118.794Z" fill="#5793CE"/>
<path d="M358.545 127.655L342.535 118.222C341.729 117.739 341.07 116.538 341.07 115.527L341.129 96.998L360.083 108.16L360.024 126.689C360.024 127.699 359.365 128.124 358.545 127.641V127.655Z" fill="#5793CE"/>
<path d="M349.244 82.1453L331.945 93.2774C331.212 93.7461 331.798 95.5039 332.912 96.163L350.577 106.563L368.242 116.963C369.355 117.622 369.955 116.567 369.223 115.234L352.056 83.8151C351.309 82.4529 349.991 81.6765 349.244 82.1599V82.1453Z" fill="#5793CE"/>
<path d="M355.117 129.384L339.107 119.951C338.302 119.468 337.643 118.266 337.643 117.256L337.701 98.7266L356.655 109.888L356.597 128.417C356.597 129.428 355.937 129.853 355.117 129.369V129.384Z" fill="#D4ECFF"/>
<path d="M345.817 83.8738L328.518 95.0059C327.786 95.4747 328.372 97.2324 329.485 97.8915L347.15 108.291L364.815 118.691C365.928 119.35 366.529 118.296 365.796 116.963L348.629 85.5436C347.882 84.1814 346.564 83.405 345.817 83.8884V83.8738Z" fill="#D4ECFF"/>
<path d="M343.692 272.358L243.796 214.676L246.447 213.152L346.344 270.82L343.692 272.358Z" fill="#293440"/>
<path d="M276.02 234.949L242.345 215.512L247.882 212.318L281.556 231.756L276.02 234.949Z" fill="#FF522C"/>
<path d="M274.701 236.017L273.28 235.212L281.981 230.188L283.402 230.993L274.701 236.017Z" fill="white"/>
<path d="M441.494 366.131C440.629 366.629 439.795 367.259 439.004 367.962C438.652 356.727 430.537 352.26 420.548 358.016C412.418 362.718 405.519 372.766 403.044 382.624C401.037 382.36 398.679 382.873 396.145 384.338C388.865 388.542 382.962 398.766 382.962 407.173C382.962 415.581 388.865 418.994 396.145 414.79L441.494 388.615C446.869 385.51 451.234 377.966 451.234 371.755C451.234 365.545 446.869 363.026 441.494 366.131Z" fill="white"/>
<path d="M76.3432 224.196C74.8345 225.06 73.4137 226.32 72.1687 227.785C71.9782 219.553 66.0606 216.257 58.7808 220.461C56.4518 221.809 54.2547 223.757 52.3505 226.071C49.1134 220.402 42.4048 219.099 34.6269 223.581C23.6851 229.894 14.8234 245.259 14.8234 257.886C14.8234 258.926 14.9112 259.907 15.0284 260.844C13.4611 260.434 11.5569 260.771 9.47699 261.958C4.2478 264.975 0 272.328 0 278.378C0 284.427 4.2478 286.873 9.47699 283.841L76.3432 245.23C81.3673 242.33 85.454 235.255 85.454 229.455C85.454 223.654 81.382 221.296 76.3432 224.196Z" fill="white"/>
<path d="M584.527 299.691C584.527 302.415 582.608 305.725 580.25 307.102C577.892 308.464 575.973 307.366 575.973 304.627C575.973 301.888 577.892 298.577 580.25 297.215C582.608 295.853 584.527 296.951 584.527 299.691Z" fill="white"/>
<path d="M596.318 292.88C596.318 295.604 594.399 298.929 592.041 300.292C589.683 301.654 587.764 300.555 587.764 297.816C587.764 295.077 589.683 291.781 592.041 290.405C594.399 289.042 596.318 290.141 596.318 292.88Z" fill="white"/>
<path d="M584.527 286.068C584.527 288.792 582.608 292.117 580.25 293.479C577.892 294.841 575.973 293.743 575.973 291.004C575.973 288.265 577.892 284.954 580.25 283.592C582.608 282.23 584.527 283.328 584.527 286.068Z" fill="white"/>
<path d="M596.318 279.257C596.318 281.981 594.399 285.306 592.041 286.669C589.683 288.031 587.764 286.932 587.764 284.193C587.764 281.454 589.683 278.144 592.041 276.782C594.399 275.419 596.318 276.518 596.318 279.257Z" fill="white"/>
<path d="M420.179 31.0541L411.625 35.9904V26.1179L420.179 21.1816V31.0541Z" fill="white"/>
<path d="M432.043 24.1254L423.489 29.0616V19.1892L432.043 14.2383V24.1254Z" fill="white"/>
<path d="M420.251 43.8705L411.697 48.8068V38.9343L420.251 33.998V43.8705Z" fill="white"/>
<path d="M432.043 37.06L423.489 41.9962V32.1237L432.043 27.1875V37.06Z" fill="white"/>
<path d="M276.794 467.698C276.443 467.698 276.091 467.611 275.769 467.449C274.685 466.878 274.26 465.545 274.831 464.447C277.087 460.126 280.398 456.493 283.913 454.457C286.125 453.183 288.263 452.597 290.314 452.685C293.185 452.831 296.744 450.678 299.864 446.928C301.607 444.833 303.599 443.09 305.635 441.919C307.847 440.644 309.986 440.058 312.036 440.146C314.834 440.307 318.467 438.14 321.572 434.39C323.344 432.251 325.278 430.581 327.343 429.38C329.555 428.106 331.737 427.505 333.744 427.608C336.659 427.74 340.174 425.601 343.294 421.851C345.037 419.757 347.029 418.014 349.065 416.842C352.317 414.967 355.569 414.557 358.22 415.699C359.348 416.183 359.861 417.501 359.377 418.629C358.894 419.757 357.576 420.269 356.448 419.786C355.13 419.215 353.299 419.537 351.292 420.694C349.71 421.602 348.128 422.994 346.722 424.693C342.664 429.585 337.86 432.251 333.539 432.061C332.396 431.988 331.02 432.412 329.584 433.247C328.002 434.155 326.42 435.547 325.014 437.246C320.957 442.138 316.094 444.804 311.831 444.614C310.689 444.541 309.312 444.965 307.876 445.786C306.294 446.694 304.713 448.085 303.306 449.784C299.249 454.677 294.43 457.343 290.124 457.152C288.996 457.064 287.604 457.504 286.169 458.339C283.371 459.95 280.676 462.938 278.801 466.527C278.405 467.288 277.629 467.728 276.824 467.728L276.794 467.698Z" fill="white"/>
</g>
<defs>
<radialGradient id="paint0_radial_846_2982" cx="0" cy="0" r="1" gradientUnits="userSpaceOnUse" gradientTransform="translate(173.031 106.313) scale(49.3184 49.3184)">
<stop stop-color="#F1CE93"/>
<stop offset="1" stop-color="#685437"/>
</radialGradient>
<linearGradient id="paint1_linear_846_2982" x1="247.545" y1="87.1528" x2="143.078" y2="88.4187" gradientUnits="userSpaceOnUse">
<stop stop-color="#8C8C8C"/>
<stop offset="0.07" stop-color="#808080"/>
<stop offset="0.28" stop-color="#97876C"/>
<stop offset="0.48" stop-color="#D3B178"/>
<stop offset="0.67" stop-color="#F1CE93"/>
<stop offset="0.85" stop-color="#FFE4B7"/>
<stop offset="1" stop-color="#FFEED2"/>
</linearGradient>
<radialGradient id="paint2_radial_846_2982" cx="0" cy="0" r="1" gradientUnits="userSpaceOnUse" gradientTransform="translate(102.123 55.2812) scale(89.1452 89.1452)">
<stop stop-color="#E1BF86"/>
<stop offset="0.27" stop-color="#80663A"/>
<stop offset="0.64" stop-color="#DFDEDB"/>
<stop offset="1" stop-color="#958467"/>
</radialGradient>
<linearGradient id="paint3_linear_846_2982" x1="108.392" y1="406.471" x2="172.109" y2="404.274" gradientUnits="userSpaceOnUse">
<stop stop-color="#B38642"/>
<stop offset="0.115" stop-color="#BD862C"/>
<stop offset="0.28" stop-color="#B88F4A"/>
<stop offset="0.48" stop-color="#D3B178"/>
<stop offset="0.67" stop-color="#F1CE93"/>
<stop offset="0.85" stop-color="#FFE4B7"/>
<stop offset="1" stop-color="#FFEED2"/>
</linearGradient>
<linearGradient id="paint4_linear_846_2982" x1="206.531" y1="374.246" x2="69.0195" y2="375.841" gradientUnits="userSpaceOnUse">
<stop stop-color="#EAAD50"/>
<stop offset="0.115" stop-color="#BF8E3E"/>
<stop offset="0.28" stop-color="#CDA86A"/>
<stop offset="0.48" stop-color="#D3B178"/>
<stop offset="0.67" stop-color="#F1CE93"/>
<stop offset="0.85" stop-color="#FFE4B7"/>
<stop offset="1" stop-color="#FFEED2"/>
</linearGradient>
<linearGradient id="paint5_linear_846_2982" x1="106.927" y1="404.274" x2="69.0195" y2="404.499" gradientUnits="userSpaceOnUse">
<stop stop-color="#EAAD50"/>
<stop offset="0.115" stop-color="#BF8E3E"/>
<stop offset="0.28" stop-color="#CDA86A"/>
<stop offset="0.48" stop-color="#D3B178"/>
<stop offset="0.67" stop-color="#F1CE93"/>
<stop offset="0.85" stop-color="#FFE4B7"/>
<stop offset="1" stop-color="#FFEED2"/>
</linearGradient>
<linearGradient id="paint6_linear_846_2982" x1="568.326" y1="377.177" x2="462.131" y2="342.755" gradientUnits="userSpaceOnUse">
<stop stop-color="#FFA611"/>
<stop offset="0.07" stop-color="#DB9724"/>
<stop offset="0.28" stop-color="#E3AB4B"/>
<stop offset="0.48" stop-color="#F1CE93"/>
<stop offset="0.67" stop-color="#FFD698"/>
<stop offset="0.85" stop-color="#FFC672"/>
<stop offset="1" stop-color="#FFEAC6"/>
</linearGradient>
<linearGradient id="paint7_linear_846_2982" x1="578.614" y1="323.594" x2="473.411" y2="323.594" gradientUnits="userSpaceOnUse">
<stop stop-color="#EAAD50"/>
<stop offset="0.115" stop-color="#BF8E3E"/>
<stop offset="0.28" stop-color="#CDA86A"/>
<stop offset="0.48" stop-color="#D3B178"/>
<stop offset="0.67" stop-color="#F1CE93"/>
<stop offset="0.85" stop-color="#FFE4B7"/>
<stop offset="1" stop-color="#FFEED2"/>
</linearGradient>
<linearGradient id="paint8_linear_846_2982" x1="550.621" y1="322.827" x2="501.398" y2="322.827" gradientUnits="userSpaceOnUse">
<stop stop-color="#8C8C8C"/>
<stop offset="0.07" stop-color="#808080"/>
<stop offset="0.28" stop-color="#97876C"/>
<stop offset="0.48" stop-color="#D3B178"/>
<stop offset="0.67" stop-color="#F1CE93"/>
<stop offset="0.85" stop-color="#FFE4B7"/>
<stop offset="1" stop-color="#FFEED2"/>
</linearGradient>
<linearGradient id="paint9_linear_846_2982" x1="587.009" y1="214.531" x2="102.097" y2="214.531" gradientUnits="userSpaceOnUse">
<stop stop-color="#53504C"/>
<stop offset="0.15" stop-color="#58534C"/>
<stop offset="0.28" stop-color="#817058"/>
<stop offset="0.48" stop-color="#997D55"/>
<stop offset="0.567275" stop-color="#977C56"/>
<stop offset="0.674873" stop-color="#A58A63"/>
<stop offset="0.828585" stop-color="#C0AB8B"/>
<stop offset="1" stop-color="#FFEED2"/>
</linearGradient>
<radialGradient id="paint10_radial_846_2982" cx="0" cy="0" r="1" gradientUnits="userSpaceOnUse" gradientTransform="translate(319.611 169.781) scale(15.834 15.834)">
<stop stop-color="#699DD1"/>
<stop offset="0.27" stop-color="#6296CB"/>
<stop offset="0.64" stop-color="#5084BD"/>
<stop offset="1" stop-color="#396CAA"/>
</radialGradient>
<radialGradient id="paint11_radial_846_2982" cx="0" cy="0" r="1" gradientUnits="userSpaceOnUse" gradientTransform="translate(310.764 152.775) scale(25.0327 25.0327)">
<stop stop-color="#699DD1"/>
<stop offset="0.27" stop-color="#6296CB"/>
<stop offset="0.64" stop-color="#5084BD"/>
<stop offset="1" stop-color="#396CAA"/>
</radialGradient>
<radialGradient id="paint12_radial_846_2982" cx="0" cy="0" r="1" gradientUnits="userSpaceOnUse" gradientTransform="translate(372.857 200.555) scale(15.834 15.834)">
<stop stop-color="#699DD1"/>
<stop offset="0.27" stop-color="#6296CB"/>
<stop offset="0.64" stop-color="#5084BD"/>
<stop offset="1" stop-color="#396CAA"/>
</radialGradient>
<radialGradient id="paint13_radial_846_2982" cx="0" cy="0" r="1" gradientUnits="userSpaceOnUse" gradientTransform="translate(364.009 183.549) scale(25.0327 25.0327)">
<stop stop-color="#699DD1"/>
<stop offset="0.27" stop-color="#6296CB"/>
<stop offset="0.64" stop-color="#5084BD"/>
<stop offset="1" stop-color="#396CAA"/>
</radialGradient>
<radialGradient id="paint14_radial_846_2982" cx="0" cy="0" r="1" gradientUnits="userSpaceOnUse" gradientTransform="translate(387.679 95.7651) scale(90.112 90.112)">
<stop stop-color="#D7EBFF"/>
<stop offset="0.27" stop-color="#AFC1D3"/>
<stop offset="0.64" stop-color="#D8E4F1"/>
<stop offset="1" stop-color="#AFBDCE"/>
</radialGradient>
<linearGradient id="paint15_linear_846_2982" x1="267.201" y1="103.148" x2="449.197" y2="103.148" gradientUnits="userSpaceOnUse">
<stop stop-color="#D4ECFF"/>
<stop offset="0.24" stop-color="#D0E9FD"/>
<stop offset="0.46" stop-color="#C5E2F9"/>
<stop offset="0.67" stop-color="#B2D5F1"/>
<stop offset="0.88" stop-color="#98C4E7"/>
<stop offset="1" stop-color="#86B8E0"/>
</linearGradient>
<radialGradient id="paint16_radial_846_2982" cx="0" cy="0" r="1" gradientUnits="userSpaceOnUse" gradientTransform="translate(443.118 171.127) scale(182.216 182.216)">
<stop stop-color="#173D7A"/>
<stop offset="1" stop-color="#274F89"/>
</radialGradient>
<clipPath id="clip0_846_2982">
<rect width="606" height="480.25" fill="white"/>
</clipPath>
</defs>
</svg>
