<svg width="527" height="523" viewBox="0 0 527 523" fill="none" xmlns="http://www.w3.org/2000/svg">
<g opacity="0.8">
<path d="M325.532 522.308C321.361 522.308 317.25 521.206 313.645 519.121L81.3284 384.998C79.0643 383.687 77.7236 381.363 77.7236 378.771C77.7236 376.179 79.0643 373.826 81.3284 372.545L227.696 288.025L228.589 288.532L471.899 429C474.163 430.311 475.504 432.635 475.504 435.227C475.504 437.819 474.163 440.172 471.899 441.453L337.419 519.091C333.814 521.176 329.703 522.279 325.532 522.279V522.308ZM315.433 516.022C321.57 519.538 329.524 519.538 335.631 516.022L470.082 438.385C471.214 437.729 471.899 436.567 471.899 435.257C471.899 433.946 471.214 432.784 470.082 432.128L227.666 292.166L227.428 292.286L83.0862 375.613C81.9541 376.269 81.2689 377.431 81.2689 378.741C81.2689 380.052 81.9541 381.214 83.0862 381.87L315.403 515.992L315.433 516.022Z" fill="url(#paint0_linear_846_3186)"/>
</g>
<path d="M227.397 234.667L259.751 42.6591L257.159 41.5568L261.061 39.3224C261.806 38.8457 262.879 38.8755 264.07 39.5607L522.723 188.877C524.838 190.099 526.447 193.257 526.089 195.461L493.467 388.989C493.289 390.002 492.812 390.657 492.097 390.955L488.284 393.16L487.628 389.585L487.837 389.644L230.763 241.222C228.648 240 227.039 236.842 227.397 234.638V234.667Z" fill="url(#paint1_linear_846_3186)"/>
<path d="M521.296 194.15L525.556 192.273C526.032 193.376 526.271 194.508 526.092 195.461L493.47 388.989C493.291 390.002 492.815 390.657 492.1 390.955L488.286 393.16L487.631 389.585L487.839 389.644L474.82 382.137L521.266 194.121L521.296 194.15Z" fill="url(#paint2_linear_846_3186)"/>
<path d="M226.713 243.575L485.366 392.892C487.362 394.053 489.06 393.368 489.418 391.313L522.04 197.785C522.427 195.58 520.818 192.452 518.673 191.201L260.021 41.8843C258.025 40.7224 256.326 41.4076 255.969 43.4632L223.347 236.991C222.96 239.196 224.568 242.324 226.713 243.575Z" fill="#293440"/>
<g opacity="0.51">
<path d="M263.421 54.248L512.719 198.172L481.825 380.439L232.676 236.604L263.421 54.248Z" fill="#8C8C8C"/>
</g>
<path d="M64.1396 335.183L78.261 342.542L219.802 260.823C222.155 259.453 226.297 259.631 229.037 261.21L473.152 402.155C475.475 400.845 486.141 395.72 486.141 395.72L480.987 409.186C480.778 409.782 480.302 410.348 479.557 410.795L330.479 496.864C328.125 498.234 323.984 498.055 321.243 496.476L71.3791 352.254C70.247 351.599 69.5618 350.824 69.2936 350.02L64.1694 335.183H64.1396Z" fill="url(#paint3_linear_846_3186)"/>
<path d="M66.3151 337.507L322.316 485.304C325.117 486.913 329.347 487.092 331.79 485.691L484.562 397.478C486.976 396.077 486.678 393.635 483.877 392.026L227.876 244.228C225.076 242.62 220.845 242.441 218.402 243.841L65.6298 332.055C63.2167 333.455 63.5146 335.898 66.3151 337.507Z" fill="url(#paint4_linear_846_3186)"/>
<path d="M66.3146 336.047L322.316 483.844C325.116 485.453 329.347 485.632 331.789 484.231L484.562 396.018C485.366 395.571 485.843 394.975 486.052 394.379C486.439 395.541 485.962 396.703 484.562 397.507L331.789 485.721C329.376 487.121 325.116 486.943 322.316 485.334L66.3146 337.507C64.4377 336.404 63.6929 334.974 64.1398 333.693C64.4079 334.528 65.1229 335.362 66.3146 336.047Z" fill="white"/>
<path d="M399.538 453.337V450.537C399.538 450.269 399.39 450.15 399.181 450.269L389.29 455.989C389.082 456.108 388.933 456.406 388.933 456.674V459.475C388.933 459.743 389.082 459.862 389.29 459.743L399.181 454.023C399.39 453.903 399.538 453.606 399.538 453.337Z" fill="white"/>
<path d="M384.729 461.888V459.088C384.729 458.82 384.58 458.7 384.371 458.82L374.481 464.54C374.272 464.659 374.123 464.957 374.123 465.225V468.025C374.123 468.293 374.272 468.413 374.481 468.294L384.371 462.573C384.58 462.454 384.729 462.156 384.729 461.888Z" fill="white"/>
<path d="M444.733 389.255L231.989 266.424C230.559 265.619 228.831 265.619 227.401 266.424L151.641 310.247C150.538 310.873 150.568 312.452 151.641 313.078L364.295 435.85C365.725 436.654 367.453 436.654 368.883 435.85L444.733 392.085C445.835 391.46 445.835 389.881 444.733 389.255Z" fill="#B6B7BE"/>
<path d="M444.731 392.084L443.956 392.531L231.957 270.146C230.527 269.342 228.8 269.342 227.37 270.146L152.384 313.523L151.609 313.077C150.507 312.451 150.507 310.872 151.609 310.246L227.37 266.423C228.8 265.588 230.527 265.588 231.957 266.423L444.701 389.254C445.803 389.88 445.803 391.459 444.701 392.084H444.731Z" fill="#DBBD91"/>
<path d="M239.493 287.783L419.555 391.757L427.331 386.782L247.746 283.076L239.493 287.783Z" fill="#293440"/>
<path d="M227.781 304.317L391.279 398.698L396.88 392.442L236.004 299.551L227.781 304.317Z" fill="#293440"/>
<path d="M188.427 296.719L392.501 414.546L400.723 409.809L196.62 291.982L188.427 296.719Z" fill="#293440"/>
<path d="M175.293 304.288L379.397 422.144L387.619 417.377L183.516 299.551L175.293 304.288Z" fill="#293440"/>
<path d="M162.183 311.885L366.257 429.712L374.479 424.975L170.405 307.148L162.183 311.885Z" fill="#293440"/>
<path d="M417.647 390.655L425.87 395.422L434.093 390.655L425.87 385.918L417.647 390.655Z" fill="#293440"/>
<path d="M388.66 397.178L405.731 407.039L413.953 402.302L396.883 392.441L388.66 397.178Z" fill="#293440"/>
<path d="M223.795 418.987L166.416 385.858C164.182 384.577 164.182 382.462 166.416 381.181L205.652 358.539C207.886 357.258 211.521 357.258 213.785 358.539L271.164 391.667C273.398 392.949 273.398 395.064 271.164 396.345L231.928 418.987C229.694 420.268 226.059 420.268 223.795 418.987Z" fill="url(#paint5_linear_846_3186)"/>
<path d="M271.134 393.545L213.755 360.417C211.52 359.136 207.886 359.136 205.621 360.417L166.386 383.059C165.7 383.446 165.254 383.952 164.985 384.429C164.39 383.297 164.836 382.016 166.386 381.122L205.621 358.48C207.856 357.199 211.49 357.199 213.755 358.48L271.134 391.609C272.683 392.503 273.13 393.784 272.534 394.916C272.266 394.409 271.819 393.933 271.134 393.545Z" fill="#DBBD91"/>
<g opacity="0.11">
<mask id="mask0_846_3186" style="mask-type:luminance" maskUnits="userSpaceOnUse" x="232" y="54" width="281" height="327">
<path d="M263.421 54.2461L512.719 198.17L481.825 380.437L232.676 236.602L263.421 54.2461Z" fill="white"/>
</mask>
<g mask="url(#mask0_846_3186)">
<path d="M227.611 243.932L483.642 391.73C486.443 393.338 490.673 393.517 493.116 392.117L645.889 303.903C648.302 302.503 648.004 300.06 645.203 298.452L389.202 150.654C386.402 149.045 382.171 148.867 379.729 150.267L226.956 238.481C224.543 239.881 224.841 242.324 227.641 243.932H227.611Z" fill="url(#paint6_linear_846_3186)"/>
<path d="M484.39 270.416L427.011 237.288C424.776 236.007 424.776 233.891 427.011 232.61L466.247 209.969C468.481 208.688 472.116 208.688 474.38 209.969L531.759 243.097C533.993 244.378 533.993 246.493 531.759 247.774L492.523 270.416C490.289 271.697 486.654 271.697 484.39 270.416Z" fill="url(#paint7_linear_846_3186)"/>
<path d="M531.757 245.004L474.378 211.876C472.143 210.595 468.509 210.595 466.245 211.876L427.009 234.518C426.323 234.905 425.877 235.411 425.608 235.888C425.013 234.756 425.46 233.475 427.009 232.581L466.245 209.939C468.479 208.658 472.114 208.658 474.378 209.939L531.757 243.068C533.306 243.962 533.753 245.243 533.157 246.375C532.889 245.868 532.442 245.392 531.757 245.004Z" fill="#DBBD91"/>
<path d="M556.959 322.197L344.216 199.365C342.786 198.561 341.058 198.561 339.628 199.365L263.867 243.189C262.765 243.814 262.795 245.393 263.867 246.019L476.521 368.791C477.951 369.595 479.679 369.595 481.109 368.791L556.959 325.027C558.062 324.401 558.062 322.822 556.959 322.197Z" fill="#B6B7BE"/>
<path d="M556.959 325.026L556.185 325.473L344.186 203.088C342.756 202.284 341.028 202.284 339.598 203.088L264.612 246.465L263.837 246.018C262.735 245.392 262.735 243.813 263.837 243.188L339.598 199.364C341.028 198.53 342.756 198.53 344.186 199.364L556.929 322.196C558.032 322.821 558.032 324.4 556.929 325.026H556.959Z" fill="#DBBD91"/>
<path d="M283.708 240.209L469.043 347.221L461.685 351.452L276.35 244.439L283.708 240.209Z" fill="#293440"/>
<path d="M303.222 228.918L479.381 330.627L472.053 334.887L295.894 233.178L303.222 228.918Z" fill="#293440"/>
<path d="M492.547 338.225L508.992 347.728L501.663 351.959L485.188 342.485L492.547 338.225Z" fill="#293440"/>
<path d="M478.012 352.406L489.482 359.02L482.124 363.251L470.684 356.637L478.012 352.406Z" fill="#293440"/>
<path d="M315.466 221.857L521.238 340.667L513.88 344.898L308.107 226.118L315.466 221.857Z" fill="#293440"/>
<path d="M327.708 214.797L533.48 333.607L526.122 337.837L320.35 219.027L327.708 214.797Z" fill="#293440"/>
<path d="M339.924 207.736L545.696 326.546L538.367 330.777L332.595 211.967L339.924 207.736Z" fill="#293440"/>
</g>
</g>
<path d="M319.219 121.786L339.418 133.465L339.984 129.949L319.815 118.301L319.219 121.786Z" fill="#E5D092"/>
<path d="M342.633 135.312L353.626 141.657L354.222 138.172L343.229 131.826L342.633 135.312Z" fill="#E5D092"/>
<path d="M370.728 151.549L378.682 156.137L379.278 152.621L371.323 148.033L370.728 151.549Z" fill="#E5D092"/>
<path d="M364.948 148.181L367.659 149.76L368.255 146.244L365.544 144.695L364.948 148.181Z" fill="#E5D092"/>
<path d="M356.934 143.562L361.849 146.393L362.445 142.907L357.5 140.047L356.934 143.562Z" fill="#E5D092"/>
<path d="M335.187 148.599L343.141 153.187L343.737 149.672L335.782 145.084L335.187 148.599Z" fill="#E5D092"/>
<path d="M316.535 137.786L332.116 146.813L332.712 143.298L317.131 134.301L316.535 137.786Z" fill="#E5D092"/>
<path d="M338.882 194.566L354.463 203.563L355.029 200.078L339.448 191.051L338.882 194.566Z" fill="#E5D092"/>
<path d="M330.837 189.919L335.782 192.779L336.378 189.294L331.433 186.434L330.837 189.919Z" fill="#E5D092"/>
<path d="M341.471 178.541L357.052 187.538L357.648 184.052L342.067 175.025L341.471 178.541Z" fill="#E5D092"/>
<path d="M333.456 173.922L338.372 176.752L338.968 173.266L334.052 170.406L333.456 173.922Z" fill="#E5D092"/>
<path d="M327.38 263.715L298.005 246.764L297.409 250.249L326.784 267.231L327.38 263.715Z" fill="#E5D092"/>
<path d="M337.719 269.703L330.449 265.502L329.854 268.988L337.123 273.188L337.719 269.703Z" fill="#E5D092"/>
<path d="M389.287 273.1L359.943 256.148L359.347 259.634L388.692 276.615L389.287 273.1Z" fill="#E5D092"/>
<path d="M399.625 279.087L392.356 274.887L391.79 278.372L399.029 282.573L399.625 279.087Z" fill="#E5D092"/>
<path d="M307.331 243.338L299.376 238.75L298.78 242.265L306.735 246.853L307.331 243.338Z" fill="#E5D092"/>
<path d="M355.713 253.735L347.759 249.117L347.163 252.633L355.117 257.221L355.713 253.735Z" fill="#E5D092"/>
<path d="M325.981 254.122L310.4 245.125L309.804 248.64L325.385 257.638L325.981 254.122Z" fill="#E5D092"/>
<path d="M333.992 258.77L329.047 255.91L328.48 259.426L333.396 262.256L333.992 258.77Z" fill="#E5D092"/>
<path d="M352.792 269.612L337.211 260.615L336.615 264.101L352.196 273.128L352.792 269.612Z" fill="#E5D092"/>
<path d="M360.805 274.262L355.89 271.402L355.294 274.888L360.239 277.748L360.805 274.262Z" fill="#E5D092"/>
<path d="M354.344 261.719L346.39 257.131L345.794 260.646L353.748 265.234L354.344 261.719Z" fill="#E5D092"/>
<path d="M373.023 272.503L357.442 263.506L356.846 267.021L372.427 276.018L373.023 272.503Z" fill="#E5D092"/>
<path d="M381.035 277.151L376.09 274.291L375.494 277.807L380.44 280.637L381.035 277.151Z" fill="#E5D092"/>
<path d="M316.983 240.15L300.717 230.766L300.121 234.251L316.387 243.665L316.983 240.15Z" fill="#E5D092"/>
<path d="M331.851 248.73L320.083 241.938L319.487 245.453L331.255 252.245L331.851 248.73Z" fill="#E5D092"/>
<path d="M342.87 255.104L334.915 250.516L334.319 254.031L342.274 258.619L342.87 255.104Z" fill="#E5D092"/>
<path d="M420.005 290.795L403.709 281.41L403.143 284.896L419.409 294.31L420.005 290.795Z" fill="#E5D092"/>
<path d="M434.839 299.377L423.071 292.584L422.476 296.099L434.243 302.892L434.839 299.377Z" fill="#E5D092"/>
<path d="M445.861 305.75L437.907 301.162L437.341 304.678L445.265 309.265L445.861 305.75Z" fill="#E5D092"/>
<path d="M413.627 185.096L429.893 194.48L430.489 190.994L414.223 181.58L413.627 185.096Z" fill="#E5D092"/>
<path d="M398.791 176.515L410.559 183.308L411.155 179.793L399.387 173L398.791 176.515Z" fill="#E5D092"/>
<path d="M387.768 170.138L395.692 174.726L396.288 171.211L388.334 166.623L387.768 170.138Z" fill="#E5D092"/>
<path d="M408.235 173.15L424.502 182.564L425.098 179.049L408.831 169.664L408.235 173.15Z" fill="#E5D092"/>
<path d="M393.396 164.568L405.164 171.36L405.73 167.875L393.963 161.082L393.396 164.568Z" fill="#E5D092"/>
<path d="M382.347 158.191L390.301 162.779L390.897 159.294L382.943 154.676L382.347 158.191Z" fill="#E5D092"/>
<path d="M342.544 187.955L348.026 191.113L348.621 187.627L343.14 184.439L342.544 187.955Z" fill="#E5D092"/>
<path d="M332.206 181.966L339.445 186.167L340.041 182.651L332.772 178.48L332.206 181.966Z" fill="#E5D092"/>
<path d="M318.442 232.195L302.176 222.811L301.58 226.296L317.846 235.71L318.442 232.195Z" fill="#E5D092"/>
<path d="M333.279 240.775L321.511 233.982L320.945 237.498L332.713 244.29L333.279 240.775Z" fill="#E5D092"/>
<path d="M344.331 247.15L336.376 242.562L335.78 246.078L343.735 250.666L344.331 247.15Z" fill="#E5D092"/>
<path d="M309.026 217.985L303.515 214.797L302.919 218.312L308.43 221.47L309.026 217.985Z" fill="#E5D092"/>
<path d="M319.366 223.943L312.097 219.742L311.501 223.258L318.77 227.458L319.366 223.943Z" fill="#E5D092"/>
<path d="M334.142 232.493L322.434 225.73L321.868 229.246L333.547 236.009L334.142 232.493Z" fill="#E5D092"/>
<path d="M350.023 165.876L355.505 169.064L356.101 165.549L350.619 162.391L350.023 165.876Z" fill="#E5D092"/>
<path d="M339.685 159.92L346.924 164.12L347.52 160.605L340.251 156.404L339.685 159.92Z" fill="#E5D092"/>
<path d="M324.877 151.369L336.585 158.132L337.181 154.616L325.473 147.854L324.877 151.369Z" fill="#E5D092"/>
<path d="M358.392 178.868L370.1 185.631L370.666 182.146L358.987 175.383L358.392 178.868Z" fill="#E5D092"/>
<path d="M339.236 168.441L355.026 177.557L355.622 174.071L339.832 164.955L339.236 168.441Z" fill="#E5D092"/>
<path d="M331.221 163.824L336.166 166.654L336.762 163.169L331.817 160.309L331.221 163.824Z" fill="#E5D092"/>
<path d="M323.536 159.353L328.482 162.213L329.077 158.727L324.132 155.867L323.536 159.353Z" fill="#E5D092"/>
<path d="M324.575 204.576L340.156 213.573L340.752 210.087L325.171 201.061L324.575 204.576Z" fill="#E5D092"/>
<path d="M316.565 199.929L321.511 202.789L322.107 199.303L317.161 196.443L316.565 199.929Z" fill="#E5D092"/>
<path d="M325.648 213.992L331.16 217.15L331.756 213.664L326.244 210.477L325.648 213.992Z" fill="#E5D092"/>
<path d="M345.076 207.586L350.558 210.744L351.154 207.258L345.672 204.07L345.076 207.586Z" fill="#E5D092"/>
<path d="M352.911 212.083L366.079 219.71L366.675 216.195L353.507 208.598L352.911 212.083Z" fill="#E5D092"/>
<path d="M368.432 221.05L376.267 225.578L376.863 222.093L369.027 217.564L368.432 221.05Z" fill="#E5D092"/>
<path d="M315.312 208.004L322.581 212.204L323.177 208.689L315.907 204.488L315.312 208.004Z" fill="#E5D092"/>
<path d="M314.627 216.226L320.138 219.414L320.734 215.899L315.223 212.711L314.627 216.226Z" fill="#E5D092"/>
<path d="M304.29 210.238L311.559 214.438L312.155 210.953L304.886 206.752L304.29 210.238Z" fill="#E5D092"/>
<path d="M337.091 202.969L342.036 205.829L342.632 202.313L337.687 199.453L337.091 202.969Z" fill="#E5D092"/>
<path d="M329.402 198.529L334.318 201.389L334.914 197.874L329.998 195.014L329.402 198.529Z" fill="#E5D092"/>
<path d="M367.301 158.31L384.133 168.052L384.729 164.537L367.897 154.795L367.301 158.31Z" fill="#E5D092"/>
<path d="M348.443 147.408L364.233 156.524L364.829 153.038L349.039 143.922L348.443 147.408Z" fill="#E5D092"/>
<path d="M340.431 142.791L345.376 145.621L345.972 142.135L341.026 139.275L340.431 142.791Z" fill="#E5D092"/>
<path d="M332.741 138.32L337.687 141.18L338.253 137.694L333.337 134.834L332.741 138.32Z" fill="#E5D092"/>
<path d="M328.543 135.908L317.878 129.741L318.474 126.256L329.139 132.393L328.543 135.908Z" fill="#E5D092"/>
<path d="M133.893 118.381L134.084 118.189C134.084 118.189 134.084 118.189 133.893 118.381Z" fill="#293440"/>
<path d="M232.516 71.9924C231.558 72.184 230.217 72.7588 228.876 73.3336L223.128 76.3993C223.703 76.2077 224.278 75.8244 224.852 75.8244C229.834 75.058 234.816 81.1893 236.157 89.8113C237.115 96.5173 235.582 102.648 232.516 105.331L239.031 100.924C242.671 98.6249 244.396 92.4936 243.629 85.596C242.288 77.3572 237.498 71.226 232.516 71.9924Z" fill="#8D8D91"/>
<path d="M275.819 32.9108C271.22 19.1156 258.383 3.59601 240.373 0.33881C234.433 -0.61919 228.877 0.530416 223.895 2.82962C223.895 2.82962 212.399 8.38601 203.969 20.2652C209.334 13.9424 220.255 3.40442 232.709 5.70362C249.57 8.57761 262.024 24.4804 266.622 39.042C267.963 43.2572 267.388 48.4304 265.472 50.9212L271.412 45.9396L273.328 44.2152L275.052 42.4908C277.926 40.1916 277.16 37.126 275.819 32.9108Z" fill="#8D8D91"/>
<path d="M238.074 36.1624C234.817 35.396 231.751 35.5876 228.494 36.5456C228.494 36.5456 209.909 45.5508 205.693 58.1964C205.693 58.0048 205.885 57.8132 205.885 57.6216C206.268 56.8552 217.573 38.6532 230.41 41.9104C242.672 44.976 250.719 59.5375 253.402 72.3747C254.168 75.8235 253.593 79.2723 252.444 81.9547L258.192 76.59L260.874 74.2907C263.748 71.6083 262.215 69.6924 261.449 65.094C258.958 52.4484 251.103 39.4196 238.074 36.1624Z" fill="#8D8D91"/>
<path d="M236.157 89.8113C234.816 81.1893 229.835 74.8665 224.853 75.8245C224.278 76.0161 223.703 76.2077 223.129 76.3993C219.105 78.5069 216.997 85.4045 218.147 93.0685C219.488 101.691 224.47 108.013 229.451 107.055C229.835 107.055 230.218 106.864 230.793 106.672C230.793 106.672 230.984 106.672 230.984 106.481C231.559 106.289 232.134 105.906 232.517 105.331C235.583 102.649 237.115 96.5173 236.157 89.8113Z" fill="#F1CE93"/>
<path d="M253.594 72.1843C250.911 59.3471 242.864 44.7855 230.602 41.7199C217.764 38.4627 206.46 56.6647 206.077 57.4311C205.885 57.6227 205.885 57.8143 205.885 58.0059C204.161 61.4547 203.969 67.0111 205.694 70.6515C207.418 74.6751 210.484 75.0583 212.591 71.6095C212.591 71.4179 221.213 58.0059 229.452 60.1135C238.074 62.4127 243.247 72.3759 244.588 78.6987C245.355 81.9559 246.888 84.2551 248.612 84.6383C249.378 84.8299 250.145 84.6383 251.103 84.0635C251.869 83.4887 252.444 82.5307 253.019 81.3811C253.785 79.2735 254.168 75.6331 253.594 72.1843Z" fill="#F1CE93"/>
<path d="M266.814 38.8512C262.024 24.2896 249.762 8.38681 232.901 5.51281C220.255 3.40521 209.526 13.7516 204.161 20.0744C202.053 22.5652 200.712 24.4812 200.521 24.8644C199.754 26.014 199.371 27.3552 199.179 28.888C198.796 31.762 198.988 35.0192 200.137 37.51C201.862 41.5336 204.927 42.3 206.843 39.2344C207.035 39.0428 218.723 21.224 232.709 23.5232C246.888 26.014 256.085 39.0428 258.767 47.2816C259.725 50.1556 261.258 51.6884 262.791 52.0716C263.749 52.2632 264.707 51.88 265.473 50.922C265.665 50.7304 265.665 50.5388 265.856 50.5388C267.581 48.2396 268.155 43.0664 266.814 38.8512Z" fill="#F1CE93"/>
<path d="M77.5968 295.64L77.2136 237.394C77.2136 234.711 75.8724 232.412 73.5732 231.071L19.3504 199.649C17.626 198.691 15.71 198.882 14.1772 199.649L2.10645 206.546C3.63925 205.588 5.74684 205.205 7.47124 206.355L61.694 237.777C63.9932 239.118 65.3344 241.417 65.3344 244.1L65.7176 302.346C65.7176 305.029 64.3764 307.328 62.2688 308.477L72.6152 302.538C75.4892 301.58 77.5968 299.089 77.5968 295.64Z" fill="#404040"/>
<path d="M65.9104 302.346L65.5272 244.099C65.5272 241.417 64.186 239.118 61.8868 237.777L7.664 206.546C5.9396 205.588 3.83201 205.779 2.29921 206.737C0.958009 207.695 0 209.037 0 210.953V273.031C0 275.713 1.3412 278.013 3.6404 279.354L31.8056 295.448L46.7504 315.758V303.879L54.9892 308.477C57.48 310.01 60.354 309.627 62.6532 308.285C64.5692 307.327 65.9104 305.028 65.9104 302.346Z" fill="#F1CE93"/>
<path d="M11.3052 258.853C14.2681 258.853 16.67 253.877 16.67 247.74C16.67 241.602 14.2681 236.627 11.3052 236.627C8.34232 236.627 5.94043 241.602 5.94043 247.74C5.94043 253.877 8.34232 258.853 11.3052 258.853Z" fill="#8D8D91"/>
<path d="M29.5074 269.964C32.4703 269.964 34.8722 264.989 34.8722 258.851C34.8722 252.714 32.4703 247.738 29.5074 247.738C26.5445 247.738 24.1426 252.714 24.1426 258.851C24.1426 264.989 26.5445 269.964 29.5074 269.964Z" fill="#8D8D91"/>
<path d="M49.816 280.12C52.7789 280.12 55.1808 275.145 55.1808 269.007C55.1808 262.87 52.7789 257.895 49.816 257.895C46.8531 257.895 44.4512 262.87 44.4512 269.007C44.4512 275.145 46.8531 280.12 49.816 280.12Z" fill="#8D8D91"/>
<path d="M522.56 422.098V365.193C522.56 362.894 521.41 360.786 519.303 359.637L510.681 354.655V358.487L501.867 362.894L492.479 356.763L492.67 344.117L470.636 331.471V334.729L461.823 339.135L451.86 333.579L452.051 323.041C451.86 323.233 451.476 323.424 451.285 323.616L437.106 332.238C438.256 331.471 439.789 331.28 441.322 332.046L504.741 368.833C506.657 369.983 507.998 372.091 507.998 374.39V431.295C507.998 433.786 506.657 435.893 504.55 437.043L519.303 427.846C521.219 426.697 522.56 424.589 522.56 422.098Z" fill="#827F73"/>
<path d="M508 431.102V374.197C508 371.898 506.85 369.79 504.742 368.64L441.323 331.853C439.982 331.087 438.257 331.278 437.108 332.045C436.15 332.811 435.383 333.769 435.383 335.302L435 394.506C435 396.806 436.15 398.913 438.066 400.063L498.036 436.658C500.144 438 502.443 437.808 504.359 436.85C506.467 435.7 508 433.784 508 431.102Z" fill="#404040"/>
<path d="M472.362 307.904C469.104 307.521 466.614 308.862 464.889 310.586C462.59 312.885 461.44 315.951 461.632 319.208L462.015 338.943L470.829 334.536V331.279L470.446 314.801C470.254 312.311 471.02 310.011 472.362 307.904Z" fill="#121E31"/>
<path d="M472.553 296.6C487.114 298.707 498.419 313.269 501.868 329.363C502.251 331.279 502.442 333.195 502.442 334.92L501.868 362.702L510.681 358.295V354.463L511.256 330.513C511.256 328.597 511.064 326.681 510.681 324.957C507.232 309.054 495.928 294.301 481.366 292.193C477.534 291.618 474.277 292.385 471.595 293.726C465.655 296.025 461.632 298.707 460.865 299.091C463.931 297.175 467.763 295.833 472.553 296.6Z" fill="#121E31"/>
<path d="M451.861 333.387L461.824 338.944L461.441 319.209C461.441 315.952 462.591 312.886 464.698 310.587C466.423 308.863 468.914 307.521 472.171 307.905C473.32 308.096 474.662 308.479 476.003 309.054C482.709 312.311 487.882 320.167 490.564 326.107C492.097 329.364 492.864 334.154 492.672 337.794L492.48 343.925L492.289 356.571L501.677 362.702L502.252 334.92C502.252 333.004 502.061 331.088 501.677 329.364C498.229 313.461 486.924 298.708 472.362 296.6C467.572 295.834 463.74 297.175 460.675 299.091C459.525 299.857 458.567 300.624 457.609 301.39C453.969 304.647 451.861 309.437 451.861 314.419V322.658V333.387Z" fill="#404040"/>
<path d="M465.844 379.37C465.844 379.37 459.713 374.58 462.012 369.024C464.503 363.659 472.358 365.766 475.616 371.131C479.064 376.304 479.064 383.394 473.316 383.202V407.535L465.461 402.937L465.844 379.37Z" fill="#949494"/>
<defs>
<linearGradient id="paint0_linear_846_3186" x1="475.485" y1="405.126" x2="77.7157" y2="405.126" gradientUnits="userSpaceOnUse">
<stop stop-color="#6A4403"/>
<stop offset="0.07" stop-color="#8B6017"/>
<stop offset="0.28" stop-color="#92784C"/>
<stop offset="0.48" stop-color="#F1CE93"/>
<stop offset="0.67" stop-color="#FFD698"/>
<stop offset="0.85" stop-color="#FFC672"/>
<stop offset="1" stop-color="#FFEAC6"/>
</linearGradient>
<linearGradient id="paint1_linear_846_3186" x1="526.149" y1="216.077" x2="227.367" y2="216.077" gradientUnits="userSpaceOnUse">
<stop stop-color="#BFE2F6"/>
<stop offset="0.29" stop-color="#C3DEF6"/>
<stop offset="0.64" stop-color="#D2D2F9"/>
<stop offset="1" stop-color="#E9E9FD"/>
</linearGradient>
<linearGradient id="paint2_linear_846_3186" x1="526.152" y1="292.702" x2="474.85" y2="292.702" gradientUnits="userSpaceOnUse">
<stop stop-color="#5761D7"/>
<stop offset="0.18" stop-color="#5B65D8"/>
<stop offset="0.39" stop-color="#6A72DE"/>
<stop offset="0.61" stop-color="#8188E8"/>
<stop offset="0.85" stop-color="#A2A6F5"/>
<stop offset="1" stop-color="#BCBEFF"/>
</linearGradient>
<linearGradient id="paint3_linear_846_3186" x1="64.1396" y1="378.858" x2="486.141" y2="378.858" gradientUnits="userSpaceOnUse">
<stop stop-color="#545F71"/>
<stop offset="0.18" stop-color="#293440"/>
<stop offset="0.39" stop-color="#545F71"/>
<stop offset="0.61" stop-color="#293440"/>
<stop offset="0.85" stop-color="#B6B7BE"/>
<stop offset="1" stop-color="#BCBEFF"/>
</linearGradient>
<linearGradient id="paint4_linear_846_3186" x1="344.332" y1="364.766" x2="-77.8774" y2="364.766" gradientUnits="userSpaceOnUse">
<stop stop-color="#F6E0BF" stop-opacity="0.82"/>
<stop offset="0.29" stop-color="#63636A"/>
<stop offset="0.64" stop-color="#888896"/>
<stop offset="1" stop-color="#AEAEBF"/>
</linearGradient>
<linearGradient id="paint5_linear_846_3186" x1="272.832" y1="388.748" x2="164.777" y2="388.748" gradientUnits="userSpaceOnUse">
<stop stop-color="#C0BFF6"/>
<stop offset="0.29" stop-color="#C4C3F6"/>
<stop offset="0.64" stop-color="#D2D2F9"/>
<stop offset="1" stop-color="#E9E9FD"/>
</linearGradient>
<linearGradient id="paint6_linear_846_3186" x1="505.659" y1="271.192" x2="83.4488" y2="271.192" gradientUnits="userSpaceOnUse">
<stop stop-color="#F6E0BF" stop-opacity="0.82"/>
<stop offset="0.29" stop-color="#63636A"/>
<stop offset="0.64" stop-color="#888896"/>
<stop offset="1" stop-color="#AEAEBF"/>
</linearGradient>
<linearGradient id="paint7_linear_846_3186" x1="533.457" y1="240.207" x2="425.372" y2="240.207" gradientUnits="userSpaceOnUse">
<stop stop-color="#C0BFF6"/>
<stop offset="0.29" stop-color="#C4C3F6"/>
<stop offset="0.64" stop-color="#D2D2F9"/>
<stop offset="1" stop-color="#E9E9FD"/>
</linearGradient>
</defs>
</svg>
