<svg width="452" height="365" viewBox="0 0 452 365" fill="none" xmlns="http://www.w3.org/2000/svg">
<path style="mix-blend-mode:lighten" opacity="0.5" d="M225.8 395.691C350.506 395.691 451.6 337.323 451.6 265.321C451.6 193.32 350.506 134.951 225.8 134.951C101.094 134.951 0 193.32 0 265.321C0 337.323 101.094 395.691 225.8 395.691Z" fill="url(#paint0_radial_1107_1983)"/>
<path opacity="0.4" d="M196.53 190.22C195.69 189.49 194.35 189.09 193.32 189.26C189.8 189.84 181.72 192.06 176.93 200.56C171.31 210.53 178.3 218.22 179.77 219.67C177.63 222.26 175.94 223.94 175.25 224.6C173.07 223.19 170.76 221.67 168.34 220.05C164.43 217.45 160.3 214.57 155.97 211.49C154.9 210.71 153.82 209.93 152.72 209.13C152.17 208.73 151.62 208.33 151.06 207.93C150.51 207.52 149.97 207.11 149.41 206.7C148.31 205.88 147.19 205.04 146.06 204.2C144.98 203.37 143.89 202.53 142.79 201.69C143.99 200.68 146.34 198.66 149.21 195.93C151.64 196.23 164.6 197.36 170.5 188.42C175.5 180.85 171.52 175.06 169.38 172.77C168.76 172.1 167.62 171.66 166.65 171.72C163.35 171.91 155.61 173.08 149.66 179.68C142.64 187.47 147.61 194.41 148.63 195.67C145.82 198.33 143.53 200.31 142.32 201.33C140.18 199.69 138.08 198 135.93 196.3C134.78 195.4 133.69 194.47 132.56 193.55C131.44 192.62 130.3 191.7 129.19 190.76C125.55 187.66 121.91 184.51 118.4 181.3C119.01 180.92 120.04 180.27 121.38 179.4C122.84 178.44 124.68 177.21 126.73 175.77C128.75 176.15 140.94 178.04 147.8 170.47C153.54 164.13 150.6 158.82 148.92 156.68C148.43 156.06 147.43 155.6 146.51 155.59C143.4 155.56 135.98 156.12 129.49 161.56C122 167.83 125.38 174.07 126.26 175.43C122.41 178.14 119.34 180.09 118.01 180.92C117.38 180.35 116.75 179.77 116.14 179.19C110.29 173.75 104.78 168.21 99.7896 162.74C100.71 162.31 103.4 161 106.8 158.77C107.56 158.28 108.36 157.72 109.17 157.13C111.11 157.4 121.07 158.41 125.94 151.73C130.09 146.04 127.2 141.57 125.61 139.8C125.15 139.28 124.28 138.93 123.53 138.96C120.96 139.05 114.91 139.83 110.06 144.77C104.48 150.45 107.78 155.68 108.64 156.85C104.29 159.97 100.63 161.79 99.4296 162.35C97.3396 160.05 95.3396 157.77 93.4496 155.52C92.1396 153.96 90.8796 152.42 89.6796 150.89C89.6996 150.87 89.7196 150.86 89.7196 150.83C89.7196 150.73 89.5996 150.61 89.4296 150.57C89.0096 150.04 88.5996 149.51 88.1896 148.98C88.6596 148.27 90.7096 145.15 93.1996 141.24C95.2496 141.3 104.56 141.15 107.34 133.73C109.74 127.33 105.89 122.99 103.96 121.31C103.4 120.82 102.5 120.55 101.8 120.66C99.4396 121.04 93.9996 122.53 90.7596 128.22C86.9796 134.86 91.5796 140 92.5996 141.02C90.3596 144.54 88.4796 147.41 87.7996 148.45C83.8796 143.32 80.5996 138.45 77.9496 134.08C77.4696 133.29 76.9896 132.51 76.5296 131.75C76.0696 130.99 75.6996 130.25 75.2996 129.53C75.1896 129.33 75.0896 129.15 74.9896 128.95C75.9496 128.37 79.3596 125.76 76.3196 119.2C73.6296 113.41 69.1896 110.29 67.2596 109.14C66.6896 108.8 65.9596 108.71 65.4996 108.91C63.9396 109.6 60.8296 111.78 62.8296 117.85C65.1796 124.98 72.9696 128.38 74.4896 128.98C74.5896 129.17 74.6796 129.35 74.7796 129.54C75.1696 130.27 75.5296 131.01 75.9696 131.77C76.4196 132.53 76.8796 133.31 77.3496 134.1C80.1996 138.97 83.8396 144.46 88.2596 150.26C85.7896 149.66 79.6696 148.2 72.6496 146.56C71.7396 145.53 67.0196 140.77 55.1096 138.14C44.8396 135.87 39.3796 136.96 37.3896 137.59C36.7996 137.78 36.6496 138.27 37.0196 138.77C38.2996 140.49 42.2896 144.53 53.0696 147.54C65.5596 151.02 71.4296 147.72 72.5896 146.93C80.0096 148.66 86.4196 150.2 88.5996 150.73C89.8396 152.35 91.1396 154 92.4996 155.66C94.7796 158.45 97.2296 161.29 99.8196 164.15C98.1996 164.29 93.6996 164.64 87.5096 164.83C86.2496 163.94 79.4796 159.54 67.1996 159.26C56.7196 159.03 52.3696 161.51 50.8996 162.68C50.4696 163.03 50.5896 163.62 51.1896 164.1C53.2496 165.76 58.9896 169.43 70.3196 170.38C83.4496 171.48 86.9996 166.39 87.6296 165.24C93.9996 165.05 98.5996 164.69 100.17 164.55C104.71 169.54 109.66 174.6 114.89 179.57C116.03 180.66 117.19 181.75 118.36 182.83C116.89 183.05 112.41 183.69 106.21 184.41C104.54 183.45 96.1596 179.11 83.1096 180.22C71.8996 181.17 67.9396 184.61 66.6896 186.16C66.3196 186.62 66.6096 187.3 67.3796 187.81C70.0196 189.53 77.1196 193.19 89.4196 192.99C103.95 192.75 106.17 186.09 106.47 184.81C112.85 184.07 117.4 183.41 118.76 183.21C121.73 185.94 124.78 188.63 127.83 191.28C128.94 192.23 130.07 193.17 131.18 194.11C132.3 195.04 133.39 195.99 134.53 196.9C136.79 198.73 138.99 200.55 141.25 202.3C141.53 202.52 141.8 202.73 142.08 202.95C141.05 203.32 138.13 204.34 133.49 205.63C131.47 204.7 121.03 200.37 106.97 203.31C94.9596 205.83 91.5796 210.5 90.6596 212.54C90.3896 213.14 90.8996 213.94 91.8796 214.46C95.2596 216.24 104.06 219.84 117.49 218.09C133.54 216.01 133.91 207.43 133.86 206C138.57 204.68 141.52 203.65 142.52 203.29C143.2 203.83 143.89 204.37 144.57 204.9C145.69 205.75 146.8 206.6 147.9 207.43C148.45 207.85 149 208.26 149.54 208.68C150.09 209.09 150.64 209.5 151.19 209.9C152.28 210.71 153.36 211.51 154.43 212.29C158.74 215.41 162.86 218.34 166.76 220.99C169.38 222.79 171.89 224.46 174.24 226.01C173.25 226.41 170.23 227.6 165.58 229.11C163.91 228.35 151.98 223.34 136.31 227.11C123.35 230.23 119.93 235.52 119.04 237.83C118.78 238.51 119.38 239.39 120.49 239.94C124.28 241.84 134.1 245.64 148.65 243.35C165.73 240.67 165.95 231.37 165.82 229.53C170.7 227.95 173.82 226.71 174.74 226.34C179.14 229.22 182.99 231.64 186.04 233.51C188.43 234.98 190.34 236.11 191.66 236.88C192.97 237.65 193.7 238.06 193.7 238.06L195.16 236.72C195.16 236.72 194.48 236.34 193.18 235.6C191.88 234.86 189.98 233.75 187.6 232.31C184.42 230.4 180.37 227.9 175.72 224.9C176.41 224.25 178.12 222.55 180.3 219.91C182.54 220.01 197.36 220.2 201.61 208.69C205.14 199.14 199.39 192.69 196.5 190.19L196.53 190.22Z" fill="#442202"/>
<g opacity="0.7">
<path d="M166.51 224.471C166.51 224.471 157.9 243.471 131.36 243.781C111.03 244.011 102.54 235.301 99.6795 231.221C98.8395 230.031 98.9495 228.421 99.9495 227.351C103.31 223.731 112.75 215.771 131.91 213.761C156.93 211.141 166.51 224.471 166.51 224.471Z" fill="url(#paint1_linear_1107_1983)"/>
</g>
<g opacity="0.7">
<path d="M193.29 212.499C193.29 212.499 213.2 218.749 231.12 199.169C244.85 184.169 244.02 172.039 242.88 167.179C242.55 165.759 241.28 164.769 239.82 164.799C234.88 164.899 222.66 166.619 208.38 179.559C189.75 196.459 193.29 212.489 193.29 212.489V212.499Z" fill="url(#paint2_linear_1107_1983)"/>
</g>
<g opacity="0.7">
<path d="M178 164.931C178 164.931 194.48 172.671 212.27 157.851C225.9 146.491 226.61 135.911 226.19 131.571C226.07 130.301 225.09 129.301 223.82 129.151C219.54 128.651 208.77 128.701 194.91 138.221C176.82 150.651 178 164.921 178 164.921V164.931Z" fill="url(#paint3_linear_1107_1983)"/>
</g>
<g opacity="0.7">
<path d="M169.939 125.941C169.939 125.941 184.219 134.381 201.629 122.461C214.969 113.331 216.519 103.791 216.509 99.8309C216.509 98.6709 215.699 97.6809 214.569 97.4409C210.729 96.6209 200.959 95.7409 187.569 103.191C170.089 112.901 169.939 125.951 169.939 125.951V125.941Z" fill="url(#paint4_linear_1107_1983)"/>
</g>
<g opacity="0.7">
<path d="M166.25 90.6995C166.25 90.6995 178.76 97.0095 192.76 85.9995C203.49 77.5595 204.26 69.4295 204.04 66.0895C203.97 65.1095 203.24 64.3195 202.27 64.1795C198.99 63.7095 190.7 63.5095 179.83 70.5295C165.64 79.6895 166.25 90.6995 166.25 90.6995Z" fill="url(#paint5_linear_1107_1983)"/>
</g>
<g opacity="0.7">
<path d="M161.83 60.4111C161.83 60.4111 175.18 64.6411 187.25 51.5311C196.49 41.4811 195.95 33.3411 195.19 30.0711C194.97 29.1211 194.12 28.4511 193.14 28.4711C189.83 28.5311 181.61 29.6611 172.01 38.3311C159.47 49.6511 161.83 60.4111 161.83 60.4111Z" fill="url(#paint6_linear_1107_1983)"/>
</g>
<g opacity="0.7">
<path d="M149.72 177.761C149.72 177.761 141.37 194.701 117.35 194.191C98.9497 193.801 91.5297 185.671 89.0697 181.881C88.3497 180.771 88.4997 179.331 89.4297 178.391C92.5797 175.221 101.35 168.291 118.75 167.051C141.46 165.421 149.73 177.761 149.73 177.761H149.72Z" fill="url(#paint7_linear_1107_1983)"/>
</g>
<g opacity="0.7">
<path d="M136.47 135.84C136.47 135.84 127.25 149.09 107.01 145.6C91.5098 142.92 86.2698 135.1 84.6698 131.59C84.1998 130.56 84.5098 129.36 85.4198 128.69C88.4898 126.41 96.7798 121.68 111.65 122.84C131.05 124.36 136.47 135.84 136.47 135.84Z" fill="url(#paint8_linear_1107_1983)"/>
</g>
<g opacity="0.7">
<path d="M132.27 98.7106C132.27 98.7106 122.51 109.051 105.34 103.381C92.1802 99.0306 88.6402 91.5406 87.7002 88.2706C87.4302 87.3206 87.8502 86.3106 88.7302 85.8406C91.7002 84.2506 99.5402 81.2106 112.34 84.1606C129.05 88.0106 132.27 98.7206 132.27 98.7206V98.7106Z" fill="url(#paint9_linear_1107_1983)"/>
</g>
<g opacity="0.7">
<path d="M131.54 64.7697C131.54 64.7697 119.9 71.1897 106.23 61.2197C95.7599 53.5897 94.7499 45.8997 94.8499 42.7297C94.8799 41.7997 95.5499 41.0197 96.4599 40.8597C99.5599 40.2997 107.41 39.8297 117.96 46.1097C131.73 54.3097 131.54 64.7697 131.54 64.7697Z" fill="url(#paint10_linear_1107_1983)"/>
</g>
<g opacity="0.7">
<path d="M151.24 35.8503C151.24 35.8503 142.91 28.0603 147.41 14.2603C150.86 3.69033 156.86 0.830329 159.47 0.0703293C160.23 -0.149671 161.05 0.190329 161.42 0.890329C162.7 3.27033 165.17 9.55033 162.84 19.8203C159.8 33.2303 151.22 35.8503 151.22 35.8503H151.24Z" fill="url(#paint11_linear_1107_1983)"/>
</g>
<path opacity="0.7" d="M116.21 229.54C116.21 229.34 116.37 229.17 116.57 229.18C149.06 229.01 175.91 222.34 180.15 221.23C178.74 218.09 177.26 214.69 175.76 211.07C173.5 205.72 171.25 199.84 168.95 193.6C168.4 192.03 167.83 190.44 167.27 188.83C166.99 188.03 166.7 187.22 166.41 186.4C166.14 185.58 165.87 184.76 165.59 183.93C165.04 182.27 164.49 180.6 163.93 178.9C163.61 177.85 163.28 176.79 162.95 175.73C158.99 176.61 136.46 181.3 104.17 181.2C103.97 181.2 103.81 181.04 103.81 180.84C103.81 180.64 103.98 180.48 104.17 180.48C136.23 180.58 158.64 175.95 162.73 175.04C162.6 174.61 162.47 174.18 162.33 173.75C161.23 170.29 160.27 166.73 159.25 163.14C158.72 161.35 158.3 159.52 157.82 157.69C157.36 155.86 156.87 154.03 156.42 152.18C155.22 147.03 154.06 141.81 153.04 136.55C148.77 136.55 121.82 136.44 96.2496 132.88C96.0496 132.85 95.9096 132.67 95.9396 132.47C95.9696 132.27 96.1496 132.13 96.3496 132.16C121.6 135.67 148.19 135.82 152.9 135.82C152.5 133.74 152.12 131.65 151.78 129.56C150.14 120.02 148.92 110.41 148.17 101.01C143.75 100.67 121.56 98.6897 99.9596 91.8497C99.7696 91.7897 99.6596 91.5897 99.7196 91.3897C99.7796 91.1997 99.9896 91.0897 100.18 91.1497C121.55 97.9197 143.5 99.9097 148.12 100.27C147.7 94.8797 147.43 89.5597 147.33 84.3697C147.26 81.2697 147.26 78.2197 147.3 75.2297C142.48 72.1397 117.14 55.9497 104.99 49.5197C104.81 49.4297 104.74 49.2097 104.84 49.0297C104.93 48.8497 105.15 48.7797 105.33 48.8797C117.22 55.1697 141.67 70.7597 147.31 74.3697C147.5 63.6497 148.34 53.6397 149.57 44.8397C149.76 43.3997 149.95 41.9997 150.13 40.6197C150.32 39.2497 150.61 37.9197 150.83 36.6197C151.31 34.0197 151.76 31.5597 152.18 29.2397C152.71 26.9497 153.22 24.7997 153.68 22.8197C154.16 20.8397 154.54 19.0097 155 17.3797C156.88 10.8897 157.96 7.17969 157.96 7.17969L158.2 7.24969C158.2 7.24969 157.18 10.9697 155.38 17.4697C154.94 19.0997 154.59 20.9397 154.14 22.9197C153.71 24.9097 153.24 27.0497 152.73 29.3497C152.34 31.6697 151.92 34.1297 151.49 36.7297C151.28 38.0297 151.02 39.3597 150.85 40.7297C150.69 42.0997 150.52 43.5097 150.34 44.9397C149.35 52.8497 148.68 61.7297 148.52 71.2197C152.87 67.5897 175.03 49.0197 187.22 37.7097C187.37 37.5797 187.6 37.5797 187.73 37.7297C187.87 37.8797 187.86 38.1097 187.71 38.2397C174.96 50.0797 151.32 69.8297 148.51 72.1697C148.5 73.1497 148.49 74.1297 148.49 75.1197C148.65 75.2297 148.7 75.4497 148.59 75.6197C148.56 75.6597 148.52 75.6797 148.48 75.7097C148.48 78.5397 148.53 81.4097 148.64 84.3197C148.78 88.5197 149.04 92.7997 149.39 97.1297C153.4 95.8697 174.01 88.8797 194.65 72.3097C194.81 72.1797 195.04 72.2097 195.16 72.3697C195.29 72.5297 195.26 72.7597 195.1 72.8797C182.96 82.6297 170.84 89.0797 162.05 92.9997C155.64 95.8697 151.01 97.3897 149.45 97.8797C150.31 108.18 151.73 118.74 153.68 129.21C153.88 130.32 154.1 131.43 154.32 132.53C160.01 130.1 183.04 120.03 204.38 106.88C204.55 106.77 204.77 106.83 204.88 107C204.99 107.17 204.93 107.39 204.76 107.5C187.69 118.01 169.56 126.57 160.03 130.83C157.52 131.95 155.61 132.78 154.47 133.26C155.69 139.45 157.13 145.59 158.62 151.62C159.09 153.45 159.6 155.27 160.08 157.08C160.58 158.89 161.03 160.7 161.58 162.47C162.58 165.83 163.54 169.15 164.6 172.4C171.22 168.71 193.78 155.74 214.45 139.23C214.61 139.1 214.84 139.13 214.96 139.29C215.09 139.45 215.06 139.68 214.9 139.8C194.06 156.45 171.3 169.5 164.82 173.11C165.36 174.78 165.9 176.44 166.43 178.08C167.01 179.75 167.58 181.41 168.15 183.05C168.43 183.87 168.71 184.68 168.99 185.5C169.29 186.3 169.58 187.1 169.87 187.9C170.46 189.49 171.03 191.06 171.61 192.61C173.98 198.78 176.3 204.58 178.61 209.86C180.02 213.14 181.41 216.23 182.74 219.11C187.03 216.47 209.01 202.37 232.15 177.05C232.29 176.9 232.52 176.89 232.66 177.03C232.81 177.17 232.82 177.4 232.68 177.54C209.37 203.04 187.21 217.21 183.04 219.77C185.89 225.89 188.49 231.03 190.57 234.98C192.13 237.95 193.41 240.25 194.29 241.81C195.17 243.37 195.66 244.16 195.66 244.16L192.54 246.02C192.54 246.02 192.03 245.16 191.16 243.56C190.28 241.96 189.02 239.61 187.48 236.58C185.52 232.72 183.1 227.76 180.44 221.9C176.59 222.91 149.46 229.73 116.56 229.9C116.36 229.9 116.2 229.74 116.2 229.54H116.21Z" fill="#E5D092"/>
<path opacity="0.7" d="M323.05 140.329V140.259C324.61 86.8393 308.7 70.9094 294.17 83.3694C287.73 88.8894 285.36 97.7394 287.51 105.939C288.21 108.619 288.63 111.429 288.24 114.529C287.75 118.479 285.72 121.049 283.13 122.699C277.6 126.219 273.83 131.929 273.05 138.439C272.63 141.979 272.29 145.659 272.04 149.479C267.95 213.119 251.57 251.549 246.98 266.819C245.57 271.529 250.95 275.309 254.9 272.389C265.62 264.449 294.25 240.389 310.82 199.389C313.15 193.629 312.81 187.189 310.21 181.549C309.21 179.369 308.72 176.609 309.02 173.099C309.72 165.059 314.05 158.679 318.63 152.659C321.34 149.109 322.91 144.809 323.04 140.339L323.05 140.329Z" fill="url(#paint12_linear_1107_1983)"/>
<path opacity="0.7" d="M297.839 145.14L323.149 135.03C323.149 134.88 323.149 134.73 323.149 134.59L297.89 144.68C299.65 129.85 300.799 114.11 301.329 97.5395L317.549 93.0795C317.499 92.9495 317.449 92.8295 317.399 92.6995L301.35 97.1195C301.53 91.3495 301.63 85.4795 301.67 79.5195C301.53 79.5395 301.4 79.5695 301.26 79.5995C301.16 96.5495 300.459 112.06 299.299 126.22L287.7 116.97C287.65 117.11 287.609 117.24 287.549 117.38L299.249 126.71C297.689 145.41 295.339 161.76 292.519 175.98L271.549 156.27C271.539 156.44 271.52 156.62 271.51 156.79L292.42 176.45C287.64 200.45 281.57 218.37 275.89 231.34C275.55 232.11 275.209 232.87 274.869 233.62L262.54 214.87C262.5 215.05 262.45 215.23 262.41 215.42L274.67 234.06C263.25 259.06 251.669 269.56 248.479 272.12C248.579 272.21 248.689 272.3 248.799 272.38C251.119 270.5 257.44 264.78 264.92 253.05L276.179 253.24C276.179 253.24 276.25 253.16 276.29 253.12C276.36 253.04 276.44 252.96 276.51 252.88C276.52 252.86 276.539 252.85 276.549 252.83L265.17 252.63C268.71 247.02 272.499 240.07 276.239 231.54C280.189 222.51 283.709 212.6 286.769 201.9L311.17 198.45C311.23 198.3 311.289 198.16 311.339 198.01L286.89 201.47C290.03 190.42 292.689 178.53 294.839 165.85C295.979 159.16 296.97 152.25 297.82 145.13L297.839 145.14Z" fill="url(#paint13_linear_1107_1983)"/>
<path opacity="0.4" d="M407.03 238.431C412.18 228.451 413.76 221.031 412.82 215.991C412.82 215.951 412.8 215.901 412.79 215.861C411.68 210.271 407.43 207.661 401.49 207.781C401.36 207.781 401.22 207.781 401.08 207.791C398.74 207.881 396.16 208.381 393.4 209.281C385.87 211.741 381.28 216.261 381.11 220.751C381.06 222.221 380.7 223.731 379.51 225.351C379.15 225.841 378.72 226.281 378.24 226.681C378.2 226.711 378.16 226.741 378.12 226.781C376.62 228.001 374.65 228.801 372.51 229.311C366.36 230.781 361.29 233.531 358.82 236.921C357.48 238.761 356.18 240.681 354.93 242.691C334.1 276.071 308.42 295.231 300.03 302.991C298.86 304.071 299.06 305.151 300.04 305.901C300.11 305.961 300.19 306.011 300.27 306.061C301.51 306.841 303.69 307.151 305.99 306.501C311.22 305.031 320.34 302.221 331.14 297.881C331.14 297.881 331.23 297.841 331.28 297.831C331.37 297.791 331.46 297.761 331.55 297.721C331.57 297.721 331.59 297.711 331.6 297.701C345.92 291.921 363.11 283.461 378.11 271.861C378.31 271.711 378.5 271.551 378.68 271.391H378.7C378.79 271.321 378.89 271.241 378.98 271.171H378.93C382.03 268.441 383.16 265.301 382.29 262.371C381.93 261.151 382.2 259.651 383.43 257.821C386.23 253.621 392.01 250.551 397.93 247.691C401.43 246.001 404.06 243.841 405.37 241.491C405.37 241.481 405.38 241.461 405.39 241.451C405.92 240.501 406.41 239.581 406.88 238.681C406.92 238.611 406.96 238.531 406.99 238.461L407.03 238.431Z" fill="#442A02"/>
<path opacity="0.7" d="M399.57 147.581C399.57 147.581 399.57 147.521 399.58 147.491C410.38 79.1409 392.57 56.0609 371.85 69.6709C362.68 75.7009 358.18 86.6709 359.59 97.5609C360.05 101.121 360.12 104.801 359.11 108.721C357.83 113.721 354.81 116.681 351.2 118.371C343.51 121.981 337.73 128.701 335.66 136.931C334.54 141.401 333.5 146.071 332.55 150.941C316.82 232.001 289.45 278.661 281.04 297.511C278.45 303.321 284.74 309.071 290.29 305.971C305.37 297.541 346.1 271.351 374.12 221.421C378.05 214.411 378.68 206.081 376.28 198.411C375.35 195.451 375.18 191.821 376.15 187.361C378.37 177.151 384.98 169.671 391.86 162.691C395.92 158.571 398.65 153.311 399.56 147.591L399.57 147.581Z" fill="url(#paint14_linear_1107_1983)"/>
<path opacity="0.7" d="M366.4 149.601L400.57 140.781C400.6 140.591 400.62 140.401 400.65 140.221L366.55 149.021C371.25 130.261 375.32 110.231 378.73 89.0412L400.29 85.9812C400.25 85.8112 400.2 85.6412 400.16 85.4712L378.82 88.5012C380 81.1212 381.1 73.6012 382.12 65.9512C381.94 65.9512 381.76 65.9712 381.58 65.9912C378.67 87.7412 375.21 107.551 371.38 125.541L358.01 111.761C357.93 111.931 357.84 112.091 357.76 112.261L371.25 126.171C366.17 149.931 360.45 170.541 354.5 188.341L330.82 159.581C330.77 159.801 330.73 160.021 330.68 160.241L354.3 188.931C344.21 218.971 333.46 240.981 324.04 256.711C323.48 257.651 322.92 258.561 322.36 259.471L309.6 233.371C309.51 233.601 309.43 233.821 309.35 234.051L322.03 260.011C303.25 290.241 286.64 301.811 282.12 304.581C282.24 304.711 282.36 304.841 282.49 304.971C285.78 302.941 294.84 296.641 306.37 282.791L320.8 284.891C320.85 284.851 320.91 284.801 320.96 284.761C321.07 284.671 321.17 284.581 321.28 284.491C321.3 284.471 321.32 284.451 321.34 284.441L306.76 282.311C312.23 275.691 318.24 267.391 324.44 257.051C331 246.111 337.15 233.961 342.84 220.711L374.75 220.301C374.85 220.121 374.95 219.951 375.04 219.771L343.07 220.181C348.92 206.511 354.29 191.671 359.14 175.741C361.7 167.341 364.11 158.631 366.38 149.631L366.4 149.601Z" fill="url(#paint15_linear_1107_1983)"/>
<path d="M212.17 357.041C210.38 357.041 208.68 356.681 207.4 355.941L70.9004 277.131C69.6104 276.381 68.9004 275.341 68.9004 274.181C68.9004 272.811 69.9104 271.441 71.6604 270.431L206.63 192.511C209.85 190.651 214.75 190.451 217.56 192.071L354.06 270.881C355.35 271.621 356.06 272.671 356.06 273.831C356.06 275.201 355.05 276.571 353.3 277.581L218.33 355.501C216.57 356.521 214.31 357.041 212.17 357.041ZM207.74 355.361C210.36 356.871 214.96 356.671 217.99 354.921L352.96 277.001C354.5 276.111 355.38 274.961 355.38 273.831C355.38 272.921 354.79 272.091 353.72 271.471L217.22 192.661C214.6 191.151 210 191.341 206.97 193.101L72.0004 271.021C70.4604 271.911 69.5804 273.061 69.5804 274.191C69.5804 275.091 70.1704 275.931 71.2404 276.551L207.74 355.361Z" fill="#E5D092"/>
<path d="M355.731 262.21H347.501L217.411 187.1C214.701 185.53 209.951 185.73 206.821 187.54L77.2607 262.34H69.2607V268.91C69.2607 269.91 69.8507 270.86 71.0907 271.57L207.591 350.38C210.301 351.95 215.051 351.75 218.181 349.94L353.151 272.02C354.911 271.01 355.791 269.7 355.741 268.47V262.21H355.731Z" fill="url(#paint16_linear_1107_1983)"/>
<path d="M207.58 343.851L71.0804 265.041C68.3704 263.471 68.7104 260.741 71.8404 258.931L206.81 181.011C209.94 179.201 214.69 179.001 217.4 180.571L353.9 259.381C356.61 260.951 356.27 263.681 353.14 265.491L218.17 343.421C215.04 345.231 210.29 345.431 207.58 343.861V343.851Z" fill="url(#paint17_linear_1107_1983)"/>
<path opacity="0.1" d="M207.921 338.21L80.8505 264.85C78.3205 263.39 78.6405 260.84 81.5605 259.16L207.211 186.62C210.131 184.94 214.541 184.75 217.071 186.21L344.141 259.57C346.671 261.03 346.351 263.58 343.431 265.26L217.781 337.8C214.861 339.48 210.451 339.67 207.921 338.21Z" fill="#180D5B"/>
<path d="M353.141 264.73L218.171 342.65C215.041 344.46 210.291 344.66 207.581 343.09L71.0805 264.28C70.0005 263.66 69.4105 262.85 69.2805 261.99C69.1005 263.12 69.6905 264.23 71.0805 265.04L207.581 343.85C210.291 345.42 215.041 345.22 218.171 343.41L353.141 265.49C355.031 264.4 355.901 262.97 355.701 261.66C355.531 262.74 354.671 263.85 353.141 264.73Z" fill="white"/>
<path opacity="0.1" d="M213.88 265.921H343.61L346.3 254.981L217.41 180.561C214.7 178.991 209.95 179.191 206.82 181.001L132.96 223.641L197.68 261.521C202.6 264.401 208.19 265.911 213.89 265.911L213.88 265.921Z" fill="#180D5B"/>
<path d="M207.87 69.4902L210.97 67.7102V67.7303C211.39 67.5103 211.91 67.5303 212.49 67.8703L345.5 144.79C346.83 145.56 347.91 147.62 347.91 149.39L347.76 262.12C347.76 263.1 347.42 263.77 346.91 264.06H346.92L343.83 265.85L343.61 254.66L219.52 182.89C218.19 182.12 217.11 180.06 217.11 178.29L217.25 74.7802C217.04 75.4302 216.89 75.9102 216.86 75.9202C216.78 75.9702 207.86 69.4902 207.86 69.4902H207.87Z" fill="url(#paint18_linear_1107_1983)"/>
<path d="M347.85 148.65L328.28 156.26L324.24 153.93L345.93 145.09C346.88 145.87 347.63 147.28 347.84 148.65H347.85Z" fill="url(#paint19_linear_1107_1983)"/>
<path d="M209.31 188.76L342.32 265.68C343.65 266.45 344.73 265.63 344.73 263.86L344.88 151.13C344.88 149.36 343.8 147.29 342.47 146.53L209.46 69.6098C208.13 68.8398 207.05 69.6598 207.05 71.4298L206.9 184.16C206.9 185.93 207.98 188 209.31 188.76Z" fill="url(#paint20_linear_1107_1983)"/>
<path d="M342.47 146.529L209.46 69.6095C208.67 69.1495 207.97 69.2695 207.53 69.7995C207.9 69.6995 208.34 69.7595 208.82 70.0395L341.83 146.959C343.16 147.729 344.24 149.789 344.24 151.559L344.09 264.289C344.09 265.009 343.91 265.559 343.61 265.919C344.28 265.74 344.73 264.999 344.73 263.859L344.88 151.129C344.88 149.359 343.8 147.289 342.47 146.529Z" fill="white"/>
<path d="M208.92 186.32L342.67 263.67L342.84 150.68L209.08 73.3203L208.92 186.32Z" fill="#8C8C8C"/>
<g style="mix-blend-mode:lighten">
<path d="M269.98 185.929C269.26 185.929 268.46 185.689 267.65 185.219L255.76 178.359C253 176.759 250.75 172.869 250.75 169.679V166.239C250.75 163.259 248.65 159.629 246.07 158.139L234.51 151.469C233.32 150.779 232.23 150.659 231.42 151.129C230.61 151.599 230.17 152.609 230.17 153.969V175.919C230.17 177.539 229.61 178.759 228.58 179.349C227.56 179.939 226.22 179.819 224.82 179.009L211.2 171.149L211.54 170.569L225.16 178.429C226.35 179.109 227.44 179.239 228.25 178.769C229.06 178.299 229.5 177.289 229.5 175.929V153.979C229.5 152.359 230.06 151.139 231.09 150.549C232.11 149.959 233.45 150.079 234.85 150.889L246.41 157.559C249.18 159.159 251.42 163.049 251.42 166.239V169.679C251.42 172.659 253.52 176.289 256.1 177.779L267.99 184.639C269.18 185.319 270.27 185.439 271.08 184.979C271.89 184.509 272.33 183.499 272.33 182.129V157.169C272.33 155.549 272.89 154.329 273.92 153.739C274.94 153.149 276.28 153.269 277.68 154.079L290.9 161.709C292.09 162.389 293.18 162.509 293.99 162.049C294.8 161.579 295.24 160.569 295.24 159.199V146.289C295.24 144.669 295.8 143.449 296.83 142.859C297.85 142.269 299.19 142.389 300.59 143.199L314.35 151.139C317.12 152.739 319.36 156.629 319.36 159.819C319.36 162.799 321.46 166.429 324.04 167.919L339.22 176.679L338.88 177.259L323.7 168.499C320.94 166.899 318.69 163.009 318.69 159.819C318.69 156.839 316.59 153.209 314.01 151.719L300.25 143.779C299.06 143.099 297.97 142.979 297.16 143.439C296.35 143.909 295.91 144.919 295.91 146.289V159.199C295.91 160.819 295.35 162.039 294.32 162.629C293.3 163.219 291.96 163.099 290.56 162.289L277.34 154.659C276.15 153.969 275.06 153.849 274.25 154.319C273.44 154.789 273 155.799 273 157.159V182.119C273 183.739 272.44 184.959 271.41 185.549C270.98 185.799 270.5 185.919 269.98 185.919V185.929Z" fill="url(#paint21_linear_1107_1983)"/>
</g>
<path d="M231.13 249.69C231.13 249.69 230.41 251.84 230.48 252.35C230.55 252.87 232.02 254.9 232.12 254.96C232.22 255.02 233.47 256.62 234.87 257.38C236.27 258.15 236.38 258.53 236.51 258.54C236.64 258.56 236.85 258.42 236.85 258.42C236.85 258.42 237.06 256.95 236.44 256.24C235.82 255.53 236.75 254.47 236.75 254.47L235.16 250.32L231.13 249.68V249.69Z" fill="#FCD1C5"/>
<path d="M246.38 295.6C246.38 295.6 243.89 296.18 241.49 296.26C239.09 296.34 232.53 297.58 232.66 299.93C232.79 302.29 236.14 305.68 240.4 306.19C244.66 306.7 250.16 305.53 252.94 305.61C255.72 305.69 257.68 302.96 256.65 300.34C255.62 297.73 246.39 295.6 246.39 295.6H246.38Z" fill="#160A5B"/>
<path d="M260.9 289.33C260.9 289.33 261.78 290.76 261.31 291.63C260.84 292.5 259.6 294.66 255.75 292.55C251.91 290.44 244.45 287.41 244.45 287.41C244.45 287.41 240.17 285.17 240.45 282.54C240.73 279.93 244.7 280.34 244.7 280.34L260.89 289.33H260.9Z" fill="#160A5B"/>
<path d="M218.03 195.041C218.03 195.041 215.49 195.071 214.37 194.571C213.25 194.061 210 193.001 209.8 192.891C209.6 192.781 207.81 192.661 206.99 192.141C206.99 192.141 206.07 192.591 206.8 193.331C207.52 194.071 208.89 194.311 208.89 194.311L210.18 195.061C210.18 195.061 207.57 196.401 207.33 196.501C207.09 196.601 204.91 198.261 204.69 198.371C204.47 198.471 203.49 199.231 203.87 199.911C203.87 199.911 203.91 200.061 204.4 200.171C204.4 200.171 203 200.801 203.35 201.491C203.69 202.181 204.58 201.881 204.58 201.881C204.58 201.881 204.92 203.111 206.6 202.161C206.6 202.161 206.8 203.691 210.54 202.091C210.54 202.091 212.05 201.691 213.16 201.771C214.27 201.851 217.28 201.071 218.89 199.931C220.5 198.801 218.05 195.051 218.05 195.051L218.03 195.041Z" fill="#FCD1C5"/>
<path d="M213.15 201.75C214.26 201.83 217.27 201.05 218.88 199.91C219.96 199.15 219.2 197.2 218.59 196.01C217.83 195.64 217.16 195.34 217.16 195.34C217.16 195.34 217.27 199.05 217.19 199.6C217.11 200.16 213.76 200.82 211.61 201.13C209.46 201.44 206.64 202.28 206.64 202.28C206.81 202.62 207.52 203.35 210.53 202.07C210.53 202.07 212.04 201.67 213.15 201.75Z" fill="#E2B1A6"/>
<path d="M247.46 187.84C247.46 187.84 242.17 188.77 240.37 189.34C238.62 189.9 223.47 192.9 217.92 194.25C217.57 194.34 217.3 194.62 217.21 194.98C217.14 195.27 217.1 195.62 217.17 195.9C217.33 196.53 217.86 202.8 220.94 201.78C221.86 201.47 224.58 200.9 226.75 200.62C228.92 200.33 238.18 199.62 238.18 199.62L253.85 190.65L247.45 187.83L247.46 187.84Z" fill="#4846A5"/>
<path d="M236.111 251.68C236.111 251.68 237.511 268.98 240.961 275.5C244.451 282.1 245.211 294.11 245.921 296.39C246.631 298.68 248.881 301.98 252.511 302.68C256.141 303.39 256.791 301 256.641 299.56C256.491 298.13 255.531 295.8 255.551 294.24C255.571 292.69 255.961 291.96 256.031 291.24C256.031 291.24 260.191 292.45 260.891 289.32C260.891 289.32 260.571 288.41 260.531 287.94C260.481 287.47 261.161 276.07 261.291 274.69C261.421 273.31 260.831 265.8 259.741 262.08C258.661 258.39 259.221 250.52 259.221 250.52L247.191 248.76L236.101 251.67L236.111 251.68Z" fill="#8C8C8C"/>
<path d="M255.641 251.76C255.641 251.76 255.531 254.46 254.331 256.72C254.331 256.72 254.161 265.88 253.101 270.5C253.101 270.5 254.461 279.76 255.371 282.66C256.291 285.58 256.031 291.26 256.031 291.26C256.031 291.26 256.501 291.43 257.181 291.46C257.861 291.49 258.161 280.23 257.151 278.23C256.151 276.24 255.541 267.39 255.991 264.69C256.441 262 256.471 254.28 257.031 252.92C257.581 251.56 256.421 250.83 256.421 250.83L255.631 251.76H255.641Z" fill="#160A5B"/>
<path d="M246.66 187.98C246.66 187.98 243.04 190.49 243.15 194.91L245.81 194.39C245.81 194.39 245.11 189.48 246.66 187.98Z" fill="#160A5B"/>
<path d="M246.78 255.45C254.76 255.76 259.14 252.34 259.14 252.34C259.18 251.25 259.23 250.53 259.23 250.53L247.2 248.77L236.11 251.68C236.11 251.68 236.39 255.1 237 259.48C238.96 259.7 240.97 255.02 240.97 255.02L246.45 255.41C246.45 255.41 238.78 255.15 246.77 255.45H246.78Z" fill="#160A5B"/>
<path d="M237.661 251.959C237.661 251.959 254.921 259.029 263.601 245.969C263.851 245.599 263.971 245.139 263.961 244.679L263.931 241.599C263.931 241.209 263.991 240.819 264.131 240.459C264.421 239.679 264.501 238.829 264.361 237.999C263.791 234.539 262.241 225.109 261.881 222.479C261.451 219.269 263.471 206.419 266.511 200.859C269.521 195.369 262.411 182.729 262.411 182.729C262.411 182.729 260.661 179.759 257.061 180.709C257.061 180.709 260.411 183.139 258.501 185.609C256.571 188.099 250.941 190.009 250.941 190.009C250.941 190.009 240.501 195.169 236.851 201.589C236.851 201.589 235.581 204.929 235.411 209.159C235.241 213.429 235.551 223.649 235.351 225.059C235.151 226.479 234.451 236.129 234.501 236.579C234.551 237.029 237.651 251.969 237.651 251.969L237.661 251.959Z" fill="#453C9E"/>
<path d="M242.91 253.42C242.91 253.42 253.71 226.32 253.43 216.35C253.15 206.57 238 235.83 238 235.83L237.66 251.96C237.66 251.96 240.93 253.17 242.92 253.42H242.91Z" fill="#8C8C8C"/>
<path d="M237.9 221.15C238.31 218.91 238.57 216.65 238.63 214.4C238.74 210.47 239.97 203.94 247.17 205.18C257.32 206.93 252.68 220.92 251.52 223.35C250.35 225.79 245.72 236.78 245.47 237.4C245.24 237.98 238.02 251.6 235.48 254.84C235.25 255.14 234.85 255.18 234.57 254.94C233.57 254.09 231.33 252.07 231.05 250.8C230.69 249.17 232.24 243.26 232.24 243.26C232.24 243.26 236.42 228.43 236.76 227.74C237.02 227.22 237.23 224.77 237.9 221.14V221.15Z" fill="#4846A5"/>
<path d="M246.83 188.3C246.83 188.3 246.05 186.45 244.17 186.22C242.29 186 241.23 185.46 241.05 184.76C240.87 184.06 240.88 183.23 240.44 182.18C240 181.14 239.66 178.6 239.67 178.54C239.67 178.48 238.25 178.02 238.19 177.39C238.13 176.76 238.91 174.53 238.83 174.35C238.75 174.18 238 172.78 238.12 171.71C238.24 170.64 238.41 169.09 239 167.78C239.59 166.48 243.74 158.54 254.1 162.87C264.52 167.23 256.35 175.88 257.26 181.59C257.26 181.59 258.16 182.8 256.42 184.8C254.66 186.81 249.7 187.17 246.82 188.28L246.83 188.3Z" fill="#FCD1C5"/>
<path d="M256.43 184.83C258.18 182.83 257.27 181.62 257.27 181.62C257.14 180.83 257.2 179.98 257.34 179.09L253.22 179.8C253.22 179.8 247.26 174.31 247.63 177.2C248.01 180.11 246.53 180.58 246.53 180.58L247.74 182.18C248.05 182.59 247.85 183.06 247.59 183.5C245.81 186.43 241.62 185.47 241.61 185.47C242.13 185.82 242.98 186.08 244.16 186.22C246.04 186.44 246.82 188.3 246.82 188.3C249.7 187.19 254.66 186.83 256.42 184.82L256.43 184.83Z" fill="#E2B1A6"/>
<path d="M238.61 164.76C238.61 164.76 237.85 166.89 239.01 167.81C240.18 168.73 241.23 169.6 241.23 169.6L241.18 172.31C241.18 172.7 241.28 173.08 241.48 173.41L242.93 175.72C243.21 176.17 243.35 176.68 243.35 177.21V178.31C243.33 178.63 243.57 178.91 243.88 178.95L244.27 179C244.61 179.04 244.93 178.8 244.97 178.45L245.16 176.92C245.16 176.92 245.96 175.7 247.64 177.2L249.16 177.85C249.58 178.03 249.91 178.39 250.07 178.83C250.48 180.01 251.35 182.35 252.03 182.75C252.95 183.29 256.57 181.5 257.06 180.69C257.56 179.88 258.88 174.45 259.69 171.86C260.49 169.28 260.2 162.85 252.47 161.05C244.76 159.26 239.72 162.44 238.61 164.76Z" fill="#AA8383"/>
<path d="M257.06 180.7C257.56 179.89 258.88 174.46 259.69 171.87C259.69 171.87 256.66 173.81 252.76 174.33C248.86 174.85 241.22 170.33 241.22 170.33L241.18 172.31C241.18 172.7 241.28 173.08 241.48 173.41L242.93 175.72C243.21 176.17 243.35 176.68 243.35 177.21V178.31C243.33 178.63 243.57 178.91 243.88 178.95L244.27 179C244.61 179.04 244.93 178.8 244.97 178.45L245.16 176.92C245.16 176.92 245.96 175.7 247.64 177.2L249.84 178.15C249.84 178.15 251.11 182.22 252.02 182.76C252.94 183.3 256.56 181.51 257.05 180.7H257.06Z" fill="#936D6D"/>
<path d="M257.21 180.959C257.21 180.959 260.17 182.849 258.62 185.439C257.06 188.039 246.11 192.519 245.56 193.199C245.56 193.199 245.2 189.289 246.67 187.989C246.67 187.989 255.03 186.509 256.36 184.419C257.69 182.339 257.21 180.969 257.21 180.969V180.959Z" fill="#F0F6FF"/>
<path d="M257.21 180.959C257.21 180.959 257.69 182.329 256.36 184.409C255.35 185.989 250.32 187.219 247.93 187.729C247.93 187.729 248.81 188.239 250.24 190.769C253.61 189.099 257.71 186.949 258.62 185.429C260.17 182.849 257.21 180.949 257.21 180.949V180.959Z" fill="#C4CCD6"/>
<path d="M251.6 207.459C254.25 215.979 246.94 229.019 245.86 232.819C244.77 236.649 233.8 254.259 233.79 254.259C234.09 254.529 234.36 254.769 234.57 254.949C234.85 255.179 235.25 255.139 235.48 254.849C238.02 251.599 245.24 237.989 245.47 237.409C245.71 236.789 250.35 225.799 251.52 223.359C252.45 221.409 255.63 211.989 251.59 207.469L251.6 207.459Z" fill="#8C8C8C"/>
<path d="M259.05 189.33C259.05 189.33 254.16 192.01 251.78 193.21C249.39 194.42 246.78 196.03 246.78 196.03L245.89 195.12L244.76 197.47C244.76 197.47 241.01 199.62 239.24 201.44C237.46 203.26 236.11 205.65 235.91 206.2C235.91 206.2 240.64 200.25 244.33 198.52L245.32 198.04L245.91 196.18L246.79 197.13C246.79 197.13 257.54 190.94 259.04 189.32L259.05 189.33Z" fill="#8C8C8C"/>
<path d="M180.63 189.91C180.63 189.91 182.45 190.22 183.12 189.88C183.79 189.54 185.53 189.31 187.55 190.03C189.57 190.75 189.4 190.64 190.2 190.72C191 190.8 192.29 190.88 192.71 191.15C193.13 191.42 193.93 191.92 193.19 192.98C192.45 194.04 189.67 193.04 189.22 192.96C188.77 192.88 188.27 193.68 188.5 194.4C188.73 195.12 192.91 199.7 193.56 200.15C194.22 200.61 197.04 202.5 197.17 203.24C197.29 203.99 197.13 204.09 197.13 204.09C197.13 204.09 197.95 204.84 197.66 205.53C197.37 206.22 196.09 205.16 195.85 205.32C195.85 205.32 196.06 206.09 195.75 206.23C195.44 206.37 193.6 205.66 193.38 205.44C193.38 205.44 193.17 206.03 192.12 205.42C191.07 204.81 187.06 202.53 186.59 202.1C186.12 201.67 184.54 200.21 183.89 199.82C183.24 199.43 182.12 198.1 181.56 197.58C181 197.06 178.51 195.8 177.56 195.61C176.61 195.43 180.63 189.92 180.63 189.92V189.91Z" fill="#FCD1C5"/>
<path d="M183.831 198.17C182.911 196.49 179.821 195.18 179.821 195.18C180.031 193.81 182.001 190.03 182.001 190.03C181.321 190.02 180.641 189.9 180.641 189.9C180.641 189.9 176.621 195.41 177.571 195.59C178.521 195.77 181.011 197.03 181.571 197.56C182.131 198.08 183.251 199.41 183.901 199.8C184.551 200.19 186.131 201.65 186.601 202.08C187.071 202.51 191.081 204.79 192.131 205.4C193.181 206.01 193.391 205.42 193.391 205.42C193.611 205.64 195.451 206.35 195.761 206.21C196.071 206.07 195.861 205.3 195.861 205.3C195.861 205.3 194.571 204.57 193.241 204.1C191.911 203.63 184.761 199.85 183.831 198.16V198.17Z" fill="#E2B1A6"/>
<path d="M177.631 183.84C177.631 183.84 178.021 185.9 177.881 187.57C177.741 189.25 174.371 187.05 174.501 186.76C174.631 186.47 176.101 183.94 176.101 183.94L177.631 183.83V183.84Z" fill="#FCD1C5"/>
<path d="M162.95 133.26C162.95 133.26 164.82 133.17 167.09 136.9C169.28 140.49 173.12 153.34 175.14 158.27C175.32 158.71 175.45 159.16 175.53 159.63C176.19 163.47 179.26 181.56 179.4 183.73C179.4 183.73 177.06 185.29 175.55 185.67L172.24 184.57L168.98 151.79L163.71 134.48L162.95 133.26Z" fill="#8C8C8C"/>
<path d="M152.381 241.129C152.381 241.129 151.751 244.159 152.091 244.749C152.441 245.339 156.381 249.789 156.801 250.389C157.221 250.989 159.251 254.639 162.991 255.529C166.731 256.419 169.281 256.189 169.781 254.429C170.291 252.679 168.091 249.769 167.071 248.829C166.061 247.889 161.791 242.809 161.001 242.069C160.221 241.329 159.091 241.219 159.091 241.219L154.221 242.069L152.371 241.129H152.381Z" fill="#160A5B"/>
<path d="M167.501 232.061C167.501 232.061 171.23 233.501 173.18 234.001C175.13 234.491 179.78 237.961 179.73 239.711C179.681 241.461 177.391 242.671 175.061 242.491C172.741 242.321 169.971 240.831 169.521 240.441C169.071 240.051 167.481 239.171 165.571 238.581C163.671 237.991 160.601 237.701 160.101 236.681C159.601 235.671 159.521 233.571 159.521 233.571L167.501 232.061Z" fill="#160A5B"/>
<path d="M159.081 231.43C159.111 231.25 159.241 230.95 159.261 230.83C159.431 229.91 159.261 226.16 159.261 226.16L158.441 227.28C158.441 227.28 159.021 231.03 160.141 236.9C160.421 238.39 161.201 239.93 161.321 240.77C161.661 243.28 160.171 243.77 160.171 243.77C157.141 246.05 154.551 244.67 153.621 243.94C152.691 243.21 152.371 242.03 151.081 237.8C149.801 233.6 148.681 224.72 148.961 222.61C149.201 220.75 149.881 215.55 149.851 211.98C149.821 208.43 147.091 197.08 147.091 197.08L158.391 194.89L166.101 190.9L171.981 191.79C171.981 191.79 172.721 189.3 173.501 197.04C174.291 204.89 169.531 218.78 169.531 218.78C168.281 225.66 167.961 233.57 167.241 234.64C166.531 235.71 163.711 238.24 161.111 236.28C160.631 235.92 160.091 235.54 159.801 235.15L159.071 231.44L159.081 231.43Z" fill="#8C8C8C"/>
<path d="M158.441 227.28C158.441 227.28 162.161 217.17 163.921 207.37C165.651 197.74 168.651 196.38 169.901 194.65C169.901 194.65 171.781 195.51 172.771 195.68C172.891 195.7 173.001 195.71 173.091 195.71C173.921 195.68 168.941 201.89 168.041 203.48C167.141 205.08 161.991 218.72 161.631 220.61C161.271 222.5 160.901 235.66 161.321 236.42C161.741 237.18 159.891 235.85 159.891 235.85C159.891 235.85 158.751 232.94 158.431 227.29L158.441 227.28Z" fill="#160A5B"/>
<path d="M168.091 191.191L166.101 190.891L158.391 194.881L147.091 197.071C147.091 197.071 149.821 208.421 149.851 211.971C149.881 215.541 149.211 220.741 148.961 222.601C148.691 224.691 149.801 233.591 151.081 237.791C151.641 239.621 152.021 240.881 152.341 241.781C152.851 244.171 154.661 244.551 154.661 244.551C154.661 244.551 150.231 230.831 150.621 222.811C151.001 214.901 152.141 208.311 151.931 206.781C151.931 206.781 164.791 202.821 167.211 194.521C167.591 193.221 167.871 192.121 168.091 191.171V191.191Z" fill="#160A5B"/>
<path d="M145.801 135.02C145.801 135.02 144.891 135.79 144.691 136.57C144.491 137.36 143.361 140.14 143.361 140.14C143.361 140.14 137.981 147.28 137.011 149.46C136.041 151.66 135.721 153.3 135.721 153.3L149.961 170.84C149.961 170.84 144.971 188.03 146.371 194.31C147.781 200.65 149.611 203.02 151.851 203.7C154.091 204.39 166.081 199.46 166.901 193.18C167.721 186.97 167.381 186.18 167.381 186.18C167.381 186.18 172.971 187.67 173.321 186.25C173.671 184.83 172.621 174.58 172.331 173.11C172.041 171.65 171.181 155.48 171.181 155.48C171.181 155.48 167.771 140.56 167.581 139.83C167.391 139.1 165.271 133.49 162.541 133.18C159.821 132.87 156.421 137.2 156.421 137.2L145.781 135.03L145.801 135.02Z" fill="#453C9E"/>
<path d="M146.441 134.48C146.441 134.48 145.881 134.86 145.761 135.48C145.641 136.1 145.181 137.33 146.191 138.61C147.211 139.89 155.411 146.59 158.731 152.22C162.091 157.91 166.241 164.25 166.591 165.57C166.591 165.57 168.101 156.57 166.741 152.42C165.381 148.31 161.031 139.93 160.121 139.31C159.201 138.69 153.561 138.15 153.561 138.15L146.461 134.49L146.441 134.48Z" fill="#F0F6FF"/>
<path d="M154.921 143.54C154.921 143.54 154.481 144.27 154.341 144.84C154.341 144.84 151.961 143.62 150.961 143.18L154.621 145.72C154.621 145.72 154.841 144.39 155.021 144.19C155.021 144.19 157.111 145.79 157.401 146.49C157.701 147.2 161.551 156.89 161.551 156.89L163.581 160.2L164.101 159.4L160.781 150.37C160.781 150.37 158.911 147.53 158.891 147.46C158.861 147.39 157.601 144.34 157.601 144.34L154.921 143.54Z" fill="#C4CCD6"/>
<path d="M154.92 143.54C154.92 143.54 156.13 141.27 158.48 141.36C158.48 141.36 159.16 144.16 159.34 145.29C159.34 145.29 157.82 145.94 157.21 145.41C156.6 144.88 154.91 143.53 154.91 143.53L154.92 143.54Z" fill="#160A5B"/>
<path d="M158.991 144.691C158.991 144.691 165.031 152.131 167.141 161.121L166.701 165.761L163.521 160.101C163.521 160.101 158.321 147.101 157.111 144.721C155.911 142.351 158.991 144.701 158.991 144.701V144.691Z" fill="#160A5B"/>
<path d="M148.98 174.551C148.58 176.141 148.1 178.121 147.65 180.241C147.65 180.241 156.59 191.911 165.31 196.661C166.16 195.571 166.74 194.411 166.91 193.191C167.34 189.911 167.45 188.141 167.46 187.211L157.31 179.521L148.97 174.561L148.98 174.551Z" fill="#8C8C8C"/>
<path d="M148.371 157.41C148.371 157.41 150.951 160.93 151.641 161.25C152.331 161.57 157.921 171.37 159.051 173.21C160.191 175.06 163.201 177.66 163.201 177.66L160.351 177.94L149.211 163L148.371 157.4V157.41Z" fill="#8C8C8C"/>
<path d="M149.951 160.52C148.831 157.7 147.071 155.22 144.811 153.33C142.241 151.18 138.871 149.08 137.091 150.97C133.951 154.29 135.291 160.53 139.651 166.38C144.061 172.29 151.011 180.7 152.651 182.12C154.221 183.48 167.701 193.62 175.431 197.4C176.001 197.68 176.681 197.47 177.021 196.9C178.091 195.14 180.291 191.47 181.081 189.96C181.241 189.65 181.141 189.26 180.861 189.08C178.041 187.27 163.941 178.2 159.761 175.38C159.121 174.95 158.601 174.36 158.241 173.65C157.021 171.27 153.881 165.41 151.121 162.42C150.631 161.89 150.251 161.25 149.981 160.57C149.981 160.55 149.971 160.53 149.961 160.51L149.951 160.52Z" fill="#4846A5"/>
<path d="M160.32 136.359L165.25 141.349L163.98 141.789L165.61 142.729C165.61 142.729 169.56 152.049 168.7 162.609C168.7 162.609 170.66 154.309 166.41 142.539L165.1 141.869L165.99 141.589L160.33 136.359H160.32Z" fill="#8C8C8C"/>
<path d="M146.341 133.64C146.431 133.83 146.481 134.04 146.461 134.26C146.421 134.7 146.371 135.45 146.411 135.77C146.471 136.24 149.561 141.45 155.881 141.49C155.881 141.49 156.641 140.36 156.791 140.14C156.791 140.14 159.351 140.02 160.411 139.09C161.471 138.16 160.821 136.53 160.821 136.53L160.971 134.58C160.991 134.34 161.091 134.12 161.261 133.96C161.491 133.75 161.781 133.43 161.841 133.2C161.891 132.97 161.751 132.56 161.621 132.29C161.541 132.1 161.501 131.9 161.531 131.69C161.591 131.2 161.641 130.15 161.291 128.84C161.191 128.46 161.191 128.07 161.291 127.69C161.451 127.07 161.671 126.15 161.701 125.82C161.741 125.31 160.871 123.95 160.831 123.41C160.791 122.87 160.051 121.06 160.051 121.06C160.051 121.06 155.351 112.34 147.771 116.11C140.131 119.91 144.111 128.08 145.061 130.39C145.061 130.39 145.971 132.27 146.131 132.69C146.261 133.04 146.171 133.23 146.361 133.64H146.341Z" fill="#FCD1C5"/>
<path d="M160.711 121.97C160.781 122.59 160.541 123.2 160.081 123.61C159.161 124.42 157.331 125.76 154.911 126.08C153.211 126.31 152.281 126.39 151.771 126.42C151.431 126.44 151.161 126.71 151.141 127.06C151.111 127.69 151.041 128.66 150.951 129.31C150.911 129.57 150.841 129.82 150.731 130.06L150.191 131.2C150.061 131.48 149.761 131.66 149.461 131.63H149.341C149.001 131.59 148.721 131.33 148.681 130.98V130.93C148.551 130.04 148.031 129.24 147.231 128.86C146.831 128.67 146.371 128.58 145.911 128.77C144.601 129.31 145.141 130.58 145.141 130.58C145.141 130.58 143.551 128.67 142.841 126.14C142.131 123.62 142.291 119.05 145.601 116.66C148.891 114.28 153.181 113.32 156.841 115.9C159.871 118.03 160.571 120.59 160.721 121.98L160.711 121.97Z" fill="#AA8383"/>
<path d="M148.21 132.661C148.04 132.461 148.26 134.201 146.46 134.251C146.42 134.691 146.37 135.441 146.41 135.761C146.47 136.231 149.56 141.441 155.88 141.481C155.88 141.481 156.64 140.351 156.79 140.131C156.79 140.131 150.99 137.311 149.96 136.031C148.93 134.751 148.37 132.861 148.2 132.661H148.21Z" fill="#E2B1A6"/>
<path d="M158.48 141.359C158.48 141.359 160.2 141.559 161 141.989C161 141.989 161.23 141.099 160.77 140.129C160.77 140.129 161.28 140.539 161.28 142.599C161.28 142.599 158.75 141.779 158.57 141.729L158.48 141.369V141.359Z" fill="#C4CCD6"/>
<path d="M177.7 195.52C177.7 195.52 163.07 187.11 158.11 183.76C153.18 180.43 139.32 166.29 136.48 160.84C137.21 162.66 138.28 164.54 139.66 166.38C144.07 172.29 151.02 180.7 152.66 182.12C154.23 183.48 167.71 193.62 175.44 197.4C176.01 197.68 176.69 197.47 177.03 196.9C177.24 196.56 177.49 196.14 177.76 195.69C177.73 195.58 177.71 195.52 177.71 195.52H177.7Z" fill="#8C8C8C"/>
<path d="M144.041 140.59L150.721 150.1L152.441 149.49L152.531 151.3C152.531 151.3 160.531 157.26 166.511 169.64C166.511 169.64 158.591 156.89 152.291 152.65L151.721 150.83L150.381 151.14L144.041 140.6V140.59Z" fill="#8C8C8C"/>
<path d="M143.44 127.361C143.37 127.331 143.3 127.321 143.23 127.301C144.01 129.231 145.13 130.581 145.13 130.581C145.13 130.581 144.59 129.311 145.9 128.771C146.36 128.581 146.82 128.671 147.22 128.861C148.02 129.241 148.54 130.041 148.66 130.931V130.981C148.71 131.331 148.99 131.591 149.33 131.621H149.45C149.76 131.651 150.05 131.481 150.18 131.201L150.72 130.061C150.83 129.821 150.91 129.571 150.94 129.311C151.03 128.661 151.09 127.701 151.13 127.061C151.13 127.061 146.67 128.501 143.43 127.371L143.44 127.361Z" fill="#936D6D"/>
<g style="mix-blend-mode:lighten" opacity="0.4">
<path d="M223.43 115.091L220.15 113.201V119.511L223.43 121.411V115.091Z" fill="#E5D092"/>
</g>
<g style="mix-blend-mode:lighten" opacity="0.6">
<path d="M229.291 130.02L226.011 128.13V122.9L229.291 124.79V130.02Z" fill="#E5D092"/>
</g>
<g style="mix-blend-mode:lighten" opacity="0.8">
<path d="M235.15 123.54L231.87 121.65V126.28L235.15 128.17V123.54Z" fill="#E5D092"/>
</g>
<g style="mix-blend-mode:lighten">
<path d="M241.01 122.232L237.73 120.342V129.662L241.01 131.562V122.232Z" fill="#E5D092"/>
</g>
<g style="mix-blend-mode:lighten">
<path d="M246.871 121.531L243.591 119.631V133.051L246.871 134.941V121.531Z" fill="#E5D092"/>
</g>
<g style="mix-blend-mode:lighten" opacity="0.8">
<path d="M252.73 129.001L249.45 127.111V136.431L252.73 138.321V129.001Z" fill="#E5D092"/>
</g>
<g style="mix-blend-mode:lighten" opacity="0.6">
<path d="M258.591 129.982L255.311 128.082V139.812L258.591 141.712V129.982Z" fill="#E5D092"/>
</g>
<g style="mix-blend-mode:lighten" opacity="0.4">
<path d="M264.45 128.312L261.17 126.412V143.202L264.45 145.092V128.312Z" fill="#E5D092"/>
</g>
<path opacity="0.4" d="M321.49 226.32C322.27 226.77 322.91 226.5 322.91 225.72L322.93 192.11C322.93 191.33 322.29 190.32 321.51 189.87C320.73 189.42 320.09 189.69 320.09 190.47L320.07 224.08C320.07 224.86 320.71 225.87 321.49 226.32Z" fill="#E5D092"/>
<path opacity="0.6" d="M316.421 223.391C317.201 223.841 317.841 223.571 317.841 222.791V200.821C317.851 200.041 317.221 199.031 316.431 198.581C315.651 198.131 315.011 198.401 315.011 199.181V221.151C315.001 221.931 315.631 222.941 316.421 223.391Z" fill="#E5D092"/>
<path opacity="0.8" d="M311.341 220.461C312.121 220.911 312.761 220.641 312.761 219.861V190.421C312.771 189.641 312.141 188.631 311.351 188.181C310.571 187.731 309.931 188.001 309.931 188.781V218.221C309.921 219.001 310.551 220.011 311.341 220.461Z" fill="#E5D092"/>
<path d="M306.27 217.531C307.05 217.981 307.69 217.711 307.69 216.931V198.651C307.69 197.871 307.06 196.861 306.28 196.411C305.5 195.961 304.86 196.231 304.86 197.011V215.291C304.86 216.071 305.49 217.081 306.27 217.531Z" fill="#E5D092"/>
<path d="M301.2 214.59C301.98 215.04 302.62 214.77 302.62 213.99V193.94C302.63 193.16 301.99 192.15 301.21 191.7C300.43 191.25 299.79 191.52 299.79 192.3V212.35C299.78 213.13 300.42 214.14 301.2 214.59Z" fill="#E5D092"/>
<path opacity="0.8" d="M296.121 211.661C296.901 212.111 297.541 211.841 297.541 211.061V197.761C297.541 196.981 296.911 195.971 296.131 195.521C295.351 195.071 294.711 195.341 294.711 196.121V209.421C294.711 210.201 295.341 211.211 296.121 211.661Z" fill="#E5D092"/>
<path opacity="0.6" d="M291.051 208.73C291.831 209.18 292.471 208.91 292.471 208.13V191.94C292.471 191.16 291.841 190.15 291.061 189.7C290.281 189.25 289.641 189.52 289.641 190.3V206.49C289.641 207.27 290.271 208.28 291.051 208.73Z" fill="#E5D092"/>
<path opacity="0.4" d="M285.981 205.8C286.761 206.25 287.401 205.98 287.401 205.2V199.28C287.401 198.5 286.771 197.49 285.981 197.04C285.201 196.59 284.561 196.86 284.561 197.64V203.56C284.561 204.34 285.191 205.35 285.981 205.8Z" fill="#E5D092"/>
<defs>
<radialGradient id="paint0_radial_1107_1983" cx="0" cy="0" r="1" gradientUnits="userSpaceOnUse" gradientTransform="translate(383.77 172.463) rotate(150) scale(184.37 160.402)">
<stop stop-color="#F8A10F"/>
<stop offset="0.15" stop-color="#EFAB38"/>
<stop offset="0.31" stop-color="#956926"/>
<stop offset="0.47" stop-color="#785E1B"/>
<stop offset="0.62" stop-color="#644518"/>
<stop offset="0.76" stop-color="#483B19"/>
<stop offset="0.89" stop-color="#371A0A"/>
<stop offset="1" stop-color="#030207"/>
</radialGradient>
<linearGradient id="paint1_linear_1107_1983" x1="166.505" y1="228.601" x2="99.1172" y2="228.601" gradientUnits="userSpaceOnUse">
<stop stop-color="#8C8C8C"/>
<stop offset="0.07" stop-color="#808080"/>
<stop offset="0.28" stop-color="#97876C"/>
<stop offset="0.48" stop-color="#D3B178"/>
<stop offset="0.67" stop-color="#F1CE93"/>
<stop offset="0.85" stop-color="#FFE4B7"/>
<stop offset="1" stop-color="#FFEED2"/>
</linearGradient>
<linearGradient id="paint2_linear_1107_1983" x1="243.452" y1="189.122" x2="193.021" y2="189.122" gradientUnits="userSpaceOnUse">
<stop stop-color="#8C8C8C"/>
<stop offset="0.07" stop-color="#808080"/>
<stop offset="0.28" stop-color="#97876C"/>
<stop offset="0.48" stop-color="#D3B178"/>
<stop offset="0.67" stop-color="#F1CE93"/>
<stop offset="0.85" stop-color="#FFE4B7"/>
<stop offset="1" stop-color="#FFEED2"/>
</linearGradient>
<linearGradient id="paint3_linear_1107_1983" x1="226.269" y1="147.967" x2="177.984" y2="147.967" gradientUnits="userSpaceOnUse">
<stop stop-color="#8C8C8C"/>
<stop offset="0.07" stop-color="#808080"/>
<stop offset="0.28" stop-color="#97876C"/>
<stop offset="0.48" stop-color="#D3B178"/>
<stop offset="0.67" stop-color="#F1CE93"/>
<stop offset="0.85" stop-color="#FFE4B7"/>
<stop offset="1" stop-color="#FFEED2"/>
</linearGradient>
<linearGradient id="paint4_linear_1107_1983" x1="216.506" y1="112.874" x2="169.939" y2="112.874" gradientUnits="userSpaceOnUse">
<stop stop-color="#8C8C8C"/>
<stop offset="0.07" stop-color="#808080"/>
<stop offset="0.28" stop-color="#97876C"/>
<stop offset="0.48" stop-color="#D3B178"/>
<stop offset="0.67" stop-color="#F1CE93"/>
<stop offset="0.85" stop-color="#FFE4B7"/>
<stop offset="1" stop-color="#FFEED2"/>
</linearGradient>
<linearGradient id="paint5_linear_1107_1983" x1="204.067" y1="78.2396" x2="166.246" y2="78.2396" gradientUnits="userSpaceOnUse">
<stop stop-color="#8C8C8C"/>
<stop offset="0.07" stop-color="#808080"/>
<stop offset="0.28" stop-color="#97876C"/>
<stop offset="0.48" stop-color="#D3B178"/>
<stop offset="0.67" stop-color="#F1CE93"/>
<stop offset="0.85" stop-color="#FFE4B7"/>
<stop offset="1" stop-color="#FFEED2"/>
</linearGradient>
<linearGradient id="paint6_linear_1107_1983" x1="195.568" y1="44.7649" x2="161.653" y2="44.7649" gradientUnits="userSpaceOnUse">
<stop stop-color="#8C8C8C"/>
<stop offset="0.07" stop-color="#808080"/>
<stop offset="0.28" stop-color="#97876C"/>
<stop offset="0.48" stop-color="#D3B178"/>
<stop offset="0.67" stop-color="#F1CE93"/>
<stop offset="0.85" stop-color="#FFE4B7"/>
<stop offset="1" stop-color="#FFEED2"/>
</linearGradient>
<linearGradient id="paint7_linear_1107_1983" x1="149.726" y1="180.551" x2="88.6162" y2="180.551" gradientUnits="userSpaceOnUse">
<stop stop-color="#8C8C8C"/>
<stop offset="0.07" stop-color="#808080"/>
<stop offset="0.28" stop-color="#97876C"/>
<stop offset="0.48" stop-color="#D3B178"/>
<stop offset="0.67" stop-color="#F1CE93"/>
<stop offset="0.85" stop-color="#FFE4B7"/>
<stop offset="1" stop-color="#FFEED2"/>
</linearGradient>
<linearGradient id="paint8_linear_1107_1983" x1="136.466" y1="134.422" x2="84.4521" y2="134.422" gradientUnits="userSpaceOnUse">
<stop stop-color="#8C8C8C"/>
<stop offset="0.07" stop-color="#808080"/>
<stop offset="0.28" stop-color="#97876C"/>
<stop offset="0.48" stop-color="#D3B178"/>
<stop offset="0.67" stop-color="#F1CE93"/>
<stop offset="0.85" stop-color="#FFE4B7"/>
<stop offset="1" stop-color="#FFEED2"/>
</linearGradient>
<linearGradient id="paint9_linear_1107_1983" x1="132.267" y1="93.9997" x2="87.6191" y2="93.9997" gradientUnits="userSpaceOnUse">
<stop stop-color="#8C8C8C"/>
<stop offset="0.07" stop-color="#808080"/>
<stop offset="0.28" stop-color="#97876C"/>
<stop offset="0.48" stop-color="#D3B178"/>
<stop offset="0.67" stop-color="#F1CE93"/>
<stop offset="0.85" stop-color="#FFE4B7"/>
<stop offset="1" stop-color="#FFEED2"/>
</linearGradient>
<linearGradient id="paint10_linear_1107_1983" x1="131.538" y1="53.6792" x2="94.8438" y2="53.6792" gradientUnits="userSpaceOnUse">
<stop stop-color="#8C8C8C"/>
<stop offset="0.07" stop-color="#808080"/>
<stop offset="0.28" stop-color="#97876C"/>
<stop offset="0.48" stop-color="#D3B178"/>
<stop offset="0.67" stop-color="#F1CE93"/>
<stop offset="0.85" stop-color="#FFE4B7"/>
<stop offset="1" stop-color="#FFEED2"/>
</linearGradient>
<linearGradient id="paint11_linear_1107_1983" x1="163.801" y1="17.9256" x2="146.076" y2="17.9256" gradientUnits="userSpaceOnUse">
<stop stop-color="#8C8C8C"/>
<stop offset="0.07" stop-color="#808080"/>
<stop offset="0.28" stop-color="#97876C"/>
<stop offset="0.48" stop-color="#D3B178"/>
<stop offset="0.67" stop-color="#F1CE93"/>
<stop offset="0.85" stop-color="#FFE4B7"/>
<stop offset="1" stop-color="#FFEED2"/>
</linearGradient>
<linearGradient id="paint12_linear_1107_1983" x1="323.151" y1="176.378" x2="246.75" y2="176.378" gradientUnits="userSpaceOnUse">
<stop stop-color="#8C8C8C"/>
<stop offset="0.07" stop-color="#808080"/>
<stop offset="0.28" stop-color="#97876C"/>
<stop offset="0.48" stop-color="#D3B178"/>
<stop offset="0.67" stop-color="#F1CE93"/>
<stop offset="0.85" stop-color="#FFE4B7"/>
<stop offset="1" stop-color="#FFEED2"/>
</linearGradient>
<linearGradient id="paint13_linear_1107_1983" x1="323.146" y1="175.916" x2="248.478" y2="175.916" gradientUnits="userSpaceOnUse">
<stop stop-color="#6A4403"/>
<stop offset="0.07" stop-color="#8B6017"/>
<stop offset="0.28" stop-color="#92784C"/>
<stop offset="0.48" stop-color="#F1CE93"/>
<stop offset="0.67" stop-color="#FFD698"/>
<stop offset="0.85" stop-color="#FFC672"/>
<stop offset="1" stop-color="#FFEAC6"/>
</linearGradient>
<linearGradient id="paint14_linear_1107_1983" x1="402.829" y1="186.379" x2="280.439" y2="186.379" gradientUnits="userSpaceOnUse">
<stop stop-color="#8C8C8C"/>
<stop offset="0.07" stop-color="#808080"/>
<stop offset="0.28" stop-color="#97876C"/>
<stop offset="0.48" stop-color="#D3B178"/>
<stop offset="0.67" stop-color="#F1CE93"/>
<stop offset="0.85" stop-color="#FFE4B7"/>
<stop offset="1" stop-color="#FFEED2"/>
</linearGradient>
<linearGradient id="paint15_linear_1107_1983" x1="400.642" y1="185.451" x2="282.12" y2="185.451" gradientUnits="userSpaceOnUse">
<stop stop-color="#8C8C8C"/>
<stop offset="0.07" stop-color="#808080"/>
<stop offset="0.28" stop-color="#97876C"/>
<stop offset="0.48" stop-color="#D3B178"/>
<stop offset="0.67" stop-color="#F1CE93"/>
<stop offset="0.85" stop-color="#FFE4B7"/>
<stop offset="1" stop-color="#FFEED2"/>
</linearGradient>
<linearGradient id="paint16_linear_1107_1983" x1="513.151" y1="487.22" x2="192.781" y2="251.76" gradientUnits="userSpaceOnUse">
<stop stop-color="#5761D7"/>
<stop offset="0.18" stop-color="#5B65D8"/>
<stop offset="0.39" stop-color="#6A72DE"/>
<stop offset="0.61" stop-color="#8188E8"/>
<stop offset="0.85" stop-color="#A2A6F5"/>
<stop offset="1" stop-color="#BCBEFF"/>
</linearGradient>
<linearGradient id="paint17_linear_1107_1983" x1="-147.81" y1="262.211" x2="321.47" y2="262.211" gradientUnits="userSpaceOnUse">
<stop stop-color="#F6E3BF"/>
<stop offset="0.29" stop-color="#F6E8C3"/>
<stop offset="0.64" stop-color="#F9EED2"/>
<stop offset="1" stop-color="#E9E9FD"/>
</linearGradient>
<linearGradient id="paint18_linear_1107_1983" x1="16.3183" y1="284.896" x2="322.195" y2="146.509" gradientUnits="userSpaceOnUse">
<stop stop-color="#C0BFF6"/>
<stop offset="0.29" stop-color="#C4C3F6"/>
<stop offset="0.64" stop-color="#D2D2F9"/>
<stop offset="1" stop-color="#E9E9FD"/>
</linearGradient>
<linearGradient id="paint19_linear_1107_1983" x1="336.048" y1="156.268" x2="336.056" y2="145.088" gradientUnits="userSpaceOnUse">
<stop stop-color="#C0BFF6"/>
<stop offset="0.29" stop-color="#C4C3F6"/>
<stop offset="0.64" stop-color="#D2D2F9"/>
<stop offset="1" stop-color="#E9E9FD"/>
</linearGradient>
<linearGradient id="paint20_linear_1107_1983" x1="-2101.46" y1="-1147.54" x2="-2049.78" y2="-1236.91" gradientUnits="userSpaceOnUse">
<stop stop-color="#C0BFF6"/>
<stop offset="0.29" stop-color="#C4C3F6"/>
<stop offset="0.64" stop-color="#D2D2F9"/>
<stop offset="1" stop-color="#E9E9FD"/>
</linearGradient>
<linearGradient id="paint21_linear_1107_1983" x1="339.214" y1="164.202" x2="211.198" y2="164.202" gradientUnits="userSpaceOnUse">
<stop stop-color="#6A4403"/>
<stop offset="0.07" stop-color="#8B6017"/>
<stop offset="0.28" stop-color="#92784C"/>
<stop offset="0.48" stop-color="#F1CE93"/>
<stop offset="0.67" stop-color="#FFD698"/>
<stop offset="0.85" stop-color="#FFC672"/>
<stop offset="1" stop-color="#FFEAC6"/>
</linearGradient>
</defs>
</svg>
