<svg width="458" height="482" viewBox="0 0 458 482" fill="none" xmlns="http://www.w3.org/2000/svg">
<path opacity="0.1" d="M200.032 119.673C216.388 110.23 216.391 79.6125 200.037 51.2874C183.684 22.9623 157.167 7.65548 140.811 17.0987C124.455 26.542 124.452 57.1593 140.806 85.4844C157.159 113.81 183.676 129.116 200.032 119.673Z" fill="url(#paint0_linear_846_2810)"/>
<path opacity="0.3" d="M181.592 130.241C197.948 120.798 197.95 90.1809 181.597 61.8557C165.243 33.5306 138.727 18.2238 122.37 27.6671C106.014 37.1103 106.012 67.7277 122.366 96.0528C138.719 124.378 165.236 139.685 181.592 130.241Z" fill="url(#paint1_linear_846_2810)"/>
<path opacity="0.48" d="M163.159 140.804C179.515 131.361 179.517 100.743 163.164 72.4182C146.81 44.0931 120.294 28.7863 103.938 38.2296C87.5816 47.6729 87.5794 78.2902 103.933 106.615C120.286 134.94 146.803 150.247 163.159 140.804Z" fill="url(#paint2_linear_846_2810)"/>
<path d="M91.5406 222.564C87.9539 220.502 87.9539 217.142 91.5406 215.081C95.1273 213.02 100.92 213.02 104.506 215.081C108.093 217.142 108.093 220.502 104.506 222.564C100.92 224.625 95.1273 224.625 91.5406 222.564Z" fill="url(#paint3_linear_846_2810)"/>
<path d="M91.5394 222.128C95.126 224.19 100.918 224.19 104.505 222.128C106.195 221.16 107.082 219.882 107.164 218.604C107.267 220.026 106.381 221.469 104.505 222.561C100.918 224.623 95.126 224.623 91.5394 222.561C89.643 221.469 88.7772 220.026 88.8803 218.604C88.9833 219.882 89.8491 221.139 91.5394 222.128Z" fill="white"/>
<path d="M91.5406 240.372C87.9539 238.311 87.9539 234.951 91.5406 232.89C95.1273 230.828 100.92 230.828 104.506 232.89C108.093 234.951 108.093 238.311 104.506 240.372C100.92 242.434 95.1273 242.434 91.5406 240.372Z" fill="url(#paint4_linear_846_2810)"/>
<path d="M91.5406 258.47C87.9539 256.409 87.9539 253.049 91.5406 250.987C95.1273 248.926 100.92 248.926 104.506 250.987C108.093 253.049 108.093 256.409 104.506 258.47C100.92 260.531 95.1273 260.531 91.5406 258.47Z" fill="url(#paint5_linear_846_2810)"/>
<path d="M107.185 218.832V209.576C107.185 210.937 106.299 212.277 104.506 213.307C100.919 215.369 95.1267 215.369 91.54 213.307C89.8086 212.297 88.9222 210.999 88.8604 209.7V170.535H107.185V285.906C107.185 290.957 103.083 295.059 98.0332 295.059C92.983 295.059 88.881 290.957 88.881 285.906V254.636C88.8191 256.038 89.7055 257.44 91.5607 258.491C95.1473 260.552 100.94 260.552 104.526 258.491C106.32 257.46 107.206 256.121 107.206 254.76V245.484C107.206 246.845 106.32 248.185 104.526 249.215C100.94 251.276 95.1473 251.276 91.5607 249.215C89.8292 248.205 88.9428 246.907 88.881 245.608V236.518C88.8191 237.919 89.7055 239.321 91.5607 240.372C95.1473 242.434 100.94 242.434 104.526 240.372C106.32 239.342 107.206 238.002 107.206 236.641V227.365C107.206 228.726 106.32 230.066 104.526 231.096C100.94 233.158 95.1473 233.158 91.5607 231.096C89.8292 230.086 88.9428 228.788 88.881 227.489V218.708C88.8191 220.11 89.7055 221.511 91.5607 222.563C95.1473 224.624 100.94 224.624 104.526 222.563C106.32 221.532 107.206 220.192 107.206 218.832H107.185Z" fill="url(#paint6_linear_846_2810)"/>
<path d="M91.5394 239.917C95.126 241.979 100.918 241.979 104.505 239.917C106.195 238.949 107.082 237.671 107.164 236.393C107.267 237.815 106.381 239.258 104.505 240.35C100.918 242.412 95.126 242.412 91.5394 240.35C89.643 239.258 88.7772 237.815 88.8803 236.393C88.9833 237.671 89.8491 238.928 91.5394 239.917Z" fill="white"/>
<path d="M91.5394 258.017C95.126 260.078 100.918 260.078 104.505 258.017C106.195 257.048 107.082 255.77 107.164 254.492C107.267 255.914 106.381 257.378 104.505 258.45C100.918 260.511 95.126 260.511 91.5394 258.45C89.643 257.357 88.7772 255.914 88.8803 254.492C88.9833 255.77 89.8491 257.028 91.5394 258.017Z" fill="white"/>
<path opacity="0.48" d="M91.5395 213.307C95.1261 215.368 100.918 215.368 104.505 213.307C106.298 212.276 107.185 210.916 107.185 209.576V218.831C107.185 220.192 106.278 221.532 104.505 222.562C100.918 224.624 95.1261 224.624 91.5395 222.562C89.7049 221.491 88.8185 220.089 88.8598 218.708V209.7C88.9216 211.019 89.808 212.318 91.5395 213.307Z" fill="url(#paint7_linear_846_2810)"/>
<path opacity="0.48" d="M91.5395 231.118C95.1261 233.179 100.918 233.179 104.505 231.118C106.298 230.087 107.185 228.727 107.185 227.387V236.642C107.185 238.002 106.278 239.342 104.505 240.373C100.918 242.434 95.1261 242.434 91.5395 240.373C89.7049 239.301 88.8185 237.899 88.8598 236.518V227.51C88.9216 228.83 89.808 230.128 91.5395 231.118Z" fill="url(#paint8_linear_846_2810)"/>
<path opacity="0.48" d="M91.5395 249.215C95.1261 251.277 100.918 251.277 104.505 249.215C106.298 248.185 107.185 246.824 107.185 245.484V254.74C107.185 256.1 106.278 257.44 104.505 258.471C100.918 260.532 95.1261 260.532 91.5395 258.471C89.7049 257.399 88.8185 255.997 88.8598 254.616V245.608C88.9216 246.927 89.808 248.226 91.5395 249.215Z" fill="url(#paint9_linear_846_2810)"/>
<path d="M131.138 156.269C131.55 156.043 131.983 155.795 132.374 155.527L136.847 130.153L131.22 96.4915L115.616 79.4858L99.5378 63.8817L73.9364 53.2659L73.2562 52.998C72.04 53.6164 70.9063 54.3584 69.8344 55.2036C63.4238 54.3997 57.0337 53.5958 50.623 52.8125C51.6949 50.174 52.9729 47.7623 54.4777 45.6597L51.4063 44.4642L62.8672 37.868C63.0115 37.7855 63.1352 37.7031 63.2795 37.6412L63.7123 37.3939H63.733C73.586 32.0963 87.0051 33.0445 101.805 41.599C132.065 59.0788 156.595 101.562 156.595 136.522C156.595 153.858 150.555 166.081 140.764 171.853L140.682 171.894C140.578 171.956 140.455 172.018 140.352 172.08L128.169 179.047L128.788 175.501C127.262 175.625 125.696 175.625 124.109 175.543C127.489 169.585 132.045 162.989 131.076 156.311L131.138 156.269Z" fill="url(#paint10_linear_846_2810)"/>
<path d="M47.0791 74.6211C47.0791 74.147 47.0585 73.6729 47.0585 73.1988C47.0585 65.2834 48.3571 58.4605 50.6657 52.8125C57.0764 53.6164 63.4665 54.4203 69.8771 55.2036C63.7138 60.0683 60.0035 68.7876 60.0035 80.6607C60.0035 107.375 78.7613 139.841 101.889 153.198C113.288 159.774 123.615 160.475 131.18 156.29C132.149 162.969 127.594 169.565 124.213 175.522C119.122 175.213 113.639 173.811 107.888 171.214L109.702 173.255C109.702 173.255 86.9035 165.339 86.45 164.844C85.9965 164.35 59.4469 137.553 59.4469 137.553L42.1113 100.181L47.1409 74.6623L47.0791 74.6211Z" fill="url(#paint11_linear_846_2810)"/>
<path opacity="0.5" d="M123.996 161.669C140.352 152.226 140.354 121.609 124.001 93.2835C107.647 64.9583 81.1309 49.6516 64.7747 59.0948C48.4185 68.5381 48.4163 99.1554 64.7698 127.481C81.1234 155.806 107.64 171.112 123.996 161.669Z" fill="url(#paint12_linear_846_2810)"/>
<path opacity="0.48" d="M127.612 159.706C143.968 150.263 143.971 119.646 127.617 91.3206C111.264 62.9955 84.7471 47.6887 68.3909 57.1319C52.0347 66.5752 52.0325 97.1925 68.3861 125.518C84.7396 153.843 111.256 169.15 127.612 159.706Z" fill="url(#paint13_linear_846_2810)"/>
<path d="M34.999 80.1456C34.999 115.085 59.5286 157.589 89.7885 175.069C120.049 192.549 144.578 178.387 144.578 143.428C144.578 108.468 120.049 65.9844 89.7885 48.5046C59.5286 31.0247 34.999 45.1859 34.999 80.1456ZM47.9234 87.6075C47.9234 60.893 66.6813 50.0711 89.8091 63.4284C112.937 76.7857 131.695 109.251 131.695 135.966C131.695 162.68 112.937 173.502 89.8091 160.145C66.6813 146.788 47.9234 114.322 47.9234 87.6075Z" fill="#BCBEFF"/>
<path d="M34.999 80.1456C34.999 115.085 59.5286 157.589 89.7885 175.069C120.049 192.549 144.578 178.387 144.578 143.428C144.578 108.468 120.049 65.9844 89.7885 48.5046C59.5286 31.0247 34.999 45.1859 34.999 80.1456ZM47.9234 87.6075C47.9234 60.893 66.6813 50.0711 89.8091 63.4284C112.937 76.7857 131.695 109.251 131.695 135.966C131.695 162.68 112.937 173.502 89.8091 160.145C66.6813 146.788 47.9234 114.322 47.9234 87.6075Z" fill="#BCBEFF"/>
<path d="M143.774 144.356C143.774 109.416 119.244 66.9123 88.9845 49.4324C70.3503 38.6724 53.9011 39.9298 44.0068 50.6074C53.798 39.0641 70.6595 37.4356 89.809 48.4842C120.069 65.9641 144.599 108.448 144.599 143.407C144.599 156.847 140.971 167.195 134.766 173.873C140.435 167.174 143.753 157.177 143.753 144.356H143.774Z" fill="white"/>
<path d="M88.9639 161.072C65.836 147.715 47.0781 115.249 47.0781 88.5345C47.0781 78.1867 49.9021 70.2301 54.6843 65.1387C50.3968 70.2507 47.9026 77.8569 47.9026 87.5863C47.9026 114.301 66.6605 146.766 89.7884 160.124C103.95 168.307 116.482 167.4 124.047 159.34C116.565 168.266 103.661 169.544 88.9433 161.072H88.9639Z" fill="white"/>
<path d="M251.208 481.999C247.724 481.999 244.241 481.092 241.128 479.299L11.1071 346.509C9.93218 345.829 9.25195 344.633 9.25195 343.273C9.25195 341.912 9.9528 340.717 11.1277 340.037L154.038 257.523C154.224 257.42 154.471 257.42 154.656 257.523L394.448 395.96C395.623 396.64 396.303 397.836 396.303 399.196C396.303 400.557 395.602 401.752 394.448 402.432L261.308 479.299C258.196 481.092 254.712 481.999 251.229 481.999H251.208ZM154.347 258.759L11.7255 341.109C10.9422 341.562 10.4681 342.366 10.4681 343.273C10.4681 344.18 10.9422 344.984 11.7255 345.437L241.747 478.227C247.58 481.607 254.836 481.607 260.69 478.227L393.83 401.361C394.613 400.907 395.087 400.103 395.087 399.196C395.087 398.289 394.613 397.485 393.83 397.032L154.347 258.759Z" fill="#F1CE93"/>
<path d="M161.809 197.248L193.862 7.13343L191.286 6.04094L195.161 3.81473C195.903 3.34063 196.975 3.36124 198.15 4.04148L454.246 151.899C456.349 153.115 457.936 156.228 457.565 158.413L425.264 350.032C425.099 351.021 424.605 351.701 423.925 351.99L420.132 354.175L419.472 350.629L419.678 350.691L165.128 203.72C163.025 202.504 161.438 199.391 161.809 197.206V197.248Z" fill="url(#paint14_linear_846_2810)"/>
<path d="M452.802 157.113L457.007 155.258C457.482 156.33 457.708 157.463 457.543 158.432L425.243 350.051C425.078 351.041 424.583 351.721 423.903 352.009L420.11 354.194L419.45 350.649L419.657 350.711L406.773 343.27L452.761 157.113H452.802Z" fill="url(#paint15_linear_846_2810)"/>
<path d="M161.107 206.049L417.204 353.907C419.183 355.041 420.873 354.381 421.223 352.34L453.524 160.721C453.895 158.536 452.308 155.424 450.205 154.208L194.109 6.35015C192.13 5.21643 190.439 5.87605 190.089 7.91675L157.788 199.536C157.417 201.721 159.005 204.833 161.107 206.049Z" fill="#414141"/>
<g opacity="0.51">
<path d="M197.446 18.5957L444.308 161.114L413.698 341.582L167.001 199.166L197.446 18.5957Z" fill="#645F57"/>
</g>
<path d="M0.141602 296.787L14.1173 304.084L154.265 223.178C156.615 221.818 160.697 222.003 163.418 223.549L405.126 363.099C407.435 361.801 417.989 356.73 417.989 356.73L412.877 370.067C412.671 370.664 412.217 371.221 411.455 371.654L263.844 456.868C261.495 458.229 257.413 458.043 254.692 456.497L7.31495 313.669C6.20184 313.03 5.52161 312.247 5.23303 311.464L0.141602 296.787Z" fill="url(#paint16_linear_846_2810)"/>
<path d="M2.28508 299.076L255.784 445.429C258.567 447.037 262.752 447.202 265.163 445.821L416.443 358.483C418.854 357.102 418.545 354.67 415.762 353.062L162.263 206.709C159.48 205.101 155.296 204.936 152.884 206.318L1.62546 293.655C-0.786268 295.036 -0.477072 297.468 2.30569 299.076H2.28508Z" fill="url(#paint17_linear_846_2810)"/>
<path d="M332.26 413.769V410.986C332.26 410.718 332.095 410.594 331.909 410.718L322.097 416.387C321.891 416.51 321.747 416.799 321.747 417.067V419.85C321.747 420.118 321.912 420.241 322.097 420.118L331.909 414.449C332.115 414.325 332.26 414.037 332.26 413.769Z" fill="#2842A2"/>
<path d="M317.583 422.239V419.457C317.583 419.189 317.418 419.065 317.233 419.189L307.421 424.857C307.215 424.981 307.07 425.27 307.07 425.538V428.32C307.07 428.588 307.235 428.712 307.421 428.588L317.233 422.92C317.439 422.796 317.583 422.507 317.583 422.239Z" fill="#2842A2"/>
<path d="M376.99 350.3L166.324 228.683C164.923 227.879 163.191 227.879 161.789 228.683L86.7785 272.094C85.7066 272.713 85.7066 274.279 86.7785 274.897L297.341 396.473C298.743 397.277 300.474 397.277 301.876 396.473L376.99 353.124C378.062 352.506 378.062 350.939 376.99 350.321V350.3Z" fill="#F1CE93"/>
<path d="M376.988 353.103L376.225 353.535L166.322 232.351C164.921 231.547 163.189 231.547 161.788 232.351L87.5187 275.309L86.7561 274.876C85.6842 274.258 85.6842 272.691 86.7561 272.073L161.767 228.662C163.169 227.858 164.9 227.858 166.302 228.662L376.967 350.279C378.039 350.897 378.039 352.464 376.967 353.082L376.988 353.103Z" fill="#3A3E5F"/>
<path d="M156.142 239.669L339.124 345.332L347.266 340.632L164.284 234.99L156.142 239.669Z" fill="#414141"/>
<path d="M136.189 251.192L307.834 350.279L315.956 345.579L144.332 246.492L136.189 251.192Z" fill="#414141"/>
<path d="M123.2 258.696L325.291 375.366L333.412 370.666L131.342 253.996L123.2 258.696Z" fill="#414141"/>
<path d="M110.216 266.198L312.286 382.868L320.428 378.168L118.358 261.498L110.216 266.198Z" fill="#414141"/>
<path d="M97.2295 273.702L299.299 390.372L307.441 385.672L105.351 269.002L97.2295 273.702Z" fill="#414141"/>
<path d="M350.192 351.7L358.314 356.4L366.456 351.7L358.314 347L350.192 351.7Z" fill="#414141"/>
<path d="M321.479 358.172L338.381 367.922L346.503 363.223L329.621 353.473L321.479 358.172Z" fill="#414141"/>
<path d="M158.223 379.735L101.414 346.939C99.1876 345.661 99.1876 343.58 101.414 342.302L140.249 319.875C142.475 318.597 146.062 318.597 148.288 319.875L205.097 352.67C207.324 353.948 207.324 356.03 205.097 357.308L166.262 379.735C164.036 381.013 160.45 381.013 158.223 379.735Z" fill="url(#paint18_linear_846_2810)"/>
<path d="M205.118 354.566L148.309 321.771C146.083 320.493 142.496 320.493 140.27 321.771L101.435 344.198C100.755 344.59 100.301 345.064 100.033 345.579C99.4559 344.466 99.8888 343.188 101.435 342.302L140.27 319.875C142.496 318.597 146.083 318.597 148.309 319.875L205.118 352.67C206.644 353.556 207.097 354.814 206.52 355.947C206.252 355.453 205.819 354.979 205.118 354.566Z" fill="#3A3E5F"/>
<g opacity="0.11">
<mask id="mask0_846_2810" style="mask-type:luminance" maskUnits="userSpaceOnUse" x="167" y="18" width="278" height="324">
<path d="M197.446 18.5957L444.308 161.114L413.698 341.582L167.001 199.166L197.446 18.5957Z" fill="white"/>
</mask>
<g mask="url(#mask0_846_2810)">
<path opacity="0.57" d="M162.015 206.42L415.514 352.773C418.297 354.381 422.481 354.545 424.893 353.164L576.172 265.827C578.584 264.446 578.275 262.013 575.492 260.406L321.993 114.053C319.21 112.445 315.025 112.28 312.614 113.661L161.334 200.999C158.923 202.38 159.232 204.812 162.015 206.42Z" fill="url(#paint19_linear_846_2810)"/>
<path d="M416.257 232.661L359.447 199.865C357.221 198.587 357.221 196.505 359.447 195.227L398.282 172.8C400.508 171.522 404.095 171.522 406.321 172.8L463.131 205.596C465.357 206.874 465.357 208.956 463.131 210.234L424.296 232.661C422.069 233.939 418.483 233.939 416.257 232.661Z" fill="url(#paint20_linear_846_2810)"/>
<path d="M463.151 207.492L406.341 174.697C404.115 173.419 400.528 173.419 398.302 174.697L359.467 197.124C358.787 197.515 358.333 197.989 358.065 198.505C357.488 197.392 357.921 196.114 359.467 195.227L398.302 172.8C400.528 171.522 404.115 171.522 406.341 172.8L463.151 205.596C464.676 206.482 465.13 207.739 464.552 208.873C464.284 208.378 463.852 207.904 463.151 207.492Z" fill="#8C8C8C"/>
<path d="M488.113 283.906L277.447 162.288C276.046 161.485 274.314 161.485 272.912 162.288L197.902 205.679C196.83 206.297 196.83 207.864 197.902 208.482L408.464 330.058C409.866 330.862 411.597 330.862 412.999 330.058L488.113 286.709C489.185 286.09 489.185 284.524 488.113 283.906Z" fill="#ADB1F2"/>
<path d="M488.113 286.709L487.35 287.142L277.447 165.958C276.046 165.154 274.314 165.154 272.913 165.958L198.644 208.915L197.881 208.482C196.809 207.864 196.809 206.297 197.881 205.679L272.892 162.288C274.294 161.485 276.025 161.485 277.427 162.288L488.092 283.906C489.164 284.524 489.164 286.091 488.092 286.709H488.113Z" fill="#8C8C8C"/>
<path d="M217.548 202.73L401.066 308.682L393.79 312.887L210.271 206.915L217.548 202.73Z" fill="#414141"/>
<path d="M236.883 191.559L411.311 292.274L404.034 296.458L229.606 195.764L236.883 191.559Z" fill="#414141"/>
<path d="M424.339 299.797L440.623 309.196L433.347 313.401L417.062 303.981L424.339 299.797Z" fill="#414141"/>
<path d="M409.949 313.814L421.286 320.349L414.01 324.554L402.673 317.999L409.949 313.814Z" fill="#414141"/>
<path d="M248.983 184.57L452.743 302.209L445.467 306.393L241.728 188.755L248.983 184.57Z" fill="#414141"/>
<path d="M261.102 177.562L464.863 295.201L457.586 299.406L253.847 181.768L261.102 177.562Z" fill="#414141"/>
<path d="M273.224 170.574L476.963 288.213L469.707 292.397L265.947 174.779L273.224 170.574Z" fill="#414141"/>
</g>
</g>
<path opacity="0.42" d="M279.386 339.48L333.99 305.88L211.219 234.992L153.275 273.93L279.386 339.48Z" fill="url(#paint21_radial_846_2810)"/>
<path opacity="0.42" d="M333.989 305.882L346.501 226.851L231.274 160.766V246.413L333.989 305.882Z" fill="url(#paint22_radial_846_2810)"/>
<path d="M219.237 122.362L231.42 115.333C231.585 115.229 231.791 115.229 232.038 115.374L384.781 203.556C385.275 203.845 385.688 204.608 385.688 205.288V234.126C385.688 234.455 385.585 234.682 385.44 234.806C385.44 234.806 385.42 234.806 385.399 234.826L373.093 241.917L372.99 227.983L232.059 146.603C231.564 146.314 231.152 145.551 231.152 144.871V134.977L219.258 122.341L219.237 122.362Z" fill="url(#paint23_linear_846_2810)"/>
<path d="M219.774 153.673L372.517 241.856C373.012 242.144 373.424 241.856 373.424 241.176V212.338C373.424 211.678 373.012 210.895 372.517 210.606L219.774 122.424C219.279 122.135 218.867 122.424 218.867 123.104V151.942C218.867 152.601 219.279 153.385 219.774 153.673Z" fill="url(#paint24_linear_846_2810)"/>
<path opacity="0.6" d="M240.84 147.84L359.778 217.78C356.109 220.954 352.625 224.562 349.43 228.54L229.627 159.363C233.069 155.075 236.862 151.179 240.861 147.84H240.84Z" fill="#414141"/>
<path d="M224.124 145.015L368.148 228.168C368.498 228.374 368.766 228.168 368.766 227.694V220.459C368.766 220.005 368.498 219.469 368.148 219.284L224.124 136.13C223.774 135.924 223.506 136.131 223.506 136.605V143.84C223.506 144.293 223.774 144.829 224.124 145.015Z" fill="#414141"/>
<path d="M224.124 136.131L227.051 137.822V141.738C227.051 142.192 227.319 142.728 227.67 142.913L368.766 224.376V227.715C368.766 228.169 368.498 228.375 368.148 228.189L224.124 145.036C223.774 144.83 223.506 144.315 223.506 143.861V136.626C223.506 136.173 223.774 135.966 224.124 136.152V136.131Z" fill="#453C9E"/>
<path opacity="0.96" d="M143.217 457.016L23.3936 387.839C38.8533 378.913 51.8808 359.372 55.8591 340.697C57.4669 333.132 62.1049 326.556 68.8041 322.681L159.357 270.406C184.567 255.854 200.913 229.634 202.645 200.569C204.088 176.019 222.639 151.881 237.048 143.574L356.872 212.752C342.69 220.935 327.065 243.836 325.292 267.974C323.149 297.038 307.338 323.341 282.108 337.914L188.669 391.858C181.97 395.734 177.332 402.309 175.724 409.874C171.746 428.55 158.718 448.091 143.258 457.016H143.217Z" fill="url(#paint25_linear_846_2810)"/>
<g opacity="0.32">
<path d="M274.747 230.685L290.269 239.651V237.92L274.747 228.953V230.685Z" fill="black"/>
<path d="M266.771 226.087L272.377 229.323V227.592L266.771 224.355V226.087Z" fill="black"/>
<path d="M260.608 222.54L264.401 224.725V222.994L260.608 220.809V222.54Z" fill="black"/>
<path d="M281.819 238.724L290.271 243.609V241.877L281.819 236.992V238.724Z" fill="black"/>
<path d="M269.058 231.364L279.426 237.363V235.631L269.058 229.633V231.364Z" fill="black"/>
<path d="M262.896 227.798L266.688 230.003V228.272L262.896 226.066V227.798Z" fill="black"/>
<path d="M257.021 224.417L260.835 226.602V224.871L257.021 222.686V224.417Z" fill="black"/>
<path d="M284.148 244.019L290.271 247.564V245.833L284.148 242.287V244.019Z" fill="black"/>
<path d="M279.676 241.442L281.778 242.659V240.927L279.676 239.711V241.442Z" fill="black"/>
<path d="M273.512 237.877L277.305 240.082V238.351L273.512 236.166V237.877Z" fill="black"/>
<path d="M267.678 238.476L290.27 251.524V249.792L267.678 236.744V238.476Z" fill="black"/>
<path d="M259.721 233.878L265.307 237.094V235.362L259.721 232.146V233.878Z" fill="black"/>
<path d="M284.148 251.935L290.271 255.459V253.728L284.148 250.203V251.935Z" fill="black"/>
<path d="M269.78 243.629L281.777 250.555V248.823L269.78 241.918V243.629Z" fill="black"/>
<path d="M263.617 240.083L267.41 242.268V240.537L263.617 238.352V240.083Z" fill="black"/>
<path d="M277.737 252.183L290.27 259.418V257.686L277.737 250.451V252.183Z" fill="black"/>
<path d="M266.317 245.587L275.367 250.823V249.091L266.317 243.855V245.587Z" fill="black"/>
<path d="M257.824 240.681L263.946 244.226V242.495L257.824 238.949V240.681Z" fill="black"/>
<path d="M286.045 260.923L290.271 263.376V261.644L286.045 259.191V260.923Z" fill="black"/>
<path d="M278.066 256.325L283.673 259.562V257.83L278.066 254.594V256.325Z" fill="black"/>
<path d="M266.688 249.771L275.695 254.965V253.234L266.688 248.039V249.771Z" fill="black"/>
<path d="M277.304 259.851L290.269 267.333V265.602L277.304 258.119V259.851Z" fill="black"/>
<path d="M262.793 251.462L274.934 258.47V256.739L262.793 249.73V251.462Z" fill="black"/>
<path d="M256.629 247.896L260.422 250.101V248.37L256.629 246.164V247.896Z" fill="black"/>
<path d="M250.713 244.472L254.506 246.677V244.946L250.713 242.74V244.472Z" fill="black"/>
<path d="M282.497 266.798L290.268 271.271V269.539L282.497 265.066V266.798Z" fill="black"/>
<path d="M243.251 212.502L232.471 206.298V204.566L243.251 210.771V212.502Z" fill="black"/>
<path d="M240.943 215.12L232.471 210.234V208.523L240.943 213.388V215.12Z" fill="black"/>
<path d="M238.593 217.738L232.471 214.192V212.461L238.593 216.006V217.738Z" fill="black"/>
<path d="M241.376 223.284L232.471 218.151V216.42L241.376 221.553V223.284Z" fill="black"/>
<path d="M238.593 225.633L232.471 222.108V220.377L238.593 223.902V225.633Z" fill="black"/>
<path d="M240.242 230.54L232.471 226.046V224.314L240.242 228.808V230.54Z" fill="black"/>
<path d="M236.717 232.456L232.471 230.003V228.271L236.717 230.724V232.456Z" fill="black"/>
<path d="M240.675 238.701L232.471 233.96V232.229L240.675 236.97V238.701Z" fill="black"/>
<path d="M240.242 242.392L232.471 237.919V236.188L240.242 240.661V242.392Z" fill="black"/>
<path d="M276.829 263.519L280.127 265.415V263.684L276.829 261.787V263.519Z" fill="black"/>
<path d="M267.038 257.851L274.459 262.138V260.427L267.038 256.119V257.851Z" fill="black"/>
</g>
<path opacity="0.8" d="M237.049 143.574L356.872 212.752C355.904 213.308 354.955 213.906 354.028 214.524L234.225 145.347C235.173 144.729 236.121 144.131 237.069 143.574H237.049Z" fill="#453C9E"/>
<path d="M122.275 203.334H160.491V284.962C160.491 287.786 158.615 290.61 154.884 292.774C147.422 297.082 135.323 297.082 127.861 292.774C124.13 290.61 122.254 287.786 122.254 284.962V203.334H122.275Z" fill="url(#paint26_linear_846_2810)"/>
<path d="M122.275 203.334H160.491V284.962C160.491 287.786 158.615 290.61 154.884 292.774C147.422 297.082 135.323 297.082 127.861 292.774C124.13 290.61 122.254 287.786 122.254 284.962V203.334H122.275Z" fill="url(#paint27_linear_846_2810)"/>
<path d="M127.881 211.124C135.343 215.432 147.442 215.432 154.904 211.124C162.366 206.816 162.366 199.828 154.904 195.52C147.442 191.212 135.343 191.212 127.881 195.52C120.419 199.828 120.419 206.816 127.881 211.124Z" fill="#F1CE93"/>
<path opacity="0.3" d="M132.664 208.362C137.487 211.145 145.299 211.145 150.102 208.362C154.926 205.579 154.926 201.065 150.102 198.282C145.279 195.5 137.466 195.5 132.664 198.282C127.861 201.065 127.84 205.579 132.664 208.362Z" fill="url(#paint28_linear_846_2810)"/>
<path opacity="0.5" d="M127.88 210.3C135.342 214.609 147.442 214.609 154.904 210.3C158.449 208.26 160.304 205.601 160.469 202.9C160.655 205.869 158.82 208.858 154.904 211.104C147.442 215.413 135.342 215.413 127.88 211.104C123.964 208.837 122.129 205.848 122.315 202.9C122.479 205.58 124.335 208.239 127.88 210.3Z" fill="#F1CE93"/>
<path d="M123.466 186.798H159.279V193.048C159.279 195.284 157.791 197.773 154.277 199.811C150.774 201.834 146.106 202.88 141.373 202.88C136.639 202.88 131.971 201.834 128.468 199.811C124.954 197.773 123.466 195.284 123.466 193.048V186.798Z" fill="url(#paint29_linear_846_2810)" stroke="url(#paint30_linear_846_2810)" stroke-width="2.42342"/>
<path d="M123.466 186.798H159.279V193.048C159.279 195.284 157.791 197.772 154.278 199.811C150.775 201.834 146.106 202.88 141.373 202.88C136.639 202.88 131.971 201.834 128.468 199.811C124.954 197.773 123.466 195.284 123.466 193.048V186.798Z" fill="url(#paint31_linear_846_2810)" stroke="url(#paint32_linear_846_2810)" stroke-width="2.42342"/>
<path d="M127.881 193.398C135.343 197.706 147.442 197.706 154.904 193.398C162.366 189.09 162.366 182.102 154.904 177.794C147.442 173.485 135.343 173.485 127.881 177.794C120.419 182.102 120.419 189.09 127.881 193.398Z" fill="#E5D092"/>
<g opacity="0.5">
<mask id="path-109-inside-1_846_2810" fill="white">
<path d="M127.88 192.574C135.342 196.882 147.442 196.882 154.904 192.574C158.449 190.533 160.304 187.874 160.469 185.174C160.655 188.142 158.82 191.131 154.904 193.378C147.442 197.686 135.342 197.686 127.88 193.378C123.964 191.11 122.129 188.121 122.315 185.174C122.479 187.854 124.335 190.513 127.88 192.574Z"/>
</mask>
<path d="M127.88 192.574C135.342 196.882 147.442 196.882 154.904 192.574C158.449 190.533 160.304 187.874 160.469 185.174C160.655 188.142 158.82 191.131 154.904 193.378C147.442 197.686 135.342 197.686 127.88 193.378C123.964 191.11 122.129 188.121 122.315 185.174C122.479 187.854 124.335 190.513 127.88 192.574Z" fill="white"/>
<path d="M127.88 192.574L126.662 194.669L126.668 194.673L127.88 192.574ZM154.904 192.574L153.695 190.474L153.692 190.475L154.904 192.574ZM160.469 185.174L162.888 185.023L158.05 185.026L160.469 185.174ZM154.904 193.378L153.698 191.276L153.692 191.279L154.904 193.378ZM127.88 193.378L126.666 195.475L126.668 195.477L127.88 193.378ZM122.315 185.174L124.733 185.025L119.896 185.022L122.315 185.174ZM126.668 194.673C130.854 197.089 136.189 198.228 141.392 198.228C146.595 198.228 151.929 197.089 156.115 194.673L153.692 190.475C150.416 192.366 145.97 193.382 141.392 193.382C136.814 193.382 132.368 192.366 129.092 190.475L126.668 194.673ZM156.113 194.674C160.088 192.386 162.657 189.108 162.888 185.322L158.05 185.026C157.952 186.64 156.811 188.68 153.695 190.474L156.113 194.674ZM158.051 185.325C158.159 187.055 157.134 189.305 153.698 191.276L156.11 195.48C160.507 192.957 163.151 189.229 162.888 185.023L158.051 185.325ZM153.692 191.279C150.416 193.17 145.97 194.186 141.392 194.186C136.814 194.186 132.368 193.17 129.092 191.279L126.668 195.477C130.854 197.893 136.189 199.032 141.392 199.032C146.595 199.032 151.929 197.893 156.115 195.477L153.692 191.279ZM129.094 191.281C125.647 189.285 124.626 187.032 124.733 185.326L119.896 185.022C119.632 189.211 122.281 192.936 126.666 195.475L129.094 191.281ZM119.896 185.323C120.128 189.09 122.698 192.365 126.662 194.669L129.098 190.479C125.971 188.661 124.831 186.617 124.733 185.025L119.896 185.323Z" fill="url(#paint33_linear_846_2810)" mask="url(#path-109-inside-1_846_2810)"/>
</g>
<path d="M153.875 248.764H192.092V303.182C192.092 306.006 190.216 308.83 186.485 310.994C179.023 315.303 166.923 315.303 159.461 310.994C155.73 308.83 153.854 306.006 153.854 303.182V248.764H153.875Z" fill="url(#paint34_linear_846_2810)"/>
<path d="M153.875 248.764H192.092V303.182C192.092 306.006 190.216 308.83 186.485 310.994C179.023 315.303 166.923 315.303 159.461 310.994C155.73 308.83 153.854 306.006 153.854 303.182V248.764H153.875Z" fill="url(#paint35_linear_846_2810)"/>
<path d="M172.983 259.792C183.537 259.792 192.092 254.855 192.092 248.764C192.092 242.674 183.537 237.736 172.983 237.736C162.43 237.736 153.875 242.674 153.875 248.764C153.875 254.855 162.43 259.792 172.983 259.792Z" fill="#E5D092"/>
<path opacity="0.5" d="M159.481 255.732C166.943 260.04 179.042 260.04 186.504 255.732C190.05 253.691 191.905 251.032 192.07 248.332C192.255 251.3 190.421 254.289 186.504 256.536C179.042 260.844 166.943 260.844 159.481 256.536C155.564 254.269 153.73 251.28 153.915 248.332C154.08 251.012 155.935 253.671 159.481 255.732Z" fill="white"/>
<path d="M185.474 239.117H223.69V321.405C223.69 324.229 221.815 327.052 218.084 329.217C210.622 333.525 198.522 333.525 191.06 329.217C187.329 327.052 185.453 324.229 185.453 321.405V239.117H185.474Z" fill="url(#paint36_linear_846_2810)"/>
<path d="M185.474 239.117H223.69V321.405C223.69 324.229 221.815 327.052 218.084 329.217C210.622 333.525 198.522 333.525 191.06 329.217C187.329 327.052 185.453 324.229 185.453 321.405V239.117H185.474Z" fill="url(#paint37_linear_846_2810)"/>
<path d="M191.08 246.909C198.542 251.218 210.642 251.218 218.104 246.909C225.565 242.601 225.565 235.613 218.104 231.305C210.642 226.997 198.542 226.997 191.08 231.305C183.618 235.613 183.618 242.601 191.08 246.909Z" fill="#E5D092"/>
<path opacity="0.5" d="M191.079 246.086C198.541 250.394 210.641 250.394 218.103 246.086C221.648 244.045 223.504 241.386 223.669 238.686C223.854 241.654 222.019 244.643 218.103 246.89C210.641 251.198 198.541 251.198 191.079 246.89C187.163 244.622 185.328 241.633 185.514 238.686C185.679 241.365 187.534 244.024 191.079 246.086Z" fill="white"/>
<path d="M217.074 272.18H255.291V339.646C255.291 342.47 253.415 345.294 249.684 347.459C242.222 351.767 230.122 351.767 222.66 347.459C218.929 345.294 217.054 342.47 217.054 339.646V272.18H217.074Z" fill="url(#paint38_linear_846_2810)"/>
<path d="M217.074 272.18H255.291V339.646C255.291 342.47 253.415 345.294 249.684 347.459C242.222 351.767 230.122 351.767 222.66 347.459C218.929 345.294 217.054 342.47 217.054 339.646V272.18H217.074Z" fill="url(#paint39_linear_846_2810)"/>
<path d="M222.68 279.972C230.142 284.28 242.242 284.28 249.704 279.972C257.166 275.664 257.166 268.676 249.704 264.368C242.242 260.06 230.142 260.06 222.68 264.368C215.219 268.676 215.219 275.664 222.68 279.972Z" fill="#E5D092"/>
<path opacity="0.5" d="M222.68 279.148C230.142 283.456 242.242 283.456 249.704 279.148C253.249 277.107 255.104 274.448 255.269 271.748C255.455 274.716 253.62 277.705 249.704 279.952C242.242 284.26 230.142 284.26 222.68 279.952C218.763 277.685 216.929 274.696 217.114 271.748C217.279 274.428 219.134 277.087 222.68 279.148Z" fill="white"/>
<path d="M248.693 307.037H286.91V357.869C286.91 360.693 285.034 363.517 281.303 365.681C273.841 369.989 261.742 369.989 254.28 365.681C250.549 363.517 248.673 360.693 248.673 357.869V307.037H248.693Z" fill="url(#paint40_linear_846_2810)"/>
<path d="M248.693 307.037H286.91V357.869C286.91 360.693 285.034 363.517 281.303 365.681C273.841 369.989 261.742 369.989 254.28 365.681C250.549 363.517 248.673 360.693 248.673 357.869V307.037H248.693Z" fill="url(#paint41_linear_846_2810)"/>
<path d="M254.279 314.829C261.741 319.137 273.841 319.137 281.303 314.829C288.765 310.521 288.765 303.533 281.303 299.225C273.841 294.917 261.741 294.917 254.279 299.225C246.817 303.533 246.817 310.521 254.279 314.829Z" fill="#E5D092"/>
<path opacity="0.5" d="M254.279 314.006C261.741 318.314 273.841 318.314 281.303 314.006C284.849 311.965 286.704 309.306 286.869 306.605C287.054 309.574 285.22 312.563 281.303 314.809C273.841 319.118 261.741 319.118 254.279 314.809C250.363 312.542 248.528 309.553 248.714 306.605C248.879 309.285 250.734 311.944 254.279 314.006Z" fill="white"/>
<path d="M420.835 170.002L424.545 172.352L424.978 169.631L421.288 167.281L420.835 170.002Z" fill="#F1CE93"/>
<path d="M417.887 188.449L421.576 190.799L424.132 174.844L420.443 172.494L417.887 188.449Z" fill="#F1CE93"/>
<path d="M416.464 197.272L420.154 199.621L421.184 193.293L417.495 190.943L416.464 197.272Z" fill="#F1CE93"/>
<path d="M415 206.423L418.69 208.773L419.7 202.424L416.01 200.074L415 206.423Z" fill="#F1CE93"/>
<path d="M413.927 175.318L417.617 177.668L418.627 171.34L414.937 168.99L413.927 175.318Z" fill="#F1CE93"/>
<path d="M411.971 187.441L415.681 189.791L417.165 180.494L413.475 178.145L411.971 187.441Z" fill="#F1CE93"/>
<path d="M410.197 198.591L413.887 200.94L415.165 192.943L411.475 190.613L410.197 198.591Z" fill="#F1CE93"/>
<path d="M413.537 215.555L417.227 217.905L418.237 211.576L414.547 209.227L413.537 215.555Z" fill="#F1CE93"/>
<path d="M415.331 166.496L419.021 168.846L419.474 166.125L415.785 163.775L415.331 166.496Z" fill="#F1CE93"/>
<path d="M409.352 222.686L415.803 226.788L416.236 224.129L409.784 220.027L409.352 222.686Z" fill="#F1CE93"/>
<defs>
<linearGradient id="paint0_linear_846_2810" x1="200.03" y1="51.2853" x2="140.803" y2="85.4801" gradientUnits="userSpaceOnUse">
<stop stop-color="#8C8C8C"/>
<stop offset="0.07" stop-color="#808080"/>
<stop offset="0.28" stop-color="#97876C"/>
<stop offset="0.48" stop-color="#D3B178"/>
<stop offset="0.67" stop-color="#F1CE93"/>
<stop offset="0.85" stop-color="#FFE4B7"/>
<stop offset="1" stop-color="#FFEED2"/>
</linearGradient>
<linearGradient id="paint1_linear_846_2810" x1="181.59" y1="61.8537" x2="122.363" y2="96.0484" gradientUnits="userSpaceOnUse">
<stop stop-color="#8C8C8C"/>
<stop offset="0.07" stop-color="#808080"/>
<stop offset="0.28" stop-color="#97876C"/>
<stop offset="0.48" stop-color="#D3B178"/>
<stop offset="0.67" stop-color="#F1CE93"/>
<stop offset="0.85" stop-color="#FFE4B7"/>
<stop offset="1" stop-color="#FFEED2"/>
</linearGradient>
<linearGradient id="paint2_linear_846_2810" x1="163.157" y1="72.4162" x2="103.93" y2="106.611" gradientUnits="userSpaceOnUse">
<stop stop-color="#8C8C8C"/>
<stop offset="0.07" stop-color="#808080"/>
<stop offset="0.28" stop-color="#97876C"/>
<stop offset="0.48" stop-color="#D3B178"/>
<stop offset="0.67" stop-color="#F1CE93"/>
<stop offset="0.85" stop-color="#FFE4B7"/>
<stop offset="1" stop-color="#FFEED2"/>
</linearGradient>
<linearGradient id="paint3_linear_846_2810" x1="-1046.77" y1="879.639" x2="-1059.73" y2="887.122" gradientUnits="userSpaceOnUse">
<stop stop-color="#5761D7"/>
<stop offset="0.16" stop-color="#5E67D9"/>
<stop offset="0.41" stop-color="#7179E1"/>
<stop offset="0.69" stop-color="#9197EE"/>
<stop offset="1" stop-color="#BCBEFF"/>
</linearGradient>
<linearGradient id="paint4_linear_846_2810" x1="-1054.47" y1="901.886" x2="-1067.43" y2="909.369" gradientUnits="userSpaceOnUse">
<stop stop-color="#5761D7"/>
<stop offset="0.16" stop-color="#5E67D9"/>
<stop offset="0.41" stop-color="#7179E1"/>
<stop offset="0.69" stop-color="#9197EE"/>
<stop offset="1" stop-color="#BCBEFF"/>
</linearGradient>
<linearGradient id="paint5_linear_846_2810" x1="-1062.31" y1="924.502" x2="-1075.27" y2="931.985" gradientUnits="userSpaceOnUse">
<stop stop-color="#5761D7"/>
<stop offset="0.16" stop-color="#5E67D9"/>
<stop offset="0.41" stop-color="#7179E1"/>
<stop offset="0.69" stop-color="#9197EE"/>
<stop offset="1" stop-color="#BCBEFF"/>
</linearGradient>
<linearGradient id="paint6_linear_846_2810" x1="131.756" y1="232.787" x2="81.6664" y2="232.787" gradientUnits="userSpaceOnUse">
<stop stop-color="#5761D7"/>
<stop offset="0.16" stop-color="#5E67D9"/>
<stop offset="0.41" stop-color="#7179E1"/>
<stop offset="0.69" stop-color="#9197EE"/>
<stop offset="1" stop-color="#BCBEFF"/>
</linearGradient>
<linearGradient id="paint7_linear_846_2810" x1="107.184" y1="216.842" x2="88.8584" y2="216.842" gradientUnits="userSpaceOnUse">
<stop stop-color="#8C8C8C"/>
<stop offset="0.07" stop-color="#808080"/>
<stop offset="0.28" stop-color="#97876C"/>
<stop offset="0.48" stop-color="#D3B178"/>
<stop offset="0.67" stop-color="#F1CE93"/>
<stop offset="0.85" stop-color="#FFE4B7"/>
<stop offset="1" stop-color="#FFEED2"/>
</linearGradient>
<linearGradient id="paint8_linear_846_2810" x1="107.184" y1="234.652" x2="88.8584" y2="234.652" gradientUnits="userSpaceOnUse">
<stop stop-color="#8C8C8C"/>
<stop offset="0.07" stop-color="#808080"/>
<stop offset="0.28" stop-color="#97876C"/>
<stop offset="0.48" stop-color="#D3B178"/>
<stop offset="0.67" stop-color="#F1CE93"/>
<stop offset="0.85" stop-color="#FFE4B7"/>
<stop offset="1" stop-color="#FFEED2"/>
</linearGradient>
<linearGradient id="paint9_linear_846_2810" x1="107.184" y1="252.75" x2="88.8584" y2="252.75" gradientUnits="userSpaceOnUse">
<stop stop-color="#8C8C8C"/>
<stop offset="0.07" stop-color="#808080"/>
<stop offset="0.28" stop-color="#97876C"/>
<stop offset="0.48" stop-color="#D3B178"/>
<stop offset="0.67" stop-color="#F1CE93"/>
<stop offset="0.85" stop-color="#FFE4B7"/>
<stop offset="1" stop-color="#FFEED2"/>
</linearGradient>
<linearGradient id="paint10_linear_846_2810" x1="163.789" y1="138.542" x2="45.4079" y2="69.9213" gradientUnits="userSpaceOnUse">
<stop stop-color="#5761D7"/>
<stop offset="0.16" stop-color="#5E67D9"/>
<stop offset="0.41" stop-color="#7179E1"/>
<stop offset="0.69" stop-color="#9197EE"/>
<stop offset="1" stop-color="#BCBEFF"/>
</linearGradient>
<linearGradient id="paint11_linear_846_2810" x1="33.9898" y1="77.6925" x2="140.58" y2="155.733" gradientUnits="userSpaceOnUse">
<stop stop-color="#5761D7"/>
<stop offset="0.16" stop-color="#5E67D9"/>
<stop offset="0.41" stop-color="#7179E1"/>
<stop offset="0.69" stop-color="#9197EE"/>
<stop offset="1" stop-color="#BCBEFF"/>
</linearGradient>
<linearGradient id="paint12_linear_846_2810" x1="123.994" y1="93.2814" x2="64.7673" y2="127.476" gradientUnits="userSpaceOnUse">
<stop stop-color="#8C8C8C"/>
<stop offset="0.07" stop-color="#808080"/>
<stop offset="0.28" stop-color="#97876C"/>
<stop offset="0.48" stop-color="#D3B178"/>
<stop offset="0.67" stop-color="#F1CE93"/>
<stop offset="0.85" stop-color="#FFE4B7"/>
<stop offset="1" stop-color="#FFEED2"/>
</linearGradient>
<linearGradient id="paint13_linear_846_2810" x1="127.611" y1="91.3185" x2="68.3835" y2="125.513" gradientUnits="userSpaceOnUse">
<stop stop-color="#8C8C8C"/>
<stop offset="0.07" stop-color="#808080"/>
<stop offset="0.28" stop-color="#97876C"/>
<stop offset="0.48" stop-color="#D3B178"/>
<stop offset="0.67" stop-color="#F1CE93"/>
<stop offset="0.85" stop-color="#FFE4B7"/>
<stop offset="1" stop-color="#FFEED2"/>
</linearGradient>
<linearGradient id="paint14_linear_846_2810" x1="457.599" y1="178.818" x2="161.755" y2="178.818" gradientUnits="userSpaceOnUse">
<stop stop-color="#8C8C8C"/>
<stop offset="0.07" stop-color="#808080"/>
<stop offset="0.28" stop-color="#97876C"/>
<stop offset="0.48" stop-color="#D3B178"/>
<stop offset="0.67" stop-color="#F1CE93"/>
<stop offset="0.85" stop-color="#FFE4B7"/>
<stop offset="1" stop-color="#FFEED2"/>
</linearGradient>
<linearGradient id="paint15_linear_846_2810" x1="457.605" y1="254.716" x2="406.815" y2="254.716" gradientUnits="userSpaceOnUse">
<stop stop-color="#5761D7"/>
<stop offset="0.18" stop-color="#5B65D8"/>
<stop offset="0.39" stop-color="#6A72DE"/>
<stop offset="0.61" stop-color="#8188E8"/>
<stop offset="0.85" stop-color="#A2A6F5"/>
<stop offset="1" stop-color="#BCBEFF"/>
</linearGradient>
<linearGradient id="paint16_linear_846_2810" x1="417.969" y1="339.982" x2="0.133283" y2="339.982" gradientUnits="userSpaceOnUse">
<stop stop-color="#6A4403"/>
<stop offset="0.07" stop-color="#8B6017"/>
<stop offset="0.28" stop-color="#92784C"/>
<stop offset="0.48" stop-color="#F1CE93"/>
<stop offset="0.67" stop-color="#FFD698"/>
<stop offset="0.85" stop-color="#FFC672"/>
<stop offset="1" stop-color="#FFEAC6"/>
</linearGradient>
<linearGradient id="paint17_linear_846_2810" x1="277.572" y1="326.079" x2="-140.481" y2="326.079" gradientUnits="userSpaceOnUse">
<stop stop-color="#8C8C8C"/>
<stop offset="0.29" stop-color="#8C8C8C"/>
<stop offset="0.64" stop-color="#8C8C8C"/>
<stop offset="1" stop-color="#8C8C8C"/>
</linearGradient>
<linearGradient id="paint18_linear_846_2810" x1="206.788" y1="349.805" x2="99.7648" y2="349.805" gradientUnits="userSpaceOnUse">
<stop stop-color="#C0BFF6"/>
<stop offset="0.29" stop-color="#C4C3F6"/>
<stop offset="0.64" stop-color="#D2D2F9"/>
<stop offset="1" stop-color="#E9E9FD"/>
</linearGradient>
<linearGradient id="paint19_linear_846_2810" x1="437.302" y1="233.423" x2="19.2486" y2="233.423" gradientUnits="userSpaceOnUse">
<stop stop-color="#C0BFF6"/>
<stop offset="0.29" stop-color="#C4C3F6"/>
<stop offset="0.64" stop-color="#D2D2F9"/>
<stop offset="1" stop-color="#E9E9FD"/>
</linearGradient>
<linearGradient id="paint20_linear_846_2810" x1="464.821" y1="202.73" x2="357.798" y2="202.73" gradientUnits="userSpaceOnUse">
<stop stop-color="#C0BFF6"/>
<stop offset="0.29" stop-color="#C4C3F6"/>
<stop offset="0.64" stop-color="#D2D2F9"/>
<stop offset="1" stop-color="#E9E9FD"/>
</linearGradient>
<radialGradient id="paint21_radial_846_2810" cx="0" cy="0" r="1" gradientUnits="userSpaceOnUse" gradientTransform="translate(296.206 287.226) rotate(180) scale(119.844 119.844)">
<stop stop-color="#2B237C"/>
<stop offset="1" stop-color="#180D5B"/>
</radialGradient>
<radialGradient id="paint22_radial_846_2810" cx="0" cy="0" r="1" gradientUnits="userSpaceOnUse" gradientTransform="translate(322.405 233.324) rotate(180) scale(91.7281 91.7281)">
<stop stop-color="#2B237C"/>
<stop offset="1" stop-color="#180D5B"/>
</radialGradient>
<linearGradient id="paint23_linear_846_2810" x1="355.448" y1="259.789" x2="274.625" y2="114.281" gradientUnits="userSpaceOnUse">
<stop stop-color="#F1CE93"/>
<stop offset="0.04" stop-color="#F1CE93"/>
<stop offset="0.09" stop-color="#EBDEC9"/>
<stop offset="0.14" stop-color="#FFF7E9"/>
<stop offset="0.19" stop-color="#E7E7E7"/>
<stop offset="0.22" stop-color="#EAE4D4"/>
</linearGradient>
<linearGradient id="paint24_linear_846_2810" x1="256.177" y1="260.305" x2="309.956" y2="155.157" gradientUnits="userSpaceOnUse">
<stop stop-color="#C0BFF6"/>
<stop offset="0.29" stop-color="#C4C3F6"/>
<stop offset="0.64" stop-color="#D2D2F9"/>
<stop offset="1" stop-color="#E9E9FD"/>
</linearGradient>
<linearGradient id="paint25_linear_846_2810" x1="110.793" y1="449.328" x2="281.737" y2="146.419" gradientUnits="userSpaceOnUse">
<stop stop-color="#C0BFF6"/>
<stop offset="0.08" stop-color="#C2C1F6"/>
<stop offset="0.13" stop-color="#CBCBF8"/>
<stop offset="0.18" stop-color="#DBDAFA"/>
<stop offset="0.21" stop-color="#E9E9FD"/>
<stop offset="0.26" stop-color="#D7D7FA"/>
<stop offset="0.32" stop-color="#CAC9F7"/>
<stop offset="0.39" stop-color="#C2C1F6"/>
<stop offset="0.51" stop-color="#C0BFF6"/>
<stop offset="0.62" stop-color="#CFCFF8"/>
<stop offset="0.75" stop-color="#E9E9FD"/>
<stop offset="1" stop-color="#C0BFF6"/>
</linearGradient>
<linearGradient id="paint26_linear_846_2810" x1="160.491" y1="249.652" x2="122.481" y2="249.652" gradientUnits="userSpaceOnUse">
<stop stop-color="#C0BFF6"/>
<stop offset="0.49" stop-color="#D1D1F9"/>
<stop offset="1" stop-color="#E9E9FD"/>
</linearGradient>
<linearGradient id="paint27_linear_846_2810" x1="160.489" y1="249.666" x2="122.254" y2="249.666" gradientUnits="userSpaceOnUse">
<stop stop-color="#8C8C8C"/>
<stop offset="0.07" stop-color="#808080"/>
<stop offset="0.28" stop-color="#97876C"/>
<stop offset="0.48" stop-color="#D3B178"/>
<stop offset="0.67" stop-color="#F1CE93"/>
<stop offset="0.85" stop-color="#FFE4B7"/>
<stop offset="1" stop-color="#FFEED2"/>
</linearGradient>
<linearGradient id="paint28_linear_846_2810" x1="947.766" y1="-270.8" x2="930.325" y2="-260.731" gradientUnits="userSpaceOnUse">
<stop stop-color="#5761D7"/>
<stop offset="0.18" stop-color="#5B65D8"/>
<stop offset="0.39" stop-color="#6A72DE"/>
<stop offset="0.61" stop-color="#8188E8"/>
<stop offset="0.85" stop-color="#A2A6F5"/>
<stop offset="1" stop-color="#BCBEFF"/>
</linearGradient>
<linearGradient id="paint29_linear_846_2810" x1="4915.72" y1="194.841" x2="4913.66" y2="194.841" gradientUnits="userSpaceOnUse">
<stop stop-color="#C0BFF6"/>
<stop offset="0.49" stop-color="#D1D1F9"/>
<stop offset="1" stop-color="#E9E9FD"/>
</linearGradient>
<linearGradient id="paint30_linear_846_2810" x1="160.489" y1="194.838" x2="122.254" y2="194.838" gradientUnits="userSpaceOnUse">
<stop stop-color="#8C8C8C"/>
<stop offset="0.07" stop-color="#808080"/>
<stop offset="0.28" stop-color="#97876C"/>
<stop offset="0.48" stop-color="#D3B178"/>
<stop offset="0.67" stop-color="#F1CE93"/>
<stop offset="0.85" stop-color="#FFE4B7"/>
<stop offset="1" stop-color="#FFEED2"/>
</linearGradient>
<linearGradient id="paint31_linear_846_2810" x1="160.489" y1="194.838" x2="122.254" y2="194.838" gradientUnits="userSpaceOnUse">
<stop stop-color="#8C8C8C"/>
<stop offset="0.07" stop-color="#808080"/>
<stop offset="0.28" stop-color="#97876C"/>
<stop offset="0.48" stop-color="#D3B178"/>
<stop offset="0.67" stop-color="#F1CE93"/>
<stop offset="0.85" stop-color="#FFE4B7"/>
<stop offset="1" stop-color="#FFEED2"/>
</linearGradient>
<linearGradient id="paint32_linear_846_2810" x1="160.489" y1="194.838" x2="122.254" y2="194.838" gradientUnits="userSpaceOnUse">
<stop stop-color="#8C8C8C"/>
<stop offset="0.07" stop-color="#808080"/>
<stop offset="0.28" stop-color="#97876C"/>
<stop offset="0.48" stop-color="#D3B178"/>
<stop offset="0.67" stop-color="#F1CE93"/>
<stop offset="0.85" stop-color="#FFE4B7"/>
<stop offset="1" stop-color="#FFEED2"/>
</linearGradient>
<linearGradient id="paint33_linear_846_2810" x1="160.479" y1="190.891" x2="122.302" y2="190.891" gradientUnits="userSpaceOnUse">
<stop stop-color="#8C8C8C"/>
<stop offset="0.07" stop-color="#808080"/>
<stop offset="0.28" stop-color="#97876C"/>
<stop offset="0.48" stop-color="#D3B178"/>
<stop offset="0.67" stop-color="#F1CE93"/>
<stop offset="0.85" stop-color="#FFE4B7"/>
<stop offset="1" stop-color="#FFEED2"/>
</linearGradient>
<linearGradient id="paint34_linear_846_2810" x1="192.092" y1="281.497" x2="154.081" y2="281.497" gradientUnits="userSpaceOnUse">
<stop stop-color="#C0BFF6"/>
<stop offset="0.49" stop-color="#D1D1F9"/>
<stop offset="1" stop-color="#E9E9FD"/>
</linearGradient>
<linearGradient id="paint35_linear_846_2810" x1="192.089" y1="281.492" x2="153.854" y2="281.492" gradientUnits="userSpaceOnUse">
<stop stop-color="#8C8C8C"/>
<stop offset="0.07" stop-color="#808080"/>
<stop offset="0.28" stop-color="#97876C"/>
<stop offset="0.48" stop-color="#D3B178"/>
<stop offset="0.67" stop-color="#F1CE93"/>
<stop offset="0.85" stop-color="#FFE4B7"/>
<stop offset="1" stop-color="#FFEED2"/>
</linearGradient>
<linearGradient id="paint36_linear_846_2810" x1="223.69" y1="285.785" x2="185.7" y2="285.785" gradientUnits="userSpaceOnUse">
<stop stop-color="#C0BFF6"/>
<stop offset="0.49" stop-color="#D1D1F9"/>
<stop offset="1" stop-color="#E9E9FD"/>
</linearGradient>
<linearGradient id="paint37_linear_846_2810" x1="223.688" y1="285.779" x2="185.453" y2="285.779" gradientUnits="userSpaceOnUse">
<stop stop-color="#8C8C8C"/>
<stop offset="0.07" stop-color="#808080"/>
<stop offset="0.28" stop-color="#97876C"/>
<stop offset="0.48" stop-color="#D3B178"/>
<stop offset="0.67" stop-color="#F1CE93"/>
<stop offset="0.85" stop-color="#FFE4B7"/>
<stop offset="1" stop-color="#FFEED2"/>
</linearGradient>
<linearGradient id="paint38_linear_846_2810" x1="255.291" y1="311.427" x2="217.301" y2="311.427" gradientUnits="userSpaceOnUse">
<stop stop-color="#C0BFF6"/>
<stop offset="0.49" stop-color="#D1D1F9"/>
<stop offset="1" stop-color="#E9E9FD"/>
</linearGradient>
<linearGradient id="paint39_linear_846_2810" x1="255.288" y1="311.431" x2="217.054" y2="311.431" gradientUnits="userSpaceOnUse">
<stop stop-color="#8C8C8C"/>
<stop offset="0.07" stop-color="#808080"/>
<stop offset="0.28" stop-color="#97876C"/>
<stop offset="0.48" stop-color="#D3B178"/>
<stop offset="0.67" stop-color="#F1CE93"/>
<stop offset="0.85" stop-color="#FFE4B7"/>
<stop offset="1" stop-color="#FFEED2"/>
</linearGradient>
<linearGradient id="paint40_linear_846_2810" x1="286.91" y1="337.957" x2="248.9" y2="337.957" gradientUnits="userSpaceOnUse">
<stop stop-color="#C0BFF6"/>
<stop offset="0.49" stop-color="#D1D1F9"/>
<stop offset="1" stop-color="#E9E9FD"/>
</linearGradient>
<linearGradient id="paint41_linear_846_2810" x1="286.907" y1="337.972" x2="248.673" y2="337.972" gradientUnits="userSpaceOnUse">
<stop stop-color="#8C8C8C"/>
<stop offset="0.07" stop-color="#808080"/>
<stop offset="0.28" stop-color="#97876C"/>
<stop offset="0.48" stop-color="#D3B178"/>
<stop offset="0.67" stop-color="#F1CE93"/>
<stop offset="0.85" stop-color="#FFE4B7"/>
<stop offset="1" stop-color="#FFEED2"/>
</linearGradient>
</defs>
</svg>
