<svg width="492" height="480" viewBox="0 0 492 480" fill="none" xmlns="http://www.w3.org/2000/svg">
<g style="mix-blend-mode:lighten">
<path d="M245.751 305.724C244.15 305.724 242.615 305.388 241.458 304.715L144.805 248.906C143.554 248.179 142.867 247.156 142.867 245.999C142.867 244.667 143.809 243.361 145.451 242.406L240.812 187.351C243.732 185.668 248.012 185.507 250.569 186.974L347.222 242.783C348.473 243.509 349.16 244.532 349.16 245.69C349.16 247.022 348.218 248.327 346.576 249.283L251.215 304.338C249.627 305.253 247.649 305.711 245.751 305.711V305.724ZM242.198 303.423C244.271 304.621 248.052 304.446 250.461 303.046L345.822 247.991C346.966 247.331 347.652 246.47 347.652 245.703C347.652 244.936 347.007 244.398 346.468 244.088L249.815 188.279C247.756 187.095 243.961 187.256 241.552 188.656L146.191 243.711C145.047 244.371 144.361 245.232 144.361 245.999C144.361 246.766 145.007 247.305 145.545 247.614L242.198 303.423Z" fill="#8686F2"/>
</g>
<path opacity="0.5" d="M132.302 312.143C132.047 312.143 131.791 312.009 131.656 311.767C131.454 311.403 131.576 310.946 131.925 310.744L192.983 275.498C193.333 275.296 193.804 275.417 194.006 275.767C194.208 276.131 194.086 276.588 193.737 276.79L132.679 312.036C132.558 312.103 132.437 312.143 132.302 312.143Z" fill="url(#paint0_linear_846_2315)"/>
<path opacity="0.5" d="M359.59 311.94C359.455 311.94 359.334 311.914 359.213 311.833L298.492 276.776C298.129 276.574 298.008 276.116 298.223 275.753C298.425 275.389 298.896 275.268 299.246 275.484L359.953 310.541C360.317 310.743 360.438 311.2 360.222 311.564C360.088 311.806 359.832 311.94 359.576 311.94H359.59Z" fill="url(#paint1_linear_846_2315)"/>
<path opacity="0.5" d="M245.764 429.682C243.302 429.682 240.839 429.05 238.645 427.771C213.762 413.345 130.876 365.435 128.898 364.547C128.494 364.426 128.306 364.022 128.414 363.632C128.521 363.242 128.965 363.013 129.369 363.134C130.661 363.511 238.309 425.847 239.399 426.479C243.329 428.754 248.214 428.754 252.143 426.479L361.622 363.026C361.971 362.825 362.429 362.932 362.644 363.296C362.846 363.659 362.725 364.117 362.375 364.318L252.897 427.771C250.69 429.05 248.227 429.682 245.764 429.682Z" fill="url(#paint2_linear_846_2315)"/>
<path d="M348.406 205.006V216.876L245.764 276.13L143.109 216.876V205.006H348.406Z" fill="url(#paint3_linear_846_2315)"/>
<path d="M245.764 264.274L143.109 205.006L245.764 145.752L348.406 205.006L245.764 264.274Z" fill="#BCBEFF"/>
<path d="M245.764 262.888L144.321 204.32L143.109 205.007L245.764 264.274L348.406 205.007L347.208 204.32L245.764 262.888Z" fill="white"/>
<path d="M245.765 250.6L166.809 205.019L245.765 159.438L324.707 205.019L245.765 250.6Z" fill="#0F054C"/>
<path opacity="0.5" d="M245.764 250.6L166.808 205.019L245.764 159.438L324.706 205.019L245.764 250.6Z" fill="url(#paint4_linear_846_2315)"/>
<path opacity="0.5" d="M245.764 147.945L324.706 193.526V205.019L245.764 159.438V147.945Z" fill="url(#paint5_linear_846_2315)"/>
<path opacity="0.5" d="M245.764 159.438L166.808 205.019V193.526L245.764 147.945V159.438Z" fill="url(#paint6_linear_846_2315)"/>
<path opacity="0.5" d="M245.764 239.108L166.808 193.526L245.764 147.945L324.706 193.526L245.764 239.108Z" fill="url(#paint7_linear_846_2315)"/>
<path opacity="0.5" d="M245.764 211.748L214.22 193.527L245.764 175.318L277.309 193.527L245.764 211.748Z" fill="#F1CE93"/>
<path opacity="0.5" d="M245.764 176.987L275.856 194.361L277.309 193.527L245.764 175.318L214.22 193.527L215.66 194.361L245.764 176.987Z" fill="#F1CE93"/>
<path opacity="0.5" d="M245.764 239.108V250.601L324.706 205.02V193.527L245.764 239.108Z" fill="url(#paint8_linear_846_2315)"/>
<path opacity="0.5" d="M166.808 193.527V205.02L245.764 250.601V239.108L166.808 193.527Z" fill="url(#paint9_linear_846_2315)"/>
<path opacity="0.8" d="M245.765 237.857L167.899 192.908L166.809 193.527L245.765 239.108L324.707 193.527L323.631 192.908L245.765 237.857Z" fill="#F1CE93"/>
<g opacity="0.11">
<path d="M93.9081 289.224C89.7766 286.842 84.6896 286.842 80.5447 289.224L0.942578 335.074C-0.308984 335.801 -0.308984 337.604 0.942578 338.331L81.2176 384.679C84.8646 386.779 89.3594 386.779 93.0065 384.679L173.403 338.371C174.654 337.645 174.654 335.841 173.403 335.115L93.9081 289.224Z" fill="url(#paint10_linear_846_2315)"/>
</g>
<g opacity="0.11">
<path d="M93.9081 275.808C89.7766 273.426 84.6896 273.426 80.5447 275.808L0.942578 321.672C-0.308984 322.398 -0.308984 324.202 0.942578 324.928L81.2176 371.277C84.8646 373.376 89.3594 373.376 93.0065 371.277L173.403 324.969C174.654 324.242 174.654 322.439 173.403 321.712L93.9081 275.821V275.808Z" fill="url(#paint11_linear_846_2315)"/>
</g>
<g opacity="0.11">
<path d="M93.9081 262.404C89.7766 260.022 84.6896 260.022 80.5447 262.404L0.942578 308.254C-0.308984 308.981 -0.308984 310.784 0.942578 311.511L81.2176 357.859C84.8646 359.958 89.3594 359.958 93.0065 357.859L173.403 311.551C174.654 310.824 174.654 309.021 173.403 308.294L93.9081 262.404Z" fill="url(#paint12_linear_846_2315)"/>
</g>
<g opacity="0.11">
<path d="M93.9081 248.986C89.7766 246.604 84.6896 246.604 80.5447 248.986L0.942578 294.836C-0.308984 295.563 -0.308984 297.366 0.942578 298.093L81.2176 344.441C84.8646 346.54 89.3594 346.54 93.0065 344.441L173.403 298.133C174.654 297.406 174.654 295.603 173.403 294.876L93.9081 248.986Z" fill="url(#paint13_linear_846_2315)"/>
</g>
<path opacity="0.5" d="M173.403 294.89L93.9086 248.999C89.7771 246.617 84.6901 246.617 80.5451 248.999L0.943013 294.836C0.310503 295.2 0.000976562 295.832 0.000976562 296.465V323.434C0.000976562 324.066 0.310503 324.699 0.943013 325.062L81.218 371.41C84.865 373.51 89.3599 373.51 93.0069 371.41L173.403 325.102C174.036 324.739 174.345 324.107 174.345 323.474V296.505C174.345 295.872 174.036 295.24 173.403 294.877V294.89Z" fill="url(#paint14_linear_846_2315)"/>
<g opacity="0.4">
<path d="M93.9081 248.986C89.7766 246.604 84.6896 246.604 80.5447 248.986L0.942578 294.836C-0.308984 295.563 -0.308984 297.366 0.942578 298.093L81.2176 344.441C84.8646 346.54 89.3594 346.54 93.0065 344.441L173.403 298.133C174.654 297.406 174.654 295.603 173.403 294.876L93.9081 248.986Z" fill="url(#paint15_linear_846_2315)" style="mix-blend-mode:multiply"/>
</g>
<g opacity="0.5">
<path d="M90.0334 275.282C88.2839 274.273 86.1173 274.273 84.3678 275.282L48.6915 295.832C48.1263 296.155 48.1263 296.963 48.6915 297.286L84.5158 317.97C86.1442 318.912 88.1494 318.912 89.7777 317.97L125.656 297.313C126.221 296.99 126.221 296.182 125.656 295.859L90.0334 275.296V275.282Z" fill="#F1CE93"/>
</g>
<path d="M48.7045 297.111L84.3808 276.561C86.1303 275.551 88.297 275.551 90.0465 276.561L125.669 297.124C125.669 297.124 125.723 297.178 125.75 297.205C126.207 296.841 126.194 296.142 125.669 295.832L90.0465 275.269C88.297 274.259 86.1303 274.259 84.3808 275.269L48.7045 295.819C48.1797 296.115 48.1662 296.828 48.6238 297.191C48.6507 297.164 48.6642 297.124 48.7045 297.111Z" fill="#F1CE93"/>
<path d="M173.403 296.289L93.0069 342.597C89.3599 344.696 84.865 344.696 81.218 342.597L0.943043 296.249C0.633516 296.074 0.404736 295.818 0.243244 295.549C-0.241232 296.397 0.0010062 297.554 0.943043 298.106L81.218 344.454C84.865 346.553 89.3599 346.553 93.0069 344.454L173.403 298.146C174.345 297.594 174.574 296.437 174.103 295.589C173.941 295.872 173.713 296.114 173.403 296.289Z" fill="url(#paint16_linear_846_2315)"/>
<g opacity="0.11">
<path d="M411.092 289.224C406.96 286.842 401.873 286.842 397.728 289.224L318.113 335.088C316.861 335.814 316.861 337.618 318.113 338.344L398.387 384.693C402.034 386.792 406.529 386.792 410.176 384.693L490.572 338.385C491.824 337.658 491.824 335.855 490.572 335.128L411.078 289.237L411.092 289.224Z" fill="url(#paint17_linear_846_2315)"/>
</g>
<g opacity="0.11">
<path d="M411.092 275.808C406.96 273.426 401.873 273.426 397.728 275.808L318.113 321.672C316.861 322.398 316.861 324.202 318.113 324.928L398.387 371.277C402.034 373.376 406.529 373.376 410.176 371.277L490.572 324.969C491.824 324.242 491.824 322.439 490.572 321.712L411.078 275.821L411.092 275.808Z" fill="url(#paint18_linear_846_2315)"/>
</g>
<g opacity="0.11">
<path d="M411.092 262.404C406.96 260.022 401.873 260.022 397.728 262.404L318.113 308.267C316.861 308.994 316.861 310.797 318.113 311.524L398.387 357.872C402.034 359.972 406.529 359.972 410.176 357.872L490.572 311.565C491.824 310.838 491.824 309.035 490.572 308.308L411.078 262.417L411.092 262.404Z" fill="url(#paint19_linear_846_2315)"/>
</g>
<g opacity="0.11">
<path d="M411.092 248.986C406.96 246.604 401.873 246.604 397.728 248.986L318.113 294.849C316.861 295.576 316.861 297.379 318.113 298.106L398.387 344.454C402.034 346.554 406.529 346.554 410.176 344.454L490.572 298.147C491.824 297.42 491.824 295.617 490.572 294.89L411.078 248.999L411.092 248.986Z" fill="url(#paint20_linear_846_2315)"/>
</g>
<path opacity="0.5" d="M490.585 294.89L411.091 248.999C406.959 246.617 401.872 246.617 397.728 248.999L318.112 294.863C317.479 295.226 317.17 295.859 317.17 296.491V323.461C317.17 324.093 317.479 324.726 318.112 325.089L398.387 371.437C402.034 373.537 406.529 373.537 410.176 371.437L490.572 325.129C491.204 324.766 491.514 324.134 491.514 323.501V296.532C491.514 295.899 491.204 295.267 490.572 294.903L490.585 294.89Z" fill="url(#paint21_linear_846_2315)"/>
<g opacity="0.11">
<path d="M411.092 248.986C406.96 246.604 401.873 246.604 397.728 248.986L318.113 294.849C316.861 295.576 316.861 297.379 318.113 298.106L398.387 344.454C402.034 346.554 406.529 346.554 410.176 344.454L490.572 298.147C491.824 297.42 491.824 295.617 490.572 294.89L411.078 248.999L411.092 248.986Z" fill="url(#paint22_linear_846_2315)" style="mix-blend-mode:plus-darker"/>
</g>
<g opacity="0.5">
<path d="M407.202 275.282C405.453 274.273 403.286 274.273 401.537 275.282L365.86 295.832C365.295 296.155 365.295 296.963 365.86 297.286L401.685 317.97C403.313 318.912 405.318 318.912 406.947 317.97L442.825 297.313C443.39 296.99 443.39 296.182 442.825 295.859L407.202 275.296V275.282Z" fill="#F1CE93"/>
</g>
<path d="M365.873 297.111L401.55 276.561C403.299 275.551 405.466 275.551 407.215 276.561L442.838 297.124C442.838 297.124 442.892 297.178 442.919 297.205C443.376 296.841 443.363 296.142 442.838 295.832L407.215 275.269C405.466 274.259 403.299 274.259 401.55 275.269L365.873 295.819C365.349 296.115 365.335 296.828 365.793 297.191C365.82 297.164 365.833 297.124 365.873 297.111Z" fill="#F1CE93"/>
<path d="M490.585 296.289L410.189 342.597C406.542 344.696 402.047 344.696 398.4 342.597L318.125 296.249C317.815 296.074 317.586 295.818 317.425 295.549C316.94 296.397 317.183 297.554 318.125 298.106L398.4 344.454C402.047 346.553 406.542 346.553 410.189 344.454L490.585 298.146C491.527 297.594 491.755 296.437 491.284 295.589C491.123 295.872 490.894 296.114 490.585 296.289Z" fill="url(#paint23_linear_846_2315)"/>
<path opacity="0.5" d="M469.929 184.106V136.426C468.825 120.169 462.392 104.679 451.599 90.5218V138.202C462.392 152.36 468.825 167.85 469.929 184.106ZM446.082 131.5V83.8199C442.273 79.5269 438.061 75.3819 433.458 71.385V119.065C438.061 123.062 442.273 127.207 446.082 131.5ZM425.639 112.7V65.0195C420.633 61.1975 415.264 57.5371 409.544 54.065V101.745C415.25 105.218 420.633 108.878 425.639 112.7ZM398.751 109.699V33.8516C442.677 57.1602 470.104 90.4949 470.104 127.369V203.243C470.104 166.369 442.677 133.035 398.751 109.726V109.699Z" fill="#F1CE93"/>
<path opacity="0.5" d="M318.408 73.2963V59.5964C315.057 58.9504 311.666 58.3583 308.247 57.8065V71.5064C311.666 72.0582 315.057 72.6503 318.408 73.2963ZM300.132 56.5953V44.47C296.66 43.9855 293.148 43.5549 289.622 43.1781V55.3034C293.161 55.6937 296.66 56.1243 300.132 56.5953ZM336.011 63.4588V46.9327C332.794 46.1387 329.537 45.3851 326.24 44.6718V61.1979C329.537 61.9111 332.794 62.6647 336.011 63.4588ZM281.224 54.4825V30.0837C277.645 29.7742 274.038 29.5185 270.404 29.3032V53.7019C274.038 53.9173 277.645 54.173 281.224 54.4825ZM241.968 53.1098V28.7111C238.294 28.7649 234.634 28.8726 231 29.034V53.4328C234.634 53.2713 238.294 53.1636 241.968 53.1098ZM222.468 53.8904V23.1934C218.875 23.4357 215.309 23.7183 211.756 24.0547V54.7516C215.295 54.4152 218.875 54.1326 222.468 53.8904ZM261.792 53.2982V18.1872C258.508 18.0661 255.197 17.9988 251.873 17.9584C251.483 17.9584 251.093 17.9584 250.689 17.9584V53.0694C251.079 53.0694 251.47 53.0694 251.873 53.0694C255.197 53.0963 258.508 53.1771 261.792 53.2982ZM203.453 55.6129V11.7006C199.954 12.1043 196.482 12.5619 193.036 13.0733V56.9991C196.482 56.5011 199.954 56.0436 203.453 55.6264V55.6129ZM170.656 7.93243C195.916 2.56282 223.303 -0.263289 251.86 0.0193223C289.985 0.396137 325.702 6.27714 356.762 16.2896V92.164C325.702 82.138 289.985 76.2704 251.86 75.8936C223.303 75.611 195.903 78.4237 170.656 83.8067V7.93243Z" fill="#F1CE93"/>
<path opacity="0.5" d="M41.584 110.843V95.5688C37.0488 102.096 33.4152 108.905 30.8044 115.917V161.161C33.4287 154.137 37.0488 147.34 41.584 140.813V125.539C42.9029 123.641 44.289 121.771 45.7559 119.927V128.163C48.5416 124.664 51.5831 121.246 54.8802 117.922V109.686C69.1857 95.2862 88.2552 82.6494 110.824 72.4754V57.7797C106.813 59.5965 102.911 61.4805 99.1156 63.4453C97.218 64.4278 95.3609 65.4236 93.5172 66.4464C79.0233 74.4941 66.4403 83.6588 56.1721 93.7116C55.7415 94.1423 55.3108 94.5595 54.8802 94.9901V86.754C51.5831 90.0781 48.5282 93.4829 45.7559 96.9953V105.231C44.289 107.075 42.9029 108.946 41.584 110.843ZM27.8438 110.359C36.4701 73.3367 72.7385 41.4555 124.187 21.6055V97.4798C72.7385 117.33 36.4701 149.211 27.8438 186.233V110.359Z" fill="#F1CE93"/>
<path opacity="0.75" d="M54.8792 95.0034C55.3098 94.5728 55.7405 94.1421 56.1711 93.7249V108.421C63.842 100.911 72.8048 93.8999 82.8846 87.4671C86.3028 85.287 89.8422 83.1876 93.5161 81.1555V66.4597C95.3464 65.4369 97.217 64.4411 99.1145 63.4586V78.1544C102.896 76.1896 106.799 74.3055 110.823 72.4887C88.2542 82.6627 69.1981 95.2995 54.8792 109.699V95.0034ZM41.583 110.843C42.9019 108.946 44.288 107.075 45.7549 105.231V119.927C44.288 121.771 42.9019 123.641 41.583 125.539V110.843Z" fill="#F1CE93"/>
<path opacity="0.88" d="M99.1162 63.4587C102.898 61.4938 106.801 59.6098 110.824 57.793V72.4887C106.814 74.3055 102.911 76.1896 99.1162 78.1544V63.4587Z" fill="#F1CE93"/>
<path opacity="0.88" d="M56.1719 93.7251C63.8427 86.2157 72.8055 79.2042 82.8853 72.7715V87.4673C72.8055 93.8866 63.8293 100.911 56.1719 108.421V93.7251Z" fill="#F1CE93"/>
<path opacity="0.97" d="M82.8867 72.7706C86.305 70.5905 89.8443 68.4911 93.5183 66.459V81.1548C89.8578 83.1869 86.305 85.2997 82.8867 87.4664V72.7706Z" fill="#F1CE93"/>
<path opacity="0.75" d="M30.8057 115.93C33.4299 108.905 37.05 102.109 41.5853 95.582V110.856C37.05 117.383 33.4165 124.193 30.8057 131.204V145.9C33.4299 138.875 37.05 132.079 41.5853 125.552V140.827C37.05 147.354 33.4165 154.163 30.8057 161.175V115.93Z" fill="#F1CE93"/>
<path opacity="0.88" d="M30.8057 131.203C33.4299 124.179 37.05 117.382 41.5853 110.855V125.551C37.05 132.078 33.4165 138.888 30.8057 145.899V131.203Z" fill="#F1CE93"/>
<path opacity="0.75" d="M45.7549 119.927C48.5406 116.428 51.5821 113.01 54.8792 109.686V117.922C51.5821 121.246 48.5272 124.651 45.7549 128.163V119.927ZM45.7549 96.9952C48.5406 93.4962 51.5821 90.0779 54.8792 86.7539V94.99C51.5821 98.314 48.5272 101.719 45.7549 105.231V96.9952Z" fill="#F1CE93"/>
<path opacity="0.88" d="M45.7549 105.232C48.5406 101.733 51.5821 98.3143 54.8792 94.9902V109.686C51.5821 113.01 48.5272 116.415 45.7549 119.927V105.232Z" fill="#F1CE93"/>
<path opacity="0.75" d="M451.598 90.5215C462.391 104.679 468.823 120.169 469.927 136.426V184.106C468.823 167.849 462.391 152.359 451.598 138.202V90.5215Z" fill="#F1CE93"/>
<path d="M433.458 71.3848C438.061 75.3817 442.273 79.5267 446.081 83.8196V131.5C442.273 127.207 438.061 123.062 433.458 119.065V71.3848Z" fill="#F1CE93"/>
<path opacity="0.75" d="M409.556 54.0781C415.262 57.5502 420.645 61.2107 425.651 65.0327V112.713C420.645 108.891 415.275 105.231 409.556 101.759V54.0781Z" fill="#F1CE93"/>
<path opacity="0.75" d="M326.241 44.6582C329.538 45.3715 332.795 46.1251 336.011 46.9191V63.4451C332.795 62.6511 329.538 61.8975 326.241 61.1842V44.6582Z" fill="#F1CE93"/>
<path opacity="0.75" d="M308.249 57.8066C311.667 58.3584 315.059 58.9505 318.41 59.5965V73.2964C315.059 72.6504 311.667 72.0583 308.249 71.5065V57.8066Z" fill="#F1CE93"/>
<path opacity="0.75" d="M289.608 43.1641C293.148 43.5543 296.647 43.985 300.119 44.456V56.5814C296.647 56.0969 293.134 55.6662 289.608 55.2894V43.1641Z" fill="#F1CE93"/>
<path opacity="0.75" d="M270.405 29.2891C274.039 29.5044 277.646 29.7601 281.225 30.0696V54.4684C277.646 54.1588 274.039 53.9031 270.405 53.6878V29.2891Z" fill="#F1CE93"/>
<path opacity="0.75" d="M250.689 17.959C251.08 17.959 251.47 17.959 251.874 17.959C255.198 17.9859 258.508 18.0666 261.792 18.1878V53.2988C258.508 53.1777 255.198 53.1104 251.874 53.07C251.483 53.07 251.093 53.07 250.689 53.07V17.959Z" fill="#F1CE93"/>
<path d="M230.987 29.0202C234.621 28.8588 238.281 28.7511 241.955 28.6973V53.096C238.281 53.1498 234.621 53.2575 230.987 53.419V29.0202Z" fill="#F1CE93"/>
<path opacity="0.75" d="M211.743 24.041C215.283 23.7045 218.862 23.4219 222.455 23.1797V53.8766C218.862 54.1189 215.296 54.4015 211.743 54.7379V24.041Z" fill="#F1CE93"/>
<path d="M193.023 13.0602C196.469 12.5622 199.941 12.1047 203.44 11.6875V55.6133C199.941 56.017 196.469 56.4746 193.023 56.986V13.0602Z" fill="#F1CE93"/>
<g opacity="0.11">
<path d="M239.089 387.828C242.978 385.581 247.756 385.581 251.645 387.828L326.497 430.947C327.681 431.633 327.681 433.329 326.497 434.001L251.026 477.577C247.594 479.556 243.369 479.556 239.937 477.577L164.345 434.042C163.161 433.355 163.161 431.66 164.345 430.987L239.089 387.842V387.828Z" fill="url(#paint24_linear_846_2315)"/>
</g>
<g opacity="0.11">
<path d="M239.089 375.219C242.978 372.971 247.756 372.971 251.645 375.219L326.497 418.337C327.681 419.023 327.681 420.719 326.497 421.392L251.026 464.968C247.594 466.946 243.369 466.946 239.937 464.968L164.345 421.432C163.161 420.746 163.161 419.05 164.345 418.378L239.089 375.232V375.219Z" fill="url(#paint25_linear_846_2315)"/>
</g>
<g opacity="0.11">
<path d="M239.089 362.607C242.978 360.36 247.756 360.36 251.645 362.607L326.497 405.726C327.681 406.412 327.681 408.108 326.497 408.781L251.026 452.357C247.594 454.335 243.369 454.335 239.937 452.357L164.345 408.821C163.161 408.135 163.161 406.439 164.345 405.766L239.089 362.621V362.607Z" fill="url(#paint26_linear_846_2315)"/>
</g>
<g opacity="0.11">
<path d="M239.089 349.998C242.978 347.751 247.756 347.751 251.645 349.998L326.497 393.116C327.681 393.803 327.681 395.498 326.497 396.171L251.026 439.747C247.594 441.726 243.369 441.726 239.937 439.747L164.345 396.212C163.161 395.525 163.161 393.83 164.345 393.157L239.089 350.012V349.998Z" fill="url(#paint27_linear_846_2315)"/>
</g>
<path opacity="0.11" d="M164.345 393.143L239.089 349.998C242.978 347.751 247.756 347.751 251.645 349.998L326.497 393.116C327.089 393.453 327.385 394.058 327.385 394.651V432.48C327.385 433.072 327.089 433.664 326.497 434.014L251.026 477.59C247.594 479.568 243.369 479.568 239.937 477.59L164.345 434.055C163.753 433.718 163.457 433.113 163.457 432.52V394.691C163.457 394.099 163.753 393.507 164.345 393.157V393.143Z" fill="url(#paint28_linear_846_2315)"/>
<g opacity="0.11">
<path d="M237.741 319.074C242.451 316.356 248.251 316.356 252.975 319.074L343.733 371.357C345.16 372.178 345.16 374.25 343.733 375.071L252.221 427.906C248.063 430.302 242.935 430.302 238.777 427.906L147.117 375.112C145.69 374.291 145.69 372.218 147.117 371.397L237.741 319.074Z" fill="url(#paint29_linear_846_2315)"/>
</g>
<g opacity="0.11">
<path d="M237.741 303.785C242.451 301.066 248.251 301.066 252.975 303.785L343.733 356.068C345.16 356.889 345.16 358.961 343.733 359.782L252.221 412.617C248.063 415.013 242.935 415.013 238.777 412.617L147.117 359.823C145.69 359.002 145.69 356.929 147.117 356.108L237.741 303.785Z" fill="url(#paint30_linear_846_2315)"/>
</g>
<g opacity="0.11">
<path d="M237.741 288.496C242.451 285.777 248.251 285.777 252.975 288.496L343.733 340.779C345.16 341.6 345.16 343.672 343.733 344.493L252.221 397.328C248.063 399.723 242.935 399.723 238.777 397.328L147.117 344.534C145.69 343.713 145.69 341.64 147.117 340.819L237.741 288.496Z" fill="url(#paint31_linear_846_2315)"/>
</g>
<g opacity="0.11">
<path d="M237.741 273.209C242.451 270.49 248.251 270.49 252.975 273.209L343.733 325.492C345.16 326.313 345.16 328.385 343.733 329.206L252.221 382.041C248.063 384.436 242.935 384.436 238.777 382.041L147.117 329.246C145.69 328.426 145.69 326.353 147.117 325.532L237.741 273.209Z" fill="url(#paint32_linear_846_2315)"/>
</g>
<path opacity="0.5" d="M147.118 325.532L237.742 273.209C242.452 270.49 248.252 270.49 252.976 273.209L343.734 325.492C344.447 325.909 344.811 326.622 344.811 327.349V373.213C344.811 373.939 344.447 374.653 343.734 375.07L252.222 427.905C248.064 430.3 242.936 430.3 238.778 427.905L147.118 375.11C146.404 374.693 146.041 373.98 146.041 373.253V327.389C146.041 326.663 146.404 325.949 147.118 325.532Z" fill="url(#paint33_linear_846_2315)"/>
<g opacity="0.11">
<path d="M237.741 273.209C242.451 270.49 248.251 270.49 252.975 273.209L343.733 325.492C345.16 326.313 345.16 328.385 343.733 329.206L252.221 382.041C248.063 384.436 242.935 384.436 238.777 382.041L147.117 329.246C145.69 328.426 145.69 326.353 147.117 325.532L237.741 273.209Z" fill="url(#paint34_linear_846_2315)"/>
</g>
<path d="M147.118 327.133L238.778 379.928C242.936 382.323 248.064 382.323 252.222 379.928L343.734 327.093C344.084 326.891 344.353 326.608 344.528 326.299C345.08 327.268 344.811 328.587 343.734 329.206L252.222 382.04C248.064 384.436 242.936 384.436 238.778 382.04L147.118 329.246C146.041 328.627 145.772 327.308 146.324 326.339C146.499 326.662 146.768 326.931 147.118 327.133Z" fill="url(#paint35_linear_846_2315)"/>
<path opacity="0.2" d="M245.427 356.351C273.024 356.351 295.396 343.433 295.396 327.498C295.396 311.563 273.024 298.645 245.427 298.645C217.831 298.645 195.459 311.563 195.459 327.498C195.459 343.433 217.831 356.351 245.427 356.351Z" fill="#180D5B"/>
<path d="M264.443 303.031C264.443 303.031 265.654 304.296 266.919 305.79C268.184 307.284 271.724 309.356 273.217 310.285C274.711 311.214 281.521 316.381 282.947 321.468C284.374 326.555 279.502 327.228 274.509 326.353C269.517 325.479 264.86 320.876 263.514 319.207C262.155 317.552 257.445 313.784 251.322 310.608C245.199 307.445 248.899 303.179 248.899 303.179L264.443 303.031Z" fill="#160A5B"/>
<path d="M219.024 318.156C219.024 318.156 218.015 320.444 217.732 323.391C217.449 326.339 217.032 332.717 216.884 334.588C216.736 336.459 216.669 341.021 219.953 345.395C223.236 349.768 224.932 351.491 229.306 349.782C233.679 348.073 233.572 340.725 232.805 336.957C232.038 333.188 231.311 324.75 231.392 323.862C231.472 322.974 231.136 322.409 231.136 322.409L219.024 318.156Z" fill="#160A5B"/>
<path d="M279.515 216.552C279.515 216.552 278.6 250.169 270.768 268.014C270.768 268.014 265.156 283.732 264.416 302.425C264.416 302.425 265.708 305.641 263.877 308.265C262.034 310.876 250.541 313.272 248.643 304.686C246.746 296.086 247.473 280.004 249.558 273.302C251.644 266.601 248.818 248.11 248.818 248.11C248.818 248.11 245.669 250.115 241.551 263.398C237.433 276.68 234.405 281.74 232.979 285.414C231.566 289.088 230.26 311.59 231.162 322.584C231.162 322.584 221.849 323.903 219.158 319.449C216.466 314.994 215.564 291.968 216.251 284.62C216.937 277.273 220.005 253.748 219.588 246.481C219.171 239.201 217.65 233.293 219.319 226.026C220.988 218.759 270.135 202.609 270.135 202.609L279.556 216.578L279.515 216.552Z" fill="#24126A"/>
<path d="M219.562 246.455C219.145 239.174 217.624 233.266 219.293 225.999C219.925 223.267 227.26 219.284 236.169 215.368C251.215 213.995 270.284 212.407 271.603 212.595C272.787 212.77 275.896 213.955 278.48 214.991L279.529 216.552C279.529 216.552 279.476 218.597 279.274 221.935C275.761 222.985 269.019 221.895 269.019 221.895C268.064 224.25 262.209 232.634 254.915 236.254C247.621 239.874 226.291 238.636 225.066 240.009C223.842 241.381 223.599 259.791 223.734 262.133C223.869 264.475 221.729 279.211 219.737 292.224C217.786 305.036 220.76 320.62 220.854 321.118C220.168 320.674 219.562 320.136 219.145 319.436C216.453 314.981 215.552 291.955 216.238 284.607C216.924 277.259 219.993 253.735 219.576 246.468L219.562 246.455Z" fill="#160A5B"/>
<path d="M263.069 106.602C263.069 106.602 273.969 109.092 277.643 109.953C278.249 110.101 278.747 110.519 278.975 111.111C280.039 113.789 282.69 122.119 280.685 134.285C278.222 149.236 279.002 159.289 279.002 159.289L284.049 185.532C284.049 185.532 290.388 210.536 289.836 211.209C289.284 211.895 275.234 222.581 270.847 221.087C266.46 219.58 267.9 217.09 267.9 217.09C267.9 217.09 264.347 235.204 248.588 235.029C232.843 234.854 219.977 234.908 217.299 228.542C214.621 222.177 218.026 195.423 220.811 184.818C223.584 174.227 230.191 153.099 230.191 153.099L207.125 127.569L226.84 112.51C226.84 112.51 231.551 103.763 233.489 102.646C235.426 101.529 236.436 102.471 236.436 102.471L263.069 106.575V106.602Z" fill="#453C9E"/>
<path d="M270.58 215.314C270.567 216.229 271.092 217.575 273.931 218.544C276.986 219.594 284.482 215.045 289.394 211.613C286.945 213.645 274.873 222.46 270.849 221.087C269.975 220.791 269.342 220.455 268.871 220.105C269.773 218.086 270.311 216.35 270.58 215.328V215.314Z" fill="url(#paint36_linear_846_2315)"/>
<path d="M217.421 226.43C220.247 233.145 233.813 233.091 250.433 233.28C254.659 233.32 258.05 232.122 260.768 230.306C257.888 233.051 253.945 235.11 248.589 235.043C232.844 234.868 219.978 234.921 217.3 228.556C216.425 226.47 216.197 222.177 216.398 216.982C216.358 221.195 216.654 224.613 217.421 226.43Z" fill="url(#paint37_linear_846_2315)"/>
<path d="M233.908 102.443C233.908 102.443 229.884 107.315 235.67 113.896C239.237 117.947 245.373 126.667 250.595 135.738C253.865 141.403 256.88 144.418 258.589 149.29C258.589 149.29 258.831 143.516 259.06 134.58C259.275 126.156 259.396 117.408 259.02 115.201C258.239 110.666 238.349 100.236 233.908 102.443Z" fill="#F0F6FF"/>
<path d="M248.967 117.099C248.967 117.099 251.026 118.378 251.739 118.27C252.452 118.162 254.74 115.942 254.74 115.942C254.74 115.942 260.46 115.834 261.079 113.385C261.698 110.936 262.115 108.473 262.694 107.194C263.272 105.916 265.735 99.8062 265.762 97.33C265.775 94.8537 265.681 90.4262 266.758 88.0711C267.834 85.7294 269.274 62.2593 246.612 62.9322C223.949 63.605 230.987 87.1156 230.987 87.1156C230.987 87.1156 229.332 87.8154 230.328 90.8434C231.324 93.8713 231.553 94.1809 232.064 95.6881C232.575 97.1954 232.831 98.1509 234.271 99.3755L234.648 102.161C234.648 102.161 233.571 106.427 236.384 110.559C239.197 114.704 248.953 117.072 248.953 117.072L248.967 117.099Z" fill="#FCD1C5"/>
<path d="M278.264 110.222C278.264 110.222 280.673 110.586 288.519 130.301C292.892 141.31 299.648 152.695 301.075 160.877C302.501 169.059 301.707 177.793 300.092 178.412C298.531 179.005 270.378 189.542 261.563 192.866C261.078 193.054 260.54 192.745 260.459 192.233L258.023 178.628L275.505 171.872C275.505 171.872 278.829 167.808 281.965 166.274C281.965 166.274 278.466 159.814 278.681 158.051C278.91 156.288 278.371 138.053 280.417 130.624C282.463 123.196 278.277 110.209 278.277 110.209L278.264 110.222Z" fill="#24126A"/>
<path d="M268.022 162.331C268.022 162.331 270.431 160.716 271.023 160.487C271.615 160.259 274.832 159.155 275.451 158.886C275.908 158.684 277.779 158.832 278.721 158.926C279.058 158.967 279.354 159.155 279.515 159.465C280.255 160.851 282.328 164.861 282.099 166.395C282.099 166.395 276.285 170.069 275.626 171.711L274.697 171.913C274.697 171.913 270.795 163.556 268.009 162.345L268.022 162.331Z" fill="#FCD1C5"/>
<path d="M220.812 184.833C221.485 182.289 222.373 179.127 223.342 175.803L258.735 190.97C258.735 190.97 248.144 203.997 229.573 203.162C224.499 202.933 220.798 201.103 218.066 199.529C218.887 193.742 219.883 188.386 220.812 184.833Z" fill="#24126A"/>
<path d="M207.126 127.584C207.126 127.584 216.466 128.862 224.002 140.826C231.539 152.777 237.043 166.611 237.043 166.611L237.298 168.172C237.971 172.236 242.305 174.564 246.073 172.882C254.04 169.329 265.829 163.946 268.022 162.331C268.022 162.331 275.074 166.234 276.999 175.439C278.533 182.787 278.142 182.801 278.142 182.801C278.142 182.801 246.719 197.469 234.58 197.321C222.441 197.173 207.046 157.271 205.35 149.022C203.654 140.772 201.784 129.898 207.126 127.57V127.584Z" fill="#24126A"/>
<path d="M207.126 127.584C207.126 127.584 216.466 128.862 224.002 140.826C231.539 152.777 237.043 166.611 237.043 166.611L237.298 168.172C237.971 172.236 242.305 174.564 246.073 172.882C254.04 169.329 265.829 163.946 268.022 162.331C268.022 162.331 275.074 166.234 276.999 175.439C278.533 182.787 278.142 182.801 278.142 182.801C278.142 182.801 246.719 197.469 234.58 197.321C222.441 197.173 207.046 157.271 205.35 149.022C203.654 140.772 201.784 129.898 207.126 127.57V127.584Z" fill="#4846A5"/>
<path d="M241.55 174.738C241.55 174.738 237.58 178.439 235.857 176.42C234.135 174.388 234.646 174.16 234.646 174.16C234.646 174.16 231.08 174.133 230.649 171.885C230.219 169.651 228.456 170.836 228.362 168.346C228.267 165.856 231.255 166.368 231.255 166.368L241.564 174.738H241.55Z" fill="#453C9E"/>
<path d="M246.343 172.747C246.343 172.747 245.252 171.738 243.839 170.54C242.44 169.356 240.165 164.431 239.775 164C239.385 163.569 234.648 159.922 232.36 159.868C230.072 159.801 231.768 162.358 232.293 162.722C232.818 163.085 235.052 164.188 235.052 164.188C235.052 164.188 237.353 166.113 237.608 166.395C237.864 166.678 231.23 165.938 230.166 166.584C229.117 167.23 229.359 168.926 230.099 169.397C230.839 169.854 231.418 169.841 231.418 169.841C231.418 169.841 230.664 171.846 232.67 172.774C234.661 173.703 235.119 173.192 235.119 173.192C235.119 173.192 235.294 176.65 238.577 175.964L246.329 172.761L246.343 172.747Z" fill="#FCD1C5"/>
<path d="M267.269 76.1077C267.269 76.1077 270.23 85.528 262.438 82.85C254.659 80.1719 247.608 75.6905 245.172 77.3996C243.315 78.705 243.395 82.6885 243.543 84.5053C243.597 85.1243 243.436 85.7434 243.072 86.2547L240.771 89.6057C240.515 89.9825 240.354 90.4266 240.327 90.8842L240.166 93.2124C240.125 93.8045 239.654 94.2621 239.062 94.3024L238.537 94.3293C237.945 94.3697 237.42 93.9525 237.313 93.3604L236.707 89.9287C236.707 89.9287 234.877 85.3127 231.001 87.1295C231.001 87.1295 228.417 83.644 229.278 76.2153C230.14 68.7732 233.477 61.0351 248.079 59.797C262.68 58.5589 267.283 76.0942 267.283 76.0942L267.269 76.1077Z" fill="#AA8383"/>
<path d="M244.957 125.389L247.137 123.693C247.137 123.693 249.156 125.375 249.95 127.152C250.744 128.928 249.95 134.594 249.95 134.594L250.609 135.738L251.43 134.244L252.116 127.555C252.116 127.555 251.376 122.616 251.295 122.482C251.228 122.361 247.083 122.926 247.083 122.926C247.083 122.926 245.643 124.016 244.943 125.402L244.957 125.389Z" fill="#C4CCD6"/>
<path d="M255.453 118.728C255.453 118.728 257.781 118.89 258.844 119.751C258.844 119.751 256.395 119.872 256.005 119.913C255.615 119.953 255.453 118.715 255.453 118.715V118.728Z" fill="#C4CCD6"/>
<path d="M251.012 119.253L247.096 122.913C247.096 122.913 250.541 124.501 251.496 127.57C251.496 127.57 255.762 128.364 256.153 126.816C256.543 125.269 256.153 121.379 256.651 119.657C257.162 117.934 251.025 119.239 251.025 119.239L251.012 119.253Z" fill="#24126A"/>
<path d="M255.978 126.735C255.978 126.735 256.705 129.938 257.499 131.27C258.293 132.589 259.114 134.083 259.114 134.083L259.019 152.883C259.019 152.883 252.102 138.632 250.608 135.752C250.608 135.752 250.837 128.888 251.497 127.583C252.156 126.291 255.991 126.749 255.991 126.749L255.978 126.735Z" fill="#24126A"/>
<path d="M237.42 98.959C241.955 112.067 254.74 115.956 254.74 115.956C254.74 115.956 252.452 118.177 251.739 118.284C251.026 118.392 248.966 117.113 248.966 117.113C248.966 117.113 239.21 114.745 236.397 110.6C233.584 106.455 234.661 102.202 234.661 102.202L234.284 99.4166C236.316 100.076 237.42 98.9724 237.42 98.9724V98.959Z" fill="#E2B1A6"/>
<path d="M227.029 114.301C227.029 114.301 228.819 120.491 229.048 120.72C229.277 120.949 233.556 120.464 233.556 120.464L231.484 124.394C231.484 124.394 252.989 147.46 257.457 159.868C257.457 159.868 247.283 144.136 229.371 125.363L231.901 121.528L227.5 122.389L227.029 114.314V114.301Z" fill="#24126A"/>
<path d="M262.357 108.836L263.501 110.141L262.155 111.393L266.139 114.986C266.139 114.986 267.35 140.219 262.492 156.934C262.492 156.934 269.086 141.605 267.592 114.3L263.286 111.379L264.699 109.993L262.357 108.836Z" fill="#24126A"/>
<path d="M248.806 248.083C248.806 248.083 248.752 248.11 248.658 248.204L254.229 242.27C251.659 245.903 254.619 262.51 254.929 266.305C255.238 270.113 251.955 277.959 250.73 287.164C249.505 296.356 252.022 309.464 252.022 309.504C250.434 308.575 249.155 307.041 248.631 304.659C246.733 296.06 247.46 279.978 249.546 273.276C251.632 266.574 248.806 248.083 248.806 248.083Z" fill="#160A5B"/>
<path d="M234.58 197.335C222.441 197.187 207.046 157.285 205.35 149.035C205.068 147.662 204.785 146.209 204.529 144.742C204.57 144.863 207.719 153.476 210.747 161.12C213.802 168.818 230.018 192.127 238.308 193.647C245.777 195.02 272.665 182.464 277.874 179.988C278.345 182.787 278.143 182.814 278.143 182.814C278.143 182.814 246.719 197.483 234.58 197.335Z" fill="url(#paint38_linear_846_2315)"/>
<path d="M238.523 94.3302C237.93 94.3706 237.406 93.9534 237.298 93.3613L236.692 89.9296C236.692 89.9296 234.862 85.3136 230.986 87.1304C230.986 87.1304 228.55 83.8198 229.21 76.7949C233.516 83.2546 243.071 86.2422 243.071 86.2422L240.77 89.5932C240.514 89.97 240.353 90.4141 240.326 90.8716L240.164 93.1998C240.124 93.7919 239.653 94.2495 239.061 94.2899L238.536 94.3168L238.523 94.3302Z" fill="#936D6D"/>
<path opacity="0.5" d="M96.3971 285.131V272.306C98.9675 273.679 101.592 275.025 104.27 276.33V289.155C101.592 287.85 98.9675 286.504 96.3971 285.131ZM71.1505 269.117V245.499C73.2903 247.1 75.4839 248.688 77.7448 250.236V273.854C75.4839 272.306 73.2903 270.732 71.1505 269.117ZM83.1817 277.434V249.576C85.5368 251.07 87.9591 252.537 90.4353 253.963V281.821C87.9591 280.394 85.5368 278.927 83.1817 277.434ZM50.8967 250.828V219.916C52.5386 221.719 54.2477 223.495 56.0241 225.245V256.157C54.2477 254.408 52.5251 252.631 50.8967 250.828ZM60.3575 260.235V226.739C62.255 228.448 64.2198 230.13 66.2385 231.785V265.281C64.2064 263.626 62.2415 261.944 60.3575 260.235ZM36.2279 230.601V194.292C37.318 196.257 38.4888 198.208 39.7403 200.133V236.442C38.4888 234.517 37.318 232.566 36.2279 230.601ZM42.8221 240.923V193.687C44.1948 195.571 45.6482 197.441 47.169 199.285V246.521C45.6482 244.678 44.1948 242.807 42.8221 240.923ZM31.1947 219.889V166.542C31.9887 168.575 32.8635 170.593 33.819 172.585V225.931C32.8635 223.939 31.9753 221.921 31.1947 219.889ZM120.459 231.731C69.6971 211.289 34.6399 178.977 27.292 141.969V217.843C34.6399 254.852 69.7106 287.15 120.459 307.606V231.731Z" fill="#F1CE93"/>
<path opacity="0.5" d="M269.301 316.003V298.885C278.035 298.414 286.621 297.647 295.032 296.597V313.715C286.621 314.751 278.035 315.518 269.301 316.003ZM228.255 316.084V284.889C233.49 285.158 238.779 285.319 244.108 285.373C247.755 285.414 251.376 285.4 254.982 285.333V316.528C251.376 316.595 247.755 316.608 244.108 316.568C238.779 316.514 233.49 316.353 228.255 316.084ZM188.69 311.992V264.312C196.966 265.617 205.431 266.667 214.071 267.421V315.101C205.431 314.348 196.966 313.298 188.69 311.992ZM308.544 311.791V261.432C316.753 260.1 324.774 258.498 332.579 256.655V307.013C324.774 308.857 316.753 310.458 308.544 311.791ZM352.819 239.738C320.481 249.683 283.391 255.174 244.095 254.784C216.709 254.515 190.56 251.406 166.498 245.956V321.83C190.56 327.28 216.709 330.376 244.095 330.658C283.391 331.049 320.481 325.571 352.819 315.613V239.738Z" fill="#F1CE93"/>
<path opacity="0.5" d="M407.337 261.447V246.751C442.744 225.851 465.784 197.967 469.552 166.96V181.656C465.784 212.663 442.731 240.534 407.337 261.447ZM470.064 205.503V129.629C468.933 166.732 440.255 199.864 395.4 222.702V298.576C440.255 275.739 468.933 242.606 470.064 205.503Z" fill="#F1CE93"/>
<path opacity="0.75" d="M469.553 166.961C465.785 197.967 442.732 225.838 407.338 246.751V261.447C442.745 240.547 465.785 212.663 469.553 181.657V166.961Z" fill="#F1CE93"/>
<path d="M214.085 267.421C205.445 266.668 196.981 265.618 188.704 264.312V311.993C196.981 313.298 205.445 314.348 214.085 315.102V267.421Z" fill="#F1CE93"/>
<path d="M295.033 296.611C286.622 297.648 278.036 298.415 269.302 298.899V316.017C278.036 315.546 286.622 314.779 295.033 313.729V296.611Z" fill="#F1CE93"/>
<path d="M332.593 256.656C324.788 258.5 316.767 260.101 308.558 261.434V311.792C316.767 310.46 324.788 308.859 332.593 307.015V256.656Z" fill="#F1CE93"/>
<path opacity="0.75" d="M254.982 285.335C251.375 285.402 247.755 285.415 244.108 285.375C238.779 285.321 233.49 285.16 228.255 284.891V316.085C233.49 316.355 238.779 316.516 244.108 316.57C247.755 316.61 251.375 316.597 254.982 316.53V285.335Z" fill="#F1CE93"/>
<path d="M33.8332 172.599C32.8777 170.607 31.9895 168.589 31.209 166.557V219.903C32.003 221.935 32.8777 223.954 33.8332 225.945V172.599Z" fill="#F1CE93"/>
<path d="M39.7546 200.134C38.5031 198.209 37.3323 196.258 36.2422 194.293V230.602C37.3323 232.567 38.5031 234.518 39.7546 236.442V200.134Z" fill="#F1CE93"/>
<path opacity="0.75" d="M47.1828 199.3C45.662 197.456 44.2086 195.585 42.8359 193.701V240.938C44.2086 242.822 45.662 244.692 47.1828 246.536V199.3Z" fill="#F1CE93"/>
<path d="M56.0375 225.245C54.2611 223.496 52.5385 221.719 50.9102 219.916V250.828C52.552 252.632 54.2611 254.408 56.0375 256.157V225.245Z" fill="#F1CE93"/>
<path opacity="0.75" d="M66.2521 231.787C64.22 230.132 62.2552 228.449 60.3711 226.74V260.236C62.2686 261.945 64.2334 263.628 66.2521 265.283V231.787Z" fill="#F1CE93"/>
<path opacity="0.75" d="M77.7456 250.223C75.4847 248.676 73.2911 247.101 71.1514 245.486V269.105C73.2911 270.706 75.4847 272.294 77.7456 273.842V250.223Z" fill="#F1CE93"/>
<path opacity="0.75" d="M90.449 253.963C87.9728 252.537 85.5504 251.07 83.1953 249.576V277.434C85.5504 278.927 87.9728 280.394 90.449 281.821V253.963Z" fill="#F1CE93"/>
<path opacity="0.75" d="M104.284 276.344C101.606 275.039 98.9815 273.693 96.4111 272.32V285.145C98.9815 286.518 101.606 287.864 104.284 289.169V276.344Z" fill="#F1CE93"/>
<defs>
<linearGradient id="paint0_linear_846_2315" x1="131.549" y1="293.76" x2="194.113" y2="293.76" gradientUnits="userSpaceOnUse">
<stop stop-color="#5761D7"/>
<stop offset="0.07" stop-color="#5471D8"/>
<stop offset="0.28" stop-color="#4D9BDA"/>
<stop offset="0.48" stop-color="#48BDDD"/>
<stop offset="0.67" stop-color="#44D4DE"/>
<stop offset="0.85" stop-color="#42E3DF"/>
<stop offset="1" stop-color="#42E8E0"/>
</linearGradient>
<linearGradient id="paint1_linear_846_2315" x1="298.129" y1="293.665" x2="360.33" y2="293.665" gradientUnits="userSpaceOnUse">
<stop stop-color="#42E8E0"/>
<stop offset="0.15" stop-color="#42E3DF"/>
<stop offset="0.33" stop-color="#44D4DE"/>
<stop offset="0.52" stop-color="#48BDDD"/>
<stop offset="0.72" stop-color="#4D9BDA"/>
<stop offset="0.93" stop-color="#5471D8"/>
<stop offset="1" stop-color="#5761D7"/>
</linearGradient>
<linearGradient id="paint2_linear_846_2315" x1="362.731" y1="396.292" x2="128.379" y2="396.292" gradientUnits="userSpaceOnUse">
<stop stop-color="#6A4403"/>
<stop offset="0.07" stop-color="#8B6017"/>
<stop offset="0.28" stop-color="#92784C"/>
<stop offset="0.48" stop-color="#F1CE93"/>
<stop offset="0.67" stop-color="#FFD698"/>
<stop offset="0.85" stop-color="#FFC672"/>
<stop offset="1" stop-color="#FFEAC6"/>
</linearGradient>
<linearGradient id="paint3_linear_846_2315" x1="92.3605" y1="240.574" x2="355.431" y2="240.574" gradientUnits="userSpaceOnUse">
<stop stop-color="#5761D7"/>
<stop offset="0.16" stop-color="#5E67D9"/>
<stop offset="0.41" stop-color="#7179E1"/>
<stop offset="0.69" stop-color="#9197EE"/>
<stop offset="1" stop-color="#BCBEFF"/>
</linearGradient>
<linearGradient id="paint4_linear_846_2315" x1="166.808" y1="205.019" x2="324.706" y2="205.019" gradientUnits="userSpaceOnUse">
<stop stop-color="#42E8E0"/>
<stop offset="0.15" stop-color="#42E3DF"/>
<stop offset="0.33" stop-color="#44D4DE"/>
<stop offset="0.52" stop-color="#48BDDD"/>
<stop offset="0.72" stop-color="#4D9BDA"/>
<stop offset="0.93" stop-color="#5471D8"/>
<stop offset="1" stop-color="#5761D7"/>
</linearGradient>
<linearGradient id="paint5_linear_846_2315" x1="245.764" y1="176.489" x2="324.706" y2="176.489" gradientUnits="userSpaceOnUse">
<stop stop-color="#42E8E0"/>
<stop offset="0.15" stop-color="#42E3DF"/>
<stop offset="0.33" stop-color="#44D4DE"/>
<stop offset="0.52" stop-color="#48BDDD"/>
<stop offset="0.72" stop-color="#4D9BDA"/>
<stop offset="0.93" stop-color="#5471D8"/>
<stop offset="1" stop-color="#5761D7"/>
</linearGradient>
<linearGradient id="paint6_linear_846_2315" x1="166.808" y1="176.489" x2="245.764" y2="176.489" gradientUnits="userSpaceOnUse">
<stop stop-color="#42E8E0"/>
<stop offset="0.15" stop-color="#42E3DF"/>
<stop offset="0.33" stop-color="#44D4DE"/>
<stop offset="0.52" stop-color="#48BDDD"/>
<stop offset="0.72" stop-color="#4D9BDA"/>
<stop offset="0.93" stop-color="#5471D8"/>
<stop offset="1" stop-color="#5761D7"/>
</linearGradient>
<linearGradient id="paint7_linear_846_2315" x1="324.696" y1="193.523" x2="166.808" y2="193.523" gradientUnits="userSpaceOnUse">
<stop stop-color="#8C8C8C"/>
<stop offset="0.07" stop-color="#808080"/>
<stop offset="0.28" stop-color="#97876C"/>
<stop offset="0.48" stop-color="#D3B178"/>
<stop offset="0.67" stop-color="#F1CE93"/>
<stop offset="0.85" stop-color="#FFE4B7"/>
<stop offset="1" stop-color="#FFEED2"/>
</linearGradient>
<linearGradient id="paint8_linear_846_2315" x1="324.701" y1="222.062" x2="245.764" y2="222.062" gradientUnits="userSpaceOnUse">
<stop stop-color="#8C8C8C"/>
<stop offset="0.07" stop-color="#808080"/>
<stop offset="0.28" stop-color="#97876C"/>
<stop offset="0.48" stop-color="#D3B178"/>
<stop offset="0.67" stop-color="#F1CE93"/>
<stop offset="0.85" stop-color="#FFE4B7"/>
<stop offset="1" stop-color="#FFEED2"/>
</linearGradient>
<linearGradient id="paint9_linear_846_2315" x1="245.758" y1="222.062" x2="166.808" y2="222.062" gradientUnits="userSpaceOnUse">
<stop stop-color="#8C8C8C"/>
<stop offset="0.07" stop-color="#808080"/>
<stop offset="0.28" stop-color="#97876C"/>
<stop offset="0.48" stop-color="#D3B178"/>
<stop offset="0.67" stop-color="#F1CE93"/>
<stop offset="0.85" stop-color="#FFE4B7"/>
<stop offset="1" stop-color="#FFEED2"/>
</linearGradient>
<linearGradient id="paint10_linear_846_2315" x1="174.329" y1="336.841" x2="0.00390625" y2="336.841" gradientUnits="userSpaceOnUse">
<stop stop-color="#8C8C8C"/>
<stop offset="0.07" stop-color="#808080"/>
<stop offset="0.28" stop-color="#97876C"/>
<stop offset="0.48" stop-color="#D3B178"/>
<stop offset="0.67" stop-color="#F1CE93"/>
<stop offset="0.85" stop-color="#FFE4B7"/>
<stop offset="1" stop-color="#FFEED2"/>
</linearGradient>
<linearGradient id="paint11_linear_846_2315" x1="0.000541833" y1="323.435" x2="174.345" y2="323.435" gradientUnits="userSpaceOnUse">
<stop stop-color="#5761D7"/>
<stop offset="0.07" stop-color="#5471D8"/>
<stop offset="0.28" stop-color="#4D9BDA"/>
<stop offset="0.48" stop-color="#48BDDD"/>
<stop offset="0.67" stop-color="#44D4DE"/>
<stop offset="0.85" stop-color="#42E3DF"/>
<stop offset="1" stop-color="#42E8E0"/>
</linearGradient>
<linearGradient id="paint12_linear_846_2315" x1="0.000541833" y1="310.017" x2="174.345" y2="310.017" gradientUnits="userSpaceOnUse">
<stop stop-color="#5761D7"/>
<stop offset="0.07" stop-color="#5471D8"/>
<stop offset="0.28" stop-color="#4D9BDA"/>
<stop offset="0.48" stop-color="#48BDDD"/>
<stop offset="0.67" stop-color="#44D4DE"/>
<stop offset="0.85" stop-color="#42E3DF"/>
<stop offset="1" stop-color="#42E8E0"/>
</linearGradient>
<linearGradient id="paint13_linear_846_2315" x1="0.000541833" y1="296.612" x2="174.345" y2="296.612" gradientUnits="userSpaceOnUse">
<stop stop-color="#5761D7"/>
<stop offset="0.07" stop-color="#5471D8"/>
<stop offset="0.28" stop-color="#4D9BDA"/>
<stop offset="0.48" stop-color="#48BDDD"/>
<stop offset="0.67" stop-color="#44D4DE"/>
<stop offset="0.85" stop-color="#42E3DF"/>
<stop offset="1" stop-color="#42E8E0"/>
</linearGradient>
<linearGradient id="paint14_linear_846_2315" x1="174.333" y1="310.094" x2="0.000976562" y2="310.094" gradientUnits="userSpaceOnUse">
<stop stop-color="#8C8C8C"/>
<stop offset="0.07" stop-color="#808080"/>
<stop offset="0.28" stop-color="#97876C"/>
<stop offset="0.48" stop-color="#D3B178"/>
<stop offset="0.67" stop-color="#F1CE93"/>
<stop offset="0.85" stop-color="#FFE4B7"/>
<stop offset="1" stop-color="#FFEED2"/>
</linearGradient>
<linearGradient id="paint15_linear_846_2315" x1="174.333" y1="296.59" x2="0.000435648" y2="296.59" gradientUnits="userSpaceOnUse">
<stop stop-color="#6A4403"/>
<stop offset="0.07" stop-color="#8B6017"/>
<stop offset="0.28" stop-color="#92784C"/>
<stop offset="0.48" stop-color="#F1CE93"/>
<stop offset="0.67" stop-color="#FFD698"/>
<stop offset="0.85" stop-color="#A4865B"/>
<stop offset="1" stop-color="#FFEAC6"/>
</linearGradient>
<linearGradient id="paint16_linear_846_2315" x1="174.332" y1="320.78" x2="-0.00347066" y2="320.78" gradientUnits="userSpaceOnUse">
<stop stop-color="#6A4403"/>
<stop offset="0.07" stop-color="#8B6017"/>
<stop offset="0.28" stop-color="#92784C"/>
<stop offset="0.48" stop-color="#F1CE93"/>
<stop offset="0.67" stop-color="#FFD698"/>
<stop offset="0.85" stop-color="#FFC672"/>
<stop offset="1" stop-color="#FFEAC6"/>
</linearGradient>
<linearGradient id="paint17_linear_846_2315" x1="491.499" y1="336.848" x2="317.174" y2="336.848" gradientUnits="userSpaceOnUse">
<stop stop-color="#8C8C8C"/>
<stop offset="0.07" stop-color="#808080"/>
<stop offset="0.28" stop-color="#97876C"/>
<stop offset="0.48" stop-color="#D3B178"/>
<stop offset="0.67" stop-color="#F1CE93"/>
<stop offset="0.85" stop-color="#FFE4B7"/>
<stop offset="1" stop-color="#FFEED2"/>
</linearGradient>
<linearGradient id="paint18_linear_846_2315" x1="317.17" y1="323.435" x2="491.528" y2="323.435" gradientUnits="userSpaceOnUse">
<stop stop-color="#5761D7"/>
<stop offset="0.07" stop-color="#5471D8"/>
<stop offset="0.28" stop-color="#4D9BDA"/>
<stop offset="0.48" stop-color="#48BDDD"/>
<stop offset="0.67" stop-color="#44D4DE"/>
<stop offset="0.85" stop-color="#42E3DF"/>
<stop offset="1" stop-color="#42E8E0"/>
</linearGradient>
<linearGradient id="paint19_linear_846_2315" x1="317.17" y1="310.017" x2="491.528" y2="310.017" gradientUnits="userSpaceOnUse">
<stop stop-color="#5761D7"/>
<stop offset="0.07" stop-color="#5471D8"/>
<stop offset="0.28" stop-color="#4D9BDA"/>
<stop offset="0.48" stop-color="#48BDDD"/>
<stop offset="0.67" stop-color="#44D4DE"/>
<stop offset="0.85" stop-color="#42E3DF"/>
<stop offset="1" stop-color="#42E8E0"/>
</linearGradient>
<linearGradient id="paint20_linear_846_2315" x1="317.17" y1="296.612" x2="491.528" y2="296.612" gradientUnits="userSpaceOnUse">
<stop stop-color="#5761D7"/>
<stop offset="0.07" stop-color="#5471D8"/>
<stop offset="0.28" stop-color="#4D9BDA"/>
<stop offset="0.48" stop-color="#48BDDD"/>
<stop offset="0.67" stop-color="#44D4DE"/>
<stop offset="0.85" stop-color="#42E3DF"/>
<stop offset="1" stop-color="#42E8E0"/>
</linearGradient>
<linearGradient id="paint21_linear_846_2315" x1="491.502" y1="310.107" x2="317.17" y2="310.107" gradientUnits="userSpaceOnUse">
<stop stop-color="#8C8C8C"/>
<stop offset="0.07" stop-color="#808080"/>
<stop offset="0.28" stop-color="#97876C"/>
<stop offset="0.48" stop-color="#D3B178"/>
<stop offset="0.67" stop-color="#F1CE93"/>
<stop offset="0.85" stop-color="#FFE4B7"/>
<stop offset="1" stop-color="#FFEED2"/>
</linearGradient>
<linearGradient id="paint22_linear_846_2315" x1="491.499" y1="296.61" x2="317.174" y2="296.61" gradientUnits="userSpaceOnUse">
<stop stop-color="#8C8C8C"/>
<stop offset="0.07" stop-color="#808080"/>
<stop offset="0.28" stop-color="#97876C"/>
<stop offset="0.48" stop-color="#D3B178"/>
<stop offset="0.67" stop-color="#F1CE93"/>
<stop offset="0.85" stop-color="#FFE4B7"/>
<stop offset="1" stop-color="#FFEED2"/>
</linearGradient>
<linearGradient id="paint23_linear_846_2315" x1="491.513" y1="320.78" x2="317.178" y2="320.78" gradientUnits="userSpaceOnUse">
<stop stop-color="#6A4403"/>
<stop offset="0.07" stop-color="#8B6017"/>
<stop offset="0.28" stop-color="#92784C"/>
<stop offset="0.48" stop-color="#F1CE93"/>
<stop offset="0.67" stop-color="#FFD698"/>
<stop offset="0.85" stop-color="#FFC672"/>
<stop offset="1" stop-color="#FFEAC6"/>
</linearGradient>
<linearGradient id="paint24_linear_846_2315" x1="327.385" y1="432.602" x2="163.457" y2="432.602" gradientUnits="userSpaceOnUse">
<stop stop-color="#545F71"/>
<stop offset="0.135" stop-color="#545F71"/>
<stop offset="0.28" stop-color="#C8AA79"/>
<stop offset="0.48" stop-color="#F1CE93"/>
<stop offset="0.67" stop-color="#EBDCC3"/>
<stop offset="0.85" stop-color="#FFEA9E"/>
<stop offset="1" stop-color="#FFF9EE"/>
</linearGradient>
<linearGradient id="paint25_linear_846_2315" x1="327.385" y1="419.992" x2="163.457" y2="419.992" gradientUnits="userSpaceOnUse">
<stop stop-color="#545F71"/>
<stop offset="0.135" stop-color="#545F71"/>
<stop offset="0.28" stop-color="#C8AA79"/>
<stop offset="0.48" stop-color="#F1CE93"/>
<stop offset="0.67" stop-color="#EBDCC3"/>
<stop offset="0.85" stop-color="#FFEA9E"/>
<stop offset="1" stop-color="#FFF9EE"/>
</linearGradient>
<linearGradient id="paint26_linear_846_2315" x1="327.385" y1="407.381" x2="163.457" y2="407.381" gradientUnits="userSpaceOnUse">
<stop stop-color="#545F71"/>
<stop offset="0.135" stop-color="#545F71"/>
<stop offset="0.28" stop-color="#C8AA79"/>
<stop offset="0.48" stop-color="#F1CE93"/>
<stop offset="0.67" stop-color="#EBDCC3"/>
<stop offset="0.85" stop-color="#FFEA9E"/>
<stop offset="1" stop-color="#FFF9EE"/>
</linearGradient>
<linearGradient id="paint27_linear_846_2315" x1="327.385" y1="394.772" x2="163.457" y2="394.772" gradientUnits="userSpaceOnUse">
<stop stop-color="#545F71"/>
<stop offset="0.135" stop-color="#545F71"/>
<stop offset="0.28" stop-color="#C8AA79"/>
<stop offset="0.48" stop-color="#F1CE93"/>
<stop offset="0.67" stop-color="#EBDCC3"/>
<stop offset="0.85" stop-color="#FFEA9E"/>
<stop offset="1" stop-color="#FFF9EE"/>
</linearGradient>
<linearGradient id="paint28_linear_846_2315" x1="327.374" y1="413.688" x2="163.457" y2="413.688" gradientUnits="userSpaceOnUse">
<stop stop-color="#8C8C8C"/>
<stop offset="0.07" stop-color="#808080"/>
<stop offset="0.28" stop-color="#97876C"/>
<stop offset="0.48" stop-color="#D3B178"/>
<stop offset="0.67" stop-color="#F1CE93"/>
<stop offset="0.85" stop-color="#FFE4B7"/>
<stop offset="1" stop-color="#FFEED2"/>
</linearGradient>
<linearGradient id="paint29_linear_846_2315" x1="344.796" y1="373.362" x2="146.04" y2="373.362" gradientUnits="userSpaceOnUse">
<stop stop-color="#B6B7BE"/>
<stop offset="0.07" stop-color="#8C8C8C"/>
<stop offset="0.28" stop-color="#FFE8A4"/>
<stop offset="0.48" stop-color="#E5D092"/>
<stop offset="0.67" stop-color="#F1CE93"/>
<stop offset="0.85" stop-color="#F1CE93"/>
<stop offset="1" stop-color="#F1CE93"/>
</linearGradient>
<linearGradient id="paint30_linear_846_2315" x1="344.796" y1="358.073" x2="146.04" y2="358.073" gradientUnits="userSpaceOnUse">
<stop stop-color="#B6B7BE"/>
<stop offset="0.07" stop-color="#8C8C8C"/>
<stop offset="0.28" stop-color="#FFE8A4"/>
<stop offset="0.48" stop-color="#E5D092"/>
<stop offset="0.67" stop-color="#F1CE93"/>
<stop offset="0.85" stop-color="#F1CE93"/>
<stop offset="1" stop-color="#F1CE93"/>
</linearGradient>
<linearGradient id="paint31_linear_846_2315" x1="344.796" y1="342.784" x2="146.04" y2="342.784" gradientUnits="userSpaceOnUse">
<stop stop-color="#B6B7BE"/>
<stop offset="0.07" stop-color="#8C8C8C"/>
<stop offset="0.28" stop-color="#FFE8A4"/>
<stop offset="0.48" stop-color="#E5D092"/>
<stop offset="0.67" stop-color="#F1CE93"/>
<stop offset="0.85" stop-color="#F1CE93"/>
<stop offset="1" stop-color="#F1CE93"/>
</linearGradient>
<linearGradient id="paint32_linear_846_2315" x1="344.796" y1="327.497" x2="146.04" y2="327.497" gradientUnits="userSpaceOnUse">
<stop stop-color="#B6B7BE"/>
<stop offset="0.07" stop-color="#8C8C8C"/>
<stop offset="0.28" stop-color="#FFE8A4"/>
<stop offset="0.48" stop-color="#E5D092"/>
<stop offset="0.67" stop-color="#F1CE93"/>
<stop offset="0.85" stop-color="#F1CE93"/>
<stop offset="1" stop-color="#F1CE93"/>
</linearGradient>
<linearGradient id="paint33_linear_846_2315" x1="344.797" y1="350.429" x2="146.041" y2="350.429" gradientUnits="userSpaceOnUse">
<stop stop-color="#8C8C8C"/>
<stop offset="0.07" stop-color="#808080"/>
<stop offset="0.28" stop-color="#97876C"/>
<stop offset="0.48" stop-color="#D3B178"/>
<stop offset="0.67" stop-color="#F1CE93"/>
<stop offset="0.85" stop-color="#FFE4B7"/>
<stop offset="1" stop-color="#FFEED2"/>
</linearGradient>
<linearGradient id="paint34_linear_846_2315" x1="344.796" y1="327.497" x2="146.04" y2="327.497" gradientUnits="userSpaceOnUse">
<stop stop-color="#B6B7BE"/>
<stop offset="0.07" stop-color="#8C8C8C"/>
<stop offset="0.28" stop-color="#FFE8A4"/>
<stop offset="0.48" stop-color="#E5D092"/>
<stop offset="0.67" stop-color="#F1CE93"/>
<stop offset="0.85" stop-color="#F1CE93"/>
<stop offset="1" stop-color="#F1CE93"/>
</linearGradient>
<linearGradient id="paint35_linear_846_2315" x1="344.797" y1="355.058" x2="146.041" y2="355.058" gradientUnits="userSpaceOnUse">
<stop stop-color="#6A4403"/>
<stop offset="0.07" stop-color="#8B6017"/>
<stop offset="0.28" stop-color="#92784C"/>
<stop offset="0.48" stop-color="#F1CE93"/>
<stop offset="0.67" stop-color="#FFD698"/>
<stop offset="0.85" stop-color="#FFC672"/>
<stop offset="1" stop-color="#FFEAC6"/>
</linearGradient>
<linearGradient id="paint36_linear_846_2315" x1="289.631" y1="215.905" x2="268.686" y2="217.12" gradientUnits="userSpaceOnUse">
<stop stop-color="#5761D7"/>
<stop offset="0.07" stop-color="#5471D8"/>
<stop offset="0.28" stop-color="#4D9BDA"/>
<stop offset="0.48" stop-color="#48BDDD"/>
<stop offset="0.67" stop-color="#44D4DE"/>
<stop offset="0.85" stop-color="#42E3DF"/>
<stop offset="1" stop-color="#42E8E0"/>
</linearGradient>
<linearGradient id="paint37_linear_846_2315" x1="260.426" y1="224.406" x2="216.614" y2="226.947" gradientUnits="userSpaceOnUse">
<stop stop-color="#5761D7"/>
<stop offset="0.07" stop-color="#5471D8"/>
<stop offset="0.28" stop-color="#4D9BDA"/>
<stop offset="0.48" stop-color="#48BDDD"/>
<stop offset="0.67" stop-color="#44D4DE"/>
<stop offset="0.85" stop-color="#42E3DF"/>
<stop offset="1" stop-color="#42E8E0"/>
</linearGradient>
<linearGradient id="paint38_linear_846_2315" x1="277.331" y1="167.698" x2="206.084" y2="171.831" gradientUnits="userSpaceOnUse">
<stop stop-color="#5761D7"/>
<stop offset="0.07" stop-color="#5471D8"/>
<stop offset="0.28" stop-color="#4D9BDA"/>
<stop offset="0.48" stop-color="#48BDDD"/>
<stop offset="0.67" stop-color="#44D4DE"/>
<stop offset="0.85" stop-color="#42E3DF"/>
<stop offset="1" stop-color="#42E8E0"/>
</linearGradient>
</defs>
</svg>
