<svg width="571" height="579" viewBox="0 0 571 579" fill="none" xmlns="http://www.w3.org/2000/svg">
<g clip-path="url(#clip0_846_1792)">
<g style="mix-blend-mode:lighten">
<path d="M87.1585 397.513C84.938 397.513 82.734 396.921 80.826 395.819L7.87943 353.696C6.72808 353.038 6.05371 351.837 6.05371 350.521C6.05371 349.205 6.74452 348.005 7.87943 347.347L139.874 271.144C140.104 271.012 140.384 271.012 140.614 271.144L141.223 271.489L219.531 316.704C220.683 317.362 221.357 318.547 221.357 319.879C221.357 321.211 220.666 322.395 219.531 323.053L93.5074 395.819C91.5829 396.921 89.3954 397.513 87.1749 397.513H87.1585ZM140.236 272.624L8.60314 348.613C7.91233 349.008 7.50113 349.732 7.50113 350.521C7.50113 351.311 7.91233 352.035 8.60314 352.429L81.5497 394.552C84.938 396.51 89.3625 396.51 92.7507 394.552L218.775 321.787C219.466 321.392 219.877 320.685 219.877 319.879C219.877 319.073 219.466 318.366 218.775 317.971L140.219 272.624H140.236Z" fill="#E5D092"/>
</g>
<path d="M228.97 296.242L221.305 300.238L144.526 255.911C143.244 255.171 140.99 255.27 139.51 256.125L7.08757 332.575C5.82107 331.868 0.0478516 329.088 0.0478516 329.088L2.844 336.391C2.95914 336.72 3.20585 337.016 3.6335 337.263L84.508 383.958C85.7909 384.698 88.0443 384.6 89.5246 383.744L225.039 305.502C225.648 305.156 226.026 304.729 226.174 304.301L228.954 296.258L228.97 296.242Z" fill="url(#paint0_linear_846_1792)"/>
<path d="M227.786 297.508L88.9 377.692C87.3868 378.564 85.0841 378.662 83.7683 377.906L0.887178 330.059C-0.428656 329.302 -0.264177 327.97 1.24903 327.098L140.135 246.915C141.649 246.043 143.951 245.944 145.267 246.701L228.148 294.548C229.464 295.304 229.3 296.637 227.786 297.508Z" fill="url(#paint1_linear_846_1792)"/>
<path d="M227.787 296.702L88.9003 376.886C87.3871 377.757 85.0844 377.856 83.7685 377.1L0.887419 329.252C0.459773 329.006 0.196606 328.693 0.0814703 328.364C-0.132353 328.989 0.130814 329.614 0.887419 330.058L83.7685 377.905C85.0844 378.662 87.3871 378.563 88.9003 377.692L227.787 297.508C228.806 296.916 229.201 296.126 228.954 295.436C228.806 295.88 228.412 296.34 227.787 296.702Z" fill="white"/>
<path d="M47.0078 360.34V358.81C47.0078 358.662 47.0901 358.596 47.2052 358.662L52.5837 361.771C52.6988 361.837 52.781 362.001 52.781 362.149V363.679C52.781 363.827 52.6988 363.893 52.5837 363.827L47.2052 360.718C47.0901 360.652 47.0078 360.488 47.0078 360.34Z" fill="white"/>
<path d="M55.0508 364.977V363.447C55.0508 363.299 55.133 363.233 55.2482 363.299L60.6266 366.408C60.7418 366.473 60.824 366.638 60.824 366.786V368.316C60.824 368.464 60.7418 368.529 60.6266 368.464L55.2482 365.355C55.133 365.289 55.0508 365.125 55.0508 364.977Z" fill="white"/>
<path d="M47.616 340.932L163.031 274.302C163.804 273.858 164.742 273.858 165.515 274.302L206.618 298.086C207.21 298.431 207.21 299.286 206.618 299.615L91.2523 366.213C90.4793 366.657 89.5417 366.657 88.7687 366.213L47.616 342.462C47.0238 342.117 47.0238 341.261 47.616 340.932Z" fill="#B6B7BE"/>
<path d="M47.616 342.461L48.0272 342.708L163.031 276.307C163.804 275.863 164.742 275.863 165.515 276.307L206.207 299.844L206.618 299.598C207.21 299.252 207.21 298.397 206.618 298.068L165.515 274.284C164.742 273.84 163.804 273.84 163.031 274.284L47.616 340.915C47.0238 341.26 47.0238 342.116 47.616 342.444V342.461Z" fill="#DBBD91"/>
<path d="M168.624 280.321L62.3044 341.704L57.041 339.599L164.166 277.738L168.624 280.321Z" fill="#293440"/>
<path d="M179.547 286.637L85.514 340.915L81.0566 338.349L175.089 284.055L179.547 286.637Z" fill="#293440"/>
<path d="M186.668 290.732L75.9574 354.665L71.5 352.083L182.211 288.166L186.668 290.732Z" fill="#293440"/>
<path d="M193.79 294.843L83.0629 358.776L78.6055 356.194L189.333 292.277L193.79 294.843Z" fill="#293440"/>
<path d="M200.913 298.956L90.1859 362.89L85.7285 360.307L196.456 296.391L200.913 298.956Z" fill="#293440"/>
<path d="M62.3054 341.703L57.848 344.269L53.3906 341.703L57.848 339.121L62.3054 341.703Z" fill="#293440"/>
<path d="M90.9254 337.806L68.7865 350.586L64.3291 348.004L86.6325 335.125L90.9254 337.806Z" fill="#293440"/>
<path d="M88.7022 311.062L119.822 293.101C121.039 292.394 121.039 291.259 119.822 290.551L98.538 278.265C97.3209 277.558 95.3471 277.558 94.13 278.265L63.0105 296.226C61.7934 296.933 61.7934 298.068 63.0105 298.775L84.2941 311.062C85.5113 311.769 87.485 311.769 88.7022 311.062Z" fill="url(#paint2_linear_846_1792)"/>
<path d="M63.0271 297.278L94.1466 279.317C95.3637 278.609 97.3375 278.609 98.5546 279.317L119.838 291.603C120.217 291.817 120.463 292.08 120.595 292.36C120.924 291.751 120.677 291.06 119.838 290.567L98.5546 278.28C97.3375 277.573 95.3637 277.573 94.1466 278.28L63.0271 296.242C62.1882 296.735 61.9415 297.426 62.2705 298.034C62.4185 297.755 62.6652 297.508 63.0271 297.278Z" fill="#DBBD91"/>
<path d="M228.758 294.187L211.208 190.022L212.622 189.43L210.501 188.213C210.089 187.95 209.514 187.966 208.872 188.345L68.5549 269.351C67.4035 270.009 66.5318 271.719 66.7292 272.92L84.4271 377.907C84.5258 378.45 84.789 378.812 85.1673 378.976L87.2397 380.177L87.6016 378.236L87.4864 378.269L226.948 297.74C228.1 297.082 228.972 295.371 228.774 294.171L228.758 294.187Z" fill="url(#paint3_linear_846_1792)"/>
<path d="M69.3281 272.198L67.0254 271.178C66.7622 271.77 66.647 272.395 66.7293 272.921L84.4273 377.908C84.526 378.451 84.7891 378.813 85.1674 378.977L87.2399 380.178L87.6017 378.237L87.4866 378.27L94.5427 374.191L69.3445 272.198H69.3281Z" fill="url(#paint4_linear_846_1792)"/>
<path d="M229.137 299.023L88.8196 380.029C87.7341 380.654 86.813 380.292 86.6156 379.174L68.9176 274.187C68.7203 272.986 69.592 271.292 70.7433 270.617L211.061 189.611C212.146 188.986 213.067 189.348 213.265 190.467L230.963 295.454C231.16 296.654 230.288 298.349 229.137 299.023Z" fill="#8C8C8C"/>
<g style="mix-blend-mode:lighten">
<path d="M482.926 397.513C480.689 397.513 478.502 396.921 476.594 395.819L350.57 323.053C349.419 322.395 348.744 321.211 348.744 319.879C348.744 318.547 349.435 317.362 350.57 316.704L429.487 271.144C429.717 271.012 429.997 271.012 430.227 271.144L562.222 347.347C563.373 348.005 564.048 349.205 564.048 350.521C564.048 351.837 563.357 353.038 562.222 353.696L489.275 395.819C487.351 396.921 485.163 397.513 482.943 397.513H482.926ZM429.849 272.624L429.602 272.772L351.294 317.987C350.603 318.382 350.192 319.089 350.192 319.895C350.192 320.701 350.603 321.408 351.294 321.803L477.318 394.569C480.706 396.526 485.13 396.526 488.519 394.569L561.465 352.446C562.156 352.051 562.567 351.327 562.567 350.538C562.567 349.748 562.156 349.025 561.465 348.63L429.832 272.64L429.849 272.624Z" fill="#E5D092"/>
</g>
<path d="M341.113 296.242L348.778 300.238L425.557 255.911C426.84 255.171 429.093 255.27 430.574 256.125L563.012 332.591C564.279 331.884 570.052 329.104 570.052 329.104L567.256 336.407C567.141 336.736 566.894 337.032 566.466 337.279L485.592 383.975C484.309 384.715 482.056 384.616 480.575 383.761L345.061 305.518C344.452 305.173 344.074 304.745 343.926 304.317L341.146 296.274L341.113 296.242Z" fill="url(#paint5_linear_846_1792)"/>
<path d="M342.297 297.508L481.183 377.692C482.696 378.564 484.999 378.662 486.315 377.906L569.196 330.059C570.512 329.302 570.347 327.97 568.834 327.098L429.948 246.915C428.435 246.043 426.132 245.944 424.816 246.701L341.935 294.548C340.619 295.304 340.784 296.637 342.297 297.508Z" fill="url(#paint6_linear_846_1792)"/>
<path d="M342.297 296.702L481.183 376.886C482.696 377.757 484.999 377.856 486.315 377.1L569.196 329.252C569.624 329.006 569.887 328.693 570.002 328.364C570.216 328.989 569.952 329.614 569.196 330.058L486.315 377.905C484.999 378.662 482.696 378.563 481.183 377.692L342.297 297.508C341.277 296.916 340.882 296.126 341.129 295.436C341.277 295.88 341.672 296.34 342.297 296.702Z" fill="white"/>
<path d="M523.076 360.34V358.81C523.076 358.662 522.994 358.596 522.879 358.662L517.5 361.771C517.385 361.837 517.303 362.001 517.303 362.149V363.679C517.303 363.827 517.385 363.893 517.5 363.827L522.879 360.718C522.994 360.652 523.076 360.488 523.076 360.34Z" fill="white"/>
<path d="M515.034 364.977V363.447C515.034 363.299 514.952 363.233 514.837 363.299L509.458 366.408C509.343 366.473 509.261 366.638 509.261 366.786V368.316C509.261 368.464 509.343 368.529 509.458 368.464L514.837 365.355C514.952 365.289 515.034 365.125 515.034 364.977Z" fill="white"/>
<path d="M522.468 340.932L407.053 274.302C406.28 273.858 405.342 273.858 404.569 274.302L363.466 298.086C362.873 298.431 362.873 299.286 363.466 299.615L478.831 366.213C479.604 366.657 480.542 366.657 481.315 366.213L522.468 342.462C523.06 342.117 523.06 341.261 522.468 340.932Z" fill="#B6B7BE"/>
<path d="M522.468 342.461L522.057 342.708L407.053 276.307C406.28 275.863 405.342 275.863 404.569 276.307L363.877 299.844L363.466 299.598C362.873 299.252 362.873 298.397 363.466 298.068L404.569 274.284C405.342 273.84 406.28 273.84 407.053 274.284L522.468 340.915C523.06 341.26 523.06 342.116 522.468 342.444V342.461Z" fill="#DBBD91"/>
<path d="M401.459 280.321L507.778 341.704L513.042 339.599L405.916 277.738L401.459 280.321Z" fill="#293440"/>
<path d="M390.538 286.637L484.571 340.915L489.028 338.349L394.995 284.055L390.538 286.637Z" fill="#293440"/>
<path d="M383.416 290.732L494.127 354.665L498.601 352.083L387.873 288.166L383.416 290.732Z" fill="#293440"/>
<path d="M376.294 294.843L487.021 358.776L491.479 356.194L380.751 292.277L376.294 294.843Z" fill="#293440"/>
<path d="M369.188 298.956L479.899 362.89L484.357 360.307L373.646 296.391L369.188 298.956Z" fill="#293440"/>
<path d="M507.778 341.703L512.236 344.269L516.693 341.703L512.236 339.121L507.778 341.703Z" fill="#293440"/>
<path d="M479.159 337.806L501.315 350.586L505.772 348.004L483.469 335.125L479.159 337.806Z" fill="#293440"/>
<path d="M481.382 311.062L450.262 293.101C449.045 292.394 449.045 291.259 450.262 290.551L471.546 278.265C472.763 277.558 474.737 277.558 475.954 278.265L507.074 296.226C508.291 296.933 508.291 298.068 507.074 298.775L485.79 311.062C484.573 311.769 482.599 311.769 481.382 311.062Z" fill="url(#paint7_linear_846_1792)"/>
<path d="M507.075 297.278L475.955 279.317C474.738 278.609 472.764 278.609 471.547 279.317L450.263 291.603C449.885 291.817 449.638 292.08 449.507 292.36C449.178 291.751 449.425 291.06 450.263 290.567L471.547 278.28C472.764 277.573 474.738 277.573 475.955 278.28L507.075 296.242C507.913 296.735 508.16 297.426 507.831 298.034C507.683 297.755 507.436 297.508 507.075 297.278Z" fill="#DBBD91"/>
<path d="M341.325 294.187L358.875 190.022L357.46 189.43L359.582 188.213C359.993 187.95 360.569 187.966 361.21 188.345L501.528 269.351C502.679 270.009 503.551 271.719 503.353 272.92L485.655 377.907C485.557 378.45 485.293 378.812 484.915 378.976L482.843 380.177L482.481 378.236L482.596 378.269L343.134 297.74C341.983 297.082 341.111 295.371 341.308 294.171L341.325 294.187Z" fill="url(#paint8_linear_846_1792)"/>
<path d="M500.756 272.198L503.058 271.178C503.322 271.77 503.437 272.395 503.354 272.921L485.656 377.908C485.558 378.451 485.295 378.813 484.916 378.977L482.844 380.178L482.482 378.237L482.597 378.27L475.541 374.191L500.739 272.198H500.756Z" fill="url(#paint9_linear_846_1792)"/>
<path d="M340.947 299.023L481.265 380.029C482.35 380.654 483.271 380.292 483.469 379.174L501.167 274.187C501.364 272.986 500.492 271.292 499.341 270.617L359.024 189.611C357.938 188.986 357.017 189.348 356.82 190.467L339.122 295.454C338.924 296.654 339.796 298.349 340.947 299.023Z" fill="#8C8C8C"/>
<path d="M285.041 422.63L154.396 347.2L285.041 271.77L415.687 347.2L285.041 422.63Z" fill="#5C5C5C"/>
<path d="M285.043 402.038L190.072 347.201L285.043 292.363L380.013 347.201L285.043 402.038Z" fill="#8C8C8C"/>
<path d="M285.043 296.081L376.806 349.059L380.013 347.201L285.043 292.363L190.072 347.201L193.28 349.059L285.043 296.081Z" fill="white"/>
<path d="M415.686 347.199V389.964L285.04 465.394V422.629L415.686 347.199Z" fill="url(#paint10_linear_846_1792)"/>
<path d="M154.396 347.199V389.947L285.041 465.394V422.629L154.396 347.199Z" fill="#293440"/>
<g opacity="0.51">
<path d="M163.245 366.41V379.865L276.193 445.081V431.626L163.245 366.41Z" fill="#8C8C8C"/>
</g>
<path d="M285.041 420.178L156.517 345.965L154.396 347.198L285.041 422.629L415.687 347.198L413.566 345.981L285.041 420.178Z" fill="white"/>
<path d="M396.097 377.168V384.816L304.646 437.614V429.966L396.097 377.168Z" fill="#8C8C8C"/>
<path opacity="0.51" d="M154.396 347.199V389.947L285.041 465.394V422.629L154.396 347.199Z" fill="#8C8C8C"/>
<path d="M246.899 420.36L223.247 406.691V409.52L246.899 423.172V420.36Z" fill="#E5D092"/>
<path d="M219.841 404.752L213.427 401.051V403.88L219.825 407.581L219.841 404.752Z" fill="#E5D092"/>
<path d="M189.807 387.43L176.682 379.848V382.677L189.807 390.243V387.43Z" fill="#E5D092"/>
<path d="M201.766 394.338L192.292 388.861V391.674L201.766 397.151V394.338Z" fill="#E5D092"/>
<path d="M210.663 399.47L204.248 395.77V398.582L210.663 402.283V399.47Z" fill="#E5D092"/>
<path d="M285.173 311.197L281.028 308.795L285.173 306.41L289.318 308.795L285.173 311.197Z" fill="#E5D092"/>
<path opacity="0.1" d="M293.48 315.984L289.318 313.582L293.48 311.197L297.625 313.582L293.48 315.984Z" fill="#E5D092"/>
<path opacity="0.4" d="M301.769 320.769L297.624 318.384L301.769 315.982L305.914 318.384L301.769 320.769Z" fill="#E5D092"/>
<path d="M310.074 325.572L305.913 323.171L310.074 320.77L314.219 323.171L310.074 325.572Z" fill="#E5D092"/>
<path opacity="0.4" d="M318.364 330.359L314.219 327.957L318.364 325.572L322.509 327.957L318.364 330.359Z" fill="#E5D092"/>
<path d="M326.671 335.146L322.51 332.761L326.671 330.359L330.816 332.761L326.671 335.146Z" fill="#E5D092"/>
<path d="M334.96 339.933L330.815 337.548L334.96 335.146L339.105 337.548L334.96 339.933Z" fill="#E5D092"/>
<path d="M343.267 344.734L339.105 342.333L343.267 339.932L347.412 342.333L343.267 344.734Z" fill="#E5D092"/>
<path opacity="0.1" d="M351.558 349.521L347.413 347.119L351.558 344.734L355.703 347.119L351.558 349.521Z" fill="#E5D092"/>
<path d="M276.849 315.999L272.704 313.614L276.849 311.213L280.994 313.614L276.849 315.999Z" fill="#E5D092"/>
<path d="M285.139 320.803L280.994 318.401L285.139 316L289.284 318.401L285.139 320.803Z" fill="#E5D092"/>
<path d="M293.445 325.589L289.283 323.188L293.445 320.803L297.589 323.188L293.445 325.589Z" fill="#E5D092"/>
<path d="M301.735 330.376L297.59 327.975L301.735 325.59L305.88 327.975L301.735 330.376Z" fill="#E5D092"/>
<path d="M310.041 335.161L305.88 332.776L310.041 330.375L314.186 332.776L310.041 335.161Z" fill="#E5D092"/>
<path d="M318.33 339.965L314.186 337.563L318.33 335.162L322.475 337.563L318.33 339.965Z" fill="#E5D092"/>
<path d="M326.636 344.751L322.475 342.35L326.636 339.965L330.781 342.35L326.636 344.751Z" fill="#E5D092"/>
<path d="M334.926 349.536L330.781 347.135L334.926 344.75L339.071 347.135L334.926 349.536Z" fill="#E5D092"/>
<path d="M343.216 354.323L339.071 351.939L343.216 349.537L347.377 351.939L343.216 354.323Z" fill="#E5D092"/>
<path d="M268.511 320.818L264.366 318.417L268.511 316.016L272.656 318.417L268.511 320.818Z" fill="#E5D092"/>
<path d="M276.818 325.605L272.656 323.203L276.818 320.818L280.962 323.203L276.818 325.605Z" fill="#E5D092"/>
<path d="M285.108 330.392L280.963 328.007L285.108 325.605L289.253 328.007L285.108 330.392Z" fill="#E5D092"/>
<path opacity="0.1" d="M293.413 335.179L289.252 332.794L293.413 330.393L297.558 332.794L293.413 335.179Z" fill="#E5D092"/>
<path opacity="0.4" d="M301.702 339.981L297.557 337.579L301.702 335.178L305.846 337.579L301.702 339.981Z" fill="#E5D092"/>
<path opacity="0.4" d="M310.009 344.767L305.848 342.365L310.009 339.98L314.154 342.365L310.009 344.767Z" fill="#E5D092"/>
<path d="M318.298 349.554L314.153 347.169L318.298 344.768L322.443 347.169L318.298 349.554Z" fill="#E5D092"/>
<path d="M326.588 354.339L322.443 351.954L326.588 349.553L330.75 351.954L326.588 354.339Z" fill="#E5D092"/>
<path d="M334.896 359.141L330.751 356.739L334.896 354.338L339.041 356.739L334.896 359.141Z" fill="#E5D092"/>
<path opacity="0.4" d="M260.189 325.622L256.027 323.237L260.189 320.836L264.334 323.237L260.189 325.622Z" fill="#E5D092"/>
<path opacity="0.4" d="M268.477 330.409L264.332 328.024L268.477 325.623L272.622 328.024L268.477 330.409Z" fill="#E5D092"/>
<path opacity="0.1" d="M276.784 335.211L272.623 332.81L276.784 330.408L280.929 332.81L276.784 335.211Z" fill="#E5D092"/>
<path d="M285.074 339.997L280.929 337.596L285.074 335.211L289.218 337.596L285.074 339.997Z" fill="#E5D092"/>
<path d="M293.38 344.784L289.219 342.399L293.38 339.998L297.525 342.399L293.38 344.784Z" fill="#E5D092"/>
<path d="M301.671 349.572L297.526 347.187L301.671 344.785L305.816 347.187L301.671 349.572Z" fill="#E5D092"/>
<path opacity="0.4" d="M309.976 354.373L305.814 351.972L309.976 349.57L314.121 351.972L309.976 354.373Z" fill="#E5D092"/>
<path d="M318.267 359.159L314.122 356.758L318.267 354.373L322.412 356.758L318.267 359.159Z" fill="#E5D092"/>
<path d="M326.557 363.945L322.412 361.56L326.557 359.158L330.718 361.56L326.557 363.945Z" fill="#E5D092"/>
<path d="M251.849 330.44L247.704 328.038L251.849 325.637L255.994 328.038L251.849 330.44Z" fill="#E5D092"/>
<path d="M260.155 335.226L255.994 332.824L260.155 330.439L264.3 332.824L260.155 335.226Z" fill="#E5D092"/>
<path d="M268.446 340.013L264.301 337.612L268.446 335.227L272.591 337.612L268.446 340.013Z" fill="#E5D092"/>
<path d="M276.751 344.8L272.59 342.415L276.751 340.014L280.896 342.415L276.751 344.8Z" fill="#E5D092"/>
<path d="M285.039 349.602L280.895 347.2L285.039 344.799L289.184 347.2L285.039 349.602Z" fill="#E5D092"/>
<path d="M293.347 354.388L289.186 351.987L293.347 349.602L297.492 351.987L293.347 354.388Z" fill="#E5D092"/>
<path d="M301.636 359.175L297.491 356.774L301.636 354.389L305.781 356.774L301.636 359.175Z" fill="#E5D092"/>
<path d="M309.926 363.96L305.781 361.575L309.926 359.174L314.087 361.575L309.926 363.96Z" fill="#E5D092"/>
<path d="M318.234 368.762L314.089 366.36L318.234 363.959L322.379 366.36L318.234 368.762Z" fill="#E5D092"/>
<path d="M243.528 335.243L239.366 332.842L243.528 330.457L247.672 332.842L243.528 335.243Z" fill="#E5D092"/>
<path d="M251.818 340.03L247.673 337.646L251.818 335.244L255.963 337.646L251.818 340.03Z" fill="#E5D092"/>
<path opacity="0.4" d="M260.124 344.832L255.963 342.431L260.124 340.029L264.269 342.431L260.124 344.832Z" fill="#E5D092"/>
<path d="M268.412 349.618L264.268 347.217L268.412 344.832L272.557 347.217L268.412 349.618Z" fill="#E5D092"/>
<path opacity="0.1" d="M276.718 354.405L272.557 352.004L276.718 349.619L280.863 352.004L276.718 354.405Z" fill="#E5D092"/>
<path d="M285.009 359.193L280.864 356.808L285.009 354.406L289.154 356.808L285.009 359.193Z" fill="#E5D092"/>
<path d="M293.315 363.994L289.153 361.593L293.298 359.191L297.46 361.593L293.315 363.994Z" fill="#E5D092"/>
<path d="M301.606 368.78L297.461 366.379L301.606 363.994L305.751 366.379L301.606 368.78Z" fill="#E5D092"/>
<path d="M309.896 373.566L305.751 371.164L309.896 368.779L314.057 371.164L309.896 373.566Z" fill="#E5D092"/>
<path d="M235.188 340.046L231.043 337.661L235.188 335.26L239.333 337.661L235.188 340.046Z" fill="#E5D092"/>
<path d="M243.494 344.85L239.333 342.448L243.494 340.047L247.639 342.448L243.494 344.85Z" fill="#E5D092"/>
<path opacity="0.4" d="M251.785 349.636L247.64 347.235L251.785 344.85L255.929 347.235L251.785 349.636Z" fill="#E5D092"/>
<path d="M260.09 354.423L255.929 352.038L260.09 349.637L264.235 352.038L260.09 354.423Z" fill="#E5D092"/>
<path d="M268.378 359.208L264.233 356.823L268.378 354.422L272.523 356.823L268.378 359.208Z" fill="#E5D092"/>
<path opacity="0.1" d="M276.686 364.01L272.524 361.608L276.686 359.207L280.831 361.608L276.686 364.01Z" fill="#E5D092"/>
<path opacity="0.4" d="M284.975 368.796L280.83 366.395L284.975 364.01L289.12 366.395L284.975 368.796Z" fill="#E5D092"/>
<path d="M293.265 373.583L289.12 371.198L293.265 368.797L297.426 371.198L293.265 373.583Z" fill="#E5D092"/>
<path opacity="0.1" d="M301.573 378.368L297.428 375.983L301.573 373.582L305.717 375.983L301.573 378.368Z" fill="#E5D092"/>
<path d="M226.864 344.864L222.703 342.463L226.864 340.078L231.009 342.463L226.864 344.864Z" fill="#E5D092"/>
<path opacity="0.4" d="M235.155 349.652L231.01 347.267L235.155 344.865L239.3 347.267L235.155 349.652Z" fill="#E5D092"/>
<path d="M243.461 354.437L239.3 352.052L243.461 349.65L247.606 352.052L243.461 354.437Z" fill="#E5D092"/>
<path d="M251.749 359.24L247.604 356.839L251.749 354.438L255.894 356.839L251.749 359.24Z" fill="#E5D092"/>
<path d="M260.055 364.027L255.894 361.625L260.055 359.24L264.2 361.625L260.055 364.027Z" fill="#E5D092"/>
<path d="M268.346 368.814L264.201 366.429L268.346 364.027L272.491 366.429L268.346 368.814Z" fill="#E5D092"/>
<path d="M276.635 373.599L272.49 371.214L276.635 368.812L280.796 371.214L276.635 373.599Z" fill="#E5D092"/>
<path opacity="0.4" d="M284.943 378.402L280.798 376.001L284.943 373.6L289.088 376.001L284.943 378.402Z" fill="#E5D092"/>
<path d="M293.233 383.189L289.088 380.787L293.233 378.402L297.394 380.787L293.233 383.189Z" fill="#E5D092"/>
<path d="M218.526 349.669L214.381 347.284L218.526 344.883L222.671 347.284L218.526 349.669Z" fill="#E5D092"/>
<path opacity="0.1" d="M226.831 354.471L222.67 352.069L226.831 349.668L230.976 352.069L226.831 354.471Z" fill="#E5D092"/>
<path d="M235.12 359.259L230.976 356.858L235.12 354.473L239.265 356.858L235.12 359.259Z" fill="#E5D092"/>
<path d="M243.427 364.046L239.266 361.645L243.427 359.26L247.572 361.645L243.427 364.046Z" fill="#E5D092"/>
<path d="M251.716 368.831L247.571 366.446L251.716 364.045L255.861 366.446L251.716 368.831Z" fill="#E5D092"/>
<path d="M260.024 373.633L255.862 371.231L260.024 368.83L264.169 371.231L260.024 373.633Z" fill="#E5D092"/>
<path opacity="0.4" d="M268.313 378.419L264.168 376.018L268.313 373.633L272.458 376.018L268.313 378.419Z" fill="#E5D092"/>
<path d="M276.603 383.206L272.458 380.805L276.603 378.42L280.764 380.805L276.603 383.206Z" fill="#E5D092"/>
<path d="M284.91 387.991L280.765 385.606L284.91 383.205L289.054 385.606L284.91 387.991Z" fill="#E5D092"/>
<path d="M285.041 348.597L154.396 273.167L285.041 197.736L415.687 273.167L285.041 348.597Z" fill="#5C5C5C"/>
<path d="M285.043 328.005L190.072 273.167L285.043 218.33L380.013 273.167L285.043 328.005Z" fill="#8C8C8C"/>
<path d="M285.043 222.047L376.806 275.026L380.013 273.167L285.043 218.33L190.072 273.167L193.28 275.026L285.043 222.047Z" fill="white"/>
<path d="M415.686 273.166V315.931L285.04 391.361V348.596L415.686 273.166Z" fill="url(#paint11_linear_846_1792)"/>
<path d="M154.396 273.166V315.931L285.041 391.361V348.596L154.396 273.166Z" fill="#293440"/>
<g opacity="0.51">
<path d="M163.245 292.379V305.85L276.193 371.049V357.595L163.245 292.379Z" fill="#8C8C8C"/>
</g>
<path d="M285.041 346.147L156.517 271.934L154.396 273.167L285.041 348.597L415.687 273.167L413.566 271.95L285.041 346.147Z" fill="white"/>
<path d="M396.097 303.135V310.783L304.646 363.581V355.933L396.097 303.135Z" fill="#8C8C8C"/>
<path opacity="0.51" d="M154.396 273.166V315.931L285.041 391.361V348.596L154.396 273.166Z" fill="#8C8C8C"/>
<path d="M246.899 346.326L223.247 332.658V335.487L246.899 349.155V346.326Z" fill="#E5D092"/>
<path d="M219.841 330.718L213.427 327.018V329.847L219.825 333.547L219.841 330.718Z" fill="#E5D092"/>
<path d="M189.807 313.399L176.682 305.816V308.645L189.807 316.212V313.399Z" fill="#E5D092"/>
<path d="M201.766 320.307L192.292 314.83V317.643L201.766 323.12V320.307Z" fill="#E5D092"/>
<path d="M210.663 325.439L204.248 321.738V324.567L210.663 328.268V325.439Z" fill="#E5D092"/>
<path d="M285.173 237.163L281.028 234.762L285.173 232.377L289.318 234.762L285.173 237.163Z" fill="#E5D092"/>
<path opacity="0.1" d="M293.48 241.95L289.318 239.565L293.48 237.164L297.625 239.565L293.48 241.95Z" fill="#E5D092"/>
<path opacity="0.4" d="M301.769 246.736L297.624 244.351L301.769 241.949L305.914 244.351L301.769 246.736Z" fill="#E5D092"/>
<path d="M310.074 251.539L305.913 249.138L310.074 246.736L314.219 249.138L310.074 251.539Z" fill="#E5D092"/>
<path opacity="0.4" d="M318.364 256.325L314.219 253.924L318.364 251.539L322.509 253.924L318.364 256.325Z" fill="#E5D092"/>
<path d="M326.671 261.113L322.51 258.728L326.671 256.326L330.816 258.728L326.671 261.113Z" fill="#E5D092"/>
<path d="M334.96 265.898L330.815 263.513L334.96 261.111L339.105 263.513L334.96 265.898Z" fill="#E5D092"/>
<path d="M343.267 270.699L339.105 268.298L343.267 265.896L347.412 268.298L343.267 270.699Z" fill="#E5D092"/>
<path opacity="0.1" d="M351.558 275.486L347.413 273.084L351.558 270.699L355.703 273.084L351.558 275.486Z" fill="#E5D092"/>
<path d="M276.849 241.966L272.704 239.581L276.849 237.18L280.994 239.581L276.849 241.966Z" fill="#E5D092"/>
<path d="M285.139 246.77L280.994 244.368L285.139 241.967L289.284 244.368L285.139 246.77Z" fill="#E5D092"/>
<path d="M293.445 251.556L289.283 249.154L293.445 246.77L297.589 249.154L293.445 251.556Z" fill="#E5D092"/>
<path opacity="0.8" d="M301.735 256.343L297.59 253.942L301.735 251.557L305.88 253.942L301.735 256.343Z" fill="#FF2C9C"/>
<path d="M310.041 261.128L305.88 258.743L310.041 256.342L314.186 258.743L310.041 261.128Z" fill="#E5D092"/>
<path d="M318.33 265.932L314.186 263.53L318.33 261.129L322.475 263.53L318.33 265.932Z" fill="#E5D092"/>
<path opacity="0.8" d="M326.636 270.718L322.475 268.317L326.636 265.932L330.781 268.317L326.636 270.718Z" fill="url(#paint12_radial_846_1792)"/>
<path d="M334.926 275.503L330.781 273.102L334.926 270.717L339.071 273.102L334.926 275.503Z" fill="#E5D092"/>
<path opacity="0.8" d="M343.216 280.288L339.071 277.903L343.216 275.502L347.377 277.903L343.216 280.288Z" fill="#FF2C9C"/>
<path d="M268.511 246.784L264.366 244.383L268.511 241.998L272.656 244.383L268.511 246.784Z" fill="#E5D092"/>
<path opacity="0.8" d="M276.818 251.572L272.656 249.17L276.818 246.785L280.962 249.17L276.818 251.572Z" fill="#FF2C9C"/>
<path d="M285.108 256.357L280.963 253.972L285.108 251.57L289.253 253.972L285.108 256.357Z" fill="#E5D092"/>
<path opacity="0.1" d="M293.413 261.16L289.252 258.759L293.413 256.357L297.558 258.759L293.413 261.16Z" fill="#E5D092"/>
<path opacity="0.4" d="M301.702 265.947L297.557 263.545L301.702 261.16L305.846 263.545L301.702 265.947Z" fill="#E5D092"/>
<path opacity="0.4" d="M310.009 270.734L305.848 268.332L310.009 265.947L314.154 268.332L310.009 270.734Z" fill="#E5D092"/>
<path d="M318.298 275.519L314.153 273.134L318.298 270.732L322.443 273.134L318.298 275.519Z" fill="#E5D092"/>
<path d="M326.588 280.32L322.443 277.919L326.588 275.518L330.75 277.919L326.588 280.32Z" fill="#E5D092"/>
<path d="M334.896 285.107L330.751 282.705L334.896 280.32L339.041 282.705L334.896 285.107Z" fill="#E5D092"/>
<path opacity="0.4" d="M260.189 251.589L256.027 249.204L260.189 246.803L264.334 249.204L260.189 251.589Z" fill="#E5D092"/>
<path opacity="0.4" d="M268.477 256.376L264.332 253.991L268.477 251.59L272.622 253.991L268.477 256.376Z" fill="#E5D092"/>
<path opacity="0.1" d="M276.784 261.178L272.623 258.776L276.784 256.375L280.929 258.776L276.784 261.178Z" fill="#E5D092"/>
<path d="M285.074 265.964L280.929 263.563L285.074 261.178L289.218 263.563L285.074 265.964Z" fill="#E5D092"/>
<path d="M293.38 270.751L289.219 268.366L293.38 265.965L297.525 268.366L293.38 270.751Z" fill="#E5D092"/>
<path opacity="0.8" d="M301.671 275.536L297.526 273.151L301.671 270.75L305.816 273.151L301.671 275.536Z" fill="#FF2C9C"/>
<path opacity="0.4" d="M309.976 280.34L305.814 277.938L309.976 275.537L314.121 277.938L309.976 280.34Z" fill="#E5D092"/>
<path d="M318.267 285.126L314.122 282.725L318.267 280.34L322.412 282.725L318.267 285.126Z" fill="#E5D092"/>
<path d="M326.557 289.913L322.412 287.528L326.557 285.127L330.718 287.528L326.557 289.913Z" fill="#E5D092"/>
<path opacity="0.8" d="M251.849 256.408L247.704 254.007L251.849 251.605L255.994 254.007L251.849 256.408Z" fill="#FF2C9C"/>
<path d="M260.155 261.195L255.994 258.793L260.155 256.408L264.3 258.793L260.155 261.195Z" fill="#E5D092"/>
<path d="M268.446 265.982L264.301 263.597L268.446 261.195L272.591 263.597L268.446 265.982Z" fill="#E5D092"/>
<path d="M276.751 270.769L272.59 268.384L276.751 265.982L280.896 268.384L276.751 270.769Z" fill="#E5D092"/>
<path opacity="0.8" d="M285.039 275.57L280.895 273.169L285.039 270.768L289.184 273.169L285.039 275.57Z" fill="#FF2C9C"/>
<path opacity="0.8" d="M293.347 280.357L289.186 277.955L293.347 275.57L297.492 277.955L293.347 280.357Z" fill="#FF2C9C"/>
<path d="M301.636 285.144L297.491 282.759L301.636 280.357L305.781 282.759L301.636 285.144Z" fill="#E5D092"/>
<path d="M309.926 289.929L305.781 287.544L309.926 285.143L314.087 287.544L309.926 289.929Z" fill="#E5D092"/>
<path d="M318.234 294.731L314.089 292.329L318.234 289.928L322.379 292.329L318.234 294.731Z" fill="#E5D092"/>
<path d="M243.528 261.21L239.366 258.809L243.528 256.424L247.672 258.809L243.528 261.21Z" fill="#E5D092"/>
<path d="M251.818 265.997L247.673 263.612L251.818 261.211L255.963 263.612L251.818 265.997Z" fill="#E5D092"/>
<path opacity="0.4" d="M260.124 270.799L255.963 268.397L260.124 265.996L264.269 268.397L260.124 270.799Z" fill="#E5D092"/>
<path opacity="0.8" d="M268.412 275.585L264.268 273.184L268.412 270.799L272.557 273.184L268.412 275.585Z" fill="#FF2C9C"/>
<path opacity="0.1" d="M276.718 280.372L272.557 277.971L276.718 275.586L280.863 277.971L276.718 280.372Z" fill="#E5D092"/>
<path d="M285.009 285.159L280.864 282.774L285.009 280.373L289.154 282.774L285.009 285.159Z" fill="#E5D092"/>
<path d="M293.315 289.961L289.153 287.56L293.298 285.158L297.46 287.56L293.315 289.961Z" fill="#E5D092"/>
<path opacity="0.8" d="M301.606 294.747L297.461 292.346L301.606 289.961L305.751 292.346L301.606 294.747Z" fill="#FF2C9C"/>
<path d="M309.896 299.532L305.751 297.131L309.896 294.746L314.057 297.131L309.896 299.532Z" fill="#E5D092"/>
<path d="M235.187 266.029L231.042 263.628L235.187 261.227L239.332 263.628L235.187 266.029Z" fill="#E5D092"/>
<path d="M243.493 270.816L239.332 268.414L243.493 266.029L247.638 268.414L243.493 270.816Z" fill="#E5D092"/>
<path opacity="0.4" d="M251.784 275.603L247.639 273.201L251.784 270.816L255.928 273.201L251.784 275.603Z" fill="#E5D092"/>
<path d="M260.089 280.388L255.928 278.003L260.089 275.602L264.234 278.003L260.089 280.388Z" fill="#E5D092"/>
<path d="M268.377 285.19L264.232 282.788L268.377 280.387L272.522 282.788L268.377 285.19Z" fill="#E5D092"/>
<path opacity="0.1" d="M276.685 289.976L272.523 287.574L276.685 285.189L280.83 287.574L276.685 289.976Z" fill="#E5D092"/>
<path opacity="0.4" d="M284.974 294.763L280.829 292.362L284.974 289.977L289.119 292.362L284.974 294.763Z" fill="#E5D092"/>
<path d="M293.264 299.55L289.119 297.165L293.264 294.764L297.425 297.165L293.264 299.55Z" fill="#E5D092"/>
<path opacity="0.1" d="M301.572 304.352L297.427 301.95L301.572 299.549L305.717 301.95L301.572 304.352Z" fill="#E5D092"/>
<path d="M226.864 270.833L222.703 268.432L226.864 266.047L231.009 268.432L226.864 270.833Z" fill="#E5D092"/>
<path opacity="0.4" d="M235.155 275.62L231.01 273.235L235.155 270.834L239.3 273.235L235.155 275.62Z" fill="#E5D092"/>
<path d="M243.461 280.405L239.3 278.021L243.461 275.619L247.606 278.021L243.461 280.405Z" fill="#E5D092"/>
<path d="M251.749 285.209L247.604 282.808L251.749 280.406L255.894 282.808L251.749 285.209Z" fill="#E5D092"/>
<path d="M260.055 289.995L255.894 287.594L260.055 285.209L264.2 287.594L260.055 289.995Z" fill="#E5D092"/>
<path d="M268.346 294.782L264.201 292.398L268.346 289.996L272.491 292.398L268.346 294.782Z" fill="#E5D092"/>
<path d="M276.635 299.568L272.49 297.183L276.635 294.781L280.796 297.183L276.635 299.568Z" fill="#E5D092"/>
<path opacity="0.4" d="M284.943 304.369L280.798 301.968L284.943 299.566L289.088 301.968L284.943 304.369Z" fill="#E5D092"/>
<path d="M293.233 309.155L289.088 306.754L293.233 304.369L297.394 306.754L293.233 309.155Z" fill="#E5D092"/>
<path d="M218.526 275.636L214.381 273.251L218.526 270.85L222.671 273.251L218.526 275.636Z" fill="#E5D092"/>
<path opacity="0.1" d="M226.831 280.44L222.67 278.038L226.831 275.637L230.976 278.038L226.831 280.44Z" fill="#E5D092"/>
<path opacity="0.8" d="M235.12 285.226L230.976 282.824L235.12 280.439L239.265 282.824L235.12 285.226Z" fill="#FF2C9C"/>
<path d="M243.427 290.011L239.266 287.61L243.427 285.225L247.572 287.626L243.427 290.011Z" fill="#E5D092"/>
<path d="M251.716 294.798L247.571 292.413L251.716 290.012L255.861 292.413L251.716 294.798Z" fill="#E5D092"/>
<path d="M260.024 299.602L255.862 297.2L260.024 294.799L264.169 297.2L260.024 299.602Z" fill="#E5D092"/>
<path opacity="0.4" d="M268.313 304.386L264.168 301.985L268.313 299.6L272.458 301.985L268.313 304.386Z" fill="#E5D092"/>
<path opacity="0.8" d="M276.603 309.173L272.458 306.788L276.603 304.387L280.764 306.788L276.603 309.173Z" fill="#FF2C9C"/>
<path d="M284.91 313.96L280.765 311.575L284.91 309.174L289.054 311.575L284.91 313.96Z" fill="#E5D092"/>
<g style="mix-blend-mode:lighten">
<path d="M425.692 578.735C423.422 578.735 421.202 578.143 419.244 577.008L344.998 534.145C343.83 533.471 343.14 532.27 343.14 530.921C343.14 529.573 343.83 528.372 344.998 527.698L479.329 450.146C479.559 450.014 479.838 450.014 480.069 450.146L560.384 496.512C561.552 497.187 562.243 498.387 562.243 499.736C562.243 501.085 561.552 502.286 560.384 502.96L432.139 577.008C430.182 578.127 427.962 578.735 425.692 578.735ZM479.707 451.642L345.738 528.98C345.031 529.392 344.62 530.115 344.62 530.938C344.62 531.76 345.048 532.484 345.738 532.895L419.984 575.758C423.438 577.749 427.945 577.749 431.399 575.758L559.644 501.71C560.351 501.299 560.762 500.575 560.762 499.753C560.762 498.93 560.335 498.206 559.644 497.795L479.69 451.642H479.707Z" fill="#E5D092"/>
</g>
<path d="M479.87 420.195L462.008 314.188L463.439 313.58L461.284 312.346C460.873 312.083 460.281 312.099 459.623 312.478L316.822 394.915C315.654 395.589 314.766 397.332 314.963 398.55L332.974 505.395C333.072 505.955 333.335 506.316 333.73 506.481L335.836 507.698L336.197 505.724L336.082 505.757L478.011 423.814C479.179 423.139 480.067 421.396 479.87 420.179V420.195Z" fill="url(#paint13_linear_846_1792)"/>
<path d="M317.612 397.825L315.259 396.789C314.996 397.398 314.865 398.023 314.963 398.549L332.974 505.395C333.073 505.954 333.336 506.316 333.731 506.48L335.836 507.697L336.198 505.724L336.083 505.757L343.27 501.612L317.628 397.809L317.612 397.825Z" fill="url(#paint14_linear_846_1792)"/>
<path d="M480.249 425.113L337.448 507.55C336.346 508.192 335.409 507.813 335.211 506.678L317.201 399.833C316.987 398.615 317.875 396.888 319.059 396.198L461.86 313.761C462.962 313.119 463.9 313.497 464.097 314.632L482.108 421.478C482.322 422.695 481.433 424.422 480.249 425.113Z" fill="#293440"/>
<g opacity="0.51">
<path d="M459.985 320.586L322.349 400.046L339.422 500.674L476.959 421.264L459.985 320.586Z" fill="#8C8C8C"/>
</g>
<path d="M570.021 475.688L562.225 479.751L484.081 434.634C482.781 433.878 480.495 433.976 478.982 434.848L344.207 512.663C342.924 511.94 337.036 509.111 337.036 509.111L339.882 516.545C339.997 516.874 340.26 517.186 340.671 517.433L422.977 564.951C424.276 565.708 426.562 565.609 428.075 564.737L565.991 485.113C566.616 484.751 566.995 484.324 567.143 483.879L569.972 475.688H570.021Z" fill="url(#paint15_linear_846_1792)"/>
<path d="M568.804 476.972L427.466 558.57C425.92 559.459 423.585 559.557 422.236 558.784L337.891 510.082C336.559 509.309 336.723 507.96 338.269 507.072L479.606 425.474C481.152 424.585 483.488 424.487 484.837 425.26L569.182 473.962C570.514 474.735 570.35 476.084 568.804 476.972Z" fill="url(#paint16_linear_846_1792)"/>
<path d="M568.803 476.166L427.466 557.764C425.92 558.652 423.585 558.751 422.236 557.978L337.891 509.275C337.447 509.029 337.184 508.7 337.069 508.371C336.855 509.012 337.118 509.654 337.891 510.098L422.236 558.8C423.568 559.573 425.92 559.474 427.466 558.586L568.803 476.988C569.84 476.38 570.251 475.59 570.004 474.883C569.856 475.343 569.461 475.804 568.803 476.182V476.166Z" fill="white"/>
<path d="M384.832 540.923V539.377C384.832 539.229 384.914 539.163 385.029 539.229L390.49 542.387C390.605 542.452 390.687 542.617 390.687 542.765V544.311C390.687 544.459 390.605 544.525 390.49 544.459L385.029 541.301C384.914 541.235 384.832 541.071 384.832 540.923Z" fill="white"/>
<path d="M393.008 545.642V544.095C393.008 543.947 393.09 543.882 393.205 543.947L398.666 547.105C398.781 547.171 398.863 547.336 398.863 547.484V549.03C398.863 549.178 398.781 549.244 398.666 549.178L393.205 546.02C393.09 545.954 393.008 545.79 393.008 545.642Z" fill="white"/>
<path d="M359.881 505.542L477.336 437.728C478.125 437.284 479.079 437.284 479.869 437.728L521.696 461.922C522.305 462.268 522.288 463.14 521.696 463.485L404.291 531.267C403.501 531.711 402.547 531.711 401.758 531.267L359.881 507.105C359.273 506.76 359.273 505.888 359.881 505.542Z" fill="#B6B7BE"/>
<path d="M359.881 507.104L360.309 507.35L477.353 439.782C478.142 439.338 479.096 439.338 479.885 439.782L521.285 463.73L521.713 463.484C522.321 463.138 522.321 462.267 521.713 461.921L479.885 437.726C479.096 437.266 478.142 437.266 477.353 437.726L359.898 505.541C359.289 505.886 359.289 506.758 359.898 507.104H359.881Z" fill="#DBBD91"/>
<path d="M483.029 443.862L381.003 502.762L376.463 500.147L478.489 441.23L483.029 443.862Z" fill="#293440"/>
<path d="M494.148 450.277L398.454 505.526L393.914 502.911L489.608 447.662L494.148 450.277Z" fill="#293440"/>
<path d="M501.386 454.455L388.717 519.507L384.178 516.891L496.862 451.84L501.386 454.455Z" fill="#293440"/>
<path d="M508.64 458.633L395.955 523.701L391.432 521.069L504.1 456.018L508.64 458.633Z" fill="#293440"/>
<path d="M515.875 462.826L403.207 527.878L398.667 525.263L511.335 460.211L515.875 462.826Z" fill="#293440"/>
<path d="M374.834 506.314L370.295 508.946L365.755 506.314L370.295 503.699L374.834 506.314Z" fill="#293440"/>
<path d="M390.837 509.918L381.413 515.362L376.873 512.747L386.298 507.303L390.837 509.918Z" fill="#293440"/>
<path d="M481.859 521.958L513.537 503.668C514.771 502.961 514.771 501.793 513.537 501.086L491.875 488.585C490.642 487.878 488.635 487.878 487.385 488.585L455.706 506.875C454.473 507.583 454.473 508.75 455.706 509.458L477.368 521.958C478.602 522.665 480.609 522.665 481.859 521.958Z" fill="url(#paint17_linear_846_1792)"/>
<path d="M455.725 507.911L487.403 489.621C488.637 488.914 490.644 488.914 491.894 489.621L513.556 502.121C513.934 502.335 514.181 502.615 514.329 502.878C514.658 502.253 514.411 501.546 513.556 501.052L491.894 488.552C490.66 487.845 488.654 487.845 487.403 488.552L455.725 506.842C454.87 507.335 454.623 508.043 454.952 508.668C455.1 508.388 455.346 508.125 455.725 507.911Z" fill="#DBBD91"/>
<g opacity="0.11">
<mask id="mask0_846_1792" style="mask-type:luminance" maskUnits="userSpaceOnUse" x="322" y="320" width="155" height="181">
<path d="M459.982 320.586L322.346 400.046L339.419 500.674L476.956 421.264L459.982 320.586Z" fill="white"/>
</mask>
<g mask="url(#mask0_846_1792)">
<path d="M479.752 425.31L338.415 506.908C336.869 507.796 334.533 507.895 333.184 507.122L248.839 458.42C247.507 457.647 247.671 456.298 249.218 455.41L390.555 373.812C392.101 372.923 394.436 372.825 395.785 373.598L480.13 422.3C481.462 423.073 481.298 424.422 479.752 425.31Z" fill="url(#paint18_linear_846_1792)"/>
<path d="M337.987 439.933L369.665 421.643C370.899 420.935 370.899 419.767 369.665 419.06L348.003 406.56C346.77 405.852 344.763 405.852 343.513 406.56L311.834 424.85C310.601 425.557 310.601 426.725 311.834 427.432L333.496 439.933C334.73 440.64 336.737 440.64 337.987 439.933Z" fill="url(#paint19_linear_846_1792)"/>
<path d="M311.835 425.901L343.514 407.611C344.747 406.904 346.754 406.904 348.004 407.611L369.666 420.112C370.044 420.326 370.291 420.605 370.439 420.868C370.768 420.243 370.521 419.536 369.666 419.043L348.004 406.542C346.771 405.835 344.764 405.835 343.514 406.542L311.835 424.832C310.98 425.326 310.733 426.033 311.062 426.658C311.21 426.378 311.457 426.115 311.835 425.901Z" fill="#DBBD91"/>
<path d="M297.919 468.517L415.374 400.702C416.163 400.258 417.117 400.258 417.907 400.702L459.734 424.897C460.343 425.243 460.326 426.114 459.734 426.46L342.329 494.242C341.539 494.686 340.585 494.686 339.796 494.242L297.919 470.08C297.311 469.734 297.311 468.862 297.919 468.517Z" fill="#B6B7BE"/>
<path d="M297.92 470.08L298.348 470.327L415.392 402.759C416.181 402.315 417.135 402.315 417.925 402.759L459.324 426.707L459.752 426.46C460.36 426.115 460.36 425.243 459.752 424.898L417.925 400.703C417.135 400.242 416.181 400.242 415.392 400.703L297.937 468.518C297.328 468.863 297.328 469.735 297.937 470.08H297.92Z" fill="#DBBD91"/>
<path d="M448.78 423.252L346.457 482.333L350.52 484.669L452.842 425.588L448.78 423.252Z" fill="#293440"/>
<path d="M438.006 417.02L340.749 473.173L344.795 475.525L442.052 419.372L438.006 417.02Z" fill="#293440"/>
<path d="M333.481 477.365L324.401 482.612L328.448 484.948L337.543 479.717L333.481 477.365Z" fill="#293440"/>
<path d="M341.506 485.195L335.174 488.847L339.236 491.182L345.552 487.531L341.506 485.195Z" fill="#293440"/>
<path d="M431.246 413.121L317.641 478.715L321.703 481.051L435.309 415.473L431.246 413.121Z" fill="#293440"/>
<path d="M424.502 409.223L310.896 474.817L314.943 477.153L428.549 411.558L424.502 409.223Z" fill="#293440"/>
<path d="M417.743 405.324L304.137 470.919L308.183 473.254L421.789 407.66L417.743 405.324Z" fill="#293440"/>
</g>
</g>
<path d="M374.175 462.317L385.31 455.869L385.639 457.81L374.504 464.241L374.175 462.317Z" fill="#E5D092"/>
<path d="M387.102 454.849L393.171 451.346L393.5 453.27L387.431 456.773L387.102 454.849Z" fill="#E5D092"/>
<path d="M402.613 445.885L407.005 443.352L407.334 445.292L402.942 447.825L402.613 445.885Z" fill="#E5D092"/>
<path d="M399.404 447.745L400.901 446.873L401.23 448.814L399.733 449.669L399.404 447.745Z" fill="#E5D092"/>
<path d="M394.98 450.293L397.711 448.73L398.04 450.655L395.309 452.234L394.98 450.293Z" fill="#E5D092"/>
<path d="M382.99 447.513L387.382 444.98L387.694 446.921L383.303 449.454L382.99 447.513Z" fill="#E5D092"/>
<path d="M372.677 453.484L381.279 448.5L381.608 450.441L373.006 455.408L372.677 453.484Z" fill="#E5D092"/>
<path d="M385.014 422.135L393.616 417.168L393.945 419.092L385.343 424.076L385.014 422.135Z" fill="#E5D092"/>
<path d="M380.588 424.702L383.318 423.123L383.631 425.047L380.917 426.626L380.588 424.702Z" fill="#E5D092"/>
<path d="M386.444 430.983L395.047 426.016L395.376 427.94L386.773 432.924L386.444 430.983Z" fill="#E5D092"/>
<path d="M382.019 433.533L384.749 431.971L385.078 433.895L382.348 435.474L382.019 433.533Z" fill="#E5D092"/>
<path d="M378.664 383.958L362.463 393.317L362.134 391.393L378.335 382.018L378.664 383.958Z" fill="#E5D092"/>
<path d="M384.372 380.653L380.358 382.972L380.046 381.048L384.043 378.729L384.372 380.653Z" fill="#E5D092"/>
<path d="M412.844 378.778L396.642 388.137L396.313 386.212L412.531 376.854L412.844 378.778Z" fill="#E5D092"/>
<path d="M418.567 375.471L414.554 377.79L414.225 375.866L418.238 373.547L418.567 375.471Z" fill="#E5D092"/>
<path d="M367.596 395.21L363.204 397.743L362.875 395.803L367.267 393.27L367.596 395.21Z" fill="#E5D092"/>
<path d="M394.306 389.469L389.914 392.019L389.585 390.078L393.977 387.545L394.306 389.469Z" fill="#E5D092"/>
<path d="M377.89 389.255L369.288 394.223L368.976 392.282L377.578 387.314L377.89 389.255Z" fill="#E5D092"/>
<path d="M382.332 386.69L379.601 388.269L379.272 386.328L382.003 384.766L382.332 386.69Z" fill="#E5D092"/>
<path d="M392.711 380.703L384.108 385.67L383.779 383.745L392.382 378.762L392.711 380.703Z" fill="#E5D092"/>
<path d="M397.135 378.137L394.405 379.716L394.076 377.792L396.807 376.213L397.135 378.137Z" fill="#E5D092"/>
<path d="M393.566 385.06L389.175 387.593L388.846 385.652L393.237 383.119L393.566 385.06Z" fill="#E5D092"/>
<path d="M403.863 379.107L395.261 384.074L394.932 382.133L403.534 377.166L403.863 379.107Z" fill="#E5D092"/>
<path d="M408.287 376.542L405.557 378.121L405.244 376.18L407.958 374.617L408.287 376.542Z" fill="#E5D092"/>
<path d="M372.939 396.97L363.942 402.168L363.63 400.227L372.61 395.029L372.939 396.97Z" fill="#E5D092"/>
<path d="M381.132 392.232L374.635 395.982L374.306 394.058L380.803 390.291L381.132 392.232Z" fill="#E5D092"/>
<path d="M387.216 388.712L382.824 391.245L382.512 389.304L386.887 386.771L387.216 388.712Z" fill="#E5D092"/>
<path d="M429.801 369.007L420.82 374.188L420.491 372.264L429.472 367.066L429.801 369.007Z" fill="#E5D092"/>
<path d="M437.992 364.271L431.495 368.021L431.183 366.08L437.68 362.33L437.992 364.271Z" fill="#E5D092"/>
<path d="M444.094 360.751L439.702 363.284L439.373 361.344L443.765 358.811L444.094 360.751Z" fill="#E5D092"/>
<path d="M426.297 427.365L435.277 422.184L435.606 424.108L426.626 429.306L426.297 427.365Z" fill="#E5D092"/>
<path d="M418.089 432.102L424.586 428.352L424.915 430.292L418.418 434.043L418.089 432.102Z" fill="#E5D092"/>
<path d="M412.005 435.623L416.396 433.09L416.725 435.031L412.334 437.564L412.005 435.623Z" fill="#E5D092"/>
<path d="M423.304 433.961L432.301 428.764L432.613 430.705L423.633 435.886L423.304 433.961Z" fill="#E5D092"/>
<path d="M415.112 438.697L421.609 434.947L421.938 436.872L415.441 440.622L415.112 438.697Z" fill="#E5D092"/>
<path d="M409.027 442.218L413.419 439.686L413.731 441.61L409.356 444.159L409.027 442.218Z" fill="#E5D092"/>
<path d="M387.035 425.786L390.078 424.043L390.407 425.967L387.364 427.727L387.035 425.786Z" fill="#E5D092"/>
<path d="M381.329 429.093L385.342 426.773L385.671 428.714L381.658 431.017L381.329 429.093Z" fill="#E5D092"/>
<path d="M373.729 401.361L364.749 406.542L364.42 404.617L373.417 399.42L373.729 401.361Z" fill="#E5D092"/>
<path d="M381.936 396.624L375.439 400.375L375.11 398.434L381.607 394.684L381.936 396.624Z" fill="#E5D092"/>
<path d="M388.022 393.103L383.631 395.636L383.302 393.695L387.693 391.162L388.022 393.103Z" fill="#E5D092"/>
<path d="M368.531 409.208L365.505 410.968L365.176 409.027L368.202 407.283L368.531 409.208Z" fill="#E5D092"/>
<path d="M374.239 405.917L370.242 408.237L369.913 406.296L373.926 403.977L374.239 405.917Z" fill="#E5D092"/>
<path d="M382.414 401.197L375.95 404.93L375.621 402.99L382.085 399.256L382.414 401.197Z" fill="#E5D092"/>
<path d="M391.165 437.973L394.208 436.213L394.537 438.154L391.494 439.897L391.165 437.973Z" fill="#E5D092"/>
<path d="M385.456 441.264L389.469 438.945L389.798 440.886L385.785 443.205L385.456 441.264Z" fill="#E5D092"/>
<path d="M377.299 445.984L383.763 442.25L384.075 444.191L377.628 447.925L377.299 445.984Z" fill="#E5D092"/>
<path d="M395.787 430.802L402.251 427.068L402.58 428.993L396.116 432.726L395.787 430.802Z" fill="#E5D092"/>
<path d="M385.227 436.56L393.928 431.527L394.256 433.452L385.556 438.485L385.227 436.56Z" fill="#E5D092"/>
<path d="M380.801 439.109L383.515 437.547L383.844 439.471L381.13 441.05L380.801 439.109Z" fill="#E5D092"/>
<path d="M376.542 441.575L379.272 439.996L379.601 441.92L376.871 443.5L376.542 441.575Z" fill="#E5D092"/>
<path d="M377.134 416.608L385.736 411.641L386.065 413.565L377.463 418.549L377.134 416.608Z" fill="#E5D092"/>
<path d="M372.709 419.173L375.423 417.594L375.752 419.518L373.038 421.097L372.709 419.173Z" fill="#E5D092"/>
<path d="M377.725 411.409L380.751 409.666L381.08 411.59L378.054 413.35L377.725 411.409Z" fill="#E5D092"/>
<path d="M388.433 414.963L391.475 413.203L391.788 415.128L388.762 416.887L388.433 414.963Z" fill="#E5D092"/>
<path d="M392.759 412.463L400.045 408.252L400.374 410.193L393.088 414.387L392.759 412.463Z" fill="#E5D092"/>
<path d="M401.328 407.512L405.654 405.012L405.983 406.936L401.657 409.436L401.328 407.512Z" fill="#E5D092"/>
<path d="M372.018 414.716L376.014 412.396L376.343 414.337L372.347 416.657L372.018 414.716Z" fill="#E5D092"/>
<path d="M371.639 410.176L374.665 408.416L374.994 410.357L371.968 412.117L371.639 410.176Z" fill="#E5D092"/>
<path d="M365.915 413.481L369.928 411.162L370.257 413.087L366.244 415.406L365.915 413.481Z" fill="#E5D092"/>
<path d="M384.024 417.495L386.755 415.916L387.084 417.857L384.353 419.436L384.024 417.495Z" fill="#E5D092"/>
<path d="M379.78 419.947L382.511 418.385L382.84 420.309L380.109 421.888L379.78 419.947Z" fill="#E5D092"/>
<path d="M400.721 442.152L410.014 436.773L410.326 438.714L401.033 444.093L400.721 442.152Z" fill="#E5D092"/>
<path d="M390.309 448.172L399.01 443.139L399.338 445.063L390.638 450.096L390.309 448.172Z" fill="#E5D092"/>
<path d="M385.886 450.721L388.6 449.158L388.929 451.083L386.198 452.662L385.886 450.721Z" fill="#E5D092"/>
<path d="M381.624 453.188L384.354 451.609L384.683 453.534L381.953 455.113L381.624 453.188Z" fill="#E5D092"/>
<path d="M379.306 454.521L373.435 457.926L373.764 459.851L379.635 456.462L379.306 454.521Z" fill="#E5D092"/>
<g opacity="0.8">
<path d="M144.398 579.001C142.095 579.001 139.825 578.392 137.835 577.241L9.57418 503.192C8.32414 502.469 7.58398 501.186 7.58398 499.755C7.58398 498.324 8.32414 497.024 9.57418 496.317L90.3829 449.654L90.8763 449.934L225.207 527.486C226.457 528.21 227.197 529.493 227.197 530.924C227.197 532.354 226.457 533.654 225.207 534.361L150.961 577.224C148.97 578.376 146.701 578.984 144.398 578.984V579.001ZM138.822 575.53C142.21 577.471 146.602 577.471 149.974 575.53L224.203 532.667C224.828 532.305 225.207 531.664 225.207 530.94C225.207 530.216 224.828 529.575 224.203 529.213L90.3664 451.941L90.2348 452.006L10.5446 498.011C9.91959 498.373 9.54129 499.015 9.54129 499.738C9.54129 500.462 9.91959 501.103 10.5446 501.465L138.806 575.514L138.822 575.53Z" fill="url(#paint20_linear_846_1792)"/>
</g>
<path d="M90.217 420.195L108.079 314.188L106.648 313.58L108.803 312.346C109.214 312.083 109.806 312.099 110.464 312.478L253.265 394.915C254.433 395.589 255.321 397.332 255.124 398.55L237.113 505.395C237.015 505.955 236.752 506.316 236.357 506.481L234.252 507.698L233.89 505.724L234.005 505.757L92.0756 423.814C90.9078 423.139 90.0196 421.396 90.217 420.179V420.195Z" fill="url(#paint21_linear_846_1792)"/>
<path d="M252.477 397.825L254.829 396.789C255.092 397.398 255.224 398.023 255.125 398.549L237.115 505.395C237.016 505.954 236.753 506.316 236.358 506.48L234.253 507.697L233.891 505.724L234.006 505.757L226.818 501.612L252.461 397.809L252.477 397.825Z" fill="url(#paint22_linear_846_1792)"/>
<path d="M89.8397 425.113L232.641 507.55C233.743 508.192 234.68 507.813 234.878 506.678L252.888 399.833C253.102 398.615 252.214 396.888 251.029 396.198L108.229 313.761C107.127 313.119 106.189 313.497 105.992 314.632L87.9811 421.478C87.7673 422.695 88.6555 424.422 89.8397 425.113Z" fill="#293440"/>
<g opacity="0.51">
<path d="M110.106 320.586L247.742 400.046L230.686 500.674L93.1318 421.264L110.106 320.586Z" fill="#8C8C8C"/>
</g>
<path d="M0.0839844 475.69L7.8803 479.753L86.0244 434.636C87.3238 433.88 89.6101 433.978 91.1233 434.85L225.898 512.665C227.181 511.942 233.069 509.113 233.069 509.113L230.223 516.547C230.108 516.876 229.845 517.188 229.434 517.435L147.128 564.953C145.829 565.71 143.543 565.611 142.03 564.739L4.08083 485.115C3.45581 484.753 3.07751 484.325 2.92948 483.881L0.100432 475.69H0.0839844Z" fill="url(#paint23_linear_846_1792)"/>
<path d="M1.28497 476.972L142.622 558.57C144.168 559.459 146.504 559.557 147.852 558.784L232.197 510.082C233.53 509.309 233.365 507.96 231.819 507.072L90.4821 425.474C88.936 424.585 86.6004 424.487 85.2516 425.26L0.906664 473.962C-0.425619 474.735 -0.261139 476.084 1.28497 476.972Z" fill="url(#paint24_linear_846_1792)"/>
<path d="M1.28496 476.167L142.622 557.765C144.168 558.653 146.504 558.752 147.852 557.979L232.197 509.276C232.642 509.03 232.905 508.701 233.02 508.372C233.234 509.013 232.97 509.655 232.197 510.099L147.852 558.801C146.52 559.574 144.168 559.475 142.622 558.587L1.28496 476.973C0.248736 476.364 -0.162462 475.574 0.0842565 474.867C0.232288 475.328 0.627038 475.788 1.28496 476.167Z" fill="white"/>
<path d="M185.256 540.923V539.377C185.256 539.229 185.174 539.163 185.058 539.229L179.598 542.387C179.483 542.452 179.4 542.617 179.4 542.765V544.311C179.4 544.459 179.483 544.525 179.598 544.459L185.058 541.301C185.174 541.235 185.256 541.071 185.256 540.923Z" fill="white"/>
<path d="M177.08 545.642V544.095C177.08 543.947 176.998 543.882 176.883 543.947L171.422 547.105C171.307 547.171 171.225 547.336 171.225 547.484V549.03C171.225 549.178 171.307 549.244 171.422 549.178L176.883 546.02C176.998 545.954 177.08 545.79 177.08 545.642Z" fill="white"/>
<path d="M210.207 505.542L92.7527 437.728C91.9632 437.284 91.0093 437.284 90.2197 437.728L48.3927 461.922C47.7841 462.268 47.8005 463.14 48.3927 463.485L165.798 531.267C166.587 531.711 167.541 531.711 168.331 531.267L210.207 507.105C210.816 506.76 210.816 505.888 210.207 505.542Z" fill="#B6B7BE"/>
<path d="M210.207 507.104L209.779 507.35L92.7354 439.782C91.9459 439.338 90.992 439.338 90.2025 439.782L48.803 463.73L48.3754 463.484C47.7668 463.138 47.7668 462.267 48.3754 461.921L90.2025 437.726C90.992 437.266 91.9459 437.266 92.7354 437.726L210.19 505.541C210.799 505.886 210.799 506.758 210.19 507.104H210.207Z" fill="#DBBD91"/>
<path d="M96.8955 449.521L196.307 506.924L200.6 504.177L101.452 446.922L96.8955 449.521Z" fill="#293440"/>
<path d="M90.4297 458.649L180.696 510.756L183.788 507.302L94.9693 456.018L90.4297 458.649Z" fill="#293440"/>
<path d="M68.7021 454.455L181.37 519.507L185.91 516.891L73.2253 451.84L68.7021 454.455Z" fill="#293440"/>
<path d="M61.4512 458.633L174.136 523.701L178.676 521.069L65.9908 456.018L61.4512 458.633Z" fill="#293440"/>
<path d="M54.2129 462.828L166.881 527.88L171.421 525.264L58.7525 460.213L54.2129 462.828Z" fill="#293440"/>
<path d="M195.254 506.314L199.794 508.946L204.333 506.314L199.794 503.699L195.254 506.314Z" fill="#293440"/>
<path d="M179.25 509.918L188.675 515.362L193.214 512.747L183.79 507.303L179.25 509.918Z" fill="#293440"/>
<path d="M88.2289 521.956L56.5502 503.666C55.3166 502.959 55.3166 501.791 56.5502 501.084L78.2121 488.583C79.4457 487.876 81.4524 487.876 82.7024 488.583L114.381 506.873C115.615 507.581 115.615 508.748 114.381 509.456L92.7192 521.956C91.4856 522.663 89.4789 522.663 88.2289 521.956Z" fill="url(#paint25_linear_846_1792)"/>
<path d="M114.364 507.911L82.6856 489.621C81.452 488.914 79.4454 488.914 78.1953 489.621L56.5334 502.121C56.1551 502.335 55.9084 502.615 55.7603 502.878C55.4314 502.253 55.6781 501.546 56.5334 501.052L78.1953 488.552C79.4289 487.845 81.4356 487.845 82.6856 488.552L114.364 506.842C115.22 507.335 115.466 508.043 115.137 508.668C114.989 508.388 114.743 508.125 114.364 507.911Z" fill="#DBBD91"/>
<g opacity="0.11">
<mask id="mask1_846_1792" style="mask-type:luminance" maskUnits="userSpaceOnUse" x="93" y="320" width="155" height="181">
<path d="M110.107 320.586L247.743 400.046L230.687 500.674L93.1328 421.264L110.107 320.586Z" fill="white"/>
</mask>
<g mask="url(#mask1_846_1792)">
<path d="M90.3369 425.31L231.69 506.908C233.236 507.796 235.572 507.895 236.921 507.122L321.266 458.42C322.598 457.647 322.434 456.298 320.887 455.41L179.55 373.812C178.004 372.923 175.669 372.825 174.32 373.598L89.975 422.3C88.6427 423.073 88.8072 424.422 90.3533 425.31H90.3369Z" fill="url(#paint26_linear_846_1792)"/>
<path d="M232.103 439.933L200.424 421.643C199.191 420.935 199.191 419.767 200.424 419.06L222.086 406.56C223.32 405.852 225.326 405.852 226.576 406.56L258.255 424.85C259.489 425.557 259.489 426.725 258.255 427.432L236.593 439.933C235.36 440.64 233.353 440.64 232.103 439.933Z" fill="url(#paint27_linear_846_1792)"/>
<path d="M258.254 425.901L226.575 407.611C225.342 406.904 223.335 406.904 222.085 407.611L200.423 420.112C200.045 420.326 199.798 420.605 199.65 420.868C199.321 420.243 199.568 419.536 200.423 419.043L222.085 406.542C223.319 405.835 225.325 405.835 226.575 406.542L258.254 424.832C259.109 425.326 259.356 426.033 259.027 426.658C258.879 426.378 258.632 426.115 258.254 425.901Z" fill="#DBBD91"/>
<path d="M272.168 468.521L154.714 400.706C153.924 400.262 152.97 400.262 152.181 400.706L110.354 424.901C109.745 425.246 109.761 426.118 110.354 426.464L227.759 494.245C228.548 494.69 229.502 494.69 230.292 494.245L272.168 470.083C272.777 469.738 272.777 468.866 272.168 468.521Z" fill="#B6B7BE"/>
<path d="M272.168 470.082L271.741 470.329L154.697 402.761C153.908 402.317 152.954 402.317 152.164 402.761L110.765 426.709L110.337 426.462C109.729 426.117 109.729 425.245 110.337 424.9L152.164 400.705C152.954 400.244 153.908 400.244 154.697 400.705L272.152 468.52C272.761 468.865 272.761 469.737 272.152 470.082H272.168Z" fill="#DBBD91"/>
<path d="M121.308 423.256L223.63 482.337L219.568 484.672L117.245 425.591L121.308 423.256Z" fill="#293440"/>
<path d="M132.081 417.021L229.338 473.175L225.292 475.527L128.035 419.374L132.081 417.021Z" fill="#293440"/>
<path d="M236.607 477.369L245.686 482.616L241.64 484.952L232.544 479.721L236.607 477.369Z" fill="#293440"/>
<path d="M228.582 485.199L234.915 488.851L230.852 491.186L224.536 487.535L228.582 485.199Z" fill="#293440"/>
<path d="M138.841 413.125L252.447 478.719L248.384 481.055L134.778 415.477L138.841 413.125Z" fill="#293440"/>
<path d="M145.6 409.227L259.206 474.821L255.143 477.157L141.537 411.562L145.6 409.227Z" fill="#293440"/>
<path d="M152.344 405.328L265.95 470.922L261.904 473.258L148.298 407.664L152.344 405.328Z" fill="#293440"/>
</g>
</g>
<path d="M140.912 357.874L152.064 364.321L152.376 362.38L141.241 355.949L140.912 357.874Z" fill="#E5D092"/>
<path d="M153.839 365.34L159.908 368.844L160.237 366.919L154.168 363.416L153.839 365.34Z" fill="#E5D092"/>
<path d="M169.35 374.306L173.741 376.839L174.07 374.898L169.679 372.365L169.35 374.306Z" fill="#E5D092"/>
<path d="M166.159 372.446L167.656 373.318L167.985 371.377L166.488 370.521L166.159 372.446Z" fill="#E5D092"/>
<path d="M161.734 369.896L164.448 371.458L164.777 369.534L162.047 367.955L161.734 369.896Z" fill="#E5D092"/>
<path d="M149.728 372.677L154.119 375.21L154.448 373.269L150.057 370.736L149.728 372.677Z" fill="#E5D092"/>
<path d="M139.431 366.706L148.033 371.689L148.362 369.749L139.76 364.781L139.431 366.706Z" fill="#E5D092"/>
<path d="M151.768 398.054L160.37 403.021L160.682 401.097L152.08 396.113L151.768 398.054Z" fill="#E5D092"/>
<path d="M147.326 395.489L150.057 397.068L150.385 395.143L147.655 393.564L147.326 395.489Z" fill="#E5D092"/>
<path d="M153.197 389.206L161.8 394.174L162.128 392.249L153.526 387.266L153.197 389.206Z" fill="#E5D092"/>
<path d="M148.772 386.658L151.486 388.22L151.815 386.296L149.101 384.717L148.772 386.658Z" fill="#E5D092"/>
<path d="M145.418 436.232L129.2 426.873L128.871 428.797L145.089 438.173L145.418 436.232Z" fill="#E5D092"/>
<path d="M151.125 439.538L147.112 437.219L146.783 439.143L150.797 441.462L151.125 439.538Z" fill="#E5D092"/>
<path d="M179.597 441.414L163.395 432.055L163.066 433.979L179.268 443.354L179.597 441.414Z" fill="#E5D092"/>
<path d="M185.304 444.718L181.291 442.398L180.979 444.323L184.975 446.642L185.304 444.718Z" fill="#E5D092"/>
<path d="M134.348 424.982L129.957 422.449L129.628 424.39L134.02 426.923L134.348 424.982Z" fill="#E5D092"/>
<path d="M161.06 430.721L156.669 428.172L156.34 430.113L160.731 432.646L161.06 430.721Z" fill="#E5D092"/>
<path d="M144.645 430.936L136.043 425.969L135.714 427.91L144.316 432.877L144.645 430.936Z" fill="#E5D092"/>
<path d="M149.068 433.501L146.338 431.922L146.025 433.863L148.739 435.425L149.068 433.501Z" fill="#E5D092"/>
<path d="M159.448 439.489L150.846 434.521L150.517 436.446L159.119 441.43L159.448 439.489Z" fill="#E5D092"/>
<path d="M163.872 442.054L161.158 440.475L160.829 442.399L163.559 443.978L163.872 442.054Z" fill="#E5D092"/>
<path d="M160.305 435.131L155.913 432.598L155.584 434.538L159.976 437.071L160.305 435.131Z" fill="#E5D092"/>
<path d="M170.617 441.084L162.015 436.117L161.686 438.058L170.288 443.025L170.617 441.084Z" fill="#E5D092"/>
<path d="M175.041 443.649L172.31 442.07L171.981 444.011L174.712 445.574L175.041 443.649Z" fill="#E5D092"/>
<path d="M139.678 423.22L130.697 418.039L130.368 419.963L139.349 425.161L139.678 423.22Z" fill="#E5D092"/>
<path d="M147.886 427.959L141.39 424.209L141.061 426.15L147.557 429.9L147.886 427.959Z" fill="#E5D092"/>
<path d="M153.97 431.478L149.578 428.945L149.249 430.886L153.641 433.419L153.97 431.478Z" fill="#E5D092"/>
<path d="M196.556 451.183L187.559 446.002L187.246 447.926L196.227 453.124L196.556 451.183Z" fill="#E5D092"/>
<path d="M204.746 455.92L198.249 452.17L197.92 454.111L204.417 457.861L204.746 455.92Z" fill="#E5D092"/>
<path d="M210.831 459.439L206.439 456.906L206.127 458.847L210.502 461.38L210.831 459.439Z" fill="#E5D092"/>
<path d="M193.034 392.826L202.015 398.007L202.344 396.082L193.363 390.885L193.034 392.826Z" fill="#E5D092"/>
<path d="M184.844 388.089L191.341 391.839L191.67 389.899L185.173 386.148L184.844 388.089Z" fill="#E5D092"/>
<path d="M178.758 384.568L183.133 387.101L183.462 385.16L179.07 382.627L178.758 384.568Z" fill="#E5D092"/>
<path d="M190.058 386.231L199.038 391.429L199.367 389.488L190.387 384.307L190.058 386.231Z" fill="#E5D092"/>
<path d="M181.865 381.493L188.362 385.243L188.675 383.318L182.178 379.568L181.865 381.493Z" fill="#E5D092"/>
<path d="M175.765 377.972L180.156 380.505L180.485 378.581L176.094 376.031L175.765 377.972Z" fill="#E5D092"/>
<path d="M153.79 394.404L156.816 396.147L157.145 394.223L154.119 392.463L153.79 394.404Z" fill="#E5D092"/>
<path d="M148.082 391.098L152.079 393.417L152.408 391.477L148.395 389.174L148.082 391.098Z" fill="#E5D092"/>
<path d="M140.483 418.83L131.503 413.648L131.174 415.573L140.154 420.77L140.483 418.83Z" fill="#E5D092"/>
<path d="M148.675 423.567L142.178 419.816L141.865 421.757L148.362 425.507L148.675 423.567Z" fill="#E5D092"/>
<path d="M154.776 427.086L150.385 424.553L150.056 426.494L154.447 429.027L154.776 427.086Z" fill="#E5D092"/>
<path d="M135.285 410.985L132.242 409.225L131.913 411.165L134.956 412.909L135.285 410.985Z" fill="#E5D092"/>
<path d="M140.994 414.272L136.98 411.953L136.651 413.894L140.665 416.213L140.994 414.272Z" fill="#E5D092"/>
<path d="M149.152 418.995L142.688 415.262L142.375 417.203L148.823 420.936L149.152 418.995Z" fill="#E5D092"/>
<path d="M157.919 382.215L160.945 383.975L161.274 382.034L158.248 380.291L157.919 382.215Z" fill="#E5D092"/>
<path d="M152.211 378.927L156.208 381.246L156.537 379.305L152.523 376.986L152.211 378.927Z" fill="#E5D092"/>
<path d="M144.036 374.206L150.5 377.94L150.829 375.999L144.365 372.266L144.036 374.206Z" fill="#E5D092"/>
<path d="M162.539 389.387L169.003 393.121L169.316 391.197L162.868 387.463L162.539 389.387Z" fill="#E5D092"/>
<path d="M151.964 383.631L160.681 388.664L161.01 386.74L152.293 381.707L151.964 383.631Z" fill="#E5D092"/>
<path d="M147.538 381.081L150.268 382.644L150.597 380.72L147.867 379.141L147.538 381.081Z" fill="#E5D092"/>
<path d="M143.296 378.614L146.026 380.193L146.355 378.268L143.625 376.689L143.296 378.614Z" fill="#E5D092"/>
<path d="M143.869 403.581L152.471 408.549L152.8 406.624L144.198 401.641L143.869 403.581Z" fill="#E5D092"/>
<path d="M139.447 401.016L142.178 402.595L142.507 400.671L139.776 399.092L139.447 401.016Z" fill="#E5D092"/>
<path d="M144.462 408.781L147.505 410.524L147.834 408.6L144.791 406.84L144.462 408.781Z" fill="#E5D092"/>
<path d="M155.188 405.244L158.214 406.987L158.543 405.063L155.516 403.303L155.188 405.244Z" fill="#E5D092"/>
<path d="M159.514 407.727L166.784 411.938L167.113 409.997L159.843 405.803L159.514 407.727Z" fill="#E5D092"/>
<path d="M168.082 412.678L172.408 415.178L172.737 413.254L168.411 410.754L168.082 412.678Z" fill="#E5D092"/>
<path d="M138.755 405.474L142.768 407.793L143.097 405.852L139.084 403.533L138.755 405.474Z" fill="#E5D092"/>
<path d="M138.377 410.013L141.42 411.773L141.749 409.832L138.706 408.072L138.377 410.013Z" fill="#E5D092"/>
<path d="M132.67 406.708L136.683 409.027L137.012 407.102L132.999 404.783L132.67 406.708Z" fill="#E5D092"/>
<path d="M150.779 402.695L153.51 404.274L153.839 402.333L151.108 400.754L150.779 402.695Z" fill="#E5D092"/>
<path d="M146.534 400.244L149.248 401.823L149.577 399.882L146.863 398.303L146.534 400.244Z" fill="#E5D092"/>
<path d="M167.458 378.038L176.751 383.417L177.08 381.476L167.787 376.098L167.458 378.038Z" fill="#E5D092"/>
<path d="M157.047 372.018L165.764 377.051L166.093 375.127L157.376 370.094L157.047 372.018Z" fill="#E5D092"/>
<path d="M152.623 369.47L155.353 371.033L155.682 369.108L152.952 367.529L152.623 369.47Z" fill="#E5D092"/>
<path d="M148.379 367.003L151.109 368.582L151.422 366.657L148.708 365.078L148.379 367.003Z" fill="#E5D092"/>
<path d="M146.06 365.671L140.172 362.266L140.501 360.342L146.389 363.73L146.06 365.671Z" fill="#E5D092"/>
<path d="M87.0576 443.862L91.5972 446.477L96.1369 443.862L91.5972 441.23L87.0576 443.862Z" fill="#293440"/>
<path d="M75.9404 450.277L85.3651 455.705L89.8883 453.09L80.4801 447.662L75.9404 450.277Z" fill="#293440"/>
<path style="mix-blend-mode:lighten" opacity="0.5" d="M380.012 273.167V0H190.071V273.167L285.042 328.005L380.012 273.167Z" fill="url(#paint28_linear_846_1792)"/>
</g>
<defs>
<linearGradient id="paint0_linear_846_1792" x1="0.0478516" y1="319.943" x2="228.97" y2="319.943" gradientUnits="userSpaceOnUse">
<stop stop-color="#545F71"/>
<stop offset="0.18" stop-color="#293440"/>
<stop offset="0.39" stop-color="#545F71"/>
<stop offset="0.61" stop-color="#293440"/>
<stop offset="0.85" stop-color="#B6B7BE"/>
<stop offset="1" stop-color="#BCBEFF"/>
</linearGradient>
<linearGradient id="paint1_linear_846_1792" x1="76.9589" y1="312.295" x2="306.013" y2="312.295" gradientUnits="userSpaceOnUse">
<stop stop-color="#8C8C8C"/>
<stop offset="0.29" stop-color="#C4C3F6"/>
<stop offset="0.64" stop-color="#D2D2F9"/>
<stop offset="1" stop-color="#E9E9FD"/>
</linearGradient>
<linearGradient id="paint2_linear_846_1792" x1="62.1059" y1="294.663" x2="120.743" y2="294.663" gradientUnits="userSpaceOnUse">
<stop stop-color="#E5D092"/>
<stop offset="0.29" stop-color="#C4C3F6"/>
<stop offset="0.64" stop-color="#D2D2F9"/>
<stop offset="1" stop-color="#E9E9FD"/>
</linearGradient>
<linearGradient id="paint3_linear_846_1792" x1="66.6963" y1="284.105" x2="228.791" y2="284.105" gradientUnits="userSpaceOnUse">
<stop stop-color="#C0BFF6"/>
<stop offset="0.29" stop-color="#C4C3F6"/>
<stop offset="0.64" stop-color="#D2D2F9"/>
<stop offset="1" stop-color="#E9E9FD"/>
</linearGradient>
<linearGradient id="paint4_linear_846_1792" x1="66.6964" y1="325.67" x2="94.5263" y2="325.67" gradientUnits="userSpaceOnUse">
<stop stop-color="#5761D7"/>
<stop offset="0.18" stop-color="#5B65D8"/>
<stop offset="0.39" stop-color="#6A72DE"/>
<stop offset="0.61" stop-color="#8188E8"/>
<stop offset="0.85" stop-color="#A2A6F5"/>
<stop offset="1" stop-color="#BCBEFF"/>
</linearGradient>
<linearGradient id="paint5_linear_846_1792" x1="341.113" y1="319.951" x2="570.052" y2="319.951" gradientUnits="userSpaceOnUse">
<stop stop-color="#545F71"/>
<stop offset="0.18" stop-color="#293440"/>
<stop offset="0.39" stop-color="#545F71"/>
<stop offset="0.61" stop-color="#293440"/>
<stop offset="0.85" stop-color="#B6B7BE"/>
<stop offset="1" stop-color="#BCBEFF"/>
</linearGradient>
<linearGradient id="paint6_linear_846_1792" x1="493.108" y1="-0.00172219" x2="264.054" y2="-0.00172219" gradientUnits="userSpaceOnUse">
<stop stop-color="#8C8C8C"/>
<stop offset="0.29" stop-color="#C4C3F6"/>
<stop offset="0.64" stop-color="#D2D2F9"/>
<stop offset="1" stop-color="#E9E9FD"/>
</linearGradient>
<linearGradient id="paint7_linear_846_1792" x1="507.978" y1="294.663" x2="449.341" y2="294.663" gradientUnits="userSpaceOnUse">
<stop stop-color="#F1CE93"/>
<stop offset="0.29" stop-color="#8C8C8C"/>
<stop offset="0.64" stop-color="#8C8C8C"/>
<stop offset="1" stop-color="#E9E9FD"/>
</linearGradient>
<linearGradient id="paint8_linear_846_1792" x1="503.386" y1="284.105" x2="341.292" y2="284.105" gradientUnits="userSpaceOnUse">
<stop stop-color="#C0BFF6"/>
<stop offset="0.29" stop-color="#C4C3F6"/>
<stop offset="0.64" stop-color="#D2D2F9"/>
<stop offset="1" stop-color="#E9E9FD"/>
</linearGradient>
<linearGradient id="paint9_linear_846_1792" x1="503.387" y1="325.67" x2="475.557" y2="325.67" gradientUnits="userSpaceOnUse">
<stop stop-color="#5761D7"/>
<stop offset="0.18" stop-color="#5B65D8"/>
<stop offset="0.39" stop-color="#6A72DE"/>
<stop offset="0.61" stop-color="#8188E8"/>
<stop offset="0.85" stop-color="#A2A6F5"/>
<stop offset="1" stop-color="#BCBEFF"/>
</linearGradient>
<linearGradient id="paint10_linear_846_1792" x1="350.371" y1="438.995" x2="350.371" y2="349.699" gradientUnits="userSpaceOnUse">
<stop stop-color="#F6E3BF"/>
<stop offset="0.29" stop-color="#BFBFC5"/>
<stop offset="0.64" stop-color="#9797A2"/>
<stop offset="1" stop-color="#5F5F64"/>
</linearGradient>
<linearGradient id="paint11_linear_846_1792" x1="350.371" y1="364.962" x2="350.371" y2="275.666" gradientUnits="userSpaceOnUse">
<stop stop-color="#F6E3BF"/>
<stop offset="0.29" stop-color="#BFBFC5"/>
<stop offset="0.64" stop-color="#9797A2"/>
<stop offset="1" stop-color="#5F5F64"/>
</linearGradient>
<radialGradient id="paint12_radial_846_1792" cx="0" cy="0" r="1" gradientUnits="userSpaceOnUse" gradientTransform="translate(326.636 268.317) scale(3.38828 3.38828)">
<stop stop-color="#FF2C9C"/>
<stop offset="0.03" stop-color="#F52E9F"/>
<stop offset="0.2" stop-color="#C53EB0"/>
<stop offset="0.37" stop-color="#9D4ABE"/>
<stop offset="0.54" stop-color="#7E54C8"/>
<stop offset="0.7" stop-color="#685BD0"/>
<stop offset="0.86" stop-color="#5B5FD5"/>
<stop offset="1" stop-color="#5761D7"/>
</radialGradient>
<linearGradient id="paint13_linear_846_1792" x1="314.93" y1="409.932" x2="479.903" y2="409.932" gradientUnits="userSpaceOnUse">
<stop stop-color="#C0BFF6"/>
<stop offset="0.29" stop-color="#C4C3F6"/>
<stop offset="0.64" stop-color="#D2D2F9"/>
<stop offset="1" stop-color="#E9E9FD"/>
</linearGradient>
<linearGradient id="paint14_linear_846_1792" x1="314.931" y1="452.235" x2="343.27" y2="452.235" gradientUnits="userSpaceOnUse">
<stop stop-color="#B4671F"/>
<stop offset="0.18" stop-color="#D8B55B"/>
<stop offset="0.39" stop-color="#DEB06A"/>
<stop offset="0.61" stop-color="#E8B281"/>
<stop offset="0.85" stop-color="#F5CAA2"/>
<stop offset="0.935" stop-color="#D7CDC3"/>
<stop offset="1" stop-color="#FFE8BC"/>
</linearGradient>
<linearGradient id="paint15_linear_846_1792" x1="337.036" y1="499.801" x2="570.021" y2="499.801" gradientUnits="userSpaceOnUse">
<stop stop-color="#545F71"/>
<stop offset="0.18" stop-color="#293440"/>
<stop offset="0.39" stop-color="#545F71"/>
<stop offset="0.61" stop-color="#293440"/>
<stop offset="0.85" stop-color="#B6B7BE"/>
<stop offset="1" stop-color="#BCBEFF"/>
</linearGradient>
<linearGradient id="paint16_linear_846_1792" x1="415.311" y1="492.022" x2="648.428" y2="492.022" gradientUnits="userSpaceOnUse">
<stop stop-color="#8C8C8C"/>
<stop offset="0.29" stop-color="#545F71"/>
<stop offset="0.64" stop-color="#F1CE93"/>
<stop offset="1" stop-color="#F1CE93"/>
</linearGradient>
<linearGradient id="paint17_linear_846_1792" x1="454.785" y1="505.263" x2="514.458" y2="505.263" gradientUnits="userSpaceOnUse">
<stop stop-color="#C0BFF6"/>
<stop offset="0.29" stop-color="#C4C3F6"/>
<stop offset="0.64" stop-color="#D2D2F9"/>
<stop offset="1" stop-color="#E9E9FD"/>
</linearGradient>
<linearGradient id="paint18_linear_846_1792" x1="326.26" y1="440.36" x2="559.36" y2="440.36" gradientUnits="userSpaceOnUse">
<stop stop-color="#C0BFF6"/>
<stop offset="0.29" stop-color="#C4C3F6"/>
<stop offset="0.64" stop-color="#D2D2F9"/>
<stop offset="1" stop-color="#E9E9FD"/>
</linearGradient>
<linearGradient id="paint19_linear_846_1792" x1="310.913" y1="423.254" x2="370.586" y2="423.254" gradientUnits="userSpaceOnUse">
<stop stop-color="#DBF6BF"/>
<stop offset="0.29" stop-color="#C4C3F6"/>
<stop offset="0.64" stop-color="#D2D2F9"/>
<stop offset="1" stop-color="#E9E9FD"/>
</linearGradient>
<linearGradient id="paint20_linear_846_1792" x1="227.186" y1="514.305" x2="7.57961" y2="514.305" gradientUnits="userSpaceOnUse">
<stop stop-color="#6A4403"/>
<stop offset="0.07" stop-color="#8B6017"/>
<stop offset="0.28" stop-color="#92784C"/>
<stop offset="0.48" stop-color="#F1CE93"/>
<stop offset="0.67" stop-color="#FFD698"/>
<stop offset="0.85" stop-color="#FFC672"/>
<stop offset="1" stop-color="#FFEAC6"/>
</linearGradient>
<linearGradient id="paint21_linear_846_1792" x1="255.157" y1="409.932" x2="90.2006" y2="409.932" gradientUnits="userSpaceOnUse">
<stop stop-color="#BFE2F6"/>
<stop offset="0.29" stop-color="#C3DEF6"/>
<stop offset="0.64" stop-color="#D2D2F9"/>
<stop offset="1" stop-color="#E9E9FD"/>
</linearGradient>
<linearGradient id="paint22_linear_846_1792" x1="255.158" y1="452.235" x2="226.835" y2="452.235" gradientUnits="userSpaceOnUse">
<stop stop-color="#5761D7"/>
<stop offset="0.18" stop-color="#5B65D8"/>
<stop offset="0.39" stop-color="#6A72DE"/>
<stop offset="0.61" stop-color="#8188E8"/>
<stop offset="0.85" stop-color="#A2A6F5"/>
<stop offset="1" stop-color="#BCBEFF"/>
</linearGradient>
<linearGradient id="paint23_linear_846_1792" x1="0.0839844" y1="499.803" x2="233.069" y2="499.803" gradientUnits="userSpaceOnUse">
<stop stop-color="#545F71"/>
<stop offset="0.18" stop-color="#293440"/>
<stop offset="0.39" stop-color="#545F71"/>
<stop offset="0.61" stop-color="#293440"/>
<stop offset="0.85" stop-color="#B6B7BE"/>
<stop offset="1" stop-color="#BCBEFF"/>
</linearGradient>
<linearGradient id="paint24_linear_846_1792" x1="154.777" y1="492.022" x2="-78.323" y2="492.022" gradientUnits="userSpaceOnUse">
<stop stop-color="#F6E0BF" stop-opacity="0.82"/>
<stop offset="0.29" stop-color="#63636A"/>
<stop offset="0.64" stop-color="#888896"/>
<stop offset="1" stop-color="#AEAEBF"/>
</linearGradient>
<linearGradient id="paint25_linear_846_1792" x1="115.302" y1="505.261" x2="55.6456" y2="505.261" gradientUnits="userSpaceOnUse">
<stop stop-color="#C0BFF6"/>
<stop offset="0.29" stop-color="#C4C3F6"/>
<stop offset="0.64" stop-color="#D2D2F9"/>
<stop offset="1" stop-color="#E9E9FD"/>
</linearGradient>
<linearGradient id="paint26_linear_846_1792" x1="243.845" y1="440.36" x2="10.7453" y2="440.36" gradientUnits="userSpaceOnUse">
<stop stop-color="#F6E0BF" stop-opacity="0.82"/>
<stop offset="0.29" stop-color="#63636A"/>
<stop offset="0.64" stop-color="#888896"/>
<stop offset="1" stop-color="#AEAEBF"/>
</linearGradient>
<linearGradient id="paint27_linear_846_1792" x1="259.193" y1="423.254" x2="199.52" y2="423.254" gradientUnits="userSpaceOnUse">
<stop stop-color="#C0BFF6"/>
<stop offset="0.29" stop-color="#C4C3F6"/>
<stop offset="0.64" stop-color="#D2D2F9"/>
<stop offset="1" stop-color="#E9E9FD"/>
</linearGradient>
<linearGradient id="paint28_linear_846_1792" x1="285.042" y1="328.005" x2="285.042" y2="0" gradientUnits="userSpaceOnUse">
<stop stop-color="#42E8E0"/>
<stop stop-color="#137266"/>
<stop offset="0.11" stop-color="#3665BF"/>
<stop offset="0.22" stop-color="#8A7424"/>
<stop offset="0.34" stop-color="#705D1D"/>
<stop offset="0.46" stop-color="#886F2E"/>
<stop offset="0.58" stop-color="#8C7629"/>
<stop offset="0.71" stop-color="#846925"/>
<stop offset="0.85" stop-color="#1A2229" stop-opacity="0"/>
</linearGradient>
<clipPath id="clip0_846_1792">
<rect width="570.085" height="579" fill="white"/>
</clipPath>
</defs>
</svg>
