<svg width="772" height="537" viewBox="0 0 772 537" fill="none" xmlns="http://www.w3.org/2000/svg">
<path d="M767.708 277.714H186.823V393.081H767.708V277.714Z" fill="#A2885D"/>
<path d="M763.729 273.736H182.844V389.104H763.729V273.736Z" fill="#F1CE93"/>
<g filter="url(#filter0_d_1020_308)">
<path d="M190.941 379.362C190.941 377.969 191.079 376.623 191.358 375.324C191.729 373.931 192.148 372.771 192.612 371.843C195.118 371.658 197.114 371.194 198.6 370.451C200.085 369.708 201.291 368.409 202.22 366.552C203.149 364.696 203.937 362.05 204.587 358.615L215.032 305.149C215.681 301.622 215.914 298.976 215.728 297.213C215.542 295.449 214.753 294.195 213.361 293.453C212.061 292.618 210.019 292.108 207.233 291.922C207.14 290.993 207.14 289.879 207.233 288.58C207.326 287.187 207.512 285.795 207.79 284.403C208.997 284.496 210.482 284.588 212.246 284.681C214.103 284.681 216.424 284.728 219.209 284.82C221.994 284.82 225.476 284.82 229.653 284.82C233.83 284.82 238.891 284.82 244.831 284.82H263.352C269.294 284.82 274.26 284.82 278.253 284.82C282.245 284.82 285.54 284.82 288.139 284.82C290.832 284.728 293.014 284.681 294.684 284.681C296.448 284.588 298.027 284.496 299.419 284.403C299.326 285.795 299.14 287.141 298.861 288.44C298.583 289.647 298.258 290.808 297.887 291.922C295.659 292.108 293.848 292.571 292.457 293.314C291.064 294.057 289.949 295.356 289.114 297.213C288.279 298.976 287.489 301.622 286.746 305.149L276.442 358.615C275.793 362.05 275.514 364.696 275.607 366.552C275.793 368.409 276.489 369.708 277.696 370.451C278.995 371.194 280.852 371.658 283.266 371.843C283.637 372.678 283.776 373.793 283.683 375.184C283.683 376.484 283.544 377.877 283.266 379.362C280.759 379.176 277.881 379.037 274.631 378.944C271.383 378.944 268.087 378.944 264.745 378.944C261.31 378.944 257.782 378.944 254.162 378.944C250.634 379.037 247.524 379.176 244.831 379.362C244.831 377.969 244.971 376.623 245.25 375.324C245.621 373.931 246.038 372.771 246.503 371.843C249.102 371.658 251.144 371.194 252.63 370.451C254.116 369.708 255.276 368.409 256.112 366.552C257.039 364.696 257.829 362.05 258.479 358.615L268.783 305.428C269.433 302.364 269.711 299.858 269.618 297.908C269.525 295.96 268.83 294.567 267.53 293.732C266.694 293.082 265.255 292.664 263.213 292.478C261.171 292.293 257.875 292.2 253.326 292.2C248.777 292.2 245.435 292.293 243.3 292.478C241.258 292.664 239.679 293.082 238.565 293.732C236.987 294.567 235.733 295.96 234.805 297.908C233.97 299.858 233.273 302.364 232.716 305.428L222.412 358.615C221.762 362.05 221.53 364.696 221.715 366.552C221.901 368.409 222.597 369.708 223.804 370.451C225.104 371.194 226.961 371.658 229.374 371.843C229.653 372.678 229.792 373.793 229.792 375.184C229.792 376.484 229.653 377.877 229.374 379.362C226.775 379.176 223.851 379.037 220.601 378.944C217.445 378.944 214.149 378.944 210.715 378.944C207.373 378.944 203.891 378.944 200.271 378.944C196.65 379.037 193.54 379.176 190.941 379.362ZM341.376 380.197C331.814 380.197 323.738 377.969 317.146 373.514C310.648 369.058 306.006 362.932 303.221 355.135C300.528 347.245 300.204 338.148 302.247 327.845C303.453 321.347 305.589 315.406 308.652 310.022C311.809 304.546 315.708 299.858 320.349 295.96C324.991 291.968 330.19 288.905 335.946 286.77C341.794 284.635 348.014 283.567 354.606 283.567C363.889 283.567 371.827 285.656 378.418 289.833C385.102 293.917 389.883 299.858 392.761 307.655C395.731 315.452 396.103 324.92 393.875 336.06C392.297 344.414 389.094 351.933 384.266 358.615C379.532 365.299 373.498 370.59 366.164 374.488C358.83 378.294 350.567 380.197 341.376 380.197ZM343.605 372.539C348.989 372.539 353.817 370.961 358.087 367.805C362.358 364.556 365.978 360.147 368.948 354.578C371.92 349.008 374.008 342.603 375.215 335.363C376.793 326.823 376.793 319.258 375.215 312.667C373.73 305.985 370.991 300.74 366.999 296.934C363.008 293.035 358.087 291.086 352.238 291.086C347.225 291.086 342.584 292.664 338.313 295.82C334.136 298.883 330.561 303.153 327.59 308.63C324.62 314.013 322.484 320.14 321.185 327.009C319.978 333.228 319.561 339.076 319.931 344.552C320.302 350.03 321.417 354.903 323.274 359.172C325.13 363.35 327.73 366.645 331.072 369.058C334.506 371.379 338.685 372.539 343.605 372.539ZM398.941 379.362C399.033 377.969 399.172 376.623 399.358 375.324C399.636 374.024 400.008 372.818 400.472 371.704C403.164 371.332 405.16 370.775 406.46 370.033C407.853 369.198 408.874 367.852 409.524 365.995C410.266 364.046 410.963 361.261 411.613 357.641L420.803 304.175C421.36 301.204 421.499 298.883 421.221 297.213C420.942 295.541 420.153 294.335 418.853 293.592C417.553 292.849 415.604 292.293 413.005 291.922C412.448 289.601 412.355 287.094 412.726 284.403C414.769 284.496 417.043 284.588 419.55 284.681C422.056 284.774 424.563 284.82 427.069 284.82C429.576 284.82 431.804 284.82 433.754 284.82C436.446 284.82 439.788 284.774 443.78 284.681C447.865 284.496 452.088 284.403 456.452 284.403C466.663 284.403 473.951 287.28 478.315 293.035C482.771 298.697 484.07 306.634 482.214 316.845C481.193 322.6 478.964 327.659 475.53 332.022C472.095 336.291 467.732 339.633 462.44 342.046C457.148 344.459 451.207 345.667 444.615 345.667C442.759 345.667 441.134 345.528 439.742 345.249C438.442 344.971 437.281 344.599 436.26 344.135C436.167 343.206 436.26 342 436.539 340.515C436.91 338.937 437.281 337.777 437.653 337.034C438.396 337.22 439.231 337.406 440.159 337.591C441.088 337.684 442.109 337.73 443.223 337.73C448.608 337.73 453.157 335.967 456.87 332.439C460.676 328.912 463.229 323.714 464.529 316.845C466.014 309.14 465.457 303.107 462.857 298.744C460.258 294.288 455.384 292.061 448.236 292.061C446.751 292.061 445.265 292.154 443.78 292.339C442.295 292.525 440.67 292.896 438.906 293.453L440.856 290.39L429.437 357.223C428.787 360.844 428.555 363.628 428.741 365.577C428.927 367.433 429.854 368.826 431.526 369.755C433.29 370.59 436.074 371.286 439.88 371.843C440.159 373.05 440.299 374.257 440.299 375.463C440.392 376.577 440.345 377.877 440.159 379.362C436.632 379.176 433.243 379.037 429.994 378.944C426.838 378.944 423.542 378.944 420.106 378.944C416.022 378.944 412.309 378.944 408.967 378.944C405.624 379.037 402.282 379.176 398.941 379.362ZM515.447 291.922C510.341 291.922 506.396 293.314 503.611 296.098C500.919 298.883 498.505 303.385 496.369 309.604C494.606 309.604 492.982 309.465 491.496 309.187C490.103 308.908 488.85 308.305 487.736 307.377C488.479 305.335 489.175 302.968 489.825 300.276C490.567 297.584 491.217 294.845 491.774 292.061C492.332 289.276 492.749 286.723 493.027 284.403C495.999 284.496 499.294 284.588 502.915 284.681C506.628 284.774 510.713 284.82 515.169 284.82C519.625 284.82 524.452 284.82 529.651 284.82C534.85 284.82 539.631 284.82 543.995 284.82C548.451 284.82 552.581 284.774 556.388 284.681C560.287 284.588 563.861 284.496 567.11 284.403C566.553 287.837 566.136 291.643 565.857 295.82C565.579 299.904 565.532 303.989 565.718 308.073C564.418 308.723 562.979 309.14 561.401 309.326C559.916 309.418 558.337 309.418 556.667 309.326C556.481 303.014 555.46 298.558 553.603 295.96C551.839 293.268 548.218 291.922 542.741 291.922H515.447ZM520.878 288.997H538.842L526.588 359.034C526.031 362.004 525.845 364.324 526.031 365.995C526.309 367.666 527.238 368.919 528.815 369.755C530.394 370.59 532.947 371.286 536.474 371.843C536.753 373.05 536.939 374.303 537.032 375.603C537.124 376.809 537.078 378.062 536.893 379.362C533.921 379.176 530.626 379.037 527.005 378.944C523.385 378.944 519.718 378.944 516.004 378.944C511.92 378.944 507.881 378.944 503.889 378.944C499.991 379.037 496.555 379.176 493.585 379.362C493.677 377.784 493.863 376.345 494.142 375.046C494.42 373.746 494.745 372.632 495.116 371.704C498.459 371.24 501.011 370.636 502.775 369.894C504.632 369.058 505.978 367.712 506.814 365.856C507.65 363.907 508.392 361.168 509.041 357.641L520.878 288.997ZM550.532 379.362C550.532 377.969 550.671 376.67 550.949 375.463C551.135 374.257 551.46 373.05 551.924 371.843C553.688 371.379 555.174 370.682 556.38 369.755C557.68 368.733 559.073 367.248 560.558 365.299C562.043 363.257 563.9 360.425 566.128 356.805C569.006 351.886 572.023 346.781 575.179 341.489C578.335 336.198 581.585 330.629 584.927 324.781C588.269 318.934 591.797 312.714 595.51 306.124C599.316 299.44 603.401 292.339 607.764 284.82C608.879 284.45 610.039 284.217 611.246 284.124C612.453 284.031 613.66 283.985 614.866 283.985C617.466 292.618 619.926 301.204 622.247 309.744C624.568 318.191 626.749 326.452 628.792 334.528C630.927 342.603 632.877 350.354 634.64 357.781C635.569 361.586 636.404 364.463 637.147 366.413C637.89 368.269 638.726 369.569 639.653 370.311C640.582 370.961 641.696 371.472 642.996 371.843C643.275 372.864 643.413 374.024 643.413 375.324C643.506 376.623 643.506 377.969 643.413 379.362C641.742 379.176 639.793 379.037 637.565 378.944C635.337 378.944 633.155 378.944 631.02 378.944C628.885 378.944 627.121 378.944 625.728 378.944C624.521 378.944 623.129 378.944 621.551 378.944C620.065 378.944 618.441 378.944 616.677 378.944C615.006 379.037 613.335 379.083 611.664 379.083C609.993 379.176 608.461 379.269 607.068 379.362C607.068 377.969 607.161 376.623 607.347 375.324C607.625 374.024 607.997 372.864 608.461 371.843C612.453 371.286 614.913 370.265 615.842 368.78C616.863 367.295 616.909 364.603 615.98 360.704C614.403 354.021 612.777 347.384 611.107 340.793C609.436 334.11 607.671 327.519 605.815 321.022C604.887 318.052 604.144 315.082 603.587 312.111C603.123 309.048 602.705 305.706 602.334 302.086H604.701C603.03 305.799 601.405 309.187 599.828 312.25C598.249 315.313 596.625 318.423 594.953 321.578C591.612 327.705 588.176 333.878 584.648 340.097C581.214 346.317 577.686 352.489 574.065 358.615C572.302 361.586 571.234 364 570.862 365.856C570.492 367.619 570.816 368.965 571.838 369.894C572.859 370.729 574.483 371.379 576.711 371.843C576.897 372.957 577.036 374.164 577.129 375.463C577.222 376.763 577.129 378.062 576.851 379.362C575.551 379.176 574.065 379.037 572.395 378.944C570.816 378.944 569.192 378.944 567.52 378.944C565.85 378.944 564.225 378.944 562.647 378.944C560.326 378.944 558.191 378.944 556.241 378.944C554.291 379.037 552.388 379.176 550.532 379.362ZM575.458 351.793L578.8 343.578H614.588L615.284 350.819C611.107 350.819 606.744 350.864 602.195 350.957C597.645 350.957 593.05 351.05 588.409 351.236C583.86 351.329 579.542 351.514 575.458 351.793ZM658.36 380.197C655.576 380.197 653.208 379.593 651.258 378.387C649.309 377.18 647.963 375.834 647.22 374.35C647.127 373.05 647.36 371.286 647.917 369.058C648.381 366.738 648.891 364.835 649.448 363.35C651.027 364.092 652.697 364.603 654.461 364.881C656.225 365.16 658.036 365.299 659.892 365.299C663.42 365.299 666.344 364.649 668.665 363.35C670.986 362.05 673.028 359.915 674.793 356.945C675.999 355.459 677.253 353.51 678.552 351.097C679.852 348.591 681.244 345.342 682.73 341.35C684.215 337.359 685.793 332.346 687.465 326.313C689.228 320.279 691.085 312.9 693.034 304.175C693.684 301.019 694.009 298.651 694.009 297.073C694.102 295.402 693.405 294.242 691.921 293.592C690.528 292.849 688.021 292.293 684.401 291.922C684.308 290.993 684.308 289.879 684.401 288.58C684.586 287.187 684.772 285.795 684.958 284.403C688.207 284.496 692.709 284.588 698.465 284.681C704.221 284.774 711.648 284.82 720.746 284.82C727.894 284.82 733.65 284.82 738.013 284.82C742.469 284.728 746.044 284.681 748.736 284.681C751.428 284.588 753.702 284.496 755.559 284.403C755.373 285.795 755.095 287.141 754.723 288.44C754.445 289.647 753.981 290.808 753.331 291.922C750.824 292.108 748.782 292.571 747.204 293.314C745.718 294.057 744.511 295.356 743.584 297.213C742.748 298.976 742.005 301.622 741.355 305.149L730.912 358.615C730.262 362.05 730.029 364.696 730.215 366.552C730.4 368.409 731.097 369.708 732.303 370.451C733.511 371.194 735.321 371.658 737.735 371.843C737.921 372.678 737.921 373.793 737.735 375.184C737.642 376.484 737.456 377.877 737.178 379.362C734.671 379.176 731.793 379.037 728.544 378.944C725.294 378.944 721.999 378.944 718.657 378.944C715.315 378.944 711.834 378.944 708.213 378.944C704.593 379.037 701.436 379.176 698.744 379.362C699.023 377.969 699.347 376.623 699.718 375.324C700.183 373.931 700.647 372.771 701.111 371.843C703.617 371.658 705.613 371.194 707.099 370.451C708.585 369.708 709.792 368.409 710.719 366.552C711.648 364.696 712.437 362.05 713.087 358.615L723.391 305.149C724.227 301.25 724.552 298.466 724.367 296.795C724.274 295.124 723.624 293.917 722.417 293.175C721.303 292.525 719.91 292.108 718.239 291.922C716.568 291.643 715.268 291.504 714.341 291.504C713.133 291.504 711.788 291.643 710.302 291.922C708.816 292.2 707.517 292.571 706.403 293.035C705.382 293.592 704.546 294.335 703.896 295.264C703.339 296.098 702.782 297.305 702.226 298.883C701.761 300.369 701.204 302.457 700.554 305.149C697.49 317.588 694.659 328.309 692.06 337.313C689.461 346.224 686.768 353.649 683.983 359.59C681.29 365.531 678.134 370.311 674.514 373.931C671.357 376.623 668.34 378.34 665.462 379.083C662.678 379.826 660.31 380.197 658.36 380.197Z" fill="#293440"/>
</g>
<g filter="url(#filter1_f_1020_308)">
<path d="M321.06 370.008C296.796 397.056 307.295 399.568 280.319 395.071C268.384 393.081 269.459 385.929 304.188 355.289C330.049 329.431 359.894 265.779 375.805 269.757C382.156 271.345 341.424 339.849 321.06 370.008Z" fill="#550000" fill-opacity="0.52"/>
</g>
<path d="M235.675 168.871C259.141 138.969 283.967 111.832 308.696 89C333.456 66.1409 357.45 48.2148 379.257 36.0593C401.223 23.8155 419.699 18.1378 433.885 17.9583C447.478 17.787 456.547 22.5733 462.454 31.1545C468.835 40.4219 472.51 55.5575 471.316 77.2711C470.132 98.7769 464.256 124.977 453.673 154.461C443.114 183.881 428.203 215.637 409.741 247.889C391.285 280.131 369.705 312.127 346.242 342.025C322.776 371.927 297.951 399.063 273.221 421.896C248.462 444.755 224.468 462.681 202.66 474.837C180.694 487.081 162.218 492.758 148.033 492.937C134.439 493.109 125.37 488.323 119.463 479.742C113.083 470.474 109.407 455.339 110.602 433.625C111.785 412.119 117.661 385.919 128.244 356.436C138.803 327.016 153.714 295.258 172.176 263.007C190.632 230.765 212.212 198.769 235.675 168.871Z" stroke="url(#paint0_radial_1020_308)" stroke-width="26.1911"/>
<g filter="url(#filter2_d_1020_308)">
<path d="M230.607 164.893C254.073 134.99 278.899 107.854 303.628 85.0211C328.388 62.162 352.381 44.2359 374.189 32.0804C396.155 19.8366 414.632 14.1589 428.816 13.9803C442.41 13.8081 451.479 18.5944 457.387 27.1756C463.766 36.443 467.442 51.5786 466.247 73.2922C465.064 94.798 459.188 120.998 448.606 150.482C438.046 179.902 423.135 211.659 404.673 243.911C386.218 276.152 364.637 308.148 341.174 338.047C317.708 367.949 292.882 395.086 268.153 417.917C243.393 440.776 219.4 458.703 197.592 470.858C175.626 483.102 157.15 488.779 142.965 488.959C129.371 489.13 120.303 484.344 114.395 475.763C108.014 466.495 104.339 451.36 105.534 429.646C106.717 408.14 112.593 381.94 123.176 352.457C133.736 323.037 148.646 291.28 167.108 259.028C185.564 226.786 207.144 194.79 230.607 164.893Z" stroke="url(#paint1_radial_1020_308)" stroke-width="26.1911"/>
</g>
<path d="M369.841 122.566H19.719V253.845H369.841V122.566Z" fill="#828282"/>
<path d="M365.863 114.609H15.7402V249.866H365.863V114.609Z" fill="white"/>
<g filter="url(#filter3_d_1020_308)">
<path d="M55.426 233.63C55.6372 231.941 55.8483 230.357 56.0595 228.88C56.3761 227.402 56.7456 226.135 57.1679 225.079C60.9683 224.763 64.0297 224.13 66.3522 223.179C68.7802 222.124 70.7331 220.435 72.2111 218.113C73.689 215.685 74.8503 212.255 75.6947 207.821L87.0959 149.24C87.8349 145.229 88.0988 142.22 87.8877 140.215C87.782 138.21 87.0431 136.784 85.6708 135.94C84.2984 134.99 82.1343 134.409 79.1785 134.199C79.0728 133.143 79.0728 131.876 79.1785 130.398C79.3896 128.815 79.6007 127.232 79.8118 125.649C81.8176 125.754 84.0345 125.86 86.4625 125.965C88.9961 125.965 91.5827 126.018 94.2214 126.123C96.9667 126.123 99.4996 126.123 101.822 126.123C104.145 126.123 106.52 126.123 108.948 126.123C111.482 126.018 113.91 125.965 116.232 125.965C118.66 125.86 120.877 125.754 122.883 125.649C122.671 127.232 122.408 128.763 122.091 130.24C121.88 131.612 121.51 132.932 120.983 134.199C118.132 134.409 115.81 134.937 114.015 135.782C112.326 136.626 110.954 138.104 109.898 140.215C108.948 142.22 108.104 145.229 107.365 149.24L95.4883 210.039C94.7491 213.944 94.4857 216.952 94.6962 219.063C94.9077 221.174 95.6997 222.652 97.0715 223.496C98.5498 224.34 100.661 224.869 103.406 225.079C103.617 226.03 103.617 227.296 103.406 228.88C103.195 230.357 102.931 231.941 102.614 233.63C100.503 233.418 97.2829 233.26 92.9544 233.155C88.6266 233.155 84.1401 233.155 79.4951 233.155C76.3282 233.155 73.2139 233.155 70.1526 233.155C67.0911 233.26 64.2936 233.312 61.76 233.312C59.2264 233.418 57.1151 233.524 55.426 233.63ZM55.2677 187.239C47.7725 187.239 41.9136 186.394 37.691 184.705C33.4683 183.017 30.5125 180.536 28.8234 177.264C27.1344 173.992 26.2898 170.034 26.2898 165.389C26.3954 160.64 26.9232 155.256 27.8733 149.24C28.5067 145.334 28.7706 142.379 28.6651 140.373C28.6651 138.367 28.0317 136.943 26.7649 136.098C25.498 135.148 23.2284 134.515 19.9559 134.199C19.8503 133.143 19.8503 131.876 19.9559 130.398C20.167 128.815 20.3781 127.232 20.5892 125.649C22.595 125.754 24.8119 125.86 27.2399 125.965C29.7735 125.965 32.3598 126.018 34.999 126.123C37.7438 126.123 40.2773 126.123 42.5998 126.123C44.9223 126.123 47.2974 126.123 49.7254 126.123C52.2591 126.018 54.6871 125.965 57.0096 125.965C59.4376 125.86 61.6544 125.754 63.6602 125.649C63.4491 127.232 63.1851 128.763 62.8685 130.24C62.6573 131.612 62.2879 132.932 61.76 134.199C58.9098 134.409 56.5873 134.937 54.7927 135.782C53.1036 136.626 51.7313 138.104 50.6755 140.215C49.7254 142.326 48.8282 145.545 47.9837 149.873C46.7168 156.523 46.3473 161.853 46.8752 165.864C47.4031 169.875 49.0393 172.778 51.7841 174.572C54.6343 176.367 58.8042 177.264 64.2936 177.264C66.616 177.264 69.5191 177.106 73.0028 176.789C76.4865 176.472 79.7591 176.103 82.8205 175.681L81.237 183.914C77.6477 184.864 73.6362 185.656 69.2025 186.289C64.8742 186.923 60.2293 187.239 55.2677 187.239ZM168.688 234.579C157.814 234.579 148.63 232.046 141.135 226.98C133.746 221.913 128.467 214.946 125.3 206.08C122.239 197.108 121.869 186.764 124.192 175.048C125.564 167.659 127.992 160.903 131.476 154.781C135.065 148.553 139.499 143.223 144.777 138.79C150.055 134.251 155.967 130.768 162.512 128.34C169.163 125.912 176.236 124.699 183.731 124.699C194.288 124.699 203.313 127.074 210.809 131.824C218.409 136.468 223.846 143.223 227.118 152.089C230.497 160.956 230.919 171.722 228.385 184.389C226.591 193.889 222.948 202.438 217.46 210.039C212.076 217.638 205.213 223.655 196.874 228.088C188.534 232.416 179.139 234.579 168.688 234.579ZM171.222 225.871C177.344 225.871 182.834 224.077 187.69 220.488C192.546 216.794 196.663 211.78 200.041 205.446C203.419 199.114 205.794 191.83 207.167 183.597C208.961 173.887 208.961 165.284 207.167 157.79C205.478 150.19 202.363 144.226 197.824 139.898C193.284 135.465 187.69 133.248 181.039 133.248C175.339 133.248 170.061 135.043 165.204 138.632C160.454 142.115 156.39 146.97 153.011 153.197C149.633 159.32 147.205 166.286 145.728 174.097C144.355 181.169 143.88 187.819 144.302 194.047C144.724 200.275 145.991 205.816 148.103 210.671C150.214 215.421 153.17 219.168 156.97 221.913C160.876 224.552 165.626 225.871 171.222 225.871ZM230.662 233.63C230.662 232.046 230.82 230.516 231.137 229.037C231.559 227.454 232.034 226.135 232.562 225.079C235.413 224.869 237.682 224.34 239.371 223.496C241.06 222.652 242.433 221.174 243.488 219.063C244.544 216.952 245.441 213.944 246.18 210.039L258.056 149.24C258.795 145.229 259.059 142.22 258.848 140.215C258.636 138.21 257.74 136.784 256.156 135.94C254.678 134.99 252.356 134.409 249.188 134.199C249.083 133.143 249.083 131.876 249.188 130.398C249.294 128.815 249.505 127.232 249.822 125.649C251.194 125.754 252.883 125.86 254.889 125.965C257 125.965 259.64 126.018 262.806 126.123C265.974 126.123 269.932 126.123 274.683 126.123C279.433 126.123 285.187 126.123 291.943 126.123H313.004C319.759 126.123 325.408 126.123 329.947 126.123C334.486 126.123 338.234 126.123 341.189 126.123C344.251 126.018 346.732 125.965 348.631 125.965C350.637 125.86 352.432 125.754 354.015 125.649C353.911 127.232 353.699 128.763 353.382 130.24C353.066 131.612 352.696 132.932 352.274 134.199C349.741 134.409 347.682 134.937 346.098 135.782C344.514 136.626 343.248 138.104 342.298 140.215C341.348 142.22 340.45 145.229 339.606 149.24L327.888 210.039C327.149 213.944 326.832 216.952 326.938 219.063C327.149 221.174 327.941 222.652 329.313 223.496C330.792 224.34 332.902 224.869 335.647 225.079C336.07 226.03 336.227 227.296 336.123 228.88C336.123 230.357 335.964 231.941 335.647 233.63C332.797 233.418 329.525 233.26 325.83 233.155C322.135 233.155 318.388 233.155 314.587 233.155C310.681 233.155 306.669 233.155 302.552 233.155C298.541 233.26 295.004 233.418 291.943 233.63C291.943 232.046 292.101 230.516 292.418 229.037C292.84 227.454 293.315 226.135 293.843 225.079C296.799 224.869 299.121 224.34 300.81 223.496C302.499 222.652 303.819 221.174 304.769 219.063C305.825 216.952 306.722 213.944 307.461 210.039L319.179 149.557C319.918 146.073 320.234 143.223 320.129 141.007C320.024 138.79 319.232 137.206 317.754 136.257C316.803 135.518 315.167 135.043 312.845 134.831C310.523 134.621 306.775 134.515 301.602 134.515C296.43 134.515 292.629 134.621 290.201 134.831C287.879 135.043 286.084 135.518 284.817 136.257C283.022 137.206 281.598 138.79 280.541 141.007C279.592 143.223 278.8 146.073 278.166 149.557L266.448 210.039C265.709 213.944 265.446 216.952 265.656 219.063C265.868 221.174 266.66 222.652 268.032 223.496C269.51 224.34 271.621 224.869 274.366 225.079C274.683 226.03 274.841 227.296 274.841 228.88C274.841 230.357 274.683 231.941 274.366 233.63C271.41 233.418 268.085 233.26 264.39 233.155C260.801 233.155 257.053 233.155 253.148 233.155C249.347 233.155 245.388 233.155 241.271 233.155C237.154 233.26 233.618 233.418 230.662 233.63Z" fill="#293440"/>
</g>
<defs>
<filter id="filter0_d_1020_308" x="173.48" y="283.567" width="599.54" height="131.551" filterUnits="userSpaceOnUse" color-interpolation-filters="sRGB">
<feFlood flood-opacity="0" result="BackgroundImageFix"/>
<feColorMatrix in="SourceAlpha" type="matrix" values="0 0 0 0 0 0 0 0 0 0 0 0 0 0 0 0 0 0 127 0" result="hardAlpha"/>
<feOffset dy="17.4608"/>
<feGaussianBlur stdDeviation="8.73038"/>
<feComposite in2="hardAlpha" operator="out"/>
<feColorMatrix type="matrix" values="0 0 0 0 0 0 0 0 0 0 0 0 0 0 0 0 0 0 0.25 0"/>
<feBlend mode="normal" in2="BackgroundImageFix" result="effect1_dropShadow_1020_308"/>
<feBlend mode="normal" in="SourceGraphic" in2="effect1_dropShadow_1020_308" result="shape"/>
</filter>
<filter id="filter1_f_1020_308" x="264.72" y="260.848" width="120.48" height="144.738" filterUnits="userSpaceOnUse" color-interpolation-filters="sRGB">
<feFlood flood-opacity="0" result="BackgroundImageFix"/>
<feBlend mode="normal" in="SourceGraphic" in2="BackgroundImageFix" result="shape"/>
<feGaussianBlur stdDeviation="4.36519" result="effect1_foregroundBlur_1020_308"/>
</filter>
<filter id="filter2_d_1020_308" x="74.7546" y="0.880371" width="422.272" height="536.1" filterUnits="userSpaceOnUse" color-interpolation-filters="sRGB">
<feFlood flood-opacity="0" result="BackgroundImageFix"/>
<feColorMatrix in="SourceAlpha" type="matrix" values="0 0 0 0 0 0 0 0 0 0 0 0 0 0 0 0 0 0 127 0" result="hardAlpha"/>
<feOffset dy="17.4608"/>
<feGaussianBlur stdDeviation="8.73038"/>
<feComposite in2="hardAlpha" operator="out"/>
<feColorMatrix type="matrix" values="0 0 0 0 0 0 0 0 0 0 0 0 0 0 0 0 0 0 0.25 0"/>
<feBlend mode="normal" in2="BackgroundImageFix" result="effect1_dropShadow_1020_308"/>
<feBlend mode="normal" in="SourceGraphic" in2="effect1_dropShadow_1020_308" result="shape"/>
</filter>
<filter id="filter3_d_1020_308" x="-1.09909" y="124.699" width="376.09" height="151.832" filterUnits="userSpaceOnUse" color-interpolation-filters="sRGB">
<feFlood flood-opacity="0" result="BackgroundImageFix"/>
<feColorMatrix in="SourceAlpha" type="matrix" values="0 0 0 0 0 0 0 0 0 0 0 0 0 0 0 0 0 0 127 0" result="hardAlpha"/>
<feOffset dy="20.9759"/>
<feGaussianBlur stdDeviation="10.4879"/>
<feComposite in2="hardAlpha" operator="out"/>
<feColorMatrix type="matrix" values="0 0 0 0 0 0 0 0 0 0 0 0 0 0 0 0 0 0 0.25 0"/>
<feBlend mode="normal" in2="BackgroundImageFix" result="effect1_dropShadow_1020_308"/>
<feBlend mode="normal" in="SourceGraphic" in2="effect1_dropShadow_1020_308" result="shape"/>
</filter>
<radialGradient id="paint0_radial_1020_308" cx="0" cy="0" r="1" gradientUnits="userSpaceOnUse" gradientTransform="translate(345.405 351.263) rotate(-134.306) scale(614.84 333.076)">
<stop stop-color="#DC8E86"/>
<stop offset="0.15" stop-color="#CF786F"/>
<stop offset="0.55" stop-color="#B85950"/>
<stop offset="0.74" stop-color="#773A34"/>
<stop offset="0.965" stop-color="#7B3636"/>
<stop offset="1" stop-color="#340A0A"/>
</radialGradient>
<radialGradient id="paint1_radial_1020_308" cx="0" cy="0" r="1" gradientUnits="userSpaceOnUse" gradientTransform="translate(340.337 347.284) rotate(-134.306) scale(614.84 333.076)">
<stop stop-color="#DC8E86"/>
<stop offset="0.15" stop-color="#CF786F"/>
<stop offset="0.55" stop-color="#B85950"/>
<stop offset="0.74" stop-color="#773A34"/>
<stop offset="0.965" stop-color="#7B3636"/>
<stop offset="1" stop-color="#340A0A"/>
</radialGradient>
</defs>
</svg>
